<svg width="30" height="30" viewBox="0 0 30 30" fill="none" xmlns="http://www.w3.org/2000/svg">
<g clip-path="url(#clip0_312_460)">
<path d="M16.6322 0.959473C12.1132 0.959473 8.11364 3.2154 5.6927 6.658C6.19373 6.98486 6.68212 7.4331 7.15447 8.00932C8.96055 5.30879 11.8808 3.41408 15.2596 3.00678L16.632 5.32918L18.0044 3.00673C23.1981 3.63266 27.3264 7.7608 27.9527 12.9545L25.6299 14.3271L27.9527 15.6997C27.5341 19.1721 25.5455 22.1615 22.7242 23.9532C22.9039 24.3629 23.0052 24.7818 23.0231 25.2136C23.0362 25.5292 23.0037 25.8274 22.9382 26.1105C27.1377 23.854 30 19.4193 30 14.3273C30 6.95609 24.0034 0.959473 16.6322 0.959473ZM20.0435 22.975C16.9619 20.4984 16.1002 21.7158 14.7019 23.1138C13.7257 24.0904 11.2555 22.0512 9.12246 19.9181C6.98932 17.7847 4.95055 15.3148 5.92663 14.3385C7.32496 12.9404 8.54202 12.0782 6.06471 8.99741C3.58824 5.9155 1.93736 8.28158 0.582899 9.63614C-0.980827 11.1993 0.500498 17.0247 6.25785 22.7829C12.016 28.5404 17.8413 30.0207 19.4041 28.4581C20.7584 27.1035 23.1252 25.4528 20.0435 22.975ZM10.6581 16.4193C10.6581 13.6801 13.865 13.1921 13.865 12.1232C13.865 11.6045 13.4498 11.3868 13.0658 11.3868C12.3601 11.3868 11.9661 12.1752 11.9661 12.1752L10.617 11.2725C10.617 11.2725 11.302 9.67442 13.232 9.67442C14.446 9.67442 15.7639 10.3698 15.7639 11.947C15.7639 14.2611 12.7753 14.7075 12.7233 15.6621H15.8782V17.2185H10.7413C10.6893 16.928 10.6581 16.6688 10.6581 16.4193ZM16.6368 14.3235L19.5012 9.79874H21.7219V13.9187H22.6038V15.4231H21.7219V17.2186H19.9264V15.4231H16.6369V14.3235H16.6368ZM19.9263 13.9186V12.2583C19.9263 11.8535 19.9887 11.4279 19.9887 11.4279H19.9679C19.9679 11.4279 19.8125 11.8847 19.6047 12.196L18.4842 13.898V13.9187L19.9263 13.9186Z" fill="#0175CA"/>
</g>
<defs>
<clipPath id="clip0_312_460">
<rect width="30" height="30" fill="white"/>
</clipPath>
</defs>
</svg>
