<svg width="182" height="106" viewBox="0 0 182 106" fill="none" xmlns="http://www.w3.org/2000/svg">
<path d="M41.533 0.808999H66.844L101.536 104H75.163L68.083 79.22H32.86L24.187 104H0.823L41.533 0.808999ZM39.586 60.281H62.773L60.118 51.077L53.038 25.589H52.153L42.949 51.077L39.586 60.281ZM157.14 96.566C151.476 100.637 142.095 105.416 131.475 105.416C117.669 105.416 108.111 97.097 108.111 83.645C108.111 67.361 123.51 59.219 146.52 59.219H155.547V53.555C155.547 43.997 149.352 41.696 140.502 41.696C132.006 41.696 121.209 43.643 113.067 45.944V27.005C120.501 24.35 134.13 21.695 144.573 21.695C164.751 21.695 178.38 27.89 178.38 49.13V84.707L181.566 104H158.556L157.14 96.566ZM155.547 86.477V70.37H147.228C136.962 70.37 130.767 72.848 130.767 80.105C130.767 86.831 135.369 90.194 142.095 90.194C146.343 90.194 151.299 88.601 155.547 86.477Z" fill="#274479"/>
</svg>
