<svg id="Airline_Complaint" data-name="Airline Complaint" xmlns="http://www.w3.org/2000/svg" width="100.44" height="92.72" viewBox="0 0 100.44 92.72">
  <defs>
    <style>
      .cls-1 {
        fill: #274479;
      }

      .cls-1, .cls-2, .cls-3 {
        fill-rule: evenodd;
      }

      .cls-2 {
        fill: #f36b79;
      }

      .cls-3 {
        fill: #0075c9;
      }
    </style>
  </defs>
  <path id="Shape_45_1" data-name="Shape 45 1" class="cls-1" d="M1722,1833.06h-18.78a4.141,4.141,0,0,0-.87.1v12.36a4.68,4.68,0,0,1-4.68,4.68h-12.36a4.116,4.116,0,0,0-.09.86v65.27a4,4,0,0,0,4,4h60.06a4,4,0,0,0,4-4V1866H1756v50.33a6.735,6.735,0,0,1-6.72,6.72h-60.06a6.728,6.728,0,0,1-6.72-6.72v-65.27a6.68,6.68,0,0,1,1.97-4.75l14-13.99a6.663,6.663,0,0,1,4.75-1.97H1722v2.71Zm-22.36,1.92-12.5,12.51h10.53a1.967,1.967,0,0,0,1.97-1.97v-10.54Z" transform="translate(-1656 -1830.34)"/>
  <path class="cls-2" d="M1737.77,1830.76a15.966,15.966,0,0,0-11.04,23.96l-1.29,4.8a1.6,1.6,0,0,0,1.14,1.95,1.845,1.845,0,0,0,.81,0l4.79-1.3a15.974,15.974,0,1,0,5.59-29.41h0Zm3.31,24.64h-0.74a1.477,1.477,0,0,1-1.48-1.48v-0.74a1.483,1.483,0,0,1,1.48-1.48h0.74a1.483,1.483,0,0,1,1.48,1.48v0.74A1.477,1.477,0,0,1,1741.08,1855.4Zm-0.37-5.92a1.852,1.852,0,0,1-1.85-1.85v-8.14a1.85,1.85,0,0,1,3.7,0v8.14A1.852,1.852,0,0,1,1740.71,1849.48Z" transform="translate(-1656 -1830.34)"/>
  <path class="cls-3" d="M1705.12,1904.68l-14.47-37.96h21.01l31.92,37.44Zm23.56-21.61-11.7,11.69h0a2.159,2.159,0,0,1-1.55.65,2.194,2.194,0,0,1-1.55-.65h0l-6.57-6.57h0a2.192,2.192,0,0,1,3.1-3.1h0l5.02,5.02,10.15-10.14h0a2.192,2.192,0,0,1,3.1,3.1h0Zm-0.09-3.74h0Z" transform="translate(-1656 -1830.34)"/>
  <path class="cls-3" d="M1656,1898.28h35.84v3.1H1656v-3.1Zm15.59-7.81h20.25v3.12h-20.25v-3.12Z" transform="translate(-1656 -1830.34)"/>
</svg>
