<svg id="Airport_suggestion" data-name="Airport suggestion" xmlns="http://www.w3.org/2000/svg" width="73.5" height="93.06" viewBox="0 0 73.5 93.06">
  <defs>
    <style>
      .cls-1 {
        fill: #274479;
      }

      .cls-1, .cls-2, .cls-3 {
        fill-rule: evenodd;
      }

      .cls-2 {
        fill: #00a886;
      }

      .cls-3 {
        fill: #0075c9;
      }
    </style>
  </defs>
  <path id="Shape_45_1" data-name="Shape 45 1" class="cls-1" d="M1711,1991.06h-7.78a4.141,4.141,0,0,0-.87.1v12.36a4.68,4.68,0,0,1-4.68,4.68h-12.36a4.116,4.116,0,0,0-.09.86v65.27a4,4,0,0,0,4,4h60.06a4,4,0,0,0,4-4V2024H1756v50.33a6.735,6.735,0,0,1-6.72,6.72h-60.06a6.728,6.728,0,0,1-6.72-6.72v-65.27a6.68,6.68,0,0,1,1.97-4.75l14-13.99a6.663,6.663,0,0,1,4.75-1.97H1711v2.71Zm-11.36,1.92-12.5,12.51h10.53a1.967,1.967,0,0,0,1.97-1.97v-10.54Z" transform="translate(-1682.5 -1988)"/>
  <path class="cls-2" d="M1731,1994.05a1.314,1.314,0,0,1-1.31-1.31v-3.43a1.31,1.31,0,0,1,2.62,0v3.43A1.314,1.314,0,0,1,1731,1994.05Zm11.5,4.76a1.292,1.292,0,0,1-.93-0.38,1.322,1.322,0,0,1,0-1.86l2.42-2.42a1.315,1.315,0,1,1,1.86,1.86l-2.42,2.42A1.352,1.352,0,0,1,1742.5,1998.81Zm8.19,11.5h-3.43a1.31,1.31,0,0,1,0-2.62h3.43A1.31,1.31,0,0,1,1750.69,2010.31Zm-5.77,13.92a1.292,1.292,0,0,1-.93-0.38l-2.42-2.42a1.315,1.315,0,0,1,1.86-1.86l2.42,2.42a1.322,1.322,0,0,1,0,1.86A1.292,1.292,0,0,1,1744.92,2024.23Zm-27.84,0a1.292,1.292,0,0,1-.93-0.38,1.322,1.322,0,0,1,0-1.86l2.42-2.42a1.315,1.315,0,0,1,1.86,1.86l-2.42,2.42A1.292,1.292,0,0,1,1717.08,2024.23Zm-2.34-13.92h-3.43a1.31,1.31,0,0,1,0-2.62h3.43A1.31,1.31,0,0,1,1714.74,2010.31Zm4.76-11.5a1.309,1.309,0,0,1-.93-0.38l-2.42-2.42a1.315,1.315,0,1,1,1.86-1.86l2.42,2.42A1.31,1.31,0,0,1,1719.5,1998.81Zm16.75,25.94v2.19a3.073,3.073,0,0,1-3.06,3.06h-4.38c-1.47,0-3.06-1.12-3.06-3.57v-1.68h10.5Zm2.47-25.27a12.252,12.252,0,1,0-15.09,19.3,5.28,5.28,0,0,1,2,3.34v0.02a0.254,0.254,0,0,1,.12-0.02h10.5a0.164,0.164,0,0,1,.09.02v-0.02a5.817,5.817,0,0,1,2.24-3.5A12.256,12.256,0,0,0,1738.72,1999.48Zm-13.09,22.64h0.12a0.254,0.254,0,0,0-.12.02v-0.02Zm10.71,0v0.02a0.164,0.164,0,0,0-.09-0.02h0.09Z" transform="translate(-1682.5 -1988)"/>
  <path class="cls-3" d="M1733.14,2070.93h3.74v8.71h-3.74v-8.71Zm-20.12,8.71h3.82v-11.66h22.98v11.66h3.82v-16.63h-30.62v16.63Zm0-25.47h30.62v5.89h-30.62v-5.89Zm0.02-16.17h1.89v-2.95h-9.32v-5.69h-2.94v5.69h-9.31V2038h1.88v2.94h17.8V2038Zm6.74,32.93h3.74v8.71h-3.74v-8.71Zm-9.71,8.71h0v-28.78h2.97v-6.97h-17.8v6.97h2.97v28.78h11.86Zm16.39-8.71h3.74v8.71h-3.74v-8.71Z" transform="translate(-1682.5 -1988)"/>
</svg>
