<svg width="162" height="45" viewBox="0 0 162 45" fill="none" xmlns="http://www.w3.org/2000/svg">
<g clip-path="url(#clip0_135_417)">
<path fill-rule="evenodd" clip-rule="evenodd" d="M119.356 43.7121C120.162 43.7106 120.962 43.5688 121.718 43.2933V44.4917C121.063 44.8364 120.118 45.0011 119.022 45.0011C116.826 45.0011 115.623 43.8324 115.623 41.6303C115.623 39.458 116.842 37.9598 118.823 37.9598C120.911 37.9598 121.9 39.3081 121.9 41.2708V41.87H117.268C117.375 43.1574 118.137 43.7121 119.356 43.7121ZM120.18 40.8964C120.132 39.9076 119.723 39.2486 118.807 39.2486C118.03 39.2486 117.422 39.6674 117.285 40.8964H120.18ZM112.619 40.9564C112.619 39.8478 112.361 39.3684 111.355 39.3684C110.854 39.3684 110.243 39.653 109.725 39.9227V44.8815H108.094V39.7421L107.805 38.1092H109.436L109.587 38.8883C110.26 38.4387 111.187 37.9745 112.163 37.9745C113.488 37.9745 114.267 38.6635 114.267 40.4312V44.8808H112.619V40.9564ZM105.488 36.5815C104.894 36.5815 104.423 36.2371 104.423 35.6379C104.423 35.0386 104.894 34.694 105.488 34.694C106.098 34.694 106.555 35.0384 106.555 35.6379C106.555 36.2373 106.098 36.5815 105.488 36.5815ZM106.266 44.8813H104.636V39.4275H103.599V38.1092H106.266V44.8813ZM101.068 39.3382C100.018 39.3382 99.0873 39.7875 99.0873 41.4656C99.0873 42.9782 99.9276 43.6377 101.222 43.6377C101.774 43.6339 102.319 43.5165 102.822 43.2933V44.5667C102.159 44.8848 101.425 45.0342 100.687 45.0011C98.4932 45.0011 97.3973 43.7277 97.3973 41.6303C97.3973 39.5629 98.647 37.9598 100.886 37.9598C101.552 37.9256 102.217 38.0329 102.837 38.2744V39.7577C102.295 39.4672 101.685 39.3228 101.068 39.3382ZM95.2173 36.5815C94.6232 36.5815 94.1521 36.2371 94.1521 35.6379C94.1521 35.0386 94.6232 34.694 95.2173 34.694C95.828 34.694 96.2848 35.0384 96.2848 35.6379C96.2848 36.2373 95.828 36.5815 95.2173 36.5815ZM95.9937 44.8813H94.3652V39.4275H93.3284V38.1092H95.9937V44.8813ZM90.6158 44.1622C90.0257 44.6875 89.2625 44.9854 88.4666 45.0011C87.2324 45.0011 85.7848 44.1322 85.7848 41.81C85.7848 39.3831 87.4306 37.9598 89.2591 37.9598C89.6779 37.965 90.0957 38.0001 90.5093 38.0648V35.098H92.1544V43.3668L92.4124 44.8794H90.7531L90.6158 44.1622ZM90.5093 39.3684C90.1696 39.2868 89.8219 39.2415 89.4723 39.2334C88.1771 39.2334 87.4762 39.9227 87.4762 41.5705C87.4762 42.9638 87.9944 43.7128 89.0761 43.7128C89.5639 43.7128 89.9448 43.5332 90.5093 43.2034V39.3684ZM82.2187 43.7128C83.0249 43.7113 83.8245 43.5695 84.5805 43.294V44.4924C83.9253 44.8371 82.9806 45.0018 81.8833 45.0018C79.6891 45.0018 78.4852 43.8332 78.4852 41.631C78.4852 39.4587 79.7042 37.9605 81.6852 37.9605C83.7728 37.9605 84.7622 39.3088 84.7622 41.2715V41.8707H80.13C80.2375 43.1574 80.9994 43.7128 82.2187 43.7128ZM83.0414 40.8971C82.9958 39.9083 82.5844 39.2493 81.67 39.2493C80.8929 39.2493 80.2834 39.6681 80.1461 40.8971H83.0414ZM75.1626 41.3625L74.9188 38.9055H74.8426L73.9285 41.3301L72.5724 44.8808H71.1551L69.8904 41.3152L69.0066 38.8134H68.9303L68.6865 41.3453L68.3208 44.8808H66.6448L67.6351 36.1465H69.8904L71.3837 40.3414L72.0389 42.1393H72.1151L72.8162 40.2816L74.3401 36.1465H76.3819L77.3268 44.8808H75.4978L75.1626 41.3625ZM59.9237 40.958C59.9237 39.8494 59.6647 39.37 58.659 39.37C58.156 39.37 57.5465 39.6546 57.0284 39.9243V44.8831H55.398V39.7421L55.1085 38.1092H56.7389L56.8913 38.8883C57.5619 38.4387 58.4914 37.9745 59.4666 37.9745C60.7921 37.9745 61.5694 38.6635 61.5694 40.4312V44.8808H59.9237V40.9557V40.958ZM50.5518 45.003C48.5098 45.003 47.3213 43.9092 47.3213 41.5721C47.3213 39.5797 48.6622 37.9617 50.6888 37.9617C52.8376 37.9617 53.9652 39.0403 53.9652 41.4374C53.9652 43.4133 52.6546 45.0006 50.5518 45.0006V45.003ZM52.2738 41.4972C52.2738 40.3437 52.0146 39.2651 50.6431 39.2651C49.3631 39.2651 49.0128 40.2988 49.0128 41.4823C49.0128 42.7557 49.3936 43.7296 50.6585 43.7296C51.9391 43.7273 52.2738 42.7085 52.2738 41.4949V41.4972ZM45.142 36.5833C44.5477 36.5833 44.0752 36.2389 44.0752 35.6397C44.0752 35.0405 44.5486 34.6959 45.142 34.6959C45.7515 34.6959 46.2086 35.0403 46.2086 35.6397C46.2086 36.2392 45.7515 36.581 45.142 36.581V36.5833ZM45.9191 44.8831H44.2887V39.4275H43.2522V38.1092H45.9189V44.881L45.9191 44.8831ZM40.8902 45.003C39.5949 45.003 38.6652 44.2388 38.6806 42.8006V39.4275H37.4921V38.1092H38.6806V36.3116H40.3263V38.1092H42.6131V39.4275H40.3273V42.5586C40.3427 43.4724 40.8454 43.6672 41.5768 43.6672C41.974 43.6549 42.368 43.5945 42.7501 43.4876V44.7009C42.1582 44.9273 41.5246 45.0294 40.8902 45.0006V45.003ZM34.9017 44.209C34.2636 44.6975 33.4849 44.9754 32.6767 45.003C31.4423 45.003 30.6957 44.2688 30.6957 43.1453C30.6957 41.7669 31.9756 41.0928 33.9565 41.0928H34.7783V40.4645C34.7783 39.5657 34.2145 39.3558 33.4528 39.3558C32.655 39.3806 31.8649 39.5168 31.1062 39.7605V38.3938C31.9573 38.118 32.8462 37.9715 33.7423 37.9594C35.2809 37.9594 36.409 38.4687 36.409 40.1317V43.2928L36.6681 44.8808H35.0387L34.9017 44.209ZM34.7798 42.0066H33.8954C32.8746 42.0066 32.3259 42.2463 32.3259 42.9356C32.3259 43.5348 32.6764 43.8494 33.2859 43.8494C33.8169 43.8163 34.3307 43.6513 34.7793 43.3701L34.7798 42.0066ZM28.5924 36.581C27.9981 36.581 27.5256 36.2366 27.5256 35.6374C27.5256 35.0382 27.999 34.6935 28.5924 34.6935C29.2019 34.6935 29.659 35.0379 29.659 35.6374C29.659 36.2368 29.2019 36.581 28.5924 36.581ZM29.3695 44.8808H27.7389V39.4275H26.7029V38.1092H29.3695V44.8808ZM21.8567 44.8808L19.4489 38.109H21.2777L22.3594 41.6145L22.8328 43.1737H22.9242L23.4423 41.6005L24.6462 38.1099H26.3833L23.7166 44.8817H21.8576L21.8567 44.8808ZM17.5894 44.8808L16.8886 42.529H13.8408L12.9887 44.8813H11.3124L14.7715 36.147H16.5231L19.4792 44.8813L17.5894 44.8808ZM16.2334 40.2515L15.578 37.9894H15.5017L14.679 40.2366L14.3275 41.1654H16.4914L16.2334 40.2515ZM69.1914 28.0185H64.7095L59.0287 12.5885C57.4722 12.9884 55.9426 13.4832 54.4488 14.0702L59.5852 28.0192H54.4206L50.2947 15.9968C43.6456 19.5828 40.0236 24.1048 39.0789 25.3929L38.8702 25.953C37.4388 25.0087 36.3028 23.6917 35.589 22.1491L44.8232 0.0958257H49.3051L53.4116 11.2505C55.0602 11.0201 56.721 10.883 58.3856 10.8397L54.4301 0.0948954H59.5942L63.3087 10.9191C65.8168 11.0669 67.4666 11.3228 67.4666 11.3228C66.1174 11.3906 64.8217 11.5179 63.5743 11.6926L65.0018 15.8527L67.2917 22.5582H67.4865L69.9718 16.0445L75.9153 0.0948954H80.8844L69.1914 28.0185ZM46.7232 5.55609H46.5284L44.043 12.0698L42.8273 15.3319C44.5512 13.8912 46.6936 12.8885 48.9912 12.1999L46.7232 5.55609ZM40.0108 27.5238C40.0445 27.5441 40.0717 27.5732 40.0894 27.6079C40.1071 27.6426 40.1146 27.6815 40.111 27.7202C40.1142 27.7685 40.0982 27.8161 40.0663 27.853C40.0345 27.8898 39.9893 27.9131 39.9403 27.9178L17.134 27.9257C12.6949 27.8251 8.89046 24.3387 8.16308 19.2738L6.60087 8.33184C6.0167 4.23012 3.43335 1.42389 0.0973023 0.354597C0.061961 0.336955 0.0332667 0.308686 0.0153877 0.273908C-0.00249119 0.23913 -0.00861854 0.199657 -0.00210759 0.161218C-0.0020279 0.139702 0.0024621 0.118422 0.0110825 0.0986451C0.019703 0.0788687 0.0322749 0.0609956 0.0480669 0.0460996C0.0638588 0.0312037 0.0825393 0.0195899 0.102994 0.0119405C0.12345 0.00429103 0.14527 0.000767016 0.167139 0.00157908L22.9722 0.00367408C27.4118 0.0858202 31.2198 3.55341 31.946 8.63716L33.5101 19.5791C34.0886 23.6757 36.6769 26.4577 40.0108 27.5238ZM12.2682 23.2375L16.3307 23.2408C16.7831 23.2804 17.2376 23.1927 17.6413 22.9881L26.18 18.5277C26.2765 18.4726 26.2766 18.4323 26.1599 18.4323L25.1212 18.4244C24.9748 18.4212 24.8291 18.4454 24.6918 18.4958L12.2485 23.1607C12.152 23.2003 12.152 23.2375 12.2682 23.2375ZM20.1574 19.3832L17.6704 18.4244C17.5326 18.3769 17.3872 18.354 17.2412 18.3569L16.1998 18.3623C16.0842 18.3646 16.0843 18.4014 16.1811 18.4596L18.866 19.8663L20.1574 19.3832ZM26.6181 10.3625C26.2134 9.99817 25.7744 9.6727 25.3068 9.39044C24.7429 9.02465 24.1509 8.70269 23.536 8.42749C23.3734 8.35186 23.1694 8.26087 23.0096 8.19478C24.0296 7.63664 25.1019 7.17639 26.2117 6.8204C26.2181 6.81885 26.2241 6.81607 26.2295 6.81222C26.2348 6.80837 26.2392 6.80353 26.2427 6.79798C26.2461 6.79242 26.2483 6.78626 26.2493 6.77985C26.2503 6.77343 26.25 6.76689 26.2484 6.76059C26.2454 6.75164 26.2401 6.74361 26.233 6.73733C26.1048 6.59368 25.9448 6.48084 25.7653 6.4075C25.5859 6.33415 25.3917 6.30226 25.1977 6.31426C24.8346 6.36088 24.4753 6.43187 24.1221 6.52673C23.7311 6.61981 23.3445 6.72841 22.9623 6.85252C22.7431 6.92233 22.5256 6.99935 22.3109 7.0829C22.2761 7.09546 22.2399 7.10965 22.2029 7.12362C22.0704 5.9026 21.6891 5.01016 21.2422 5.01528C20.7953 5.01016 20.4137 5.9026 20.2812 7.12362C20.245 7.10965 20.2083 7.09546 20.1733 7.0829C19.9583 6.99935 19.741 6.92326 19.5221 6.85252C19.1397 6.72918 18.7527 6.62059 18.3611 6.52673C18.008 6.43188 17.6487 6.36088 17.2857 6.31426C17.0918 6.30226 16.8976 6.33415 16.7181 6.4075C16.5386 6.48084 16.3786 6.59368 16.2504 6.73733C16.243 6.74283 16.2374 6.75034 16.2343 6.75894C16.2312 6.76755 16.2308 6.77685 16.233 6.7857C16.2353 6.79456 16.2401 6.80256 16.247 6.80873C16.2538 6.8149 16.2623 6.81896 16.2715 6.8204C17.3813 7.17634 18.4536 7.63659 19.4736 8.19478C19.314 8.25994 19.1095 8.35093 18.9471 8.42749C18.3324 8.70284 17.7403 9.0248 17.1764 9.39044C16.7088 9.6727 16.2697 9.99817 15.8651 10.3625C15.6976 10.5329 15.5746 10.7408 15.5069 10.9682C15.4391 11.1956 15.4285 11.4358 15.4759 11.6682C15.477 11.6796 15.4813 11.6904 15.4882 11.6996C15.498 11.7119 15.5122 11.7199 15.5279 11.7222C15.5436 11.7245 15.5596 11.7207 15.5725 11.7117C16.8558 10.9922 18.2103 10.4032 19.6151 9.95382C19.7891 9.89844 20.0355 9.81536 20.2648 9.76254V9.76463C20.3638 14.2829 20.7948 17.7949 21.2412 17.8C21.6876 17.7949 22.1182 14.2829 22.2174 9.76463V9.76254C22.4465 9.81536 22.6931 9.89844 22.8674 9.95382C24.2721 10.4031 25.6266 10.9922 26.9097 11.7117C26.9227 11.7207 26.9387 11.7244 26.9544 11.7221C26.9701 11.7199 26.9844 11.7118 26.9942 11.6996C27.0011 11.6904 27.0053 11.6795 27.0065 11.6682C27.0539 11.4358 27.0433 11.1956 26.9757 10.9682C26.908 10.7407 26.7854 10.533 26.6181 10.3625ZM30.2335 23.1614L23.6693 20.701L22.0654 21.5364L24.8407 22.9876C25.243 23.1932 25.6968 23.2809 26.1483 23.2403L30.2129 23.2371C30.3305 23.2375 30.3303 23.201 30.2335 23.1614Z" fill="#0075C9"/>
<path fill-rule="evenodd" clip-rule="evenodd" d="M160.35 44.8806V35.0978H161.981V44.8806H160.35ZM157.013 44.2058C156.375 44.6944 155.596 44.9723 154.788 44.9998C153.552 44.9998 152.807 44.2656 152.807 43.1421C152.807 41.7637 154.087 41.0896 156.068 41.0896H156.89V40.4613C156.89 39.5626 156.326 39.3526 155.564 39.3526C154.767 39.3773 153.977 39.5135 153.218 39.7573V38.3937C154.07 38.1178 154.959 37.9713 155.855 37.9592C157.394 37.9592 158.521 38.4686 158.521 40.1315V43.2926L158.781 44.8806H157.15L157.013 44.2058ZM156.89 42.0034H156.007C154.987 42.0034 154.437 42.2431 154.437 42.9324C154.437 43.5316 154.788 43.8462 155.396 43.8462C155.927 43.8133 156.441 43.6484 156.89 43.3669V42.0034ZM150.262 44.9998C148.967 44.9998 148.037 44.2356 148.051 42.7974V39.4273H146.863V38.109H148.051V36.3114H149.699V38.109H151.983V39.4273H149.699V42.5584C149.713 43.4723 150.215 43.6671 150.946 43.6671C151.343 43.6548 151.738 43.5945 152.12 43.4874V44.7007C151.529 44.9268 150.896 45.0289 150.262 45.0005V44.9998ZM145.888 39.4567C145.179 39.4798 144.499 39.7326 143.952 40.1757V44.8799H142.323V39.742L142.032 38.109H143.663L143.831 38.9331C144.394 38.4237 145.126 37.9743 145.796 37.9743C146.031 37.9696 146.267 37.9947 146.496 38.049V39.5323C146.298 39.4787 146.093 39.4533 145.888 39.4571V39.4567ZM137.476 44.9998C135.433 44.9998 134.245 43.906 134.245 41.569C134.245 39.5765 135.587 37.9585 137.613 37.9585C139.762 37.9585 140.889 39.0371 140.889 41.4342C140.889 43.4132 139.58 45.0005 137.476 45.0005V44.9998ZM139.199 41.494C139.199 40.3405 138.938 39.2619 137.568 39.2619C136.287 39.2619 135.937 40.2956 135.937 41.4791C135.937 42.7525 136.318 43.7264 137.582 43.7264C138.863 43.7271 139.199 42.7083 139.199 41.4947V41.494ZM129.705 41.8687H128.867V44.8799H127.099V36.1464H130.299C132.173 36.1464 133.452 37.0902 133.452 38.948C133.452 40.536 132.233 41.8694 129.705 41.8694V41.8687ZM129.551 37.4642H128.867V40.536H129.399C130.739 40.506 131.624 40.2514 131.624 38.9929C131.624 37.9592 130.893 37.4791 129.551 37.4649V37.4642ZM82.1029 0.0947266L78.6927 28.0183H85.1246L86.9758 10.3446H87.2194L93.4055 28.0183H98.7644L105.342 10.5361H105.586L107.387 28.0183H114.5L111.433 0.0947266H103.587L99.3976 11.3983L97.1561 17.3375H96.8649L94.7701 11.543L90.6776 0.0958912H82.1029V0.0947266ZM115.478 0.0947266V28.0183H135.012V22.8934H122.347V16.2845H132.43V11.3983H122.347V5.21966H134.672V0.0947266H115.478ZM135.744 0.0947266V28.0183H145.73C155.037 27.8745 162.003 22.9893 162.003 13.4578C162.003 3.06432 154.5 0.142665 145.586 0.0947266H135.744ZM142.613 5.21966H144.66C151.042 5.21966 154.744 7.51883 154.744 14.0805C154.744 19.6844 151.236 22.8934 144.904 22.8934H142.613V5.21966Z" fill="#274479"/>
</g>
<defs>
<clipPath id="clip0_135_417">
<rect width="162" height="45" fill="white"/>
</clipPath>
</defs>
</svg>
