<svg width="420" height="62" viewBox="0 0 420 62" fill="none" xmlns="http://www.w3.org/2000/svg">
<g clip-path="url(#clip0_203_428)">
<path fill-rule="evenodd" clip-rule="evenodd" d="M101.506 41.3275C101.6 41.3275 101.693 41.2993 101.772 41.2466C101.851 41.1939 101.913 41.1189 101.949 41.0312C101.985 40.9435 101.995 40.847 101.976 40.7538C101.958 40.6607 101.912 40.5752 101.845 40.5081C101.778 40.441 101.692 40.3952 101.599 40.3767C101.506 40.3582 101.41 40.3677 101.322 40.404C101.234 40.4404 101.159 40.5019 101.106 40.5808C101.054 40.6598 101.026 40.7526 101.026 40.8475C101.025 40.9106 101.038 40.973 101.062 41.0313C101.086 41.0896 101.121 41.1426 101.166 41.1872C101.21 41.2318 101.263 41.2671 101.322 41.2912C101.38 41.3153 101.442 41.3276 101.506 41.3275ZM103.051 41.3275C103.145 41.3275 103.238 41.2993 103.317 41.2466C103.396 41.1939 103.458 41.1189 103.494 41.0312C103.53 40.9435 103.54 40.847 103.521 40.7538C103.503 40.6607 103.457 40.5752 103.39 40.5081C103.323 40.441 103.237 40.3952 103.144 40.3767C103.051 40.3582 102.955 40.3677 102.867 40.404C102.779 40.4404 102.704 40.5019 102.651 40.5808C102.599 40.6598 102.571 40.7526 102.571 40.8475C102.571 40.9748 102.621 41.0969 102.711 41.1869C102.801 41.2769 102.923 41.3275 103.051 41.3275ZM129.077 41.3275C129.172 41.3277 129.264 41.2997 129.343 41.2471C129.423 41.1945 129.484 41.1196 129.521 41.0319C129.557 40.9442 129.567 40.8476 129.548 40.7545C129.53 40.6613 129.484 40.5757 129.417 40.5084C129.35 40.4412 129.265 40.3954 129.172 40.3768C129.078 40.3582 128.982 40.3676 128.894 40.4039C128.806 40.4402 128.731 40.5018 128.678 40.5807C128.626 40.6597 128.598 40.7525 128.598 40.8475C128.598 40.9746 128.648 41.0966 128.738 41.1866C128.828 41.2765 128.949 41.3272 129.077 41.3275ZM130.622 41.3275C130.716 41.3275 130.809 41.2993 130.888 41.2466C130.967 41.1939 131.029 41.1189 131.065 41.0312C131.101 40.9435 131.111 40.847 131.092 40.7538C131.074 40.6607 131.028 40.5752 130.961 40.5081C130.894 40.441 130.808 40.3952 130.715 40.3767C130.622 40.3582 130.526 40.3677 130.438 40.404C130.35 40.4404 130.275 40.5019 130.222 40.5808C130.17 40.6598 130.142 40.7526 130.142 40.8475C130.142 40.9743 130.192 41.0959 130.281 41.1858C130.37 41.2758 130.492 41.3267 130.619 41.3275H130.622ZM140.092 42.4735L140.009 41.8625C139.671 41.9205 138.894 42.1555 138.82 41.6235C138.801 41.49 138.835 41.3545 138.913 41.2448C138.991 41.1352 139.108 41.0595 139.241 41.0335C139.46 41.009 139.683 41.0471 139.882 41.1435L140.082 40.5555C139.87 40.468 139.641 40.4306 139.413 40.4462C139.184 40.4618 138.962 40.53 138.765 40.6455C138.556 40.7935 138.41 41.0131 138.353 41.2624C138.296 41.5116 138.334 41.773 138.458 41.9965L137.77 42.0185V42.4825C138.224 42.5012 138.678 42.5145 139.133 42.5225C139.207 42.5215 139.773 42.5055 140.092 42.4735ZM82.2705 47.4625C82.1756 47.4625 82.0828 47.4906 82.0039 47.5434C81.9249 47.5961 81.8634 47.6711 81.8271 47.7588C81.7908 47.8465 81.7813 47.943 81.7998 48.0361C81.8183 48.1292 81.864 48.2148 81.9311 48.2819C81.9983 48.349 82.0838 48.3947 82.1769 48.4133C82.27 48.4318 82.3665 48.4223 82.4542 48.386C82.5419 48.3496 82.6169 48.2881 82.6696 48.2092C82.7224 48.1302 82.7505 48.0374 82.7505 47.9425C82.7505 47.8795 82.7381 47.817 82.714 47.7588C82.6899 47.7006 82.6545 47.6477 82.61 47.6031C82.5654 47.5585 82.5125 47.5232 82.4542 47.499C82.396 47.4749 82.3336 47.4625 82.2705 47.4625ZM83.8155 47.4625C83.7206 47.4625 83.6278 47.4906 83.5489 47.5434C83.4699 47.5961 83.4084 47.6711 83.3721 47.7588C83.3357 47.8465 83.3262 47.943 83.3448 48.0361C83.3633 48.1292 83.409 48.2148 83.4761 48.2819C83.5433 48.349 83.6288 48.3947 83.7219 48.4133C83.815 48.4318 83.9115 48.4223 83.9992 48.386C84.0869 48.3496 84.1619 48.2881 84.2146 48.2092C84.2674 48.1302 84.2955 48.0374 84.2955 47.9425C84.2955 47.8157 84.2454 47.6941 84.156 47.6041C84.0666 47.5142 83.9453 47.4633 83.8185 47.4625H83.8155ZM140.896 47.4625C140.801 47.4625 140.708 47.4906 140.629 47.5434C140.55 47.5961 140.488 47.6711 140.452 47.7588C140.416 47.8465 140.406 47.943 140.425 48.0361C140.443 48.1292 140.489 48.2148 140.556 48.2819C140.623 48.349 140.709 48.3947 140.802 48.4133C140.895 48.4318 140.992 48.4223 141.079 48.386C141.167 48.3496 141.242 48.2881 141.295 48.2092C141.347 48.1302 141.376 48.0374 141.376 47.9425C141.376 47.8795 141.363 47.817 141.339 47.7588C141.315 47.7006 141.28 47.6477 141.235 47.6031C141.19 47.5585 141.137 47.5232 141.079 47.499C141.021 47.4749 140.959 47.4625 140.896 47.4625ZM142.441 47.4625C142.346 47.4623 142.253 47.4903 142.174 47.5429C142.095 47.5955 142.033 47.6704 141.996 47.7581C141.96 47.8458 141.95 47.9423 141.969 48.0355C141.987 48.1287 142.033 48.2143 142.1 48.2815C142.167 48.3488 142.252 48.3946 142.346 48.4132C142.439 48.4318 142.535 48.4223 142.623 48.386C142.711 48.3497 142.786 48.2882 142.839 48.2093C142.891 48.1303 142.92 48.0375 142.92 47.9425C142.92 47.8154 142.869 47.6934 142.779 47.6034C142.689 47.5134 142.568 47.4628 142.441 47.4625ZM45.9715 48.6075C45.8766 48.6075 45.7838 48.6356 45.7049 48.6884C45.6259 48.7411 45.5644 48.8161 45.5281 48.9038C45.4917 48.9915 45.4822 49.088 45.5008 49.1811C45.5193 49.2742 45.565 49.3598 45.6321 49.4269C45.6992 49.494 45.7848 49.5397 45.8779 49.5583C45.971 49.5768 46.0675 49.5673 46.1552 49.531C46.2429 49.4946 46.3179 49.4331 46.3706 49.3542C46.4234 49.2752 46.4515 49.1824 46.4515 49.0875C46.4517 49.0244 46.4393 48.9618 46.4153 48.9035C46.3912 48.8451 46.3559 48.7921 46.3113 48.7474C46.2667 48.7028 46.2138 48.6673 46.1555 48.6431C46.0972 48.6189 46.0346 48.6075 45.9715 48.6075ZM47.5165 48.6075C47.4216 48.6073 47.3287 48.6353 47.2496 48.6879C47.1705 48.7405 47.1088 48.8154 47.0724 48.9031C47.0359 48.9908 47.0262 49.0873 47.0446 49.1805C47.0631 49.2737 47.1087 49.3593 47.1758 49.4266C47.2429 49.4938 47.3284 49.5396 47.4215 49.5582C47.5147 49.5768 47.6112 49.5674 47.699 49.5311C47.7868 49.4948 47.8618 49.4332 47.9146 49.3543C47.9674 49.2753 47.9955 49.1825 47.9955 49.0875C47.9958 48.9605 47.9458 48.8386 47.8564 48.7485C47.767 48.6583 47.6455 48.6073 47.5185 48.6065L47.5165 48.6075ZM73.0975 43.2205C73.1925 43.2205 73.2853 43.1923 73.3642 43.1396C73.4431 43.0869 73.5047 43.0119 73.541 42.9242C73.5773 42.8365 73.5868 42.74 73.5683 42.6469C73.5498 42.5537 73.5041 42.4682 73.437 42.4011C73.3698 42.334 73.2843 42.2882 73.1912 42.2697C73.0981 42.2512 73.0016 42.2607 72.9138 42.297C72.8261 42.3334 72.7512 42.3949 72.6984 42.4738C72.6457 42.5528 72.6175 42.6456 72.6175 42.7405C72.6178 42.8676 72.6685 42.9895 72.7585 43.0793C72.8485 43.1691 72.9704 43.2205 73.0975 43.2205ZM51.2095 42.2885C51.3045 42.2885 51.3973 42.2603 51.4762 42.2076C51.5551 42.1549 51.6167 42.0799 51.653 41.9922C51.6893 41.9045 51.6988 41.808 51.6803 41.7149C51.6618 41.6217 51.6161 41.5362 51.549 41.4691C51.4818 41.4019 51.3963 41.3562 51.3032 41.3377C51.2101 41.3192 51.1136 41.3287 51.0258 41.365C50.9381 41.4014 50.8632 41.4629 50.8104 41.5418C50.7577 41.6208 50.7295 41.7136 50.7295 41.8085C50.7295 41.8715 50.7419 41.9338 50.7661 41.992C50.7902 42.0502 50.8256 42.1031 50.8702 42.1476C50.9148 42.192 50.9677 42.2273 51.0259 42.2513C51.0841 42.2753 51.1465 42.2886 51.2095 42.2885ZM152.073 40.5765V46.4705H152.9V40.5755L152.073 40.5765ZM124.166 46.4705H124.993V40.5755H124.166V46.4705ZM76.5865 46.4705H77.4185V40.5755H76.5905V46.4695L76.5865 46.4705ZM149.902 45.2625C149.901 45.412 149.842 45.5553 149.736 45.661C149.63 45.7667 149.487 45.8262 149.338 45.8265H147.032C147.047 45.8095 147.062 45.7935 147.075 45.7755C147.206 45.5986 147.292 45.3925 147.326 45.1749C147.36 44.9574 147.34 44.7348 147.269 44.5265C147.169 44.1565 146.849 43.0265 146.038 43.0115H146.019C145.069 43.0115 144.486 44.6015 144.378 44.9225C144.279 45.2164 144.203 45.5173 144.149 45.8225C143.792 45.8315 142.102 45.8225 142.102 45.8225C142.179 45.6461 142.219 45.4553 142.219 45.2625V43.2425H141.391V45.2625C141.391 45.4121 141.331 45.5555 141.225 45.6613C141.12 45.7671 140.976 45.8265 140.827 45.8265H140.327C140.177 45.8262 140.034 45.7667 139.928 45.661C139.822 45.5553 139.763 45.412 139.763 45.2625V43.2425H138.936V45.2625C138.935 45.412 138.876 45.5553 138.77 45.661C138.664 45.7667 138.521 45.8262 138.372 45.8265H131.319C131.169 45.8262 131.026 45.7667 130.92 45.661C130.814 45.5553 130.755 45.412 130.755 45.2625V42.2045H129.929V42.6045C129.543 42.7194 129.166 42.8607 128.801 43.0275C128.423 43.1447 128.077 43.3477 127.791 43.6206C127.505 43.8935 127.286 44.2288 127.151 44.6005C127.118 44.7413 127.12 44.888 127.158 45.0276C127.196 45.1672 127.267 45.2953 127.367 45.4005C127.609 45.5913 127.887 45.732 128.185 45.8142C128.482 45.8964 128.793 45.9186 129.1 45.8795C129.414 45.8772 129.728 45.8555 130.04 45.8145C130.147 46.0653 130.325 46.2791 130.553 46.4294C130.78 46.5798 131.047 46.6601 131.32 46.6605H138.368C138.627 46.4024 138.979 46.2575 139.345 46.2575C139.711 46.2575 140.063 46.4024 140.323 46.6605H140.823C141.178 46.6603 141.52 46.5235 141.778 46.2785V46.6525C141.778 46.6525 143.76 46.6615 144.072 46.6525C144.039 47.0481 144.13 47.444 144.334 47.7848C144.537 48.1256 144.843 48.394 145.207 48.5525C145.441 48.647 145.692 48.6949 145.945 48.6935C146.252 48.7094 146.558 48.6416 146.83 48.4972C147.102 48.3528 147.33 48.1372 147.489 47.8735C147.582 47.6742 147.616 47.4518 147.585 47.2338C147.554 47.0157 147.459 46.8115 147.314 46.6465H149.333C149.702 46.6462 150.056 46.4995 150.317 46.2385C150.578 45.9775 150.724 45.6236 150.725 45.2545V40.5755H149.897V45.2625H149.902ZM127.969 44.8255C127.959 44.8155 127.953 44.8095 127.962 44.7625C128.062 44.2625 129.07 43.7495 129.929 43.4625V44.9825C129.273 45.1175 128.594 45.0637 127.969 44.8255ZM145.161 45.1865C145.274 44.6498 145.577 44.1718 146.014 43.8395C146.279 44.072 146.443 44.3995 146.47 44.7515C146.506 44.8356 146.52 44.9275 146.51 45.0185C146.501 45.1095 146.468 45.1966 146.416 45.2715C146.013 45.5991 145.509 45.776 144.991 45.7715C145.037 45.5731 145.094 45.3772 145.161 45.1845V45.1865ZM146.749 47.5205C146.6 47.6902 146.401 47.8084 146.181 47.8578C145.961 47.9072 145.731 47.8854 145.525 47.7955C145.31 47.6896 145.133 47.5195 145.019 47.3088C144.906 47.0981 144.86 46.8572 144.89 46.6195C145.329 46.5891 145.762 46.5045 146.181 46.3675L146.019 46.6535C146.215 46.7035 146.391 46.8138 146.522 46.9689C146.653 47.124 146.732 47.3162 146.749 47.5185V47.5205ZM66.8185 46.4695H67.6465V40.5755H66.8185V46.4695ZM64.6445 45.2625C64.6445 45.4119 64.5853 45.5552 64.4797 45.6609C64.3742 45.7667 64.231 45.8262 64.0815 45.8265H62.4505C62.4645 45.7975 62.4785 45.7685 62.4905 45.7375C62.6932 45.1293 62.6494 44.4658 62.3685 43.8895C62.2587 43.613 62.0723 43.3735 61.8313 43.199C61.5903 43.0246 61.3045 42.9224 61.0075 42.9045H60.9995C60.6969 42.9224 60.4056 43.0259 60.1595 43.2029C59.9134 43.3799 59.7227 43.6233 59.6095 43.9045C59.4779 44.1825 59.3653 44.4692 59.2725 44.7625C59.0165 45.5165 58.9115 45.8295 58.0835 45.8295H57.2835C57.1886 45.1932 56.947 44.5877 56.5779 44.0608C56.2087 43.5339 55.7221 43.1001 55.1565 42.7935L54.7755 43.5285C55.2051 43.7671 55.5776 44.0964 55.8669 44.4937C56.1561 44.8909 56.3553 45.3464 56.4505 45.8285H53.8625V46.6565H58.0826C58.5401 46.6854 58.9928 46.5483 59.3575 46.2705C59.8325 46.5397 60.3718 46.6742 60.9175 46.6595C61.1799 46.6667 61.4414 46.6281 61.6905 46.5455C61.7369 46.5276 61.7823 46.5072 61.8265 46.4845V46.6595H64.0805C64.4495 46.659 64.8031 46.5121 65.0639 46.2511C65.3247 45.9902 65.4713 45.6364 65.4715 45.2675V40.5755H64.6435V45.2625H64.6445ZM61.7215 45.4335C61.6944 45.5098 61.6511 45.5793 61.5944 45.6371C61.5378 45.695 61.4692 45.7398 61.3935 45.7685C60.8708 45.878 60.3267 45.8167 59.8415 45.5935C59.9227 45.4069 59.9945 45.2163 60.0565 45.0225C60.1379 44.7642 60.2364 44.5116 60.3515 44.2665C60.4006 44.1269 60.487 44.0033 60.6012 43.9092C60.7154 43.8151 60.8531 43.754 60.9995 43.7325C61.1407 43.7519 61.2735 43.8104 61.3831 43.9014C61.4927 43.9925 61.5746 44.1123 61.6195 44.2475C61.8003 44.6156 61.8357 45.0384 61.7185 45.4315L61.7215 45.4335ZM110.247 42.9075H110.24C109.937 42.9254 109.646 43.0289 109.4 43.2059C109.153 43.3829 108.963 43.6262 108.85 43.9075C108.718 44.1852 108.605 44.4715 108.512 44.7645C108.257 45.5185 108.151 45.8305 107.324 45.8305H103.95C103.8 45.8302 103.657 45.7707 103.551 45.665C103.445 45.5593 103.386 45.416 103.386 45.2665V42.2045H102.558V42.6045C102.173 42.7196 101.796 42.8609 101.431 43.0275C101.053 43.1447 100.707 43.3477 100.421 43.6206C100.135 43.8935 99.9157 44.2288 99.7805 44.6005C99.7476 44.7413 99.75 44.8881 99.7877 45.0277C99.8254 45.1673 99.8972 45.2954 99.9966 45.4005C100.239 45.5913 100.517 45.7319 100.814 45.8142C101.112 45.8964 101.423 45.9186 101.729 45.8795C102.043 45.8772 102.357 45.8555 102.67 45.8145C102.777 46.0653 102.955 46.2791 103.183 46.4294C103.41 46.5798 103.677 46.6601 103.95 46.6605H107.319C107.777 46.6899 108.23 46.5524 108.595 46.2735C109.309 46.6579 110.143 46.7566 110.928 46.5495C111.11 46.4802 111.275 46.3731 111.413 46.2352C111.551 46.0973 111.658 45.9318 111.728 45.7495C111.931 45.1414 111.887 44.4779 111.607 43.9015C111.498 43.6231 111.313 43.3814 111.072 43.2049C110.831 43.0284 110.545 42.9245 110.247 42.9055V42.9075ZM100.598 44.8265C100.589 44.8165 100.582 44.8105 100.592 44.7635C100.692 44.2635 101.699 43.7505 102.558 43.4635V44.9835C101.902 45.1181 101.222 45.0629 100.598 44.8245V44.8265ZM110.961 45.4355C110.934 45.512 110.89 45.5818 110.834 45.6398C110.777 45.6979 110.708 45.7428 110.633 45.7715C110.11 45.8812 109.566 45.8202 109.081 45.5975C109.162 45.4109 109.233 45.2203 109.296 45.0265C109.379 44.7677 109.479 44.5149 109.596 44.2695C109.645 44.1298 109.731 44.0062 109.845 43.9121C109.959 43.818 110.097 43.7569 110.244 43.7355C110.385 43.7549 110.518 43.8134 110.627 43.9044C110.737 43.9955 110.819 44.1153 110.864 44.2505C111.043 44.6186 111.078 45.041 110.961 45.4335V45.4355ZM96.4825 45.2625C96.4823 45.412 96.4228 45.5553 96.317 45.661C96.2113 45.7667 96.068 45.8262 95.9185 45.8265H95.4125C95.263 45.8262 95.1197 45.7667 95.014 45.661C94.9083 45.5553 94.8488 45.412 94.8485 45.2625V40.5755H94.0185V45.2625C94.0183 45.412 93.9588 45.5553 93.8531 45.661C93.7473 45.7667 93.604 45.8262 93.4545 45.8265H92.2685C92.3028 45.3853 92.2445 44.9419 92.0973 44.5246C91.95 44.1073 91.7171 43.7254 91.4135 43.4035C90.6225 42.7505 89.5535 43.1625 88.7905 43.6345C88.3458 43.917 87.9328 44.2466 87.5585 44.6175V40.5775H86.7305V45.8265H83.3305C83.4097 45.649 83.4506 45.4568 83.4505 45.2625V43.2425H82.6235V45.2625C82.6233 45.412 82.5638 45.5553 82.458 45.661C82.3523 45.7667 82.209 45.8262 82.0595 45.8265H80.3185C80.169 45.8262 80.0257 45.7667 79.92 45.661C79.8143 45.5553 79.7548 45.412 79.7545 45.2625V43.2425H78.9265V46.4625C78.9265 46.7676 78.8054 47.0602 78.5898 47.276C78.3741 47.4918 78.0816 47.6132 77.7766 47.6135V48.4425C78.2887 48.4418 78.7806 48.2428 79.1492 47.8873C79.5178 47.5317 79.7344 47.0473 79.7535 46.5355C79.9313 46.6148 80.1239 46.6556 80.3185 46.6555H82.0655C82.3348 46.6557 82.5983 46.5772 82.8235 46.4295V46.6555H93.4576C93.7174 46.3974 94.0688 46.2525 94.435 46.2525C94.8013 46.2525 95.1527 46.3974 95.4125 46.6555H95.9185C96.2875 46.655 96.6411 46.5081 96.9019 46.2471C97.1627 45.9862 97.3093 45.6324 97.3095 45.2635V40.5755H96.4825V45.2625ZM87.5615 45.5245C87.9062 45.1904 88.2793 44.8869 88.6765 44.6175C89.1155 44.279 89.6229 44.0401 90.1635 43.9175C90.3897 43.8653 90.6273 43.9037 90.8255 44.0245C90.9864 44.1519 91.1086 44.3216 91.1785 44.5145C91.336 44.9351 91.4205 45.3795 91.4285 45.8285H87.5615V45.5285V45.5245ZM52.0515 45.2625C52.0513 45.412 51.9918 45.5553 51.886 45.661C51.7803 45.7667 51.637 45.8262 51.4875 45.8265H51.1185C50.9655 45.8284 50.8179 45.7706 50.7069 45.6652C50.596 45.5599 50.5305 45.4154 50.5245 45.2625V44.1625C50.5291 44.0041 50.4973 43.8467 50.4316 43.7025C50.3659 43.5583 50.268 43.431 50.1455 43.3305C49.9888 43.217 49.8086 43.1402 49.6183 43.1056C49.4279 43.0709 49.2322 43.0795 49.0455 43.1305C48.6851 43.2012 48.3587 43.3904 48.1183 43.668C47.8778 43.9456 47.7371 44.2957 47.7185 44.6625V46.5625C47.7052 46.6644 47.6621 46.76 47.5947 46.8376C47.5273 46.9151 47.4386 46.9711 47.3395 46.9985C46.9932 47.1217 46.6201 47.1496 46.2593 47.0793C45.8985 47.0089 45.5632 46.8429 45.2885 46.5985C45.0142 46.267 44.8472 45.8599 44.8097 45.4312C44.7722 45.0025 44.8659 44.5726 45.0785 44.1985L44.3065 43.8985C43.6015 45.7395 44.2595 46.7515 44.7135 47.1905C45.244 47.6814 45.9429 47.9496 46.6655 47.9395C47.008 47.9437 47.3479 47.8798 47.6655 47.7515C47.9178 47.6659 48.1377 47.5049 48.2954 47.2903C48.4532 47.0757 48.5412 46.8178 48.5475 46.5515V44.6625C48.5644 44.4816 48.6409 44.3115 48.7651 44.179C48.8893 44.0464 49.0542 43.959 49.2336 43.9305C49.2994 43.9088 49.369 43.9013 49.4379 43.9084C49.5068 43.9154 49.5735 43.9369 49.6335 43.9715C49.659 43.9942 49.6785 44.023 49.6902 44.0551C49.7018 44.0872 49.7054 44.1217 49.7005 44.1555V45.2555C49.7094 45.6271 49.863 45.9805 50.1286 46.2405C50.3942 46.5005 50.7508 46.6466 51.1225 46.6475H51.4905C51.8596 46.6472 52.2136 46.5005 52.4745 46.2395C52.7355 45.9785 52.8823 45.6246 52.8825 45.2555V43.2355H52.0545V45.2625H52.0515ZM74.5085 46.5625C74.4954 46.6643 74.4525 46.7599 74.3853 46.8375C74.318 46.915 74.2294 46.971 74.1305 46.9985C73.784 47.1218 73.4108 47.1498 73.0498 47.0794C72.6888 47.009 72.3533 46.8429 72.0785 46.5985C71.8045 46.2668 71.6378 45.8597 71.6004 45.431C71.5631 45.0024 71.657 44.5726 71.8695 44.1985L71.0965 43.8985C70.3965 45.7395 71.0495 46.7515 71.5045 47.1905C72.0346 47.6813 72.7332 47.9495 73.4555 47.9395C73.798 47.9437 74.1379 47.8798 74.4555 47.7515C74.708 47.6661 74.9281 47.5052 75.086 47.2905C75.2439 47.0759 75.3321 46.8179 75.3385 46.5515V43.2315H74.5085V46.5625ZM121.995 45.2625C121.995 45.4116 121.936 45.5546 121.83 45.6602C121.725 45.7659 121.583 45.8257 121.434 45.8265H121.134C120.441 45.8495 119.749 45.787 119.072 45.6405L119.134 45.5885C119.408 45.385 119.633 45.1222 119.791 44.8197C119.95 44.5172 120.038 44.1829 120.05 43.8415C120.008 43.6444 119.913 43.4628 119.774 43.3169C119.635 43.171 119.458 43.0667 119.264 43.0155L119.219 42.9975L119.173 42.9915C118.43 42.8971 117.679 42.8901 116.936 42.9705H116.888L116.843 42.9865C116.678 43.0307 116.528 43.1185 116.409 43.2406C116.29 43.3627 116.206 43.5147 116.166 43.6805C116.174 44.0358 116.261 44.3849 116.418 44.7036C116.576 45.0222 116.801 45.3027 117.078 45.5255C117.128 45.5745 117.178 45.6255 117.236 45.6685C116.729 45.783 116.21 45.8337 115.691 45.8195H114.477C114.327 45.8192 114.184 45.7597 114.078 45.6539C113.973 45.5482 113.914 45.4049 113.914 45.2555V40.5755H113.086V45.2625C113.086 45.6313 113.233 45.9849 113.493 46.2458C113.754 46.5068 114.108 46.6537 114.477 46.6545H115.692C116.54 46.6993 117.387 46.5506 118.17 46.2195C119.121 46.5553 120.129 46.7027 121.137 46.6535H121.437C121.804 46.6506 122.155 46.5028 122.414 46.2423C122.673 45.9818 122.818 45.6297 122.819 45.2625V40.5755H121.991V45.2625H121.995ZM118.595 44.9555C118.45 45.079 118.296 45.1917 118.135 45.2925C117.959 45.1967 117.797 45.078 117.653 44.9395C117.309 44.6701 117.069 44.2915 116.971 43.8665C116.993 43.8296 117.029 43.8022 117.071 43.7895C117.717 43.7238 118.369 43.7301 119.014 43.8085C119.06 43.8203 119.104 43.8425 119.141 43.8733C119.178 43.9041 119.207 43.9427 119.228 43.9865C119.15 44.3783 118.924 44.725 118.597 44.9535L118.595 44.9555Z" fill="#58595B"/>
<path fill-rule="evenodd" clip-rule="evenodd" d="M43.9316 53.5285C43.9316 51.8655 44.8076 50.7585 46.1316 50.7585C46.499 50.756 46.8589 50.8631 47.1651 51.0662C47.4713 51.2693 47.71 51.5591 47.8506 51.8985L47.1216 52.2345C47.0415 52.0359 46.9051 51.865 46.7293 51.7428C46.5534 51.6206 46.3457 51.5524 46.1316 51.5465C45.3616 51.5465 44.8436 52.3095 44.8436 53.5285C44.8436 54.7475 45.3616 55.5145 46.1316 55.5145C46.3001 55.516 46.4671 55.4826 46.622 55.4163C46.7769 55.3501 46.9164 55.2524 47.0316 55.1295V54.1295H45.8966V53.3535H47.8836V55.4805C47.6732 55.7421 47.4062 55.9525 47.1028 56.0961C46.7993 56.2397 46.4673 56.3127 46.1316 56.3095C44.8026 56.3095 43.9316 55.1825 43.9316 53.5285ZM48.7316 54.2615C48.699 54.0161 48.7174 53.7667 48.7856 53.5287C48.8537 53.2908 48.9702 53.0694 49.1278 52.8786C49.2854 52.6877 49.4806 52.5313 49.7014 52.4193C49.9221 52.3073 50.1635 52.242 50.4106 52.2275C51.4726 52.2275 52.0406 53.1185 52.0406 54.2945V54.5275H49.5516C49.541 54.6689 49.5594 54.811 49.6057 54.945C49.6521 55.079 49.7254 55.2021 49.8212 55.3066C49.9169 55.4112 50.0331 55.495 50.1625 55.553C50.2919 55.6109 50.4319 55.6417 50.5736 55.6435C50.7414 55.6389 50.9064 55.5996 51.0582 55.528C51.21 55.4564 51.3454 55.3541 51.4556 55.2275L51.8476 55.7065C51.5897 55.9898 51.2482 56.1834 50.8727 56.2592C50.4972 56.335 50.1073 56.289 49.7598 56.1279C49.4122 55.9669 49.1251 55.6991 48.9402 55.3636C48.7552 55.0281 48.6822 54.6414 48.7316 54.2615ZM50.4036 52.8785C50.1483 52.9109 49.9157 53.0415 49.7551 53.2425C49.5946 53.4436 49.5187 53.6994 49.5436 53.9555H51.2536C51.2714 53.8286 51.2632 53.6993 51.2297 53.5756C51.1961 53.4519 51.1379 53.3362 51.0585 53.2356C50.9791 53.135 50.8801 53.0515 50.7676 52.9901C50.655 52.9287 50.5312 52.8908 50.4036 52.8785ZM55.0986 56.2065V53.5625C55.1157 53.4825 55.1137 53.3995 55.0927 53.3204C55.0716 53.2413 55.0322 53.1683 54.9776 53.1073C54.9231 53.0463 54.8549 52.999 54.7786 52.9693C54.7023 52.9397 54.6201 52.9284 54.5386 52.9365C54.3698 52.9487 54.2072 53.0048 54.0668 53.0994C53.9264 53.194 53.8133 53.3236 53.7386 53.4755V56.2075H52.9286V52.3275H53.7386V52.8465C53.8673 52.6625 54.037 52.511 54.2343 52.4039C54.4317 52.2968 54.6512 52.2371 54.8756 52.2295C55.017 52.2123 55.1603 52.228 55.2946 52.2752C55.4289 52.3225 55.5505 52.4 55.6499 52.5019C55.7494 52.6037 55.824 52.7272 55.868 52.8626C55.912 52.9979 55.9242 53.1417 55.9036 53.2825V56.2085H55.0936L55.0986 56.2065ZM56.8346 54.2625C56.802 54.0173 56.8203 53.768 56.8884 53.5302C56.9564 53.2924 57.0727 53.0711 57.2301 52.8802C57.3875 52.6894 57.5825 52.533 57.803 52.4209C58.0235 52.3087 58.2647 52.2433 58.5116 52.2285C59.5746 52.2285 60.1436 53.1195 60.1436 54.2955V54.5285H57.6526C57.6422 54.6698 57.6609 54.8118 57.7073 54.9457C57.7538 55.0795 57.8271 55.2025 57.9229 55.307C58.0186 55.4115 58.1346 55.4954 58.2639 55.5534C58.3932 55.6114 58.5329 55.6424 58.6746 55.6445C58.8426 55.6401 59.0078 55.6009 59.1598 55.5293C59.3118 55.4576 59.4473 55.3552 59.5576 55.2285L59.9476 55.7075C59.6909 55.993 59.3493 56.1886 58.9731 56.2657C58.597 56.3427 58.206 56.2971 57.8577 56.1355C57.5094 55.9739 57.222 55.7049 57.0379 55.368C56.8538 55.031 56.7825 54.6429 56.8346 54.2625ZM58.5046 52.8795C58.2493 52.9116 58.0166 53.0422 57.8561 53.2434C57.6957 53.4445 57.6202 53.7004 57.6456 53.9565H59.3566C59.3743 53.8294 59.3661 53.7 59.3325 53.5762C59.2988 53.4523 59.2404 53.3366 59.1608 53.2359C59.0811 53.1353 58.982 53.0518 58.8692 52.9906C58.7564 52.9293 58.6324 52.8915 58.5046 52.8795ZM61.0356 56.2075V52.3275H61.8456V52.8955C61.9562 52.7043 62.1128 52.5439 62.3013 52.4288C62.4898 52.3137 62.7041 52.2476 62.9246 52.2365V53.0365C62.8553 53.0213 62.7846 53.0136 62.7136 53.0135C62.5364 53.0261 62.3649 53.0815 62.2137 53.1748C62.0626 53.2681 61.9363 53.3967 61.8456 53.5495V56.2105H61.0356V56.2075ZM65.7236 56.2075V55.8115C65.6014 55.9672 65.4446 56.0923 65.2657 56.177C65.0867 56.2617 64.8905 56.3037 64.6926 56.2995C64.5269 56.3 64.3629 56.2662 64.2109 56.2001C64.0589 56.1341 63.9222 56.0373 63.8094 55.9158C63.6967 55.7944 63.6103 55.6508 63.5558 55.4943C63.5013 55.3378 63.4798 55.1717 63.4926 55.0065C63.4791 54.8427 63.5004 54.678 63.5551 54.523C63.6099 54.368 63.6968 54.2264 63.8101 54.1074C63.9234 53.9884 64.0606 53.8947 64.2127 53.8325C64.3648 53.7703 64.5284 53.741 64.6926 53.7465C64.8886 53.7391 65.0837 53.7772 65.2625 53.8577C65.4414 53.9382 65.5992 54.0589 65.7236 54.2105V53.6485C65.7324 53.5472 65.7184 53.4452 65.6828 53.3499C65.6472 53.2546 65.5908 53.1685 65.5177 53.0977C65.4447 53.027 65.3568 52.9734 65.2604 52.9408C65.164 52.9082 65.0616 52.8976 64.9606 52.9095C64.7767 52.9117 64.5953 52.9523 64.4279 53.0286C64.2606 53.1048 64.1109 53.2152 63.9886 53.3525L63.6716 52.7885C64.0567 52.4192 64.5721 52.2168 65.1056 52.2255C65.2904 52.1976 65.4791 52.2118 65.6576 52.2672C65.8361 52.3225 65.9998 52.4175 66.1364 52.545C66.2729 52.6726 66.3789 52.8294 66.4463 53.0037C66.5137 53.178 66.5409 53.3653 66.5256 53.5515V56.2045H65.7256L65.7236 56.2075ZM65.7236 55.3215V54.7335C65.6492 54.6031 65.5418 54.4944 65.4124 54.4183C65.2829 54.3421 65.1358 54.3012 64.9856 54.2995C64.8018 54.3114 64.6294 54.3927 64.5034 54.5271C64.3774 54.6615 64.3073 54.8388 64.3073 55.023C64.3073 55.2072 64.3774 55.3845 64.5034 55.5189C64.6294 55.6533 64.8018 55.7347 64.9856 55.7465C65.1349 55.7445 65.2812 55.7041 65.4104 55.6294C65.5396 55.5546 65.6475 55.4479 65.7236 55.3195M67.6446 50.8455H68.4556V56.2055H67.6446V50.8455ZM74.3286 56.2055L74.0366 55.1445H72.2596L71.9676 56.2055H70.9946L72.6076 50.8455H73.6856L75.2996 56.2055H74.3286ZM73.1506 51.7955L72.4506 54.3575H73.8626L73.1506 51.7955ZM78.0756 56.2055V55.6915C77.9466 55.8764 77.7755 56.0281 77.5765 56.1339C77.3774 56.2398 77.1561 56.2969 76.9306 56.3005C76.7902 56.3187 76.6474 56.304 76.5136 56.2576C76.3798 56.2112 76.2586 56.1343 76.1595 56.0331C76.0604 55.9319 75.9862 55.8091 75.9427 55.6743C75.8992 55.5396 75.8875 55.3966 75.9086 55.2565V52.3245H76.7186V54.9765C76.7025 55.056 76.7053 55.1381 76.7268 55.2163C76.7483 55.2945 76.7879 55.3665 76.8425 55.4265C76.897 55.4865 76.9649 55.5328 77.0407 55.5616C77.1165 55.5905 77.198 55.6011 77.2786 55.5925C77.4458 55.5794 77.6069 55.5241 77.7468 55.4318C77.8867 55.3394 78.0009 55.2131 78.0786 55.0645V52.3245H78.8896V56.2045H78.0786L78.0756 56.2055ZM80.1506 55.3365V53.0215H79.6396V52.3215H80.1506V51.2625H80.9616V52.3235H81.6116V53.0235H80.9616V55.1695C80.9616 55.4355 81.0506 55.5945 81.2616 55.5945C81.3192 55.5965 81.3766 55.586 81.4297 55.5637C81.4829 55.5414 81.5306 55.5079 81.5696 55.4655L81.7636 56.0655C81.5698 56.2316 81.3183 56.3146 81.0636 56.2965C80.9359 56.311 80.8066 56.2956 80.6859 56.2513C80.5652 56.2071 80.4564 56.1354 80.3683 56.0418C80.2802 55.9483 80.215 55.8354 80.1781 55.7123C80.1412 55.5892 80.1335 55.4591 80.1556 55.3325M84.6406 56.2015V53.5445C84.6558 53.4647 84.652 53.3824 84.6294 53.3044C84.6069 53.2263 84.5662 53.1547 84.5108 53.0952C84.4554 53.0358 84.3867 52.9903 84.3104 52.9624C84.2341 52.9345 84.1523 52.9249 84.0716 52.9345C83.9046 52.9498 83.7442 53.0073 83.6055 53.1016C83.4668 53.1959 83.3543 53.3239 83.2786 53.4735V56.2055H82.4666V50.8455H83.2786V52.8455C83.4084 52.6613 83.5792 52.5097 83.7776 52.4026C83.9759 52.2955 84.1964 52.2359 84.4216 52.2285C84.5622 52.2098 84.7053 52.224 84.8394 52.2702C84.9736 52.3164 85.0951 52.3932 85.1944 52.4945C85.2937 52.5958 85.368 52.7189 85.4114 52.854C85.4548 52.989 85.4662 53.1323 85.4446 53.2725V56.2075H84.6446L84.6406 56.2015ZM86.3696 54.2575C86.4297 53.9358 86.5801 53.6378 86.8033 53.3984C87.0265 53.1591 87.3133 52.9882 87.63 52.9059C87.9468 52.8236 88.2805 52.8332 88.592 52.9336C88.9035 53.034 89.1799 53.221 89.389 53.4728C89.5981 53.7247 89.7311 54.0308 89.7726 54.3555C89.814 54.6801 89.7621 55.0099 89.6229 55.3061C89.4838 55.6023 89.2631 55.8528 88.9868 56.0282C88.7105 56.2036 88.3899 56.2967 88.0626 56.2965C87.8135 56.285 87.5694 56.2216 87.3462 56.1104C87.1229 55.9993 86.9253 55.8427 86.7659 55.6508C86.6066 55.4589 86.489 55.2359 86.4208 54.996C86.3526 54.7561 86.3351 54.5045 86.3696 54.2575ZM88.9226 54.2575C88.8527 54.1032 88.7426 53.9705 88.6037 53.8735C88.4648 53.7765 88.3023 53.7186 88.1334 53.7061C87.9644 53.6936 87.7952 53.7268 87.6435 53.8023C87.4918 53.8777 87.3633 53.9927 87.2714 54.135C87.1795 54.2774 87.1276 54.4418 87.1213 54.6111C87.1149 54.7804 87.1543 54.9483 87.2352 55.0971C87.3162 55.246 87.4358 55.3702 87.5814 55.4569C87.727 55.5435 87.8932 55.5893 88.0626 55.5895C88.2079 55.5612 88.346 55.5038 88.4686 55.4208C88.5912 55.3378 88.6958 55.2309 88.7761 55.1065C88.8564 54.9822 88.9108 54.8429 88.9359 54.697C88.9611 54.5511 88.9566 54.4016 88.9226 54.2575ZM90.6826 56.2015V52.3215H91.4936V52.8895C91.604 52.6982 91.7606 52.5376 91.9491 52.4224C92.1376 52.3073 92.352 52.2413 92.5726 52.2305V53.0305C92.503 53.0152 92.4319 53.0075 92.3606 53.0075C92.1836 53.0203 92.0123 53.0757 91.8613 53.169C91.7103 53.2624 91.5842 53.3909 91.4936 53.5435V56.2045H90.6786L90.6826 56.2015ZM93.2376 51.3315C93.239 51.1968 93.2933 51.068 93.389 50.9731C93.4846 50.8781 93.6139 50.8248 93.7486 50.8245C93.8467 50.8267 93.942 50.8577 94.0226 50.9136C94.1032 50.9695 94.1656 51.048 94.202 51.1391C94.2383 51.2302 94.2471 51.33 94.2271 51.4261C94.2072 51.5222 94.1594 51.6102 94.0898 51.6793C94.0201 51.7484 93.9316 51.7955 93.8354 51.8147C93.7392 51.8339 93.6395 51.8244 93.5486 51.7873C93.4578 51.7502 93.3799 51.6872 93.3246 51.6062C93.2693 51.5252 93.239 51.4296 93.2376 51.3315ZM93.3376 52.3205H94.1486V56.2005H93.3376V52.3205ZM95.4146 55.3315V53.0215H94.9036V52.3215H95.4186V51.2625H96.2296V52.3235H96.8786V53.0235H96.2296V55.1695C96.2296 55.4355 96.3206 55.5945 96.5296 55.5945C96.5873 55.5962 96.6447 55.5855 96.698 55.5633C96.7513 55.541 96.7992 55.5077 96.8386 55.4655L97.0326 56.0655C96.8386 56.2313 96.5872 56.3143 96.3326 56.2965C96.2048 56.3114 96.0752 56.2962 95.9542 56.2521C95.8333 56.208 95.7242 56.1363 95.6359 56.0427C95.5475 55.9491 95.4822 55.8362 95.4452 55.7129C95.4082 55.5896 95.4005 55.4593 95.4226 55.3325M97.7176 57.0115C97.7985 57.0501 97.887 57.07 97.9766 57.0695C98.0774 57.0788 98.178 57.0512 98.2599 56.9918C98.3418 56.9323 98.3993 56.8452 98.4216 56.7465L98.5856 56.2825L97.2716 52.3225H98.1326L98.9996 55.2375L99.8756 52.3225H100.735L99.1866 56.9325C99.1308 57.1895 98.9828 57.4172 98.7705 57.5726C98.5583 57.7279 98.2965 57.8001 98.0346 57.7755C97.8873 57.7744 97.7406 57.7559 97.5976 57.7205L97.7176 57.0115ZM103.071 54.2575C103.131 53.9358 103.281 53.6379 103.504 53.3985C103.727 53.1592 104.014 52.9883 104.331 52.906C104.647 52.8236 104.981 52.8332 105.293 52.9335C105.604 53.0338 105.881 53.2207 106.09 53.4725C106.299 53.7242 106.432 54.0302 106.473 54.3548C106.515 54.6794 106.463 55.0091 106.324 55.3054C106.185 55.6017 105.965 55.8522 105.689 56.0277C105.412 56.2032 105.092 56.2965 104.765 56.2965C104.515 56.2848 104.272 56.2214 104.048 56.1101C103.825 55.9989 103.627 55.8424 103.468 55.6506C103.309 55.4587 103.191 55.2358 103.123 54.9959C103.054 54.7561 103.036 54.5046 103.071 54.2575ZM105.625 54.2575C105.555 54.1032 105.445 53.9705 105.306 53.8735C105.167 53.7765 105.004 53.7186 104.835 53.7061C104.666 53.6936 104.497 53.7268 104.346 53.8023C104.194 53.8777 104.065 53.9927 103.973 54.135C103.881 54.2774 103.83 54.4418 103.823 54.6111C103.817 54.7804 103.856 54.9483 103.937 55.0971C104.018 55.246 104.138 55.3702 104.283 55.4569C104.429 55.5435 104.595 55.5893 104.765 55.5895C104.91 55.5612 105.048 55.5038 105.171 55.4208C105.293 55.3378 105.398 55.2309 105.478 55.1065C105.558 54.9822 105.613 54.8429 105.638 54.697C105.663 54.5511 105.659 54.4016 105.625 54.2575ZM107.547 56.2015V53.0215H107.037V52.3215H107.547V51.9625C107.527 51.8088 107.541 51.6525 107.588 51.5048C107.635 51.357 107.713 51.2212 107.818 51.107C107.923 50.9927 108.051 50.9027 108.194 50.8432C108.337 50.7837 108.492 50.7562 108.647 50.7625C108.935 50.7509 109.216 50.85 109.434 51.0395L109.158 51.5995C109.112 51.5485 109.055 51.5078 108.992 51.4801C108.929 51.4524 108.861 51.4382 108.793 51.4385C108.727 51.4372 108.662 51.4507 108.602 51.4779C108.543 51.505 108.49 51.5452 108.448 51.5955C108.406 51.6458 108.376 51.7049 108.36 51.7684C108.343 51.8319 108.342 51.8983 108.355 51.9625V52.3235H109.003V53.0235H108.355V56.2065H107.539L107.547 56.2015ZM111.49 53.5245C111.49 51.9115 112.34 50.7545 113.696 50.7545C114.067 50.7544 114.429 50.8674 114.735 51.0784C115.04 51.2893 115.274 51.5883 115.406 51.9355L114.66 52.2635C114.59 52.0604 114.461 51.883 114.289 51.7544C114.117 51.6258 113.91 51.552 113.696 51.5425C112.896 51.5425 112.406 52.3765 112.406 53.5245C112.406 54.6725 112.9 55.5025 113.696 55.5025C113.92 55.4899 114.134 55.407 114.309 55.2656C114.483 55.1241 114.609 54.9313 114.668 54.7145L115.414 55.0455C115.294 55.4072 115.063 55.7224 114.755 55.9467C114.447 56.171 114.077 56.2934 113.696 56.2965C112.34 56.2965 111.49 55.1325 111.49 53.5245ZM116.143 51.3315C116.144 51.1968 116.199 51.0681 116.295 50.9733C116.391 50.8785 116.52 50.825 116.655 50.8245C116.788 50.8245 116.916 50.8776 117.011 50.972C117.105 51.0664 117.158 51.1945 117.158 51.328C117.158 51.4616 117.105 51.5896 117.011 51.684C116.916 51.7785 116.788 51.8315 116.655 51.8315C116.521 51.8315 116.392 51.7793 116.297 51.6858C116.201 51.5924 116.146 51.4652 116.143 51.3315ZM116.25 52.3205H117.061V56.2005H116.25V52.3205ZM119.007 56.2005L117.717 52.3205H118.578L119.445 55.2445L120.32 52.3205H121.18L119.88 56.2005H118.999H119.007ZM121.724 51.3305C121.725 51.1958 121.779 51.067 121.875 50.9721C121.971 50.8771 122.1 50.8238 122.235 50.8235C122.333 50.8257 122.428 50.8567 122.509 50.9126C122.589 50.9685 122.652 51.0469 122.688 51.1381C122.724 51.2292 122.733 51.329 122.713 51.4251C122.693 51.5212 122.645 51.6092 122.576 51.6783C122.506 51.7474 122.418 51.7945 122.321 51.8137C122.225 51.8329 122.125 51.8234 122.035 51.7863C121.944 51.7492 121.866 51.6863 121.811 51.6052C121.755 51.5242 121.725 51.4286 121.724 51.3305ZM121.831 52.3195H122.64V56.1995H121.819V52.3195H121.831ZM123.76 50.8395H124.571V56.1995H123.76V50.8395ZM130.442 56.1995L130.15 55.1385H128.373L128.082 56.1995H127.11L128.723 50.8395H129.801L131.415 56.1995H130.442ZM129.265 51.7895L128.565 54.3515H129.976L129.265 51.7895ZM132.785 56.1995L131.497 52.3195H132.356L133.219 55.2485L134.093 52.3245H134.955L133.655 56.2045H132.778L132.785 56.1995ZM135.503 51.3295C135.504 51.1948 135.559 51.0661 135.655 50.9713C135.751 50.8765 135.88 50.823 136.015 50.8225C136.113 50.8249 136.208 50.856 136.288 50.9121C136.369 50.9681 136.431 51.0466 136.467 51.1377C136.503 51.2289 136.512 51.3287 136.492 51.4247C136.472 51.5207 136.424 51.6086 136.354 51.6777C136.285 51.7467 136.196 51.7937 136.1 51.8128C136.004 51.8319 135.904 51.8223 135.813 51.7852C135.723 51.7481 135.645 51.6851 135.59 51.6041C135.534 51.5231 135.504 51.4276 135.503 51.3295ZM135.603 52.3185H136.415V56.1985H135.603V52.3185ZM139.56 56.1985V55.8115C139.438 55.9672 139.281 56.0923 139.102 56.177C138.923 56.2617 138.727 56.3037 138.53 56.2995C138.364 56.3 138.2 56.2662 138.048 56.2001C137.896 56.1341 137.759 56.0373 137.646 55.9158C137.534 55.7944 137.447 55.6508 137.393 55.4943C137.338 55.3378 137.317 55.1717 137.33 55.0065C137.316 54.8428 137.338 54.6781 137.392 54.5232C137.447 54.3683 137.534 54.2267 137.647 54.1078C137.761 53.9888 137.898 53.8951 138.05 53.8329C138.202 53.7706 138.365 53.7412 138.53 53.7465C138.725 53.7392 138.92 53.7773 139.099 53.8578C139.278 53.9383 139.435 54.059 139.56 54.2105V53.6485C139.569 53.5472 139.555 53.4452 139.519 53.35C139.484 53.2547 139.427 53.1685 139.354 53.0977C139.281 53.0269 139.194 52.9733 139.097 52.9408C139.001 52.9082 138.899 52.8975 138.798 52.9095C138.614 52.9119 138.432 52.9525 138.265 53.0288C138.097 53.105 137.947 53.2153 137.825 53.3525L137.509 52.7885C137.895 52.4196 138.411 52.2174 138.945 52.2255C139.129 52.1975 139.318 52.2117 139.496 52.267C139.675 52.3224 139.838 52.4174 139.975 52.5451C140.111 52.6727 140.217 52.8295 140.284 53.0038C140.351 53.1782 140.377 53.3654 140.362 53.5515V56.2045H139.562L139.56 56.1985ZM139.56 55.3125V54.7335C139.486 54.6029 139.379 54.494 139.25 54.4179C139.121 54.3417 138.974 54.3009 138.824 54.2995C138.64 54.3114 138.467 54.3927 138.341 54.5271C138.215 54.6615 138.145 54.8388 138.145 55.023C138.145 55.2072 138.215 55.3845 138.341 55.5189C138.467 55.6533 138.64 55.7347 138.824 55.7465C138.973 55.7448 139.119 55.7046 139.248 55.6298C139.377 55.555 139.484 55.4481 139.56 55.3195M141.628 55.3365V53.0215H141.119V52.3215H141.628V51.2625H142.44V52.3235H143.09V53.0235H142.44V55.1695C142.44 55.4355 142.53 55.5945 142.74 55.5945C142.797 55.5965 142.855 55.586 142.908 55.5637C142.961 55.5414 143.009 55.5079 143.048 55.4655L143.243 56.0655C143.048 56.2309 142.797 56.3138 142.543 56.2965C142.415 56.3115 142.285 56.2964 142.164 56.2525C142.043 56.2085 141.934 56.1368 141.845 56.0432C141.757 55.9495 141.691 55.8365 141.654 55.7131C141.617 55.5898 141.609 55.4594 141.632 55.3325M143.839 51.3325C143.84 51.198 143.895 51.0695 143.99 50.9747C144.085 50.8799 144.214 50.8263 144.349 50.8255C144.447 50.8275 144.542 50.8583 144.623 50.9141C144.704 50.9699 144.766 51.0483 144.803 51.1394C144.839 51.2305 144.848 51.3304 144.828 51.4265C144.808 51.5226 144.761 51.6108 144.691 51.68C144.621 51.7492 144.533 51.7964 144.437 51.8157C144.341 51.835 144.241 51.8255 144.15 51.7884C144.059 51.7514 143.981 51.6884 143.926 51.6073C143.87 51.5262 143.84 51.4307 143.839 51.3325ZM143.944 52.3215H144.756V56.2015H143.944V52.3215ZM145.68 54.2575C145.739 53.9357 145.89 53.6376 146.113 53.398C146.336 53.1585 146.622 52.9873 146.939 52.9045C147.255 52.8218 147.589 52.8309 147.901 52.9308C148.212 53.0306 148.489 53.2172 148.699 53.4685C148.908 53.7199 149.042 54.0257 149.084 54.3503C149.126 54.6748 149.075 55.0047 148.937 55.3013C148.799 55.5979 148.579 55.849 148.303 56.0252C148.027 56.2015 147.707 56.2956 147.38 56.2965C147.13 56.2858 146.885 56.223 146.661 56.1122C146.437 56.0014 146.239 55.845 146.079 55.653C145.919 55.461 145.8 55.2377 145.732 54.9974C145.663 54.7571 145.645 54.5051 145.68 54.2575ZM148.234 54.2575C148.164 54.1031 148.053 53.9704 147.914 53.8733C147.775 53.7763 147.613 53.7185 147.444 53.7061C147.275 53.6936 147.106 53.727 146.954 53.8026C146.802 53.8782 146.674 53.9934 146.582 54.1359C146.49 54.2784 146.438 54.443 146.432 54.6124C146.426 54.7818 146.466 54.9497 146.547 55.0985C146.628 55.2472 146.748 55.3714 146.894 55.4578C147.04 55.5442 147.206 55.5897 147.376 55.5895C147.521 55.5609 147.659 55.5034 147.781 55.4203C147.903 55.3372 148.008 55.2303 148.088 55.1059C148.168 54.9816 148.222 54.8424 148.247 54.6966C148.272 54.5508 148.268 54.4015 148.234 54.2575ZM152.161 56.2015V53.5625C152.178 53.4825 152.176 53.3995 152.155 53.3204C152.134 53.2413 152.094 53.1683 152.04 53.1073C151.985 53.0463 151.917 52.999 151.841 52.9693C151.764 52.9397 151.682 52.9284 151.601 52.9365C151.432 52.9482 151.269 53.0041 151.128 53.0988C150.988 53.1934 150.875 53.3233 150.801 53.4755V56.2075H149.989V52.3275H150.801V52.8465C150.929 52.6626 151.098 52.511 151.295 52.4039C151.492 52.2968 151.711 52.2371 151.935 52.2295C152.076 52.2123 152.22 52.2278 152.354 52.275C152.489 52.3221 152.61 52.3996 152.71 52.5014C152.81 52.6033 152.885 52.7267 152.929 52.8622C152.973 52.9976 152.986 53.1414 152.966 53.2825V56.2085H152.156L152.161 56.2015Z" fill="#58595B"/>
<path fill-rule="evenodd" clip-rule="evenodd" d="M151.357 9.9155C152.027 9.91418 152.669 9.64704 153.142 9.17271C153.616 8.69839 153.882 8.05563 153.882 7.3855C153.868 6.72387 153.596 6.09378 153.124 5.63052C152.651 5.16727 152.016 4.90778 151.354 4.90778C150.692 4.90778 150.057 5.16727 149.584 5.63052C149.112 6.09378 148.84 6.72387 148.827 7.3855C148.826 7.71786 148.891 8.04702 149.018 8.35416C149.145 8.66129 149.332 8.94035 149.567 9.17536C149.802 9.41037 150.081 9.59672 150.388 9.72372C150.695 9.85073 151.024 9.9159 151.357 9.9155ZM151.357 5.3545C151.623 5.35228 151.886 5.40356 152.132 5.50529C152.378 5.60703 152.601 5.75714 152.787 5.94671C152.974 6.13627 153.12 6.36142 153.218 6.60876C153.316 6.85611 153.363 7.1206 153.357 7.3865C153.352 7.78322 153.23 8.1697 153.006 8.49723C152.782 8.82475 152.466 9.07866 152.098 9.22692C151.73 9.37519 151.327 9.41117 150.938 9.33035C150.55 9.24952 150.194 9.05549 149.916 8.77274C149.638 8.48998 149.449 8.13116 149.375 7.7415C149.3 7.35185 149.342 6.94882 149.496 6.58322C149.65 6.21763 149.909 5.90584 150.24 5.68717C150.571 5.4685 150.96 5.35275 151.357 5.3545ZM150.866 8.7025V7.6555H151.492L152.019 8.7025H152.561L151.97 7.5625C152.137 7.48328 152.273 7.34917 152.354 7.18236C152.435 7.01555 152.457 6.82605 152.415 6.64523C152.374 6.46441 152.272 6.30312 152.127 6.18806C151.981 6.07299 151.801 6.01105 151.616 6.0125H150.783C150.73 6.00462 150.677 6.00859 150.626 6.02411C150.575 6.03962 150.529 6.06629 150.49 6.10217C150.451 6.13804 150.42 6.18219 150.4 6.2314C150.381 6.2806 150.372 6.3336 150.376 6.3865V8.7015H150.861L150.866 8.7025ZM150.874 6.4405H151.574C151.624 6.43745 151.675 6.44535 151.722 6.46364C151.77 6.48194 151.813 6.51021 151.848 6.54654C151.884 6.58287 151.911 6.6264 151.928 6.67419C151.945 6.72198 151.952 6.7729 151.948 6.8235C151.95 6.87671 151.942 6.92987 151.922 6.97956C151.903 7.02926 151.874 7.07439 151.836 7.11206C151.798 7.14973 151.753 7.1791 151.704 7.1983C151.654 7.21749 151.601 7.22607 151.548 7.2235H150.872V6.4395L150.874 6.4405ZM56.3185 9.8625C61.6075 9.8625 62.2695 15.3095 62.2695 15.3095L68.5695 13.8315C68.5315 13.6745 67.4405 4.2565 56.3195 4.2565C49.4365 4.2565 43.0195 8.4565 43.0195 19.2015C43.0195 29.8635 49.7845 33.9505 56.7865 33.9505C60.0245 33.9906 63.2204 33.2148 66.0795 31.6945C67.5965 30.7995 68.4515 29.9445 68.4515 28.1155V21.5415C68.4695 21.1539 68.4024 20.7671 68.2551 20.4081C68.1078 20.0492 67.8837 19.7268 67.5987 19.4635C67.3136 19.2003 66.9745 19.0026 66.6049 18.8843C66.2354 18.7659 65.8445 18.7298 65.4595 18.7785H56.8185V23.6455H62.2185V27.4185C60.6208 28.3228 58.8044 28.7682 56.9695 28.7055C53.4315 28.7055 49.7365 26.5635 49.7365 19.2055C49.7365 12.0055 52.9645 9.8675 56.3095 9.8675M84.3095 4.2225C81.6635 4.2225 80.0695 5.3525 79.2925 7.6855L70.7415 33.5625H77.5045C78.0165 33.5241 78.4984 33.3063 78.8655 32.9475L87.0055 24.8985C87.1745 24.7295 87.1285 24.6495 86.9345 24.6495H85.8345C85.3835 24.6456 84.9399 24.7638 84.5505 24.9915L79.0725 28.1415L84.2725 10.5575C84.2725 10.5575 90.4535 31.8455 90.9585 33.5575H97.9205L89.4815 7.6385C88.7815 5.4615 86.9955 4.2135 84.3115 4.2135M112.272 9.7795C117.56 9.7795 118.262 15.6175 118.262 15.6175L124.562 14.2935C124.562 14.2935 123.63 4.2625 112.275 4.2625C105.392 4.2625 98.9745 8.3515 98.9745 19.0935C98.9745 29.7535 105.352 33.9935 112.236 33.9935C123.357 33.9935 124.564 24.1865 124.564 24.1865L118.264 22.8235C118.264 22.8235 117.755 28.4655 112.352 28.4655C109.009 28.4655 105.741 26.3245 105.741 19.0885C105.741 11.8885 108.929 9.7885 112.274 9.7885M139.732 4.2225C137.086 4.2225 135.49 5.3525 134.713 7.6855L126.159 33.5625H132.922C133.434 33.5243 133.916 33.3065 134.283 32.9475L142.425 24.8985C142.593 24.7295 142.546 24.6495 142.352 24.6495H141.252C140.801 24.6456 140.357 24.7638 139.968 24.9915L134.49 28.1415L139.69 10.5575C139.69 10.5575 145.874 31.8455 146.379 33.5575H153.341L144.902 7.6385C144.202 5.4615 142.413 4.2135 139.731 4.2135" fill="#274479"/>
<path fill-rule="evenodd" clip-rule="evenodd" d="M40.8927 33.6425C40.943 33.6377 40.9893 33.6135 41.022 33.575C41.0547 33.5365 41.0711 33.4869 41.0677 33.4365C41.0709 33.3972 41.0633 33.3578 41.0456 33.3226C41.028 33.2873 41.001 33.2575 40.9677 33.2365C39.1782 32.6462 37.5977 31.5509 36.4165 30.0827C35.2354 28.6144 34.5041 26.8359 34.3107 24.9615L32.7107 13.5615C31.9667 8.26651 28.0677 4.6555 23.5217 4.5695H0.169711C0.147365 4.5687 0.125083 4.57239 0.10419 4.58036C0.0832973 4.58833 0.0642333 4.60042 0.0480986 4.6159C0.031964 4.63138 0.0191122 4.64995 0.0102874 4.67049C0.00146249 4.69104 -0.003143 4.71314 -0.00326245 4.73551C-0.00988053 4.77513 -0.00377389 4.81584 0.0141936 4.85177C0.0321611 4.88771 0.0610401 4.91702 0.0967131 4.93551C1.88811 5.53321 3.46912 6.63488 4.65021 8.10845C5.8313 9.58202 6.56234 11.3649 6.75571 13.2435L8.35572 24.6435C9.09972 29.9185 12.9957 33.5495 17.5417 33.6545L40.8927 33.6425ZM30.9327 28.7685H26.7707C26.3084 28.811 25.8436 28.7197 25.4317 28.5055L22.5897 26.9935L24.2317 26.1235L30.9537 28.6855C31.0527 28.7295 31.0527 28.7685 30.9327 28.7685ZM27.6327 16.7515C27.6225 16.7642 27.6079 16.7725 27.5918 16.775C27.5757 16.7774 27.5592 16.7736 27.5457 16.7645C26.2319 16.0151 24.845 15.4016 23.4067 14.9335C23.2287 14.8755 22.9757 14.7895 22.7417 14.7335C22.6417 19.4395 22.1987 23.0975 21.7417 23.1025C21.2847 23.1075 20.8417 19.4395 20.7417 14.7335C20.5067 14.7885 20.2547 14.8755 20.0767 14.9335C18.6381 15.4016 17.2509 16.0151 15.9367 16.7645C15.9235 16.7738 15.9071 16.7776 15.8911 16.7752C15.8751 16.7728 15.8606 16.7643 15.8507 16.7515C15.8438 16.7418 15.8397 16.7304 15.8387 16.7185C15.7903 16.4764 15.8014 16.2261 15.8711 15.9892C15.9408 15.7523 16.0669 15.5359 16.2387 15.3585C16.6532 14.9792 17.1029 14.6403 17.5817 14.3465C18.1592 13.9667 18.7654 13.6324 19.3947 13.3465C19.5607 13.2685 19.7697 13.1735 19.9337 13.1045C18.8892 12.5234 17.7911 12.0442 16.6547 11.6735C16.6482 11.6719 16.6421 11.669 16.6367 11.665C16.6313 11.661 16.6268 11.6559 16.6234 11.6502C16.6199 11.6444 16.6177 11.638 16.6167 11.6314C16.6157 11.6248 16.6161 11.618 16.6177 11.6115C16.6203 11.602 16.626 11.5936 16.6337 11.5875C16.7649 11.4378 16.9286 11.3201 17.1124 11.2436C17.2962 11.1672 17.4951 11.134 17.6937 11.1465C18.065 11.195 18.4325 11.2689 18.7937 11.3675C19.1937 11.4675 19.5937 11.5775 19.9817 11.7055C20.2067 11.7795 20.4287 11.8585 20.6497 11.9455L20.7597 11.9875C20.8957 10.7165 21.2857 9.7875 21.7437 9.7875C22.2017 9.7875 22.5917 10.7115 22.7277 11.9875L22.8377 11.9455C23.0577 11.8585 23.2807 11.7795 23.5047 11.7055C23.8967 11.5775 24.2931 11.4648 24.6937 11.3675C25.0549 11.2689 25.4225 11.195 25.7937 11.1465C25.9924 11.134 26.1913 11.1672 26.375 11.2436C26.5588 11.3201 26.7226 11.4378 26.8537 11.5875C26.8615 11.5936 26.8671 11.602 26.8697 11.6115C26.8714 11.618 26.8717 11.6248 26.8708 11.6314C26.8698 11.638 26.8675 11.6444 26.8641 11.6502C26.8606 11.6559 26.8561 11.661 26.8507 11.665C26.8453 11.669 26.8392 11.6719 26.8327 11.6735C25.6963 12.0442 24.5983 12.5234 23.5537 13.1045C23.7167 13.1725 23.9257 13.2675 24.0927 13.3465C24.722 13.6324 25.3282 13.9667 25.9057 14.3465C26.3846 14.6403 26.8343 14.9792 27.2487 15.3585C27.4203 15.536 27.5463 15.7525 27.616 15.9893C27.6856 16.2262 27.6969 16.4764 27.6487 16.7185C27.648 16.7303 27.6442 16.7417 27.6377 16.7515H27.6327ZM16.5787 23.6905L17.6447 23.6845C17.7944 23.6814 17.9434 23.7051 18.0847 23.7545L20.6307 24.7545L19.3087 25.2545L16.5597 23.7895C16.4657 23.7315 16.4657 23.6935 16.5837 23.6905H16.5787ZM25.7137 23.7555L26.7767 23.7635C26.8967 23.7635 26.8967 23.8055 26.7977 23.8635L18.0547 28.5085C17.6413 28.7216 17.1759 28.8128 16.7127 28.7715H12.5527C12.4337 28.7715 12.4337 28.7325 12.5327 28.6915L25.2737 23.8325C25.4157 23.7785 25.5668 23.7524 25.7187 23.7555H25.7137Z" fill="#0075C9"/>
</g>
<line x1="169.375" y1="2.18557e-08" x2="169.375" y2="62" stroke="#0175CA"/>
<g clip-path="url(#clip1_203_428)">
<path fill-rule="evenodd" clip-rule="evenodd" d="M220.374 50.9725L214.156 50.9785C213.465 51.0408 212.771 50.9018 212.156 50.5785L207.911 48.3045L210.364 46.9955L220.408 50.8495C220.56 50.9155 220.559 50.9725 220.374 50.9725ZM215.452 32.8915C215.436 32.9096 215.414 32.9214 215.391 32.9249C215.367 32.9284 215.343 32.9233 215.322 32.9105C213.36 31.7832 211.288 30.86 209.137 30.1555C208.871 30.0685 208.493 29.9385 208.143 29.8555C207.992 36.9365 207.333 42.4395 206.65 42.4475C205.967 42.4395 205.308 36.9355 205.156 29.8555C204.805 29.9385 204.428 30.0685 204.156 30.1555C202.006 30.8602 199.934 31.7834 197.973 32.9105C197.953 32.9246 197.928 32.9305 197.904 32.927C197.88 32.9235 197.858 32.9107 197.843 32.8915C197.833 32.8774 197.826 32.8603 197.825 32.8425C197.752 32.4784 197.769 32.1021 197.873 31.7458C197.978 31.3895 198.167 31.0638 198.424 30.7965C199.043 30.226 199.715 29.716 200.431 29.2735C201.293 28.7007 202.199 28.1961 203.14 27.7645C203.388 27.6465 203.701 27.5035 203.94 27.4015C202.381 26.5268 200.74 25.8054 199.041 25.2475C199.031 25.245 199.021 25.2407 199.013 25.2346C199.005 25.2285 198.998 25.2209 198.993 25.2122C198.988 25.2034 198.984 25.1937 198.983 25.1837C198.981 25.1736 198.982 25.1633 198.984 25.1535C198.989 25.1395 198.997 25.1271 199.008 25.1175C199.204 24.8928 199.448 24.7162 199.723 24.6012C199.998 24.4862 200.295 24.436 200.593 24.4545C201.148 24.5276 201.697 24.6389 202.237 24.7875C202.837 24.9342 203.429 25.1038 204.013 25.2965C204.348 25.4075 204.681 25.5265 205.013 25.6575L205.179 25.7215C205.379 23.8085 205.964 22.4095 206.648 22.4215C207.332 22.4135 207.916 23.8115 208.119 25.7215L208.283 25.6575C208.612 25.5265 208.944 25.4075 209.283 25.2965C209.869 25.1032 210.461 24.9335 211.059 24.7875C211.6 24.6389 212.149 24.5276 212.705 24.4545C213.002 24.436 213.299 24.4862 213.574 24.6012C213.849 24.7162 214.093 24.8928 214.288 25.1175C214.3 25.1271 214.308 25.1395 214.312 25.1535C214.317 25.1735 214.314 25.1946 214.303 25.2122C214.293 25.2299 214.275 25.2425 214.255 25.2475C212.556 25.8056 210.915 26.527 209.356 27.4015C209.6 27.5015 209.912 27.6465 210.156 27.7645C211.1 28.1955 212.009 28.7 212.874 29.2735C213.588 29.7161 214.258 30.2261 214.874 30.7965C215.132 31.0641 215.321 31.3898 215.425 31.746C215.529 32.1022 215.546 32.4784 215.474 32.8425C215.473 32.8606 215.466 32.8779 215.455 32.8925L215.452 32.8915ZM198.939 43.3335L200.533 43.3245C200.756 43.32 200.979 43.3559 201.189 43.4305L204.989 44.9305L203.013 45.6875L198.906 43.4875C198.763 43.3945 198.763 43.3365 198.939 43.3335ZM212.588 43.4335L214.177 43.4455C214.356 43.4455 214.356 43.5085 214.208 43.5955L201.145 50.5845C200.53 50.9056 199.836 51.0444 199.145 50.9845L192.929 50.9785C192.751 50.9785 192.752 50.9205 192.9 50.8585L211.937 43.5475C212.144 43.4675 212.366 43.4278 212.588 43.4305V43.4335ZM229.257 33.2335C228.785 33.2925 228.309 33.1636 227.932 32.8747C227.555 32.5858 227.306 32.16 227.241 31.6895C227.217 31.4566 227.24 31.2213 227.309 30.9974C227.377 30.7735 227.489 30.5653 227.638 30.3851C227.788 30.2049 227.972 30.0562 228.179 29.9476C228.386 29.839 228.613 29.7727 228.846 29.7525C229.318 29.693 229.794 29.8215 230.171 30.1103C230.548 30.3991 230.797 30.8249 230.862 31.2955C230.885 31.5283 230.862 31.7633 230.793 31.987C230.724 32.2106 230.612 32.4185 230.463 32.5985C230.314 32.7786 230.13 32.9273 229.923 33.0361C229.716 33.145 229.49 33.2127 229.257 33.2335ZM228.315 27.7015C227.87 27.8738 227.375 27.867 226.935 27.6824C226.494 27.4979 226.142 27.1499 225.952 26.7115C225.867 26.4952 225.825 26.2639 225.831 26.0312C225.836 25.7986 225.889 25.5695 225.985 25.3576C226.081 25.1457 226.219 24.9554 226.39 24.798C226.562 24.6405 226.763 24.5193 226.982 24.4415C227.428 24.2687 227.923 24.2751 228.364 24.4593C228.804 24.6435 229.157 24.9912 229.346 25.4295C229.432 25.6459 229.473 25.8774 229.467 26.11C229.462 26.3427 229.409 26.5718 229.313 26.7837C229.217 26.9957 229.079 27.186 228.907 27.3435C228.736 27.501 228.535 27.6234 228.315 27.7015ZM223.374 22.2235C223.232 22.0399 223.129 21.8292 223.072 21.6044C223.014 21.3796 223.002 21.1453 223.038 20.916C223.074 20.6866 223.156 20.467 223.28 20.2706C223.404 20.0741 223.566 19.905 223.757 19.7735C224.149 19.4966 224.631 19.3803 225.106 19.4486C225.58 19.5169 226.01 19.7645 226.307 20.1405C226.449 20.3245 226.551 20.5353 226.609 20.7602C226.666 20.985 226.677 21.2191 226.641 21.4483C226.605 21.6776 226.523 21.8971 226.4 22.0936C226.276 22.2901 226.114 22.4595 225.924 22.5915C225.532 22.8682 225.05 22.9843 224.576 22.9159C224.101 22.8474 223.671 22.5996 223.374 22.2235ZM225.244 46.1505C225.39 46.2603 225.512 46.3986 225.603 46.5571C225.694 46.7155 225.752 46.8908 225.774 47.0723C225.795 47.2538 225.78 47.4378 225.728 47.6132C225.677 47.7885 225.59 47.9516 225.473 48.0925C225.228 48.3793 224.882 48.5617 224.506 48.6024C224.131 48.6431 223.754 48.539 223.452 48.3115C223.307 48.2015 223.185 48.0632 223.094 47.9047C223.003 47.7463 222.945 47.5711 222.924 47.3897C222.902 47.2083 222.918 47.0245 222.97 46.8493C223.021 46.6741 223.108 46.5113 223.224 46.3705C223.469 46.0846 223.814 45.9026 224.188 45.8618C224.563 45.8209 224.939 45.9241 225.239 46.1505H225.244ZM219.671 18.5315C219.485 18.3933 219.329 18.2184 219.212 18.0176C219.096 17.8167 219.022 17.5941 218.995 17.3635C218.968 17.1329 218.988 16.8992 219.055 16.6769C219.121 16.4545 219.233 16.2481 219.382 16.0705C219.692 15.7051 220.13 15.4724 220.607 15.4204C221.083 15.3683 221.561 15.5007 221.942 15.7905C222.128 15.9295 222.284 16.1048 222.4 16.3058C222.515 16.5068 222.589 16.7293 222.616 16.9597C222.644 17.1901 222.623 17.4237 222.557 17.6461C222.491 17.8685 222.381 18.0752 222.232 18.2535C221.922 18.6198 221.483 18.8528 221.005 18.9046C220.528 18.9563 220.049 18.8227 219.668 18.5315H219.671ZM215.101 15.8875C214.885 15.8019 214.688 15.6734 214.523 15.5098C214.357 15.3462 214.227 15.1508 214.139 14.9354C214.051 14.72 214.007 14.4891 214.01 14.2564C214.014 14.0238 214.064 13.7942 214.158 13.5815C214.364 13.1495 214.728 12.8139 215.176 12.645C215.623 12.476 216.119 12.487 216.559 12.6755C216.774 12.7609 216.971 12.8889 217.136 13.052C217.301 13.2151 217.432 13.4099 217.52 13.6247C217.608 13.8395 217.652 14.0699 217.648 14.302C217.645 14.5341 217.595 14.7632 217.502 14.9755C217.297 15.409 216.932 15.746 216.483 15.9156C216.035 16.0852 215.538 16.074 215.098 15.8845L215.101 15.8875ZM209.974 14.4695C209.742 14.4411 209.518 14.3667 209.315 14.2508C209.112 14.1349 208.934 13.9797 208.791 13.7944C208.649 13.609 208.544 13.3971 208.485 13.171C208.425 12.9449 208.41 12.7092 208.442 12.4775C208.526 12.0093 208.79 11.5926 209.178 11.3172C209.565 11.0419 210.046 10.9299 210.515 11.0055C210.748 11.0339 210.972 11.1082 211.175 11.2241C211.378 11.3399 211.556 11.495 211.698 11.6803C211.841 11.8656 211.945 12.0773 212.005 12.3033C212.065 12.5293 212.079 12.7649 212.047 12.9965C211.965 13.465 211.701 13.8821 211.313 14.1577C210.925 14.4333 210.444 14.5453 209.974 14.4695ZM204.783 14.4695C204.313 14.5453 203.832 14.4335 203.445 14.1581C203.057 13.8827 202.793 13.4658 202.71 12.9975C202.677 12.7659 202.692 12.5302 202.752 12.3042C202.811 12.0782 202.916 11.8663 203.058 11.681C203.201 11.4957 203.379 11.3406 203.582 11.2248C203.785 11.109 204.009 11.0348 204.241 11.0065C204.711 10.9307 205.191 11.0426 205.579 11.318C205.967 11.5934 206.231 12.0102 206.314 12.4785C206.346 12.7106 206.331 12.9468 206.271 13.1733C206.21 13.3997 206.105 13.6118 205.962 13.7972C205.819 13.9826 205.64 14.1376 205.436 14.253C205.232 14.3684 205.007 14.442 204.775 14.4695H204.783ZM199.651 15.8845C199.212 16.0726 198.716 16.0831 198.269 15.9139C197.821 15.7446 197.457 15.4086 197.252 14.9765C197.158 14.7641 197.108 14.535 197.105 14.3029C197.102 14.0708 197.146 13.8405 197.234 13.6258C197.323 13.4111 197.453 13.2163 197.618 13.0532C197.783 12.8901 197.98 12.762 198.195 12.6765C198.635 12.488 199.131 12.477 199.578 12.646C200.026 12.8149 200.39 13.1505 200.596 13.5825C200.689 13.7951 200.739 14.0243 200.742 14.2565C200.745 14.4888 200.701 14.7192 200.613 14.9341C200.525 15.149 200.394 15.3439 200.229 15.5072C200.064 15.6705 199.867 15.7988 199.651 15.8845ZM192.52 18.2495C192.372 18.0712 192.261 17.8646 192.195 17.6421C192.129 17.4197 192.109 17.1861 192.136 16.9557C192.163 16.7252 192.237 16.5027 192.353 16.3017C192.469 16.1007 192.625 15.9254 192.81 15.7865C193.192 15.497 193.67 15.3647 194.146 15.4167C194.622 15.4688 195.06 15.7013 195.37 16.0665C195.52 16.2441 195.632 16.4505 195.698 16.6729C195.765 16.8952 195.785 17.1289 195.758 17.3595C195.731 17.5901 195.657 17.8127 195.541 18.0136C195.424 18.2144 195.268 18.3893 195.081 18.5275C194.7 18.8179 194.223 18.9512 193.746 18.9001C193.27 18.8489 192.831 18.6172 192.52 18.2525V18.2495ZM189.275 48.0925C189.158 47.9515 189.072 47.7883 189.02 47.613C188.969 47.4376 188.953 47.2536 188.975 47.0721C188.997 46.8906 189.055 46.7154 189.146 46.557C189.237 46.3986 189.359 46.2603 189.505 46.1505C189.807 45.923 190.183 45.8191 190.558 45.86C190.933 45.9009 191.279 46.0835 191.523 46.3705C191.64 46.5111 191.727 46.674 191.779 46.8491C191.831 47.0243 191.846 47.2081 191.825 47.3896C191.804 47.571 191.746 47.7462 191.655 47.9047C191.564 48.0632 191.442 48.2016 191.296 48.3115C190.995 48.5389 190.618 48.6428 190.242 48.6021C189.867 48.5614 189.521 48.3792 189.275 48.0925ZM188.825 22.5925C188.635 22.4605 188.473 22.2911 188.349 22.0946C188.226 21.8981 188.144 21.6786 188.108 21.4494C188.072 21.2201 188.083 20.986 188.14 20.7612C188.198 20.5363 188.3 20.3255 188.442 20.1415C188.739 19.7653 189.169 19.5175 189.643 19.4492C190.118 19.3809 190.6 19.4974 190.991 19.7745C191.183 19.9061 191.345 20.0753 191.469 20.2717C191.592 20.4682 191.674 20.6877 191.71 20.9171C191.746 21.1464 191.735 21.3806 191.677 21.6054C191.619 21.8302 191.516 22.0408 191.374 22.2245C191.078 22.5993 190.648 22.8462 190.175 22.9145C189.702 22.9827 189.22 22.8671 188.83 22.5915L188.825 22.5925ZM188.791 26.7115C188.602 27.1499 188.25 27.4979 187.809 27.6824C187.369 27.867 186.874 27.8738 186.429 27.7015C186.209 27.6233 186.008 27.5018 185.837 27.3442C185.665 27.1866 185.527 26.9961 185.431 26.7841C185.335 26.5721 185.283 26.3429 185.277 26.1101C185.272 25.8774 185.313 25.6459 185.398 25.4295C185.588 24.9913 185.94 24.6436 186.381 24.4594C186.821 24.2752 187.316 24.2688 187.762 24.4415C187.981 24.5187 188.183 24.6395 188.355 24.7966C188.527 24.9537 188.665 25.1439 188.762 25.3558C188.858 25.5677 188.911 25.7969 188.917 26.0297C188.923 26.2625 188.881 26.494 188.796 26.7105L188.791 26.7115ZM185.898 29.7515C186.132 29.7718 186.359 29.8382 186.566 29.9468C186.773 30.0555 186.957 30.2042 187.106 30.3844C187.256 30.5646 187.368 30.7726 187.436 30.9965C187.504 31.2204 187.528 31.4556 187.504 31.6885C187.439 32.159 187.19 32.5848 186.813 32.8737C186.436 33.1626 185.96 33.2915 185.489 33.2325C185.255 33.2117 185.028 33.1449 184.821 33.036C184.614 32.9271 184.43 32.7782 184.281 32.5979C184.132 32.4176 184.019 32.2095 183.951 31.9856C183.882 31.7618 183.859 31.5265 183.882 31.2935C183.947 30.822 184.197 30.3956 184.575 30.1067C184.953 29.8178 185.43 29.6898 185.903 29.7505L185.898 29.7515ZM185.528 35.3445C185.998 35.2689 186.478 35.3809 186.866 35.6563C187.253 35.9317 187.517 36.3484 187.601 36.8165C187.633 37.0481 187.619 37.2838 187.559 37.5099C187.499 37.736 187.395 37.9479 187.252 38.1333C187.11 38.3187 186.932 38.4739 186.729 38.5898C186.526 38.7057 186.302 38.7801 186.07 38.8085C185.6 38.8838 185.119 38.7718 184.732 38.4965C184.344 38.2212 184.079 37.8047 183.995 37.3365C183.964 37.1044 183.978 36.8683 184.038 36.6419C184.099 36.4155 184.203 36.2034 184.346 36.0179C184.489 35.8324 184.668 35.6772 184.872 35.5614C185.075 35.4457 185.3 35.3716 185.533 35.3435L185.528 35.3445ZM186.676 40.8445C187.116 40.6559 187.611 40.6448 188.059 40.8135C188.506 40.9823 188.871 41.3177 189.077 41.7495C189.171 41.9623 189.221 42.1919 189.225 42.4247C189.228 42.6574 189.184 42.8884 189.096 43.1039C189.009 43.3194 188.878 43.5149 188.713 43.6787C188.547 43.8426 188.351 43.9714 188.135 44.0575C187.695 44.2447 187.2 44.2548 186.752 44.0858C186.305 43.9168 185.941 43.5818 185.734 43.1505C185.639 42.9374 185.589 42.7071 185.585 42.4738C185.581 42.2404 185.625 42.0087 185.713 41.7928C185.802 41.5768 185.933 41.3809 186.099 41.2171C186.266 41.0533 186.463 40.9248 186.681 40.8395L186.676 40.8445ZM225.666 41.7495C225.871 41.3177 226.236 40.9823 226.683 40.8135C227.131 40.6448 227.626 40.6559 228.065 40.8445C228.282 40.9299 228.479 41.0583 228.645 41.2218C228.81 41.3853 228.941 41.5807 229.03 41.7961C229.118 42.0115 229.162 42.2425 229.158 42.4752C229.155 42.708 229.105 42.9377 229.01 43.1505C228.804 43.5818 228.44 43.9168 227.993 44.0858C227.545 44.2548 227.05 44.2447 226.611 44.0575C226.394 43.9714 226.197 43.8423 226.031 43.678C225.865 43.5138 225.735 43.3177 225.647 43.1017C225.559 42.8856 225.516 42.654 225.519 42.4208C225.523 42.1875 225.574 41.9575 225.669 41.7445L225.666 41.7495ZM228.666 38.8135C228.433 38.7849 228.209 38.7105 228.006 38.5946C227.803 38.4786 227.625 38.3234 227.483 38.138C227.34 37.9527 227.236 37.7408 227.176 37.5148C227.117 37.2887 227.102 37.0531 227.135 36.8215C227.218 36.3533 227.482 35.9366 227.87 35.6612C228.258 35.3859 228.738 35.2739 229.208 35.3495C229.44 35.3782 229.664 35.4527 229.867 35.5687C230.07 35.6847 230.247 35.8398 230.39 36.0252C230.533 36.2105 230.637 36.4223 230.697 36.6483C230.757 36.8742 230.771 37.1099 230.739 37.3415C230.654 37.8069 230.391 38.2208 230.005 38.4948C229.62 38.7688 229.142 38.8814 228.674 38.8085L228.666 38.8135ZM225.075 31.6845C224.69 31.775 224.285 31.7103 223.948 31.5044C223.611 31.2984 223.369 30.9679 223.275 30.5845C223.232 30.3954 223.227 30.1996 223.261 30.0087C223.295 29.8177 223.366 29.6354 223.471 29.4724C223.576 29.3093 223.712 29.1687 223.872 29.0589C224.032 28.949 224.212 28.8721 224.401 28.8325C224.786 28.7436 225.19 28.809 225.526 29.0147C225.863 29.2204 226.105 29.5499 226.202 29.9325C226.244 30.1216 226.248 30.3172 226.214 30.5079C226.18 30.6987 226.108 30.8808 226.004 31.0437C225.899 31.2067 225.763 31.3472 225.603 31.4572C225.444 31.5672 225.264 31.6444 225.075 31.6845ZM223.775 27.1845C223.424 27.367 223.015 27.4059 222.636 27.2927C222.257 27.1796 221.937 26.9235 221.744 26.5785C221.651 26.4086 221.594 26.2218 221.576 26.0294C221.557 25.8369 221.578 25.6428 221.636 25.4584C221.694 25.274 221.789 25.1032 221.914 24.9562C222.04 24.8092 222.194 24.6889 222.366 24.6025C222.717 24.4197 223.124 24.3802 223.503 24.4921C223.882 24.604 224.203 24.8587 224.398 25.2025C224.49 25.3728 224.547 25.56 224.566 25.753C224.585 25.9459 224.564 26.1407 224.506 26.3256C224.448 26.5105 224.353 26.6819 224.228 26.8294C224.102 26.977 223.948 27.0977 223.775 27.1845ZM219.193 23.0935C219.059 22.9547 218.954 22.7903 218.885 22.6101C218.816 22.4298 218.784 22.2375 218.791 22.0445C218.798 21.8516 218.844 21.6621 218.926 21.4873C219.008 21.3126 219.125 21.1562 219.268 21.0275C219.563 20.7628 219.949 20.6226 220.345 20.6364C220.741 20.6502 221.116 20.8169 221.392 21.1015C221.526 21.2402 221.63 21.4046 221.699 21.5848C221.768 21.7649 221.8 21.9571 221.793 22.1499C221.786 22.3427 221.74 22.5322 221.658 22.7068C221.577 22.8815 221.46 23.0378 221.317 23.1665C221.022 23.4323 220.635 23.5732 220.239 23.5594C219.842 23.5456 219.466 23.3782 219.19 23.0925L219.193 23.0935ZM215.802 20.3685C215.636 20.2699 215.492 20.1389 215.377 19.9833C215.263 19.8277 215.181 19.6506 215.137 19.4627C215.092 19.2748 215.086 19.0798 215.118 18.8894C215.151 18.699 215.221 18.5171 215.325 18.3545C215.543 18.024 215.881 17.7909 216.267 17.7045C216.653 17.6182 217.058 17.6852 217.395 17.8915C217.561 17.9898 217.706 18.1205 217.82 18.2758C217.935 18.4311 218.017 18.6078 218.061 18.7954C218.106 18.9831 218.113 19.1778 218.08 19.368C218.048 19.5581 217.978 19.7399 217.874 19.9025C217.657 20.2345 217.319 20.4687 216.931 20.5554C216.544 20.642 216.138 20.5743 215.799 20.3665L215.802 20.3685ZM211.802 18.5905C211.616 18.5383 211.441 18.4493 211.29 18.3287C211.138 18.2082 211.012 18.0585 210.918 17.8885C210.825 17.7184 210.767 17.5315 210.747 17.3387C210.727 17.1458 210.746 16.951 210.802 16.7655C210.926 16.3908 211.192 16.0796 211.542 15.8986C211.893 15.7176 212.3 15.6813 212.677 15.7975C212.864 15.8496 213.039 15.9385 213.191 16.0591C213.343 16.1796 213.469 16.3293 213.562 16.4993C213.655 16.6694 213.713 16.8564 213.733 17.0492C213.753 17.2421 213.734 17.437 213.677 17.6225C213.552 17.9961 213.285 18.3058 212.935 18.4855C212.584 18.6653 212.177 18.7008 211.801 18.5845L211.802 18.5905ZM207.284 17.8845C206.997 17.8871 206.715 17.8048 206.474 17.648C206.233 17.4912 206.044 17.2668 205.929 17.0028C205.815 16.7389 205.782 16.4472 205.832 16.1642C205.883 15.8812 206.016 15.6194 206.215 15.4117C206.414 15.204 206.67 15.0595 206.95 14.9963C207.231 14.9331 207.524 14.954 207.792 15.0565C208.061 15.1589 208.293 15.3383 208.461 15.5722C208.628 15.8061 208.722 16.0841 208.732 16.3715C208.74 16.7638 208.592 17.1432 208.321 17.4267C208.049 17.7102 207.677 17.8748 207.284 17.8845ZM202.948 18.5935C202.571 18.7094 202.163 18.6729 201.813 18.4918C201.462 18.3106 201.196 17.9993 201.072 17.6245C201.016 17.439 200.997 17.2441 201.017 17.0512C201.037 16.8584 201.095 16.6714 201.188 16.5013C201.281 16.3313 201.407 16.1816 201.559 16.0611C201.711 15.9405 201.886 15.8516 202.072 15.7995C202.45 15.6833 202.857 15.7195 203.208 15.9005C203.559 16.0815 203.825 16.3927 203.948 16.7675C204.004 16.9524 204.022 17.1465 204.001 17.3385C203.981 17.5304 203.922 17.7163 203.829 17.8854C203.736 18.0545 203.61 18.2034 203.459 18.3235C203.308 18.4435 203.134 18.5322 202.948 18.5845V18.5935ZM198.948 20.3715C198.61 20.5785 198.204 20.6453 197.816 20.5577C197.429 20.4701 197.091 20.2351 196.874 19.9025C196.77 19.74 196.7 19.5581 196.667 19.3678C196.635 19.1775 196.641 18.9826 196.686 18.7948C196.73 18.6069 196.812 18.4299 196.927 18.2744C197.041 18.1189 197.185 17.988 197.351 17.8895C197.689 17.6829 198.094 17.6158 198.48 17.7022C198.866 17.7886 199.204 18.0218 199.421 18.3525C199.526 18.5147 199.597 18.6964 199.63 18.8866C199.663 19.0768 199.657 19.2717 199.613 19.4597C199.569 19.6476 199.487 19.8247 199.373 19.9805C199.259 20.1363 199.115 20.2676 198.95 20.3665L198.948 20.3715ZM193.434 23.1715C193.291 23.0428 193.174 22.8865 193.092 22.7118C193.011 22.5372 192.965 22.3478 192.958 22.155C192.951 21.9622 192.983 21.7699 193.052 21.5898C193.121 21.4096 193.225 21.2452 193.359 21.1065C193.635 20.8219 194.01 20.6552 194.406 20.6414C194.802 20.6276 195.188 20.7678 195.482 21.0325C195.626 21.1613 195.742 21.3178 195.824 21.4925C195.906 21.6673 195.952 21.8567 195.959 22.0496C195.966 22.2424 195.934 22.4347 195.865 22.6149C195.796 22.7951 195.691 22.9596 195.557 23.0985C195.281 23.3819 194.906 23.5471 194.51 23.5594C194.114 23.5717 193.729 23.4302 193.435 23.1645L193.434 23.1715ZM193.007 26.5835C192.814 26.9283 192.494 27.1843 192.115 27.2974C191.736 27.4105 191.327 27.3718 190.976 27.1895C190.804 27.1027 190.65 26.9822 190.525 26.835C190.4 26.6879 190.305 26.5171 190.247 26.3328C190.189 26.1485 190.168 25.9544 190.186 25.762C190.204 25.5695 190.261 25.3827 190.353 25.2125C190.547 24.8687 190.868 24.6139 191.247 24.502C191.626 24.3901 192.034 24.4297 192.385 24.6125C192.556 24.6989 192.708 24.8188 192.833 24.9649C192.958 25.1111 193.052 25.2807 193.11 25.4637C193.168 25.6468 193.189 25.8396 193.172 26.0308C193.154 26.2221 193.099 26.408 193.008 26.5775L193.007 26.5835ZM191.474 30.5845C191.38 30.9679 191.138 31.2984 190.801 31.5044C190.464 31.7103 190.059 31.775 189.674 31.6845C189.485 31.6447 189.305 31.5676 189.145 31.4577C188.986 31.3478 188.849 31.2072 188.744 31.0443C188.639 30.8813 188.568 30.6991 188.534 30.5082C188.5 30.3174 188.504 30.1217 188.546 29.9325C188.641 29.5491 188.883 29.2186 189.22 29.0126C189.557 28.8067 189.962 28.742 190.346 28.8325C190.536 28.8719 190.717 28.9488 190.876 29.0586C191.036 29.1684 191.173 29.309 191.278 29.4721C191.383 29.6351 191.454 29.8175 191.488 30.0085C191.522 30.1995 191.517 30.3953 191.474 30.5845ZM189.502 33.4375C189.789 33.4351 190.071 33.5176 190.312 33.6745C190.553 33.8315 190.742 34.056 190.856 34.32C190.97 34.584 191.003 34.8758 190.952 35.1588C190.901 35.4418 190.768 35.7034 190.569 35.911C190.37 36.1186 190.114 36.2629 189.834 36.3259C189.553 36.3889 189.26 36.3678 188.992 36.2652C188.723 36.1625 188.491 35.983 188.324 35.749C188.157 35.515 188.062 35.2369 188.052 34.9495C188.045 34.5579 188.194 34.1795 188.464 33.8966C188.735 33.6138 189.107 33.4495 189.499 33.4395L189.502 33.4375ZM189.908 38.0965C190.286 37.9803 190.694 38.0167 191.044 38.1979C191.395 38.3791 191.661 38.6906 191.784 39.0655C191.841 39.251 191.86 39.446 191.84 39.6389C191.82 39.8318 191.762 40.0188 191.669 40.1889C191.575 40.359 191.449 40.5087 191.297 40.6294C191.146 40.7501 190.971 40.8392 190.784 40.8915C190.407 41.0069 189.999 40.9702 189.649 40.7891C189.298 40.6081 189.032 40.2971 188.908 39.9225C188.851 39.7372 188.833 39.5426 188.853 39.35C188.872 39.1574 188.931 38.9708 189.023 38.8009C189.116 38.6311 189.242 38.4815 189.394 38.3609C189.545 38.2403 189.719 38.1511 189.905 38.0985L189.908 38.0965ZM191.687 42.2715C191.984 42.1271 192.324 42.1038 192.637 42.2065C192.951 42.3092 193.211 42.5298 193.364 42.8215C193.438 42.9653 193.481 43.1223 193.492 43.2832C193.503 43.4441 193.482 43.6056 193.429 43.7581C193.376 43.9105 193.293 44.0507 193.185 44.1704C193.077 44.2901 192.946 44.3867 192.799 44.4545C192.503 44.5984 192.162 44.6216 191.849 44.5189C191.536 44.4163 191.274 44.196 191.12 43.9045C191.048 43.7608 191.006 43.604 190.995 43.4435C190.984 43.2831 191.006 43.1221 191.059 42.9701C191.111 42.8181 191.194 42.6781 191.301 42.5585C191.409 42.4389 191.539 42.342 191.684 42.2735L191.687 42.2715ZM193.84 45.8935C194.047 45.7928 194.285 45.7766 194.503 45.8483C194.722 45.92 194.904 46.0739 195.01 46.2775C195.061 46.3779 195.091 46.4875 195.099 46.5997C195.107 46.7119 195.092 46.8246 195.055 46.9309C195.018 47.0372 194.96 47.1351 194.885 47.2187C194.81 47.3023 194.718 47.3699 194.616 47.4175C194.41 47.518 194.172 47.5341 193.953 47.4624C193.735 47.3908 193.553 47.237 193.445 47.0335C193.395 46.9333 193.365 46.824 193.357 46.7121C193.35 46.6002 193.365 46.4879 193.401 46.3818C193.438 46.2757 193.495 46.178 193.57 46.0945C193.645 46.011 193.736 45.9433 193.838 45.8955L193.84 45.8935ZM219.853 45.8935C220.06 45.7928 220.298 45.7766 220.516 45.8483C220.735 45.92 220.917 46.0739 221.023 46.2775C221.074 46.378 221.104 46.4876 221.111 46.5998C221.119 46.7121 221.104 46.8247 221.067 46.931C221.03 47.0373 220.972 47.1351 220.897 47.2187C220.822 47.3022 220.73 47.3699 220.629 47.4175C220.422 47.5177 220.184 47.5337 219.965 47.4621C219.747 47.3904 219.565 47.2368 219.458 47.0335C219.407 46.9332 219.377 46.8239 219.37 46.712C219.363 46.6 219.378 46.4877 219.414 46.3817C219.451 46.2756 219.508 46.178 219.583 46.0945C219.658 46.011 219.749 45.9433 219.851 45.8955L219.853 45.8935ZM223.067 42.2715C223.213 42.3391 223.344 42.4356 223.453 42.5552C223.561 42.6748 223.644 42.815 223.697 42.9674C223.75 43.1199 223.772 43.2815 223.761 43.4425C223.75 43.6035 223.707 43.7606 223.633 43.9045C223.48 44.1959 223.219 44.4162 222.906 44.5189C222.593 44.6215 222.252 44.5984 221.955 44.4545C221.809 44.3867 221.678 44.2901 221.57 44.1704C221.462 44.0507 221.379 43.9105 221.326 43.7581C221.273 43.6056 221.252 43.4441 221.263 43.2832C221.274 43.1223 221.317 42.9653 221.39 42.8215C221.544 42.5309 221.804 42.3114 222.116 42.2091C222.428 42.1069 222.768 42.1299 223.064 42.2735L223.067 42.2715ZM222.966 39.0655C223.09 38.6907 223.356 38.3794 223.707 38.1982C224.057 38.0171 224.465 37.9806 224.843 38.0965C225.029 38.1489 225.203 38.2381 225.355 38.3588C225.507 38.4795 225.633 38.6293 225.726 38.7993C225.819 38.9694 225.878 39.1563 225.898 39.3492C225.918 39.5421 225.899 39.737 225.843 39.9225C225.718 40.2971 225.452 40.6081 225.101 40.7891C224.751 40.9702 224.343 41.0069 223.965 40.8915C223.779 40.839 223.605 40.7499 223.453 40.6294C223.302 40.5088 223.176 40.3592 223.083 40.1893C222.99 40.0195 222.932 39.8328 222.912 39.6401C222.892 39.4475 222.91 39.2528 222.966 39.0675V39.0655ZM223.695 34.8455C223.698 34.5472 223.79 34.2565 223.959 34.0105C224.128 33.7645 224.366 33.5745 224.643 33.4647C224.921 33.3549 225.225 33.3303 225.516 33.3941C225.807 33.4579 226.073 33.6071 226.279 33.8227C226.486 34.0383 226.623 34.3105 226.674 34.6045C226.724 34.8985 226.686 35.2009 226.564 35.4731C226.442 35.7453 226.242 35.975 225.988 36.1327C225.735 36.2904 225.441 36.369 225.142 36.3585C224.75 36.3488 224.378 36.1843 224.107 35.901C223.836 35.6177 223.688 35.2376 223.695 34.8455Z" fill="#0075C9"/>
</g>
<path d="M248.359 20.512H262.543V24.364H253.435V29.008H260.887V32.68H253.435V37.648H262.795V41.5H248.359V20.512ZM265.714 31.24H274.066V34.3H265.714V31.24ZM277.486 36.46C279.142 37.324 282.13 38.044 284.434 38.044C286.378 38.044 287.746 37.216 287.746 35.848C287.746 34.156 285.226 33.724 282.454 32.752C279.574 31.78 277.27 30.376 277.27 26.668C277.27 22.528 280.87 20.116 285.01 20.116C287.746 20.116 290.194 20.728 291.598 21.448V25.66C290.23 24.796 287.71 24.112 285.478 24.112C283.714 24.112 281.986 24.76 281.986 26.092C281.986 27.46 283.174 28.036 285.694 28.828C288.79 29.8 292.39 31.096 292.39 35.344C292.39 39.916 288.538 41.896 283.966 41.896C281.734 41.896 279.574 41.428 277.486 40.6V36.46ZM296.136 20.512H310.32V24.364H301.212V29.008H308.664V32.68H301.212V37.648H310.572V41.5H296.136V20.512ZM314.347 20.512H322.663C327.235 20.512 330.367 22.96 330.367 27.496C330.367 29.908 329.179 32.176 326.731 33.508L331.843 41.5H326.155L322.483 34.696C322.087 34.732 321.655 34.732 321.259 34.732H319.423V41.5H314.347V20.512ZM319.423 24.184V31.024H320.179C323.311 31.024 325.111 30.376 325.111 27.568C325.111 25.3 323.455 24.22 320.395 24.184H319.423ZM344.835 41.5H339.435L332.055 20.512H337.707L341.055 31.42L342.531 36.352H342.711L344.331 31.564L348.111 20.512H353.403L344.835 41.5ZM355.761 20.512H360.837V41.5H355.761V20.512ZM364.664 31.348C364.664 24.58 368.84 20.116 375.932 20.116C379.1 20.116 380.936 20.764 382.304 21.304V25.768C380.216 24.436 378.2 24.076 376.004 24.076C372.62 24.076 369.956 26.272 369.956 30.772C369.956 35.632 372.512 37.936 376.364 37.936C378.596 37.936 380.144 37.576 382.304 36.316V40.456C381.152 41.176 378.488 41.896 375.716 41.896C369.092 41.896 364.664 38.44 364.664 31.348ZM386.136 20.512H400.32V24.364H391.212V29.008H398.664V32.68H391.212V37.648H400.572V41.5H386.136V20.512ZM403.591 36.46C405.247 37.324 408.235 38.044 410.539 38.044C412.483 38.044 413.851 37.216 413.851 35.848C413.851 34.156 411.331 33.724 408.559 32.752C405.679 31.78 403.375 30.376 403.375 26.668C403.375 22.528 406.975 20.116 411.115 20.116C413.851 20.116 416.299 20.728 417.703 21.448V25.66C416.335 24.796 413.815 24.112 411.583 24.112C409.819 24.112 408.091 24.76 408.091 26.092C408.091 27.46 409.279 28.036 411.799 28.828C414.895 29.8 418.495 31.096 418.495 35.344C418.495 39.916 414.643 41.896 410.071 41.896C407.839 41.896 405.679 41.428 403.591 40.6V36.46Z" fill="#0175CA"/>
<defs>
<clipPath id="clip0_203_428">
<rect width="153.875" height="53.563" fill="white" transform="translate(0 4.21851)"/>
</clipPath>
<clipPath id="clip1_203_428">
<rect width="47" height="39.969" fill="white" transform="translate(183.875 11.0155)"/>
</clipPath>
</defs>
</svg>
