<svg width="40" height="40" viewBox="0 0 40 40" fill="none" xmlns="http://www.w3.org/2000/svg">
<g clip-path="url(#clip0_12_1858)">
<path d="M20 0C8.97201 0 0 8.97201 0 20C0 31.028 8.97201 40 20 40C31.028 40 40 31.028 40 20C40 8.97201 31.0281 0 20 0ZM20 37.8378C15.1005 37.8378 10.6562 35.8518 7.42929 32.6431C6.14062 31.3618 5.04669 29.885 4.19492 28.262C2.89761 25.7905 2.16219 22.9796 2.16219 20C2.16219 10.1642 10.1642 2.16219 20 2.16219C24.6653 2.16219 28.9173 3.9633 32.0992 6.90577C33.749 8.4312 35.1113 10.2631 36.0936 12.3107C37.2112 14.6403 37.8378 17.2483 37.8378 20C37.8378 29.8358 29.8358 37.8378 20 37.8378Z" fill="#FAA21B"/>
<path d="M13.4688 17.7028C14.663 17.7028 15.631 16.7348 15.631 15.5406C15.631 14.3465 14.663 13.3784 13.4688 13.3784C12.2747 13.3784 11.3066 14.3465 11.3066 15.5406C11.3066 16.7348 12.2747 17.7028 13.4688 17.7028Z" fill="#FAA21B"/>
<path d="M26.8477 17.7028C28.0419 17.7028 29.0099 16.7348 29.0099 15.5406C29.0099 14.3465 28.0419 13.3784 26.8477 13.3784C25.6536 13.3784 24.6855 14.3465 24.6855 15.5406C24.6855 16.7348 25.6536 17.7028 26.8477 17.7028Z" fill="#FAA21B"/>
<path d="M26.711 26.8921H13.1973V29.0543H26.711V26.8921Z" fill="#FAA21B"/>
</g>
<defs>
<clipPath id="clip0_12_1858">
<rect width="40" height="40" fill="white"/>
</clipPath>
</defs>
</svg>
