<svg width="232" height="40" viewBox="0 0 232 40" fill="none" xmlns="http://www.w3.org/2000/svg">
<g clip-path="url(#clip0_29_1059)">
<path fill-rule="evenodd" clip-rule="evenodd" d="M36.5 39.957L30.282 39.963C29.5907 40.0253 28.8961 39.8864 28.282 39.563L24.036 37.289L26.49 35.98L36.533 39.834C36.685 39.9 36.685 39.957 36.5 39.957ZM31.577 21.876C31.5613 21.8941 31.5397 21.9059 31.516 21.9094C31.4924 21.9129 31.4682 21.9078 31.448 21.895C29.4859 20.7677 27.4134 19.8445 25.263 19.14C24.997 19.053 24.619 18.923 24.269 18.84C24.118 25.921 23.459 31.424 22.776 31.432C22.093 31.424 21.434 25.92 21.282 18.84C20.931 18.923 20.554 19.053 20.282 19.14C18.1319 19.8447 16.0598 20.7679 14.098 21.895C14.0782 21.9091 14.0537 21.915 14.0296 21.9115C14.0056 21.908 13.9838 21.8952 13.969 21.876C13.958 21.8619 13.9514 21.8448 13.95 21.827C13.8774 21.4629 13.8941 21.0866 13.9986 20.7303C14.1031 20.374 14.2922 20.0483 14.55 19.781C15.1685 19.2105 15.8403 18.7005 16.556 18.258C17.4187 17.6852 18.3247 17.1806 19.266 16.749C19.514 16.631 19.827 16.488 20.066 16.386C18.5061 15.5113 16.8651 14.79 15.166 14.232C15.1561 14.2296 15.1468 14.2252 15.1387 14.2191C15.1305 14.213 15.1236 14.2054 15.1184 14.1967C15.1132 14.1879 15.1098 14.1783 15.1083 14.1682C15.1069 14.1581 15.1074 14.1479 15.11 14.138C15.1146 14.124 15.1228 14.1116 15.134 14.102C15.3294 13.8773 15.5739 13.7007 15.8486 13.5857C16.1233 13.4707 16.4208 13.4205 16.718 13.439C17.2733 13.5122 17.8229 13.6234 18.363 13.772C18.963 13.9187 19.555 14.0883 20.139 14.281C20.474 14.392 20.807 14.511 21.139 14.642L21.304 14.706C21.504 12.793 22.09 11.394 22.774 11.406C23.458 11.398 24.041 12.796 24.244 14.706L24.409 14.642C24.738 14.511 25.07 14.392 25.409 14.281C25.9943 14.0877 26.5863 13.918 27.185 13.772C27.725 13.6234 28.2747 13.5122 28.83 13.439C29.1272 13.4205 29.4246 13.4707 29.6993 13.5857C29.974 13.7007 30.2185 13.8773 30.414 14.102C30.4251 14.1116 30.4334 14.124 30.438 14.138C30.4428 14.158 30.4396 14.1791 30.4289 14.1967C30.4182 14.2144 30.401 14.227 30.381 14.232C28.6819 14.7901 27.041 15.5115 25.481 16.386C25.725 16.486 26.037 16.631 26.281 16.749C27.2255 17.18 28.1346 17.6845 29 18.258C29.7138 18.7006 30.3835 19.2106 31 19.781C31.2572 20.0486 31.4461 20.3743 31.5505 20.7305C31.655 21.0867 31.6719 21.4629 31.6 21.827C31.5983 21.8451 31.5917 21.8624 31.581 21.877L31.577 21.876ZM15.065 32.318L16.658 32.309C16.8816 32.3045 17.1042 32.3404 17.315 32.415L21.115 33.915L19.139 34.672L15.032 32.472C14.889 32.379 14.889 32.321 15.065 32.318ZM28.714 32.418L30.303 32.43C30.482 32.43 30.482 32.493 30.334 32.58L17.27 39.569C16.655 39.8901 15.9612 40.0289 15.27 39.969L9.05497 39.963C8.87697 39.963 8.87701 39.905 9.02501 39.843L28.062 32.532C28.2699 32.452 28.4912 32.4123 28.714 32.415V32.418ZM45.382 22.218C44.9105 22.277 44.4348 22.1481 44.0575 21.8592C43.6803 21.5703 43.4319 21.1446 43.366 20.674C43.3426 20.4411 43.3657 20.2058 43.434 19.9819C43.5023 19.758 43.6145 19.5498 43.7639 19.3696C43.9133 19.1894 44.097 19.0407 44.3044 18.9321C44.5118 18.8235 44.7387 18.7572 44.972 18.737C45.4434 18.6775 45.9193 18.806 46.2966 19.0948C46.6739 19.3836 46.9223 19.8094 46.988 20.28C47.0107 20.5128 46.9871 20.7478 46.9185 20.9715C46.8499 21.1951 46.7378 21.403 46.5885 21.583C46.4392 21.7631 46.2557 21.9118 46.0486 22.0207C45.8416 22.1295 45.615 22.1972 45.382 22.218ZM44.441 16.686C43.9955 16.8584 43.5006 16.8515 43.0601 16.667C42.6196 16.4824 42.2676 16.1344 42.078 15.696C41.9921 15.4797 41.9507 15.2484 41.9563 15.0157C41.9619 14.7831 42.0144 14.554 42.1105 14.3421C42.2067 14.1302 42.3446 13.9399 42.516 13.7825C42.6874 13.6251 42.8887 13.5038 43.108 13.426C43.5533 13.2532 44.0483 13.2596 44.489 13.4438C44.9297 13.628 45.282 13.9757 45.472 14.414C45.5575 14.6304 45.5987 14.8619 45.5929 15.0945C45.5871 15.3272 45.5345 15.5563 45.4383 15.7682C45.3421 15.9802 45.2042 16.1705 45.0329 16.328C44.8615 16.4855 44.6602 16.6079 44.441 16.686ZM39.5 11.208C39.3579 11.0244 39.2548 10.8138 39.197 10.5889C39.1392 10.3641 39.1278 10.1299 39.1637 9.9005C39.1995 9.67114 39.2818 9.45152 39.4055 9.25507C39.5292 9.05862 39.6917 8.88948 39.883 8.758C40.2742 8.4811 40.7568 8.3648 41.2312 8.43308C41.7056 8.50136 42.1357 8.74901 42.433 9.125C42.5743 9.30901 42.6768 9.51983 42.7341 9.74466C42.7915 9.96949 42.8026 10.2036 42.7666 10.4329C42.7307 10.6621 42.6486 10.8816 42.5252 11.0781C42.4019 11.2747 42.2398 11.444 42.049 11.576C41.6578 11.8527 41.1753 11.9688 40.7011 11.9004C40.2268 11.8319 39.7969 11.5841 39.5 11.208ZM41.369 35.135C41.5151 35.2448 41.6375 35.3831 41.7286 35.5416C41.8198 35.7 41.8778 35.8753 41.8993 36.0568C41.9208 36.2383 41.9053 36.4223 41.8537 36.5977C41.8021 36.773 41.7154 36.9361 41.599 37.077C41.3532 37.3638 41.0074 37.5462 40.6319 37.5869C40.2564 37.6276 39.8795 37.5236 39.578 37.296C39.4322 37.186 39.3101 37.0477 39.2192 36.8892C39.1283 36.7308 39.0705 36.5556 39.0492 36.3742C39.0279 36.1928 39.0436 36.009 39.0953 35.8338C39.147 35.6587 39.2336 35.4958 39.35 35.355C39.5949 35.0691 39.9396 34.8872 40.3139 34.8463C40.6883 34.8054 41.0641 34.9087 41.365 35.135H41.369ZM35.797 7.516C35.6104 7.37785 35.4541 7.20295 35.3377 7.00207C35.2213 6.80119 35.1472 6.57859 35.1202 6.34801C35.0931 6.11743 35.1135 5.88375 35.1802 5.66137C35.2469 5.43899 35.3585 5.23262 35.508 5.055C35.8178 4.68963 36.2559 4.45695 36.7322 4.40486C37.2084 4.35277 37.6865 4.48524 38.068 4.775C38.2537 4.91399 38.4093 5.08932 38.5251 5.29033C38.641 5.49134 38.7147 5.71382 38.7419 5.94423C38.769 6.17464 38.749 6.40817 38.683 6.63058C38.617 6.853 38.5064 7.05967 38.358 7.238C38.0475 7.60426 37.6083 7.83733 37.131 7.88906C36.6536 7.94079 36.1747 7.80725 35.793 7.516H35.797ZM31.227 4.872C31.0106 4.78636 30.8138 4.65787 30.6484 4.49426C30.4829 4.33066 30.3522 4.1353 30.2641 3.91993C30.1761 3.70455 30.1324 3.4736 30.1358 3.24094C30.1393 3.00828 30.1896 2.7787 30.284 2.566C30.4893 2.13403 30.854 1.79838 31.3014 1.62946C31.7489 1.46054 32.2444 1.47149 32.684 1.66C32.8999 1.74536 33.0963 1.87343 33.2615 2.03654C33.4266 2.19965 33.5571 2.39444 33.6452 2.60922C33.7332 2.824 33.777 3.05436 33.7739 3.28647C33.7708 3.51858 33.7208 3.74767 33.627 3.96C33.4222 4.39349 33.0571 4.73054 32.6086 4.90011C32.1602 5.06968 31.6634 5.05853 31.223 4.869L31.227 4.872ZM26.1 3.454C25.8678 3.42557 25.6437 3.35124 25.4405 3.23533C25.2374 3.11942 25.0594 2.96425 24.9168 2.77886C24.7742 2.59347 24.6699 2.38156 24.61 2.15548C24.5501 1.9294 24.5359 1.69366 24.568 1.462C24.6514 0.993781 24.9154 0.577082 25.3032 0.301731C25.691 0.0263793 26.1714 -0.0855738 26.641 -0.00999853C26.873 0.0184369 27.0971 0.0927414 27.3002 0.208587C27.5032 0.324433 27.6812 0.479506 27.8238 0.664787C27.9663 0.850068 28.0706 1.06185 28.1306 1.28782C28.1905 1.51378 28.2049 1.74942 28.173 1.981C28.09 2.44953 27.8261 2.86663 27.4383 3.14223C27.0504 3.41784 26.5697 3.52982 26.1 3.454ZM20.908 3.454C20.4384 3.52984 19.9578 3.418 19.57 3.1426C19.1822 2.8672 18.9182 2.45034 18.835 1.982C18.8029 1.7504 18.8172 1.51472 18.8771 1.2887C18.937 1.06268 19.0412 0.850838 19.1838 0.665527C19.3264 0.480216 19.5045 0.325142 19.7076 0.209335C19.9108 0.0935286 20.1349 0.0193073 20.367 -0.00899908C20.8365 -0.0848226 21.3169 0.027055 21.7046 0.302471C22.0923 0.577887 22.3561 0.994738 22.439 1.463C22.4711 1.69513 22.4565 1.93133 22.3962 2.15776C22.3358 2.3842 22.2309 2.59632 22.0876 2.78172C21.9443 2.96713 21.7655 3.12208 21.5616 3.23751C21.3576 3.35295 21.1327 3.42655 20.9 3.454H20.908ZM15.777 4.869C15.3371 5.05712 14.8415 5.06764 14.3941 4.89837C13.9467 4.72909 13.5822 4.39315 13.377 3.961C13.2835 3.74857 13.2338 3.51946 13.2309 3.28738C13.228 3.0553 13.2718 2.82502 13.36 2.6103C13.4481 2.39558 13.5786 2.20084 13.7438 2.03773C13.9089 1.87462 14.1052 1.74649 14.321 1.661C14.7605 1.47249 15.2561 1.46154 15.7035 1.63046C16.151 1.79938 16.5157 2.13503 16.721 2.567C16.8145 2.77958 16.8642 3.00883 16.8672 3.24105C16.8701 3.47328 16.8263 3.70371 16.7381 3.91859C16.65 4.13346 16.5195 4.32838 16.3544 4.49167C16.1892 4.65497 15.9928 4.7833 15.777 4.869ZM8.64598 7.234C8.49744 7.05573 8.38679 6.84908 8.32072 6.62664C8.25465 6.4042 8.23457 6.17063 8.2617 5.94018C8.28883 5.70973 8.36257 5.48722 8.4785 5.28621C8.59443 5.0852 8.75007 4.9099 8.93596 4.771C9.31755 4.48148 9.79556 4.34916 10.2717 4.40124C10.7479 4.45332 11.186 4.68584 11.496 5.051C11.6455 5.22862 11.757 5.43498 11.8237 5.65736C11.8904 5.87974 11.9108 6.11343 11.8838 6.34401C11.8567 6.57459 11.7827 6.79718 11.6663 6.99806C11.5499 7.19894 11.3935 7.37385 11.207 7.512C10.8259 7.8024 10.348 7.93574 9.87169 7.88459C9.39532 7.83344 8.95669 7.60168 8.64598 7.237V7.234ZM5.40001 37.077C5.28376 36.936 5.19726 36.7728 5.1458 36.5975C5.09433 36.4221 5.07892 36.2381 5.10051 36.0566C5.12209 35.8752 5.18023 35.6999 5.27141 35.5415C5.36258 35.3831 5.48488 35.2448 5.63096 35.135C5.93199 34.9075 6.30855 34.8036 6.68364 34.8445C7.05873 34.8854 7.40403 35.068 7.64897 35.355C7.76554 35.4956 7.85236 35.6585 7.90422 35.8336C7.95607 36.0088 7.97188 36.1926 7.95067 36.3741C7.92945 36.5555 7.87168 36.7307 7.78081 36.8892C7.68993 37.0477 7.56785 37.1861 7.42198 37.296C7.12026 37.5234 6.74327 37.6273 6.36766 37.5866C5.99205 37.5459 5.64605 37.3637 5.40001 37.077ZM4.95097 11.577C4.76013 11.445 4.59808 11.2757 4.47471 11.0791C4.35134 10.8826 4.26923 10.6631 4.23332 10.4339C4.19741 10.2046 4.20849 9.97049 4.26585 9.74566C4.32321 9.52083 4.42566 9.31001 4.567 9.126C4.86411 8.7498 5.29429 8.502 5.76878 8.43371C6.24327 8.36542 6.72585 8.48186 7.11699 8.759C7.30819 8.89058 7.47056 9.05976 7.59416 9.25621C7.71775 9.45266 7.79995 9.67225 7.8358 9.90157C7.87165 10.1309 7.86034 10.3651 7.80259 10.5899C7.74485 10.8147 7.6419 11.0254 7.49998 11.209C7.20302 11.5838 6.77382 11.8307 6.30052 11.899C5.82722 11.9672 5.34576 11.8516 4.955 11.576L4.95097 11.577ZM4.91697 15.696C4.72739 16.1344 4.3754 16.4824 3.93486 16.667C3.49432 16.8515 2.99946 16.8584 2.554 16.686C2.33471 16.6079 2.1334 16.4863 1.96208 16.3287C1.79076 16.1711 1.65293 15.9806 1.55681 15.7686C1.46069 15.5566 1.40827 15.3274 1.40263 15.0946C1.39699 14.8619 1.43823 14.6304 1.52397 14.414C1.71373 13.9758 2.06582 13.6281 2.50639 13.4439C2.94696 13.2597 3.44181 13.2533 3.88701 13.426C4.10671 13.5032 4.30851 13.624 4.48039 13.7811C4.65227 13.9382 4.79069 14.1284 4.88725 14.3403C4.98381 14.5522 5.03654 14.7814 5.04234 15.0142C5.04814 15.247 5.00689 15.4786 4.921 15.695L4.91697 15.696ZM2.02397 18.736C2.25716 18.7563 2.484 18.8227 2.69133 18.9313C2.89866 19.04 3.08233 19.1887 3.23173 19.3689C3.38113 19.5491 3.49327 19.7571 3.56163 19.981C3.62999 20.2049 3.65324 20.4401 3.62999 20.673C3.56406 21.1436 3.31562 21.5693 2.9384 21.8582C2.56118 22.1471 2.08547 22.276 1.614 22.217C1.38078 22.1962 1.15396 22.1294 0.946698 22.0205C0.739435 21.9116 0.555824 21.7627 0.406415 21.5824C0.257007 21.4021 0.144772 21.194 0.0762151 20.9701C0.00765865 20.7463 -0.0158468 20.511 0.00700123 20.278C0.0728938 19.8065 0.322051 19.3801 0.700422 19.0912C1.07879 18.8023 1.55584 18.6743 2.028 18.735L2.02397 18.736ZM1.65397 24.329C2.1234 24.2534 2.6037 24.3654 2.99132 24.6408C3.37893 24.9162 3.64282 25.3329 3.726 25.801C3.75825 26.0326 3.74407 26.2683 3.68431 26.4944C3.62454 26.7205 3.52035 26.9324 3.37785 27.1178C3.23535 27.3032 3.05738 27.4584 2.85429 27.5743C2.6512 27.6902 2.4271 27.7646 2.19499 27.793C1.72536 27.8683 1.24491 27.7563 0.857038 27.481C0.469167 27.2057 0.204837 26.7892 0.120954 26.321C0.0890042 26.0889 0.103624 25.8528 0.163862 25.6264C0.224099 25.4 0.328784 25.1879 0.471845 25.0024C0.614906 24.8169 0.793468 24.6617 0.997114 24.546C1.20076 24.4302 1.42543 24.3561 1.658 24.328L1.65397 24.329ZM2.80198 29.829C3.24143 29.6404 3.73686 29.6293 4.18431 29.798C4.63176 29.9668 4.99649 30.3022 5.20201 30.734C5.29627 30.9468 5.34659 31.1764 5.35002 31.4092C5.35345 31.6419 5.30992 31.8729 5.22197 32.0884C5.13402 32.3039 5.00347 32.4994 4.83818 32.6633C4.67289 32.8271 4.47624 32.9559 4.25999 33.042C3.82015 33.2292 3.32505 33.2393 2.87791 33.0703C2.43077 32.9013 2.06609 32.5663 1.85997 32.135C1.7649 31.9219 1.71405 31.6917 1.71043 31.4583C1.70681 31.2249 1.75049 30.9933 1.83891 30.7773C1.92733 30.5613 2.05862 30.3654 2.22484 30.2016C2.39105 30.0378 2.58877 29.9093 2.80601 29.824L2.80198 29.829ZM41.791 30.734C41.9965 30.3022 42.3612 29.9668 42.8087 29.798C43.2561 29.6293 43.7515 29.6404 44.191 29.829C44.4075 29.9145 44.6045 30.0428 44.7702 30.2063C44.9359 30.3698 45.0667 30.5652 45.155 30.7806C45.2433 30.996 45.2871 31.227 45.2839 31.4597C45.2806 31.6925 45.2303 31.9222 45.136 32.135C44.9298 32.5663 44.5652 32.9013 44.1181 33.0703C43.6709 33.2393 43.1758 33.2292 42.736 33.042C42.5192 32.9559 42.3221 32.8268 42.1565 32.6625C41.9909 32.4983 41.8602 32.3022 41.7723 32.0862C41.6844 31.8701 41.641 31.6385 41.6449 31.4053C41.6488 31.172 41.6999 30.942 41.795 30.729L41.791 30.734ZM44.791 27.798C44.5589 27.7695 44.3349 27.695 44.1319 27.5791C43.9289 27.4631 43.7509 27.3079 43.6084 27.1225C43.466 26.9372 43.3617 26.7253 43.3019 26.4993C43.2421 26.2733 43.2279 26.0376 43.26 25.806C43.3434 25.3378 43.6074 24.9211 43.9952 24.6457C44.383 24.3704 44.8634 24.2584 45.333 24.334C45.565 24.3627 45.789 24.4372 45.992 24.5532C46.195 24.6692 46.373 24.8243 46.5155 25.0097C46.658 25.195 46.7623 25.4068 46.8223 25.6328C46.8823 25.8587 46.8968 26.0944 46.865 26.326C46.7799 26.7914 46.5164 27.2053 46.1307 27.4793C45.745 27.7533 45.2675 27.8659 44.8 27.793L44.791 27.798ZM41.2 20.669C40.8156 20.7595 40.4109 20.6948 40.074 20.4889C39.737 20.2829 39.4948 19.9524 39.4 19.569C39.3573 19.3799 39.3527 19.1841 39.3864 18.9932C39.4201 18.8022 39.4915 18.6199 39.5964 18.4569C39.7013 18.2938 39.8376 18.1532 39.9974 18.0434C40.1571 17.9335 40.3371 17.8566 40.527 17.817C40.9113 17.7281 41.3152 17.7935 41.6518 17.9992C41.9884 18.2049 42.2308 18.5344 42.327 18.917C42.3691 19.1061 42.3734 19.3017 42.3394 19.4924C42.3054 19.6832 42.2339 19.8653 42.1291 20.0282C42.0243 20.1912 41.8882 20.3317 41.7287 20.4417C41.5692 20.5517 41.3895 20.6289 41.2 20.669ZM39.9 16.169C39.5491 16.3515 39.1408 16.3904 38.7618 16.2773C38.3827 16.1641 38.0625 15.908 37.869 15.563C37.7769 15.3931 37.7199 15.2063 37.7014 15.0139C37.6829 14.8214 37.7033 14.6273 37.7615 14.4429C37.8196 14.2585 37.9142 14.0877 38.0397 13.9407C38.1652 13.7937 38.319 13.6734 38.492 13.587C38.8423 13.4042 39.2498 13.3647 39.6287 13.4766C40.0076 13.5885 40.3283 13.8432 40.523 14.187C40.6155 14.3573 40.6728 14.5445 40.6915 14.7375C40.7102 14.9304 40.6899 15.1252 40.6318 15.3101C40.5736 15.495 40.4789 15.6664 40.3532 15.8139C40.2275 15.9615 40.0734 16.0822 39.9 16.169ZM35.319 12.078C35.1847 11.9392 35.08 11.7748 35.0108 11.5946C34.9417 11.4143 34.9097 11.222 34.9167 11.029C34.9237 10.8361 34.9696 10.6466 35.0516 10.4718C35.1336 10.2971 35.25 10.1407 35.394 10.012C35.6887 9.74729 36.0745 9.6071 36.4704 9.6209C36.8663 9.6347 37.2415 9.80141 37.517 10.086C37.6511 10.2247 37.7557 10.3891 37.8247 10.5693C37.8938 10.7494 37.9257 10.9417 37.9187 11.1345C37.9117 11.3273 37.8659 11.5167 37.784 11.6913C37.7021 11.866 37.5858 12.0223 37.442 12.151C37.1472 12.4169 36.7607 12.5577 36.364 12.5439C35.9673 12.5301 35.5915 12.3627 35.316 12.077L35.319 12.078ZM31.928 9.353C31.7619 9.25443 31.6174 9.12342 31.503 8.9678C31.3886 8.81219 31.3067 8.63513 31.2622 8.4472C31.2177 8.25926 31.2114 8.06429 31.2439 7.8739C31.2763 7.68351 31.3467 7.5016 31.451 7.339C31.6686 7.00848 32.0062 6.77543 32.3924 6.68904C32.7786 6.60266 33.1833 6.6697 33.521 6.876C33.6869 6.97432 33.8314 7.10501 33.9458 7.26031C34.0602 7.4156 34.1421 7.59233 34.1868 7.77995C34.2315 7.96758 34.238 8.16228 34.2059 8.35246C34.1738 8.54265 34.1038 8.72444 34 8.887C33.7824 9.21905 33.444 9.45324 33.0566 9.53987C32.6692 9.6265 32.2632 9.55876 31.925 9.35101L31.928 9.353ZM27.928 7.575C27.7413 7.52278 27.5669 7.43378 27.4151 7.31322C27.2633 7.19266 27.1371 7.04297 27.0439 6.87296C26.9508 6.70294 26.8925 6.51602 26.8726 6.32318C26.8527 6.13034 26.8715 5.93546 26.928 5.75C27.0516 5.37532 27.3172 5.06406 27.6678 4.88307C28.0183 4.70208 28.4259 4.66579 28.803 4.782C28.9897 4.8341 29.1643 4.92303 29.3161 5.04356C29.468 5.16409 29.5942 5.31379 29.6874 5.48384C29.7806 5.65389 29.8388 5.84086 29.8587 6.03375C29.8785 6.22664 29.8596 6.42154 29.803 6.607C29.6775 6.98057 29.411 7.29029 29.0603 7.47003C28.7096 7.64977 28.3025 7.68529 27.926 7.569L27.928 7.575ZM23.41 6.869C23.1224 6.87158 22.8405 6.78931 22.5995 6.6325C22.3585 6.47568 22.1691 6.25127 22.055 5.98735C21.9408 5.72343 21.9071 5.43172 21.9579 5.1487C22.0087 4.86569 22.1418 4.60394 22.3406 4.39621C22.5394 4.18847 22.7951 4.04398 23.0756 3.98079C23.3561 3.91761 23.649 3.93855 23.9177 4.04099C24.1864 4.14342 24.4189 4.32281 24.5862 4.55671C24.7534 4.79061 24.8479 5.06864 24.858 5.356C24.8655 5.74834 24.7174 6.12771 24.4461 6.41121C24.1748 6.69471 23.8022 6.8593 23.41 6.869ZM19.074 7.578C18.6967 7.69393 18.289 7.65741 17.9383 7.47626C17.5876 7.29512 17.3218 6.98378 17.198 6.609C17.1414 6.42354 17.1224 6.22864 17.1423 6.03575C17.1621 5.84286 17.2203 5.65589 17.3135 5.48584C17.4067 5.31579 17.533 5.16609 17.6849 5.04556C17.8368 4.92503 18.0112 4.8361 18.198 4.784C18.5752 4.66776 18.9829 4.70402 19.3336 4.885C19.6843 5.06598 19.9501 5.37725 20.074 5.752C20.1292 5.93695 20.1471 6.13104 20.1266 6.32298C20.1061 6.51491 20.0476 6.70084 19.9545 6.86995C19.8614 7.03905 19.7357 7.18794 19.5845 7.30796C19.4333 7.42798 19.2598 7.51671 19.074 7.569V7.578ZM15.074 9.356C14.7352 9.56298 14.3291 9.62977 13.9419 9.54221C13.5546 9.45464 13.2168 9.21961 13 8.887C12.8958 8.72448 12.8254 8.54265 12.793 8.35233C12.7605 8.16202 12.7667 7.96712 12.8113 7.77927C12.8558 7.59141 12.9377 7.41445 13.052 7.25892C13.1664 7.10339 13.3109 6.97248 13.477 6.874C13.8146 6.66744 14.2194 6.60026 14.6056 6.68666C14.9919 6.77306 15.3295 7.00627 15.547 7.337C15.6516 7.49925 15.7224 7.6809 15.7553 7.87112C15.7882 8.06133 15.7824 8.25622 15.7383 8.44416C15.6943 8.6321 15.6129 8.80925 15.4989 8.96505C15.3849 9.12085 15.2408 9.25211 15.075 9.35101L15.074 9.356ZM9.55998 12.156C9.41621 12.0273 9.29986 11.871 9.21794 11.6963C9.13601 11.5217 9.09018 11.3323 9.08317 11.1395C9.07617 10.9467 9.10819 10.7544 9.17723 10.5743C9.24626 10.3941 9.35091 10.2297 9.48497 10.091C9.76052 9.80641 10.1356 9.6397 10.5315 9.6259C10.9274 9.6121 11.3133 9.75228 11.608 10.017C11.7516 10.1458 11.8679 10.3023 11.9497 10.477C12.0316 10.6518 12.0774 10.8412 12.0844 11.0341C12.0914 11.2269 12.0594 11.4192 11.9905 11.5994C11.9215 11.7796 11.8169 11.9441 11.683 12.083C11.4065 12.3664 11.031 12.5316 10.6353 12.5439C10.2396 12.5562 9.85447 12.4147 9.56096 12.149L9.55998 12.156ZM9.13298 15.568C8.93925 15.9128 8.61908 16.1688 8.24009 16.2819C7.8611 16.395 7.45297 16.3563 7.10197 16.174C6.92929 16.0872 6.7758 15.9667 6.6505 15.8195C6.5252 15.6724 6.43065 15.5016 6.37248 15.3173C6.31431 15.133 6.29369 14.9389 6.31181 14.7465C6.32993 14.554 6.38645 14.3672 6.47801 14.197C6.67293 13.8532 6.99372 13.5984 7.37279 13.4865C7.75185 13.3746 8.15956 13.4142 8.50999 13.597C8.68149 13.6834 8.83398 13.8033 8.95854 13.9494C9.0831 14.0956 9.17721 14.2652 9.23533 14.4482C9.29346 14.6313 9.31444 14.8241 9.29704 15.0154C9.27964 15.2066 9.22416 15.3925 9.13395 15.562L9.13298 15.568ZM7.59996 19.569C7.50516 19.9524 7.263 20.2829 6.92601 20.4889C6.58901 20.6948 6.18439 20.7595 5.79997 20.669C5.61026 20.6292 5.43035 20.5521 5.27067 20.4422C5.111 20.3323 4.97473 20.1917 4.86979 20.0288C4.76486 19.8658 4.69337 19.6836 4.65941 19.4927C4.62545 19.3019 4.62971 19.1062 4.67198 18.917C4.76678 18.5336 5.00894 18.2031 5.34593 17.9971C5.68292 17.7912 6.08755 17.7265 6.47197 17.817C6.66187 17.8565 6.84205 17.9333 7.00194 18.0431C7.16182 18.1529 7.29824 18.2935 7.40324 18.4566C7.50824 18.6196 7.57966 18.802 7.61345 18.993C7.64723 19.184 7.64265 19.3798 7.59996 19.569ZM5.627 22.422C5.91453 22.4196 6.19639 22.5021 6.4373 22.659C6.67821 22.816 6.86747 23.0406 6.98143 23.3046C7.09538 23.5685 7.12893 23.8603 7.07792 24.1433C7.02692 24.4263 6.89364 24.6879 6.69468 24.8955C6.49573 25.1031 6.23995 25.2474 5.95939 25.3104C5.67884 25.3734 5.38596 25.3523 5.11735 25.2497C4.84875 25.147 4.61635 24.9675 4.44926 24.7335C4.28218 24.4995 4.1878 24.2214 4.17796 23.934C4.17097 23.5424 4.31909 23.164 4.58995 22.8811C4.86081 22.5983 5.23251 22.434 5.62401 22.424L5.627 22.422ZM6.03398 27.081C6.41128 26.9648 6.81908 27.0012 7.16984 27.1824C7.52061 27.3636 7.78633 27.6751 7.90996 28.05C7.96643 28.2355 7.98533 28.4305 7.96544 28.6234C7.94554 28.8163 7.88726 29.0033 7.79411 29.1734C7.70096 29.3435 7.57478 29.4932 7.42296 29.6139C7.27113 29.7346 7.09669 29.8237 6.90996 29.876C6.53251 29.9914 6.12493 29.9547 5.77421 29.7736C5.42349 29.5926 5.15749 29.2816 5.033 28.907C4.9768 28.7217 4.95809 28.5271 4.97801 28.3345C4.99793 28.142 5.05604 27.9553 5.14897 27.7854C5.2419 27.6156 5.36776 27.466 5.51921 27.3454C5.67065 27.2248 5.84465 27.1356 6.03099 27.083L6.03398 27.081ZM7.81297 31.256C8.10914 31.1116 8.4499 31.0883 8.76298 31.191C9.07606 31.2937 9.33683 31.5143 9.48997 31.806C9.56312 31.9498 9.60657 32.1068 9.61766 32.2677C9.62875 32.4286 9.60729 32.5901 9.55455 32.7426C9.50181 32.895 9.41882 33.0352 9.31065 33.1549C9.20249 33.2746 9.07132 33.3712 8.92497 33.439C8.62842 33.583 8.28755 33.6061 7.97429 33.5034C7.66102 33.4008 7.39986 33.1805 7.24595 32.889C7.1738 32.7453 7.13116 32.5885 7.12053 32.428C7.10989 32.2676 7.1315 32.1066 7.18406 31.9546C7.23663 31.8026 7.31912 31.6626 7.42662 31.543C7.53412 31.4234 7.66444 31.3265 7.80998 31.258L7.81297 31.256ZM9.96599 34.878C10.1727 34.7773 10.4104 34.7611 10.6288 34.8328C10.8473 34.9045 11.0292 35.0584 11.136 35.262C11.1867 35.3624 11.2168 35.472 11.2244 35.5842C11.232 35.6964 11.217 35.8091 11.1803 35.9154C11.1435 36.0217 11.0858 36.1196 11.0105 36.2032C10.9352 36.2868 10.8439 36.3544 10.742 36.402C10.5351 36.5025 10.2973 36.5186 10.0788 36.4469C9.86026 36.3753 9.67815 36.2215 9.57097 36.018C9.52046 35.9178 9.49053 35.8085 9.48295 35.6966C9.47537 35.5847 9.4903 35.4724 9.52684 35.3663C9.56338 35.2602 9.62082 35.1625 9.69572 35.079C9.77063 34.9955 9.86151 34.9278 9.96299 34.88L9.96599 34.878ZM35.979 34.878C36.1857 34.7773 36.4234 34.7611 36.6418 34.8328C36.8603 34.9045 37.0422 35.0584 37.149 35.262C37.1996 35.3625 37.2295 35.4721 37.2369 35.5843C37.2444 35.6966 37.2293 35.8092 37.1924 35.9155C37.1556 36.0218 37.0978 36.1196 37.0225 36.2032C36.9472 36.2868 36.8559 36.3544 36.754 36.402C36.5471 36.5022 36.3094 36.5182 36.0909 36.4466C35.8725 36.3749 35.6904 36.2213 35.583 36.018C35.5327 35.9177 35.5029 35.8084 35.4955 35.6965C35.488 35.5845 35.503 35.4722 35.5397 35.3662C35.5763 35.2601 35.6337 35.1625 35.7087 35.079C35.7836 34.9955 35.8745 34.9278 35.976 34.88L35.979 34.878ZM39.192 31.256C39.3385 31.3236 39.4699 31.4201 39.5783 31.5397C39.6867 31.6593 39.7698 31.7995 39.8227 31.9519C39.8757 32.1044 39.8973 32.266 39.8863 32.427C39.8754 32.588 39.832 32.7451 39.759 32.889C39.6052 33.1804 39.3443 33.4007 39.0312 33.5034C38.7181 33.606 38.3774 33.5829 38.081 33.439C37.9346 33.3712 37.8035 33.2746 37.6953 33.1549C37.5871 33.0352 37.5042 32.895 37.4515 32.7426C37.3987 32.5901 37.3773 32.4286 37.3883 32.2677C37.3994 32.1068 37.4428 31.9498 37.516 31.806C37.6692 31.5155 37.9294 31.2959 38.2416 31.1936C38.5538 31.0914 38.8935 31.1144 39.189 31.258L39.192 31.256ZM39.092 28.05C39.2158 27.6752 39.4816 27.3639 39.8323 27.1827C40.1829 27.0016 40.5907 26.9651 40.968 27.081C41.1547 27.1335 41.3289 27.2226 41.4807 27.3433C41.6324 27.464 41.7586 27.6138 41.8517 27.7838C41.9449 27.9539 42.0032 28.1408 42.0231 28.3337C42.0431 28.5266 42.0243 28.7215 41.968 28.907C41.8435 29.2816 41.5774 29.5926 41.2267 29.7736C40.876 29.9547 40.4684 29.9914 40.091 29.876C39.9046 29.8235 39.7305 29.7344 39.5789 29.6139C39.4273 29.4933 39.3014 29.3437 39.2084 29.1738C39.1153 29.004 39.0571 28.8173 39.0372 28.6246C39.0172 28.432 39.0358 28.2373 39.092 28.052V28.05ZM39.821 23.83C39.8237 23.5317 39.9154 23.241 40.0843 22.995C40.2531 22.749 40.4914 22.559 40.7688 22.4492C41.0462 22.3394 41.3501 22.3148 41.6415 22.3786C41.933 22.4424 42.1988 22.5916 42.4049 22.8072C42.6111 23.0228 42.7484 23.295 42.7991 23.589C42.8498 23.883 42.8117 24.1854 42.6896 24.4576C42.5676 24.7298 42.3671 24.9595 42.1139 25.1172C41.8606 25.2749 41.5661 25.3535 41.268 25.343C40.876 25.3333 40.5037 25.1688 40.2326 24.8855C39.9615 24.6022 39.8134 24.2221 39.821 23.83Z" fill="#0075C9"/>
</g>
<path d="M60.484 9.4965H74.668V13.3485H65.56V17.9925H73.012V21.6645H65.56V26.6325H74.92V30.4845H60.484V9.4965ZM77.8385 20.2245H86.1905V23.2845H77.8385V20.2245ZM89.6108 25.4445C91.2668 26.3085 94.2548 27.0285 96.5588 27.0285C98.5028 27.0285 99.8708 26.2005 99.8708 24.8325C99.8708 23.1405 97.3508 22.7085 94.5788 21.7365C91.6988 20.7645 89.3948 19.3605 89.3948 15.6525C89.3948 11.5125 92.9948 9.1005 97.1348 9.1005C99.8708 9.1005 102.319 9.7125 103.723 10.4325V14.6445C102.355 13.7805 99.8348 13.0965 97.6028 13.0965C95.8388 13.0965 94.1108 13.7445 94.1108 15.0765C94.1108 16.4445 95.2988 17.0205 97.8188 17.8125C100.915 18.7845 104.515 20.0805 104.515 24.3285C104.515 28.9005 100.663 30.8805 96.0908 30.8805C93.8588 30.8805 91.6988 30.4125 89.6108 29.5845V25.4445ZM108.261 9.4965H122.445V13.3485H113.337V17.9925H120.789V21.6645H113.337V26.6325H122.697V30.4845H108.261V9.4965ZM126.472 9.4965H134.788C139.36 9.4965 142.492 11.9445 142.492 16.4805C142.492 18.8925 141.304 21.1605 138.856 22.4925L143.968 30.4845H138.28L134.608 23.6805C134.212 23.7165 133.78 23.7165 133.384 23.7165H131.548V30.4845H126.472V9.4965ZM131.548 13.1685V20.0085H132.304C135.436 20.0085 137.236 19.3605 137.236 16.5525C137.236 14.2845 135.58 13.2045 132.52 13.1685H131.548ZM156.96 30.4845H151.56L144.18 9.4965H149.832L153.18 20.4045L154.656 25.3365H154.836L156.456 20.5485L160.236 9.4965H165.528L156.96 30.4845ZM167.886 9.4965H172.962V30.4845H167.886V9.4965ZM176.789 20.3325C176.789 13.5645 180.965 9.1005 188.057 9.1005C191.225 9.1005 193.061 9.7485 194.429 10.2885V14.7525C192.341 13.4205 190.325 13.0605 188.129 13.0605C184.745 13.0605 182.081 15.2565 182.081 19.7565C182.081 24.6165 184.637 26.9205 188.489 26.9205C190.721 26.9205 192.269 26.5605 194.429 25.3005V29.4405C193.277 30.1605 190.613 30.8805 187.841 30.8805C181.217 30.8805 176.789 27.4245 176.789 20.3325ZM198.261 9.4965H212.445V13.3485H203.337V17.9925H210.789V21.6645H203.337V26.6325H212.697V30.4845H198.261V9.4965ZM215.716 25.4445C217.372 26.3085 220.36 27.0285 222.664 27.0285C224.608 27.0285 225.976 26.2005 225.976 24.8325C225.976 23.1405 223.456 22.7085 220.684 21.7365C217.804 20.7645 215.5 19.3605 215.5 15.6525C215.5 11.5125 219.1 9.1005 223.24 9.1005C225.976 9.1005 228.424 9.7125 229.828 10.4325V14.6445C228.46 13.7805 225.94 13.0965 223.708 13.0965C221.944 13.0965 220.216 13.7445 220.216 15.0765C220.216 16.4445 221.404 17.0205 223.924 17.8125C227.02 18.7845 230.62 20.0805 230.62 24.3285C230.62 28.9005 226.768 30.8805 222.196 30.8805C219.964 30.8805 217.804 30.4125 215.716 29.5845V25.4445Z" fill="#0175CA"/>
<defs>
<clipPath id="clip0_29_1059">
<rect width="47" height="39.969" fill="white"/>
</clipPath>
</defs>
</svg>
