<svg xmlns="http://www.w3.org/2000/svg" width="304" height="236.5" viewBox="0 0 304 236.5">
  <defs>
    <style>
      .cls-1 {
        fill: #edf2f6;
      }

      .cls-1, .cls-2 {
        fill-rule: evenodd;
      }

      .cls-2 {
        fill: #faa21b;
      }
    </style>
  </defs>
  <path class="cls-1" d="M1010,568c-2.93,0-5.83-.138-8.69-0.381a21,21,0,1,1-27.726-6.338,101.975,101.975,0,0,1-18.809-9.544,77.5,77.5,0,1,1-44.287-108.1A102,102,0,1,1,1010,568ZM894,417.5a21,21,0,1,1,21-21A21,21,0,0,1,894,417.5Z" transform="translate(-808 -364)"/>
  <path class="cls-2" d="M1005.85,447.535a1.693,1.693,0,0,1-.25-0.07,2.236,2.236,0,0,1-1.39-2.825l8.64-25.191a2.225,2.225,0,0,1,4.21,1.443l-8.64,25.191A2.222,2.222,0,0,1,1005.85,447.535Zm12.02,29.739a2.224,2.224,0,0,1,.6-4.393l38.17,2.183a2.224,2.224,0,1,1-.25,4.441l-38.17-2.183A2.171,2.171,0,0,1,1017.87,477.274Zm-143.967,88a4.108,4.108,0,0,1-2.657-6.106l80.021-135.119a4.111,4.111,0,0,1,7.118.078l77.055,136.856a4.113,4.113,0,0,1-3.63,6.123l-157.073-1.737A4.061,4.061,0,0,1,873.9,565.272Zm80.811-130.917-72.77,122.876,142.846,1.578Zm-0.989,90.762a3.678,3.678,0,0,1-3.614-3.579l-1.368-51.85a5.935,5.935,0,1,1,11.857.2l-3.141,51.772A3.678,3.678,0,0,1,953.725,525.117Zm-0.3,19.515a4.748,4.748,0,0,1-4.666-4.827l0-.287a4.747,4.747,0,0,1,9.493.163l0,0.288A4.746,4.746,0,0,1,953.423,544.632Z" transform="translate(-808 -364)"/>
</svg>
