<svg width="18" height="19" viewBox="0 0 18 19" fill="none" xmlns="http://www.w3.org/2000/svg">
<path d="M4.5 2.5C4.5 1.26953 5.48438 0.25 6.75 0.25H13.5703C14.168 0.25 14.7656 0.496094 15.1875 0.917969L16.207 1.9375C16.6289 2.35938 16.875 2.95703 16.875 3.55469V5.875H14.625V3.55469L13.5703 2.5H6.75V5.875H4.5V2.5ZM0 5.875C0 5.27734 0.492188 4.75 1.125 4.75H2.25C2.84766 4.75 3.375 5.27734 3.375 5.875V17.125C3.375 17.7578 2.84766 18.25 2.25 18.25H1.125C0.492188 18.25 0 17.7578 0 17.125V5.875ZM16.875 7C17.4727 7 18 7.52734 18 8.125V17.125C18 17.7578 17.4727 18.25 16.875 18.25H5.625C4.99219 18.25 4.5 17.7578 4.5 17.125V7H16.875ZM9 9.25C8.36719 9.25 7.875 9.77734 7.875 10.375C7.875 11.0078 8.36719 11.5 9 11.5C9.59766 11.5 10.125 11.0078 10.125 10.375C10.125 9.77734 9.59766 9.25 9 9.25ZM12.375 10.375C12.375 11.0078 12.8672 11.5 13.5 11.5C14.0977 11.5 14.625 11.0078 14.625 10.375C14.625 9.77734 14.0977 9.25 13.5 9.25C12.8672 9.25 12.375 9.77734 12.375 10.375ZM13.5 13.75C12.8672 13.75 12.375 14.2773 12.375 14.875C12.375 15.5078 12.8672 16 13.5 16C14.0977 16 14.625 15.5078 14.625 14.875C14.625 14.2773 14.0977 13.75 13.5 13.75ZM7.875 14.875C7.875 15.5078 8.36719 16 9 16C9.59766 16 10.125 15.5078 10.125 14.875C10.125 14.2773 9.59766 13.75 9 13.75C8.36719 13.75 7.875 14.2773 7.875 14.875Z" fill="#0175CA"/>
</svg>
