<svg width="1920" height="130" viewBox="0 0 1920 130" fill="none" xmlns="http://www.w3.org/2000/svg">
<rect width="1920" height="130" fill="white"/>
<path d="M590.484 81.012V102H604.92V98.148H595.56V93.18H603.012V89.508H595.56V84.864H604.668V81.012H590.484ZM607.839 91.74V94.8H616.191V91.74H607.839ZM619.611 96.96V101.1C621.699 101.928 623.859 102.396 626.091 102.396C630.663 102.396 634.515 100.416 634.515 95.844C634.515 91.596 630.915 90.3 627.819 89.328C625.299 88.536 624.111 87.96 624.111 86.592C624.111 85.26 625.839 84.612 627.603 84.612C629.835 84.612 632.355 85.296 633.723 86.16V81.948C632.319 81.228 629.871 80.616 627.135 80.616C622.995 80.616 619.395 83.028 619.395 87.168C619.395 90.876 621.699 92.28 624.579 93.252C627.351 94.224 629.871 94.656 629.871 96.348C629.871 97.716 628.503 98.544 626.559 98.544C624.255 98.544 621.267 97.824 619.611 96.96ZM638.261 81.012V102H652.697V98.148H643.337V93.18H650.789V89.508H643.337V84.864H652.445V81.012H638.261ZM656.472 81.012V102H661.548V95.232H663.384C663.78 95.232 664.212 95.232 664.608 95.196L668.28 102H673.968L668.856 94.008C671.304 92.676 672.492 90.408 672.492 87.996C672.492 83.46 669.36 81.012 664.788 81.012H656.472ZM661.548 84.684H662.52C665.58 84.72 667.236 85.8 667.236 88.068C667.236 90.876 665.436 91.524 662.304 91.524H661.548V84.684ZM686.96 102L695.528 81.012H690.236L686.456 92.064L684.836 96.852H684.656L683.18 91.92L679.832 81.012H674.18L681.56 102H686.96ZM697.886 81.012V102H702.962V81.012H697.886ZM706.789 91.848C706.789 98.94 711.217 102.396 717.841 102.396C720.613 102.396 723.277 101.676 724.429 100.956V96.816C722.269 98.076 720.721 98.436 718.489 98.436C714.637 98.436 712.081 96.132 712.081 91.272C712.081 86.772 714.745 84.576 718.129 84.576C720.325 84.576 722.341 84.936 724.429 86.268V81.804C723.061 81.264 721.225 80.616 718.057 80.616C710.965 80.616 706.789 85.08 706.789 91.848ZM728.261 81.012V102H742.697V98.148H733.337V93.18H740.789V89.508H733.337V84.864H742.445V81.012H728.261ZM745.716 96.96V101.1C747.804 101.928 749.964 102.396 752.196 102.396C756.768 102.396 760.62 100.416 760.62 95.844C760.62 91.596 757.02 90.3 753.924 89.328C751.404 88.536 750.216 87.96 750.216 86.592C750.216 85.26 751.944 84.612 753.708 84.612C755.94 84.612 758.46 85.296 759.828 86.16V81.948C758.424 81.228 755.976 80.616 753.24 80.616C749.1 80.616 745.5 83.028 745.5 87.168C745.5 90.876 747.804 92.28 750.684 93.252C753.456 94.224 755.976 94.656 755.976 96.348C755.976 97.716 754.608 98.544 752.664 98.544C750.36 98.544 747.372 97.824 745.716 96.96Z" fill="#0175CA"/>
<g clip-path="url(#clip0_9_27)">
<path fill-rule="evenodd" clip-rule="evenodd" d="M421.506 82.109C421.601 82.109 421.694 82.0808 421.773 82.0281C421.852 81.9753 421.913 81.9004 421.949 81.8127C421.986 81.725 421.995 81.6284 421.977 81.5353C421.958 81.4422 421.913 81.3567 421.845 81.2896C421.778 81.2224 421.693 81.1767 421.6 81.1582C421.507 81.1397 421.41 81.1492 421.322 81.1855C421.235 81.2219 421.16 81.2834 421.107 81.3623C421.054 81.4412 421.026 81.5341 421.026 81.629C421.026 81.6921 421.038 81.7545 421.062 81.8128C421.086 81.8711 421.122 81.9241 421.166 81.9687C421.211 82.0133 421.264 82.0486 421.322 82.0727C421.38 82.0968 421.443 82.1091 421.506 82.109ZM423.051 82.109C423.146 82.109 423.239 82.0808 423.318 82.0281C423.397 81.9753 423.458 81.9004 423.494 81.8127C423.531 81.725 423.54 81.6284 423.522 81.5353C423.503 81.4422 423.458 81.3567 423.39 81.2896C423.323 81.2224 423.238 81.1767 423.145 81.1582C423.052 81.1397 422.955 81.1492 422.867 81.1855C422.78 81.2219 422.705 81.2834 422.652 81.3623C422.599 81.4412 422.571 81.5341 422.571 81.629C422.571 81.7563 422.622 81.8784 422.712 81.9684C422.802 82.0584 422.924 82.109 423.051 82.109ZM449.077 82.109C449.172 82.1092 449.265 82.0812 449.344 82.0286C449.423 81.976 449.485 81.9011 449.521 81.8134C449.558 81.7257 449.567 81.6291 449.549 81.536C449.531 81.4428 449.485 81.3572 449.418 81.2899C449.351 81.2227 449.265 81.1769 449.172 81.1583C449.079 81.1397 448.982 81.1491 448.895 81.1854C448.807 81.2217 448.732 81.2832 448.679 81.3622C448.626 81.4412 448.598 81.534 448.598 81.629C448.598 81.7561 448.648 81.8781 448.738 81.968C448.828 82.058 448.95 82.1087 449.077 82.109ZM450.622 82.109C450.717 82.109 450.81 82.0808 450.889 82.0281C450.968 81.9753 451.029 81.9004 451.065 81.8127C451.102 81.725 451.111 81.6284 451.093 81.5353C451.074 81.4422 451.029 81.3567 450.961 81.2896C450.894 81.2224 450.809 81.1767 450.716 81.1582C450.623 81.1397 450.526 81.1492 450.438 81.1855C450.351 81.2219 450.276 81.2834 450.223 81.3623C450.17 81.4412 450.142 81.5341 450.142 81.629C450.142 81.7558 450.192 81.8774 450.282 81.9673C450.371 82.0573 450.492 82.1082 450.619 82.109H450.622ZM460.092 83.255L460.009 82.644C459.671 82.702 458.894 82.937 458.82 82.405C458.802 82.2715 458.835 82.136 458.913 82.0263C458.992 81.9166 459.109 81.841 459.241 81.815C459.461 81.7905 459.683 81.8286 459.882 81.925L460.082 81.337C459.87 81.2495 459.641 81.2121 459.413 81.2277C459.185 81.2433 458.963 81.3115 458.765 81.427C458.557 81.575 458.41 81.7946 458.353 82.0438C458.297 82.2931 458.334 82.5545 458.458 82.778L457.77 82.8V83.264C458.224 83.2827 458.678 83.296 459.133 83.304C459.207 83.303 459.773 83.287 460.092 83.255ZM402.271 88.244C402.176 88.244 402.083 88.2721 402.004 88.3249C401.925 88.3776 401.864 88.4526 401.828 88.5403C401.791 88.628 401.782 88.7245 401.8 88.8176C401.819 88.9107 401.864 88.9963 401.932 89.0634C401.999 89.1305 402.084 89.1762 402.177 89.1948C402.27 89.2133 402.367 89.2038 402.455 89.1674C402.542 89.1311 402.617 89.0696 402.67 88.9907C402.723 88.9117 402.751 88.8189 402.751 88.724C402.751 88.6609 402.739 88.5985 402.714 88.5403C402.69 88.4821 402.655 88.4291 402.61 88.3846C402.566 88.34 402.513 88.3046 402.455 88.2805C402.396 88.2564 402.334 88.244 402.271 88.244ZM403.816 88.244C403.721 88.244 403.628 88.2721 403.549 88.3249C403.47 88.3776 403.409 88.4526 403.373 88.5403C403.336 88.628 403.327 88.7245 403.345 88.8176C403.364 88.9107 403.409 88.9963 403.477 89.0634C403.544 89.1305 403.629 89.1762 403.722 89.1948C403.815 89.2133 403.912 89.2038 404 89.1674C404.087 89.1311 404.162 89.0696 404.215 88.9907C404.268 88.9117 404.296 88.8189 404.296 88.724C404.296 88.5972 404.246 88.4756 404.156 88.3856C404.067 88.2957 403.946 88.2448 403.819 88.244H403.816ZM460.896 88.244C460.801 88.244 460.708 88.2721 460.629 88.3249C460.55 88.3776 460.489 88.4526 460.453 88.5403C460.416 88.628 460.407 88.7245 460.425 88.8176C460.444 88.9107 460.489 88.9963 460.557 89.0634C460.624 89.1305 460.709 89.1762 460.802 89.1948C460.895 89.2133 460.992 89.2038 461.08 89.1674C461.167 89.1311 461.242 89.0696 461.295 88.9907C461.348 88.9117 461.376 88.8189 461.376 88.724C461.376 88.6609 461.364 88.5985 461.339 88.5403C461.315 88.4821 461.28 88.4291 461.235 88.3846C461.191 88.34 461.138 88.3046 461.08 88.2805C461.021 88.2564 460.959 88.244 460.896 88.244ZM462.441 88.244C462.346 88.2438 462.253 88.2718 462.174 88.3244C462.095 88.377 462.033 88.4519 461.997 88.5396C461.96 88.6273 461.951 88.7238 461.969 88.817C461.988 88.9102 462.033 88.9958 462.1 89.063C462.167 89.1303 462.253 89.1761 462.346 89.1947C462.439 89.2133 462.536 89.2038 462.623 89.1675C462.711 89.1312 462.786 89.0697 462.839 88.9908C462.892 88.9118 462.92 88.819 462.92 88.724C462.92 88.5969 462.87 88.4749 462.78 88.3849C462.69 88.2949 462.568 88.2443 462.441 88.244ZM365.972 89.389C365.877 89.389 365.784 89.4171 365.705 89.4699C365.626 89.5226 365.565 89.5976 365.529 89.6853C365.492 89.773 365.483 89.8695 365.501 89.9626C365.52 90.0557 365.565 90.1413 365.633 90.2084C365.7 90.2755 365.785 90.3212 365.878 90.3398C365.971 90.3583 366.068 90.3488 366.156 90.3124C366.243 90.2761 366.318 90.2146 366.371 90.1357C366.424 90.0567 366.452 89.9639 366.452 89.869C366.452 89.8059 366.44 89.7433 366.416 89.685C366.392 89.6266 366.356 89.5736 366.312 89.5289C366.267 89.4843 366.214 89.4488 366.156 89.4246C366.098 89.4004 366.035 89.389 365.972 89.389ZM367.517 89.389C367.422 89.3888 367.329 89.4168 367.25 89.4694C367.171 89.522 367.109 89.5969 367.073 89.6846C367.036 89.7723 367.027 89.8688 367.045 89.962C367.064 90.0552 367.109 90.1408 367.176 90.208C367.243 90.2753 367.329 90.3211 367.422 90.3397C367.515 90.3583 367.612 90.3488 367.699 90.3125C367.787 90.2762 367.862 90.2147 367.915 90.1358C367.968 90.0568 367.996 89.964 367.996 89.869C367.996 89.742 367.946 89.6201 367.857 89.53C367.767 89.4398 367.646 89.3888 367.519 89.388L367.517 89.389ZM393.098 84.002C393.193 84.002 393.286 83.9738 393.365 83.9211C393.444 83.8683 393.505 83.7934 393.541 83.7057C393.578 83.618 393.587 83.5215 393.569 83.4283C393.55 83.3352 393.505 83.2497 393.437 83.1826C393.37 83.1154 393.285 83.0697 393.192 83.0512C393.099 83.0327 393.002 83.0422 392.914 83.0785C392.827 83.1149 392.752 83.1764 392.699 83.2553C392.646 83.3342 392.618 83.4271 392.618 83.522C392.618 83.6491 392.669 83.7709 392.759 83.8607C392.849 83.9505 392.971 84.002 393.098 84.002ZM371.21 83.07C371.305 83.07 371.398 83.0418 371.477 82.9891C371.556 82.9363 371.617 82.8614 371.653 82.7737C371.69 82.686 371.699 82.5895 371.681 82.4963C371.662 82.4032 371.617 82.3177 371.549 82.2506C371.482 82.1834 371.397 82.1377 371.304 82.1192C371.211 82.1007 371.114 82.1102 371.026 82.1465C370.939 82.1829 370.864 82.2444 370.811 82.3233C370.758 82.4022 370.73 82.4951 370.73 82.59C370.73 82.653 370.742 82.7153 370.767 82.7735C370.791 82.8317 370.826 82.8846 370.871 82.929C370.915 82.9735 370.968 83.0088 371.026 83.0328C371.085 83.0568 371.147 83.0701 371.21 83.07ZM472.073 81.358V87.252H472.9V81.357L472.073 81.358ZM444.166 87.252H444.993V81.357H444.166V87.252ZM396.587 87.252H397.419V81.357H396.591V87.251L396.587 87.252ZM469.902 86.044C469.902 86.1935 469.842 86.3368 469.737 86.4425C469.631 86.5482 469.488 86.6077 469.338 86.608H467.032C467.047 86.591 467.062 86.575 467.075 86.557C467.206 86.3801 467.292 86.174 467.326 85.9564C467.36 85.7388 467.34 85.5163 467.269 85.308C467.169 84.938 466.849 83.808 466.038 83.793H466.019C465.069 83.793 464.486 85.383 464.378 85.704C464.28 85.9979 464.203 86.2988 464.149 86.604C463.792 86.613 462.102 86.604 462.102 86.604C462.18 86.4276 462.22 86.2368 462.219 86.044V84.024H461.391V86.044C461.391 86.1936 461.332 86.337 461.226 86.4428C461.12 86.5486 460.977 86.608 460.827 86.608H460.327C460.178 86.6077 460.034 86.5482 459.928 86.4425C459.823 86.3368 459.763 86.1935 459.763 86.044V84.024H458.936V86.044C458.936 86.1935 458.876 86.3368 458.771 86.4425C458.665 86.5482 458.522 86.6077 458.372 86.608H451.319C451.17 86.6077 451.026 86.5482 450.921 86.4425C450.815 86.3368 450.755 86.1935 450.755 86.044V82.986H449.929V83.386C449.544 83.5009 449.167 83.6422 448.801 83.809C448.423 83.9262 448.078 84.1292 447.792 84.4021C447.505 84.675 447.286 85.0103 447.151 85.382C447.118 85.5228 447.121 85.6695 447.159 85.8091C447.196 85.9487 447.268 86.0768 447.367 86.182C447.61 86.3728 447.888 86.5135 448.185 86.5957C448.483 86.6779 448.794 86.7001 449.1 86.661C449.414 86.6587 449.728 86.637 450.04 86.596C450.147 86.8467 450.326 87.0606 450.553 87.2109C450.781 87.3613 451.047 87.4416 451.32 87.442H458.368C458.628 87.1839 458.979 87.039 459.346 87.039C459.712 87.039 460.063 87.1839 460.323 87.442H460.823C461.179 87.4418 461.52 87.305 461.778 87.06V87.434C461.778 87.434 463.76 87.443 464.072 87.434C464.039 87.8296 464.131 88.2255 464.334 88.5663C464.538 88.9071 464.843 89.1755 465.207 89.334C465.442 89.4285 465.692 89.4764 465.945 89.475C466.253 89.4909 466.559 89.4231 466.831 89.2787C467.102 89.1342 467.33 88.9187 467.489 88.655C467.583 88.4557 467.616 88.2333 467.585 88.0153C467.554 87.7972 467.46 87.593 467.314 87.428H469.333C469.702 87.4277 470.056 87.281 470.317 87.02C470.578 86.759 470.725 86.4051 470.725 86.036V81.357H469.897V86.044H469.902ZM447.969 85.607C447.959 85.597 447.953 85.591 447.962 85.544C448.062 85.044 449.07 84.531 449.929 84.244V85.764C449.274 85.899 448.594 85.8452 447.969 85.607ZM465.161 85.968C465.275 85.4313 465.578 84.9533 466.014 84.621C466.28 84.8535 466.443 85.181 466.47 85.533C466.506 85.6171 466.52 85.709 466.511 85.8C466.501 85.891 466.469 85.9781 466.416 86.053C466.014 86.3806 465.51 86.5575 464.991 86.553C465.038 86.3546 465.094 86.1587 465.161 85.966V85.968ZM466.749 88.302C466.601 88.4717 466.402 88.5899 466.182 88.6393C465.962 88.6887 465.732 88.6669 465.525 88.577C465.31 88.4711 465.134 88.301 465.02 88.0903C464.906 87.8796 464.861 87.6387 464.89 87.401C465.329 87.3706 465.763 87.286 466.181 87.149L466.019 87.435C466.216 87.485 466.392 87.5953 466.523 87.7504C466.654 87.9055 466.733 88.0977 466.749 88.3V88.302ZM386.819 87.251H387.647V81.357H386.819V87.251ZM384.645 86.044C384.645 86.1934 384.586 86.3367 384.48 86.4424C384.375 86.5482 384.231 86.6077 384.082 86.608H382.451C382.465 86.579 382.479 86.55 382.491 86.519C382.694 85.9108 382.65 85.2473 382.369 84.671C382.259 84.3945 382.073 84.155 381.832 83.9805C381.591 83.8061 381.305 83.7039 381.008 83.686H381C380.697 83.7039 380.406 83.8073 380.16 83.9844C379.914 84.1614 379.723 84.4047 379.61 84.686C379.478 84.964 379.366 85.2507 379.273 85.544C379.017 86.298 378.912 86.611 378.084 86.611H377.284C377.189 85.9747 376.947 85.3692 376.578 84.8423C376.209 84.3154 375.723 83.8815 375.157 83.575L374.776 84.31C375.206 84.5486 375.578 84.8779 375.867 85.2751C376.157 85.6724 376.356 86.1279 376.451 86.61H373.863V87.438H378.083C378.541 87.4669 378.993 87.3298 379.358 87.052C379.833 87.3212 380.372 87.4557 380.918 87.441C381.18 87.4482 381.442 87.4096 381.691 87.327C381.737 87.3091 381.783 87.2887 381.827 87.266V87.441H384.081C384.45 87.4405 384.804 87.2936 385.064 87.0326C385.325 86.7717 385.472 86.4179 385.472 86.049V81.357H384.644V86.044H384.645ZM381.722 86.215C381.695 86.2913 381.652 86.3608 381.595 86.4186C381.538 86.4765 381.47 86.5213 381.394 86.55C380.871 86.6595 380.327 86.5982 379.842 86.375C379.923 86.1884 379.995 85.9978 380.057 85.804C380.138 85.5457 380.237 85.2931 380.352 85.048C380.401 84.9084 380.487 84.7848 380.602 84.6907C380.716 84.5966 380.854 84.5355 381 84.514C381.141 84.5334 381.274 84.5919 381.384 84.6829C381.493 84.774 381.575 84.8938 381.62 85.029C381.801 85.3971 381.836 85.8199 381.719 86.213L381.722 86.215ZM430.247 83.689H430.24C429.937 83.7069 429.646 83.8103 429.4 83.9874C429.154 84.1644 428.963 84.4077 428.85 84.689C428.718 84.9667 428.605 85.253 428.512 85.546C428.257 86.3 428.151 86.612 427.324 86.612H423.95C423.801 86.6117 423.657 86.5522 423.552 86.4465C423.446 86.3408 423.386 86.1975 423.386 86.048V82.986H422.558V83.386C422.173 83.5011 421.797 83.6424 421.431 83.809C421.053 83.9262 420.708 84.1292 420.422 84.4021C420.135 84.675 419.916 85.0103 419.781 85.382C419.748 85.5228 419.75 85.6696 419.788 85.8092C419.826 85.9488 419.898 86.0769 419.997 86.182C420.239 86.3728 420.517 86.5134 420.815 86.5957C421.112 86.6779 421.423 86.7001 421.729 86.661C422.044 86.6587 422.358 86.637 422.67 86.596C422.777 86.8467 422.956 87.0606 423.183 87.2109C423.411 87.3613 423.677 87.4416 423.95 87.442H427.319C427.777 87.4714 428.23 87.3339 428.595 87.055C429.31 87.4394 430.144 87.5381 430.928 87.331C431.11 87.2617 431.276 87.1546 431.414 87.0167C431.552 86.8788 431.659 86.7133 431.728 86.531C431.931 85.9229 431.888 85.2594 431.607 84.683C431.499 84.4046 431.313 84.1629 431.072 83.9864C430.832 83.8099 430.545 83.706 430.247 83.687V83.689ZM420.598 85.608C420.589 85.598 420.582 85.592 420.592 85.545C420.692 85.045 421.699 84.532 422.558 84.245V85.765C421.903 85.8996 421.223 85.8444 420.598 85.606V85.608ZM430.961 86.217C430.934 86.2935 430.891 86.3633 430.834 86.4213C430.778 86.4794 430.709 86.5243 430.633 86.553C430.11 86.6627 429.566 86.6017 429.081 86.379C429.162 86.1924 429.234 86.0018 429.296 85.808C429.379 85.5492 429.479 85.2963 429.596 85.051C429.645 84.9113 429.731 84.7877 429.846 84.6936C429.96 84.5995 430.098 84.5384 430.244 84.517C430.385 84.5364 430.518 84.5949 430.628 84.6859C430.737 84.777 430.819 84.8968 430.864 85.032C431.044 85.4001 431.079 85.8225 430.961 86.215V86.217ZM416.483 86.044C416.483 86.1935 416.423 86.3368 416.318 86.4425C416.212 86.5482 416.069 86.6077 415.919 86.608H415.413C415.264 86.6077 415.12 86.5482 415.014 86.4425C414.909 86.3368 414.849 86.1935 414.849 86.044V81.357H414.019V86.044C414.019 86.1935 413.959 86.3368 413.854 86.4425C413.748 86.5482 413.605 86.6077 413.455 86.608H412.269C412.303 86.1668 412.245 85.7234 412.098 85.3061C411.951 84.8888 411.718 84.5069 411.414 84.185C410.623 83.532 409.554 83.944 408.791 84.416C408.346 84.6985 407.933 85.0281 407.559 85.399V81.359H406.731V86.608H403.331C403.41 86.4305 403.451 86.2383 403.451 86.044V84.024H402.624V86.044C402.624 86.1935 402.564 86.3368 402.459 86.4425C402.353 86.5482 402.21 86.6077 402.06 86.608H400.319C400.17 86.6077 400.026 86.5482 399.921 86.4425C399.815 86.3368 399.755 86.1935 399.755 86.044V84.024H398.927V87.244C398.927 87.5491 398.806 87.8417 398.59 88.0575C398.375 88.2733 398.082 88.3947 397.777 88.395V89.224C398.289 89.2233 398.781 89.0243 399.15 88.6688C399.518 88.3132 399.735 87.8288 399.754 87.317C399.932 87.3962 400.124 87.4371 400.319 87.437H402.066C402.335 87.4372 402.599 87.3587 402.824 87.211V87.437H413.458C413.718 87.1789 414.069 87.034 414.436 87.034C414.802 87.034 415.153 87.1789 415.413 87.437H415.919C416.288 87.4365 416.642 87.2896 416.902 87.0286C417.163 86.7677 417.31 86.4139 417.31 86.045V81.357H416.483V86.044ZM407.562 86.306C407.907 85.9719 408.28 85.6684 408.677 85.399C409.116 85.0605 409.623 84.8216 410.164 84.699C410.39 84.6468 410.628 84.6852 410.826 84.806C410.987 84.9334 411.109 85.1031 411.179 85.296C411.336 85.7166 411.421 86.161 411.429 86.61H407.562V86.31V86.306ZM372.052 86.044C372.052 86.1935 371.992 86.3368 371.887 86.4425C371.781 86.5482 371.638 86.6077 371.488 86.608H371.119C370.966 86.6099 370.818 86.5521 370.707 86.4467C370.596 86.3414 370.531 86.1969 370.525 86.044V84.944C370.53 84.7856 370.498 84.6282 370.432 84.484C370.366 84.3398 370.269 84.2125 370.146 84.112C369.989 83.9985 369.809 83.9217 369.619 83.8871C369.428 83.8524 369.233 83.861 369.046 83.912C368.686 83.9827 368.359 84.1719 368.119 84.4495C367.878 84.7271 367.738 85.0772 367.719 85.444V87.344C367.706 87.4459 367.663 87.5415 367.595 87.6191C367.528 87.6966 367.439 87.7526 367.34 87.78C366.994 87.9032 366.621 87.9311 366.26 87.8608C365.899 87.7904 365.564 87.6244 365.289 87.38C365.015 87.0485 364.848 86.6414 364.81 86.2127C364.773 85.784 364.866 85.3541 365.079 84.98L364.307 84.68C363.602 86.521 364.26 87.533 364.714 87.972C365.244 88.4629 365.943 88.7311 366.666 88.721C367.009 88.7252 367.348 88.6613 367.666 88.533C367.918 88.4474 368.138 88.2864 368.296 88.0718C368.454 87.8572 368.542 87.5993 368.548 87.333V85.444C368.565 85.2631 368.641 85.093 368.766 84.9605C368.89 84.8279 369.055 84.7405 369.234 84.712C369.3 84.6903 369.369 84.6828 369.438 84.6898C369.507 84.6969 369.574 84.7184 369.634 84.753C369.66 84.7757 369.679 84.8045 369.691 84.8366C369.702 84.8687 369.706 84.9032 369.701 84.937V86.037C369.71 86.4086 369.863 86.762 370.129 87.022C370.395 87.282 370.751 87.428 371.123 87.429H371.491C371.86 87.4287 372.214 87.282 372.475 87.021C372.736 86.76 372.883 86.4061 372.883 86.037V84.017H372.055V86.044H372.052ZM394.509 87.344C394.496 87.4458 394.453 87.5414 394.386 87.619C394.319 87.6965 394.23 87.7525 394.131 87.78C393.785 87.9033 393.411 87.9313 393.05 87.8609C392.689 87.7905 392.354 87.6244 392.079 87.38C391.805 87.0483 391.638 86.6411 391.601 86.2125C391.564 85.7839 391.657 85.3541 391.87 84.98L391.097 84.68C390.397 86.521 391.05 87.533 391.505 87.972C392.035 88.4628 392.734 88.731 393.456 88.721C393.799 88.7252 394.138 88.6613 394.456 88.533C394.708 88.4476 394.929 88.2867 395.086 88.072C395.244 87.8574 395.333 87.5994 395.339 87.333V84.013H394.509V87.344ZM441.995 86.044C441.995 86.193 441.936 86.336 441.831 86.4417C441.726 86.5474 441.583 86.6072 441.434 86.608H441.134C440.442 86.631 439.749 86.5685 439.072 86.422L439.134 86.37C439.408 86.1665 439.633 85.9037 439.792 85.6012C439.95 85.2987 440.039 84.9643 440.05 84.623C440.009 84.4259 439.913 84.2443 439.774 84.0984C439.635 83.9525 439.459 83.8482 439.264 83.797L439.219 83.779L439.173 83.773C438.431 83.6786 437.68 83.6716 436.936 83.752H436.888L436.843 83.768C436.678 83.8122 436.528 83.9 436.409 84.0221C436.29 84.1442 436.206 84.2962 436.166 84.462C436.175 84.8173 436.261 85.1664 436.419 85.4851C436.576 85.8037 436.801 86.0842 437.078 86.307C437.128 86.356 437.178 86.407 437.236 86.45C436.729 86.5645 436.21 86.6152 435.691 86.601H434.477C434.328 86.6007 434.184 86.5412 434.079 86.4354C433.973 86.3297 433.914 86.1864 433.914 86.037V81.357H433.086V86.044C433.087 86.4128 433.233 86.7664 433.494 87.0273C433.755 87.2883 434.108 87.4352 434.477 87.436H435.692C436.54 87.4808 437.388 87.3321 438.17 87.001C439.121 87.3368 440.129 87.4842 441.137 87.435H441.437C441.804 87.4321 442.155 87.2843 442.414 87.0238C442.673 86.7633 442.819 86.4112 442.819 86.044V81.357H441.991V86.044H441.995ZM438.595 85.737C438.45 85.8605 438.296 85.9732 438.135 86.074C437.959 85.9782 437.797 85.8594 437.653 85.721C437.31 85.4516 437.069 85.073 436.971 84.648C436.994 84.6111 437.029 84.5837 437.071 84.571C437.717 84.5052 438.369 84.5116 439.014 84.59C439.061 84.6018 439.104 84.624 439.141 84.6548C439.178 84.6856 439.208 84.7242 439.228 84.768C439.151 85.1598 438.925 85.5065 438.597 85.735L438.595 85.737Z" fill="#58595B"/>
<path fill-rule="evenodd" clip-rule="evenodd" d="M363.932 94.31C363.932 92.647 364.808 91.54 366.132 91.54C366.5 91.5375 366.859 91.6446 367.166 91.8477C367.472 92.0508 367.71 92.3406 367.851 92.68L367.122 93.016C367.042 92.8174 366.906 92.6465 366.73 92.5243C366.554 92.4021 366.346 92.3339 366.132 92.328C365.362 92.328 364.844 93.091 364.844 94.31C364.844 95.529 365.362 96.296 366.132 96.296C366.301 96.2975 366.468 96.2641 366.622 96.1978C366.777 96.1315 366.917 96.0339 367.032 95.911V94.911H365.897V94.135H367.884V96.262C367.674 96.5236 367.407 96.734 367.103 96.8776C366.8 97.0212 366.468 97.0942 366.132 97.091C364.803 97.091 363.932 95.964 363.932 94.31ZM368.732 95.043C368.7 94.7976 368.718 94.5482 368.786 94.3102C368.854 94.0723 368.971 93.8509 369.128 93.66C369.286 93.4692 369.481 93.3128 369.702 93.2008C369.923 93.0888 370.164 93.0235 370.411 93.009C371.473 93.009 372.041 93.9 372.041 95.076V95.309H369.552C369.541 95.4504 369.56 95.5925 369.606 95.7265C369.653 95.8605 369.726 95.9836 369.822 96.0881C369.917 96.1927 370.034 96.2765 370.163 96.3345C370.292 96.3924 370.432 96.4232 370.574 96.425C370.742 96.4204 370.907 96.3811 371.059 96.3095C371.211 96.2379 371.346 96.1356 371.456 96.009L371.848 96.488C371.59 96.7713 371.249 96.9649 370.873 97.0407C370.498 97.1165 370.108 97.0705 369.76 96.9094C369.413 96.7484 369.126 96.4806 368.941 96.1451C368.756 95.8096 368.683 95.4229 368.732 95.043ZM370.404 93.66C370.149 93.6924 369.916 93.823 369.756 94.024C369.595 94.2251 369.519 94.4809 369.544 94.737H371.254C371.272 94.6101 371.264 94.4808 371.23 94.3571C371.197 94.2334 371.138 94.1177 371.059 94.0171C370.98 93.9165 370.881 93.833 370.768 93.7716C370.656 93.7102 370.532 93.6723 370.404 93.66ZM375.099 96.988V94.344C375.116 94.264 375.114 94.181 375.093 94.1019C375.072 94.0228 375.033 93.9498 374.978 93.8888C374.924 93.8278 374.855 93.7805 374.779 93.7508C374.703 93.7212 374.621 93.7099 374.539 93.718C374.37 93.7302 374.208 93.7863 374.067 93.8809C373.927 93.9755 373.814 94.1051 373.739 94.257V96.989H372.929V93.109H373.739V93.628C373.868 93.444 374.037 93.2925 374.235 93.1854C374.432 93.0783 374.652 93.0186 374.876 93.011C375.017 92.9938 375.161 93.0095 375.295 93.0567C375.429 93.1039 375.551 93.1815 375.65 93.2834C375.75 93.3852 375.825 93.5087 375.868 93.6441C375.912 93.7794 375.925 93.9231 375.904 94.064V96.99H375.094L375.099 96.988ZM376.835 95.044C376.803 94.7988 376.821 94.5495 376.889 94.3117C376.957 94.0739 377.073 93.8526 377.231 93.6617C377.388 93.4709 377.583 93.3145 377.803 93.2024C378.024 93.0902 378.265 93.0248 378.512 93.01C379.575 93.01 380.144 93.901 380.144 95.077V95.31H377.653C377.643 95.4513 377.661 95.5933 377.708 95.7272C377.754 95.861 377.828 95.984 377.923 96.0885C378.019 96.193 378.135 96.2769 378.264 96.3349C378.394 96.3929 378.533 96.4239 378.675 96.426C378.843 96.4216 379.008 96.3824 379.16 96.3107C379.312 96.2391 379.448 96.1367 379.558 96.01L379.948 96.489C379.691 96.7745 379.35 96.9701 378.974 97.0472C378.597 97.1242 378.207 97.0786 377.858 96.917C377.51 96.7554 377.223 96.4864 377.038 96.1495C376.854 95.8125 376.783 95.4244 376.835 95.044ZM378.505 93.661C378.25 93.6931 378.017 93.8237 377.857 94.0249C377.696 94.226 377.621 94.4819 377.646 94.738H379.357C379.375 94.6109 379.367 94.4815 379.333 94.3577C379.299 94.2338 379.241 94.1181 379.161 94.0174C379.082 93.9168 378.982 93.8333 378.87 93.7721C378.757 93.7108 378.633 93.673 378.505 93.661ZM381.036 96.989V93.109H381.846V93.677C381.957 93.4858 382.113 93.3254 382.302 93.2103C382.49 93.0952 382.705 93.0291 382.925 93.018V93.818C382.856 93.8028 382.785 93.7951 382.714 93.795C382.537 93.8076 382.365 93.863 382.214 93.9563C382.063 94.0496 381.937 94.1782 381.846 94.331V96.992H381.036V96.989ZM385.724 96.989V96.593C385.602 96.7487 385.445 96.8738 385.266 96.9585C385.087 97.0432 384.891 97.0851 384.693 97.081C384.527 97.0815 384.363 97.0477 384.211 96.9816C384.059 96.9156 383.923 96.8188 383.81 96.6973C383.697 96.5758 383.611 96.4323 383.556 96.2758C383.502 96.1193 383.48 95.9532 383.493 95.788C383.48 95.6242 383.501 95.4595 383.556 95.3045C383.61 95.1495 383.697 95.0079 383.811 94.8889C383.924 94.7699 384.061 94.6762 384.213 94.614C384.365 94.5518 384.529 94.5225 384.693 94.528C384.889 94.5206 385.084 94.5587 385.263 94.6392C385.442 94.7197 385.6 94.8404 385.724 94.992V94.43C385.733 94.3287 385.719 94.2267 385.683 94.1314C385.648 94.0361 385.591 93.95 385.518 93.8792C385.445 93.8084 385.357 93.7549 385.261 93.7223C385.165 93.6897 385.062 93.6791 384.961 93.691C384.777 93.6932 384.596 93.7338 384.428 93.8101C384.261 93.8863 384.111 93.9967 383.989 94.134L383.672 93.57C384.057 93.2007 384.573 92.9983 385.106 93.007C385.291 92.9791 385.48 92.9933 385.658 93.0487C385.837 93.104 386 93.199 386.137 93.3265C386.273 93.4541 386.379 93.6109 386.447 93.7852C386.514 93.9595 386.541 94.1468 386.526 94.333V96.986H385.726L385.724 96.989ZM385.724 96.103V95.515C385.65 95.3846 385.542 95.2759 385.413 95.1998C385.283 95.1236 385.136 95.0827 384.986 95.081C384.802 95.0929 384.63 95.1742 384.504 95.3086C384.378 95.443 384.308 95.6203 384.308 95.8045C384.308 95.9887 384.378 96.166 384.504 96.3004C384.63 96.4348 384.802 96.5162 384.986 96.528C385.135 96.526 385.282 96.4856 385.411 96.4109C385.54 96.3361 385.648 96.2294 385.724 96.101M387.645 91.627H388.456V96.987H387.645V91.627ZM394.329 96.987L394.037 95.926H392.26L391.968 96.987H390.995L392.608 91.627H393.686L395.3 96.987H394.329ZM393.151 92.577L392.451 95.139H393.863L393.151 92.577ZM398.076 96.987V96.473C397.947 96.6579 397.776 96.8095 397.577 96.9154C397.378 97.0213 397.157 97.0784 396.931 97.082C396.791 97.1002 396.648 97.0855 396.514 97.0391C396.38 96.9927 396.259 96.9158 396.16 96.8146C396.061 96.7134 395.987 96.5906 395.943 96.4558C395.9 96.3211 395.888 96.178 395.909 96.038V93.106H396.719V95.758C396.703 95.8375 396.706 95.9196 396.727 95.9978C396.749 96.076 396.788 96.148 396.843 96.208C396.897 96.268 396.965 96.3143 397.041 96.3431C397.117 96.372 397.198 96.3826 397.279 96.374C397.446 96.3609 397.607 96.3056 397.747 96.2133C397.887 96.1209 398.001 95.9946 398.079 95.846V93.106H398.89V96.986H398.079L398.076 96.987ZM400.151 96.118V93.803H399.64V93.103H400.151V92.044H400.962V93.105H401.612V93.805H400.962V95.951C400.962 96.217 401.051 96.376 401.262 96.376C401.32 96.378 401.377 96.3674 401.43 96.3452C401.483 96.3229 401.531 96.2894 401.57 96.247L401.764 96.847C401.57 97.0131 401.319 97.0961 401.064 97.078C400.936 97.0925 400.807 97.077 400.686 97.0328C400.566 96.9886 400.457 96.9169 400.369 96.8233C400.281 96.7298 400.216 96.6169 400.179 96.4938C400.142 96.3707 400.134 96.2406 400.156 96.114M404.641 96.983V94.326C404.656 94.2462 404.652 94.1639 404.63 94.0859C404.607 94.0078 404.567 93.9362 404.511 93.8767C404.456 93.8173 404.387 93.7718 404.311 93.7439C404.235 93.716 404.153 93.7064 404.072 93.716C403.905 93.7313 403.745 93.7888 403.606 93.8831C403.467 93.9774 403.355 94.1054 403.279 94.255V96.987H402.467V91.627H403.279V93.627C403.409 93.4428 403.58 93.2912 403.778 93.1841C403.976 93.077 404.197 93.0174 404.422 93.01C404.563 92.9913 404.706 93.0055 404.84 93.0517C404.974 93.0979 405.096 93.1747 405.195 93.276C405.294 93.3773 405.368 93.5004 405.412 93.6354C405.455 93.7705 405.467 93.9138 405.445 94.054V96.989H404.645L404.641 96.983ZM406.37 95.039C406.43 94.7173 406.581 94.4193 406.804 94.1799C407.027 93.9406 407.314 93.7697 407.631 93.6874C407.947 93.6051 408.281 93.6147 408.592 93.7151C408.904 93.8155 409.18 94.0025 409.389 94.2543C409.599 94.5061 409.732 94.8123 409.773 95.1369C409.814 95.4616 409.763 95.7913 409.623 96.0876C409.484 96.3838 409.264 96.6343 408.987 96.8097C408.711 96.9851 408.39 97.0782 408.063 97.078C407.814 97.0665 407.57 97.0031 407.347 96.8919C407.123 96.7808 406.926 96.6242 406.766 96.4323C406.607 96.2404 406.49 96.0174 406.421 95.7775C406.353 95.5376 406.336 95.286 406.37 95.039ZM408.923 95.039C408.853 94.8847 408.743 94.752 408.604 94.655C408.465 94.558 408.303 94.5001 408.134 94.4876C407.965 94.4751 407.796 94.5083 407.644 94.5838C407.492 94.6592 407.364 94.7742 407.272 94.9165C407.18 95.0588 407.128 95.2233 407.122 95.3926C407.115 95.5619 407.155 95.7298 407.236 95.8786C407.317 96.0275 407.436 96.1517 407.582 96.2384C407.727 96.325 407.894 96.3708 408.063 96.371C408.208 96.3427 408.346 96.2853 408.469 96.2023C408.592 96.1193 408.696 96.0124 408.777 95.888C408.857 95.7636 408.911 95.6243 408.936 95.4785C408.962 95.3326 408.957 95.1831 408.923 95.039ZM410.683 96.983V93.103H411.494V93.671C411.604 93.4797 411.761 93.3191 411.95 93.2039C412.138 93.0888 412.352 93.0228 412.573 93.012V93.812C412.503 93.7967 412.432 93.7889 412.361 93.789C412.184 93.8018 412.013 93.8572 411.862 93.9505C411.711 94.0439 411.585 94.1723 411.494 94.325V96.986H410.679L410.683 96.983ZM413.238 92.113C413.239 91.9783 413.294 91.8495 413.389 91.7545C413.485 91.6596 413.614 91.6063 413.749 91.606C413.847 91.6082 413.942 91.6392 414.023 91.6951C414.104 91.751 414.166 91.8294 414.202 91.9206C414.239 92.0117 414.248 92.1115 414.228 92.2076C414.208 92.3036 414.16 92.3917 414.09 92.4608C414.021 92.5299 413.932 92.577 413.836 92.5962C413.74 92.6154 413.64 92.6059 413.549 92.5688C413.458 92.5317 413.38 92.4687 413.325 92.3877C413.27 92.3066 413.24 92.2111 413.238 92.113ZM413.338 93.102H414.149V96.982H413.338V93.102ZM415.415 96.113V93.803H414.904V93.103H415.419V92.044H416.23V93.105H416.879V93.805H416.23V95.951C416.23 96.217 416.321 96.376 416.53 96.376C416.588 96.3777 416.645 96.367 416.698 96.3448C416.752 96.3225 416.8 96.2892 416.839 96.247L417.033 96.847C416.839 97.0128 416.588 97.0958 416.333 97.078C416.205 97.0929 416.076 97.0776 415.955 97.0336C415.834 96.9895 415.725 96.9178 415.636 96.8242C415.548 96.7306 415.483 96.6177 415.446 96.4944C415.409 96.3711 415.401 96.2408 415.423 96.114M417.718 97.793C417.799 97.8316 417.888 97.8515 417.977 97.851C418.078 97.8603 418.179 97.8327 418.26 97.7732C418.342 97.7138 418.4 97.6267 418.422 97.528L418.586 97.064L417.272 93.104H418.133L419 96.019L419.876 93.104H420.735L419.187 97.714C419.131 97.971 418.983 98.1987 418.771 98.354C418.559 98.5094 418.297 98.5816 418.035 98.557C417.888 98.5559 417.741 98.5374 417.598 98.502L417.718 97.793ZM423.071 95.039C423.131 94.7173 423.282 94.4194 423.505 94.18C423.728 93.9407 424.015 93.7698 424.331 93.6875C424.648 93.6051 424.982 93.6147 425.293 93.715C425.605 93.8153 425.881 94.0022 426.09 94.254C426.299 94.5057 426.432 94.8117 426.474 95.1363C426.516 95.4609 426.464 95.7906 426.325 96.0869C426.186 96.3832 425.965 96.6337 425.689 96.8092C425.413 96.9847 425.092 97.078 424.765 97.078C424.516 97.0663 424.272 97.0029 424.049 96.8916C423.826 96.7804 423.628 96.6239 423.469 96.432C423.309 96.2402 423.191 96.0172 423.123 95.7774C423.055 95.5375 423.037 95.2861 423.071 95.039ZM425.625 95.039C425.555 94.8847 425.445 94.752 425.306 94.655C425.167 94.558 425.005 94.5001 424.836 94.4876C424.667 94.4751 424.498 94.5083 424.346 94.5838C424.194 94.6592 424.066 94.7742 423.974 94.9165C423.882 95.0588 423.83 95.2233 423.824 95.3926C423.817 95.5619 423.857 95.7298 423.938 95.8786C424.019 96.0275 424.138 96.1517 424.284 96.2384C424.429 96.325 424.596 96.3708 424.765 96.371C424.91 96.3427 425.049 96.2853 425.171 96.2023C425.294 96.1193 425.398 96.0124 425.479 95.888C425.559 95.7636 425.613 95.6243 425.638 95.4785C425.664 95.3326 425.659 95.1831 425.625 95.039ZM427.547 96.983V93.803H427.037V93.103H427.547V92.744C427.527 92.5903 427.541 92.434 427.588 92.2863C427.635 92.1385 427.714 92.0027 427.818 91.8885C427.923 91.7742 428.052 91.6842 428.195 91.6247C428.338 91.5652 428.492 91.5376 428.647 91.544C428.935 91.5324 429.217 91.6315 429.434 91.821L429.158 92.381C429.112 92.33 429.056 92.2893 428.993 92.2616C428.93 92.2339 428.862 92.2197 428.793 92.22C428.728 92.2187 428.663 92.2322 428.603 92.2593C428.543 92.2865 428.491 92.3267 428.449 92.377C428.406 92.4273 428.376 92.4864 428.36 92.5499C428.344 92.6134 428.342 92.6797 428.355 92.744V93.105H429.003V93.805H428.355V96.988H427.539L427.547 96.983ZM431.49 94.306C431.49 92.693 432.34 91.536 433.696 91.536C434.067 91.5359 434.43 91.6489 434.735 91.8599C435.041 92.0708 435.275 92.3698 435.406 92.717L434.66 93.045C434.59 92.8419 434.461 92.6645 434.289 92.5359C434.117 92.4073 433.911 92.3335 433.696 92.324C432.896 92.324 432.406 93.158 432.406 94.306C432.406 95.454 432.9 96.284 433.696 96.284C433.92 96.2714 434.135 96.1885 434.309 96.0471C434.484 95.9056 434.609 95.7128 434.668 95.496L435.414 95.827C435.294 96.1887 435.064 96.5039 434.756 96.7282C434.448 96.9525 434.077 97.0749 433.696 97.078C432.34 97.078 431.49 95.914 431.49 94.306ZM436.143 92.113C436.145 91.9782 436.2 91.8496 436.295 91.7548C436.391 91.6599 436.52 91.6065 436.655 91.606C436.789 91.606 436.917 91.6591 437.011 91.7535C437.106 91.8479 437.159 91.976 437.159 92.1095C437.159 92.243 437.106 92.3711 437.011 92.4655C436.917 92.56 436.789 92.613 436.655 92.613C436.521 92.613 436.393 92.5608 436.297 92.4673C436.202 92.3739 436.146 92.2467 436.143 92.113ZM436.25 93.102H437.061V96.982H436.25V93.102ZM439.007 96.982L437.717 93.102H438.578L439.445 96.026L440.32 93.102H441.18L439.88 96.982H438.999H439.007ZM441.724 92.112C441.725 91.9773 441.78 91.8485 441.875 91.7535C441.971 91.6586 442.1 91.6053 442.235 91.605C442.333 91.6072 442.428 91.6382 442.509 91.6941C442.59 91.75 442.652 91.8284 442.688 91.9196C442.725 92.0107 442.734 92.1105 442.714 92.2066C442.694 92.3026 442.646 92.3907 442.576 92.4598C442.507 92.5289 442.418 92.576 442.322 92.5952C442.226 92.6144 442.126 92.6049 442.035 92.5678C441.944 92.5307 441.866 92.4677 441.811 92.3867C441.756 92.3056 441.726 92.2101 441.724 92.112ZM441.831 93.101H442.64V96.981H441.819V93.101H441.831ZM443.76 91.621H444.571V96.981H443.76V91.621ZM450.442 96.981L450.15 95.92H448.373L448.082 96.981H447.11L448.723 91.621H449.801L451.415 96.981H450.442ZM449.265 92.571L448.565 95.133H449.976L449.265 92.571ZM452.785 96.981L451.497 93.101H452.356L453.219 96.03L454.093 93.106H454.955L453.655 96.986H452.778L452.785 96.981ZM455.503 92.111C455.505 91.9762 455.56 91.8476 455.655 91.7528C455.751 91.6579 455.88 91.6045 456.015 91.604C456.113 91.6064 456.208 91.6375 456.289 91.6936C456.369 91.7496 456.432 91.8281 456.468 91.9192C456.504 92.0104 456.513 92.1102 456.492 92.2062C456.472 92.3022 456.425 92.3901 456.355 92.4591C456.285 92.5282 456.197 92.5751 456.101 92.5943C456.004 92.6134 455.905 92.6038 455.814 92.5667C455.723 92.5296 455.645 92.4666 455.59 92.3856C455.535 92.3046 455.505 92.2091 455.503 92.111ZM455.603 93.1H456.415V96.98H455.603V93.1ZM459.56 96.98V96.593C459.438 96.7487 459.281 96.8738 459.103 96.9585C458.924 97.0432 458.728 97.0851 458.53 97.081C458.364 97.0815 458.2 97.0477 458.048 96.9816C457.896 96.9156 457.76 96.8188 457.647 96.6973C457.534 96.5758 457.448 96.4323 457.393 96.2758C457.339 96.1193 457.317 95.9532 457.33 95.788C457.317 95.6243 457.338 95.4596 457.393 95.3047C457.448 95.1498 457.535 95.0082 457.648 94.8893C457.761 94.7703 457.898 94.6766 458.05 94.6144C458.202 94.5521 458.366 94.5227 458.53 94.528C458.726 94.5207 458.921 94.5588 459.099 94.6393C459.278 94.7198 459.436 94.8405 459.56 94.992V94.43C459.569 94.3287 459.555 94.2267 459.52 94.1315C459.484 94.0362 459.428 93.95 459.355 93.8792C459.282 93.8084 459.194 93.7548 459.098 93.7223C459.001 93.6897 458.899 93.679 458.798 93.691C458.614 93.6934 458.433 93.734 458.265 93.8103C458.098 93.8865 457.948 93.9968 457.825 94.134L457.509 93.57C457.895 93.2011 458.411 92.9989 458.945 93.007C459.13 92.979 459.318 92.9932 459.497 93.0485C459.675 93.1039 459.839 93.1989 459.975 93.3265C460.111 93.4542 460.217 93.611 460.284 93.7853C460.351 93.9597 460.378 94.1469 460.362 94.333V96.986H459.562L459.56 96.98ZM459.56 96.094V95.515C459.486 95.3844 459.38 95.2755 459.25 95.1993C459.121 95.1232 458.974 95.0823 458.824 95.081C458.64 95.0929 458.468 95.1742 458.342 95.3086C458.216 95.443 458.146 95.6203 458.146 95.8045C458.146 95.9887 458.216 96.166 458.342 96.3004C458.468 96.4348 458.64 96.5162 458.824 96.528C458.973 96.5263 459.119 96.4861 459.248 96.4113C459.377 96.3364 459.485 96.2296 459.56 96.101M461.628 96.118V93.803H461.119V93.103H461.628V92.044H462.44V93.105H463.09V93.805H462.44V95.951C462.44 96.217 462.53 96.376 462.74 96.376C462.798 96.378 462.855 96.3674 462.908 96.3452C462.961 96.3229 463.009 96.2894 463.048 96.247L463.243 96.847C463.049 97.0124 462.798 97.0953 462.543 97.078C462.415 97.093 462.285 97.0779 462.164 97.034C462.043 96.99 461.934 96.9183 461.846 96.8247C461.757 96.731 461.692 96.618 461.655 96.4946C461.618 96.3713 461.61 96.2409 461.632 96.114M463.839 92.114C463.841 91.9795 463.895 91.851 463.99 91.7562C464.086 91.6614 464.215 91.6078 464.349 91.607C464.447 91.609 464.543 91.6398 464.623 91.6956C464.704 91.7514 464.767 91.8298 464.803 91.9209C464.84 92.012 464.849 92.1119 464.829 92.208C464.809 92.3041 464.761 92.3923 464.692 92.4615C464.622 92.5307 464.534 92.5779 464.437 92.5972C464.341 92.6164 464.241 92.607 464.15 92.5699C464.059 92.5329 463.981 92.4699 463.926 92.3888C463.871 92.3077 463.841 92.2122 463.839 92.114ZM463.944 93.103H464.756V96.983H463.944V93.103ZM465.68 95.039C465.74 94.7172 465.89 94.4191 466.113 94.1795C466.336 93.94 466.623 93.7688 466.939 93.686C467.256 93.6033 467.59 93.6124 467.901 93.7122C468.213 93.8121 468.49 93.9986 468.699 94.25C468.909 94.5014 469.043 94.8072 469.085 95.1318C469.127 95.4563 469.076 95.7862 468.937 96.0828C468.799 96.3794 468.579 96.6305 468.303 96.8067C468.028 96.983 467.707 97.0771 467.38 97.078C467.13 97.0673 466.886 97.0045 466.662 96.8937C466.438 96.7829 466.239 96.6265 466.079 96.4345C465.919 96.2425 465.801 96.0192 465.732 95.7789C465.663 95.5386 465.646 95.2866 465.68 95.039ZM468.234 95.039C468.164 94.8846 468.054 94.7519 467.915 94.6548C467.776 94.5578 467.613 94.5 467.444 94.4876C467.275 94.4751 467.106 94.5085 466.954 94.5841C466.803 94.6597 466.674 94.7748 466.582 94.9174C466.491 95.0599 466.439 95.2245 466.433 95.3939C466.427 95.5633 466.466 95.7312 466.547 95.88C466.629 96.0287 466.749 96.1529 466.894 96.2393C467.04 96.3257 467.207 96.3712 467.376 96.371C467.521 96.3424 467.659 96.2849 467.781 96.2018C467.904 96.1187 468.008 96.0118 468.088 95.8874C468.168 95.7631 468.223 95.6238 468.248 95.4781C468.273 95.3323 468.268 95.183 468.234 95.039ZM472.161 96.983V94.344C472.178 94.264 472.176 94.181 472.155 94.1019C472.134 94.0228 472.095 93.9498 472.04 93.8888C471.986 93.8278 471.917 93.7805 471.841 93.7508C471.765 93.7212 471.683 93.7099 471.601 93.718C471.432 93.7297 471.269 93.7856 471.129 93.8802C470.988 93.9749 470.875 94.1048 470.801 94.257V96.989H469.989V93.109H470.801V93.628C470.929 93.4441 471.098 93.2925 471.295 93.1854C471.492 93.0783 471.711 93.0186 471.935 93.011C472.077 92.9937 472.22 93.0093 472.355 93.0565C472.489 93.1036 472.611 93.1811 472.711 93.2829C472.81 93.3848 472.885 93.5082 472.93 93.6437C472.974 93.7791 472.986 93.9229 472.966 94.064V96.99H472.156L472.161 96.983Z" fill="#58595B"/>
<path fill-rule="evenodd" clip-rule="evenodd" d="M471.357 50.697C472.027 50.6957 472.669 50.4285 473.143 49.9542C473.616 49.4799 473.882 48.8371 473.882 48.167C473.869 47.5054 473.597 46.8753 473.124 46.412C472.652 45.9488 472.016 45.6893 471.355 45.6893C470.693 45.6893 470.057 45.9488 469.585 46.412C469.112 46.8753 468.84 47.5054 468.827 48.167C468.827 48.4994 468.892 48.8285 469.019 49.1357C469.146 49.4428 469.332 49.7218 469.567 49.9569C469.802 50.1919 470.081 50.3782 470.388 50.5052C470.695 50.6322 471.025 50.6974 471.357 50.697ZM471.357 46.136C471.623 46.1338 471.887 46.1851 472.132 46.2868C472.378 46.3885 472.601 46.5386 472.788 46.7282C472.974 46.9178 473.121 47.1429 473.219 47.3903C473.316 47.6376 473.363 47.9021 473.357 48.168C473.352 48.5647 473.231 48.9512 473.007 49.2787C472.783 49.6062 472.467 49.8602 472.099 50.0084C471.731 50.1567 471.327 50.1927 470.939 50.1118C470.55 50.031 470.195 49.837 469.916 49.5542C469.638 49.2715 469.45 48.9127 469.375 48.523C469.3 48.1333 469.343 47.7303 469.497 47.3647C469.651 46.9991 469.91 46.6873 470.241 46.4687C470.572 46.25 470.96 46.1342 471.357 46.136ZM470.866 49.484V48.437H471.492L472.019 49.484H472.561L471.97 48.344C472.138 48.2648 472.273 48.1307 472.354 47.9639C472.436 47.797 472.457 47.6075 472.416 47.4267C472.375 47.2459 472.273 47.0846 472.127 46.9696C471.982 46.8545 471.801 46.7925 471.616 46.794H470.783C470.731 46.7861 470.677 46.7901 470.626 46.8056C470.576 46.8211 470.529 46.8478 470.49 46.8837C470.451 46.9195 470.421 46.9637 470.401 47.0129C470.381 47.0621 470.373 47.1151 470.376 47.168V49.483H470.861L470.866 49.484ZM470.874 47.222H471.574C471.625 47.2189 471.675 47.2268 471.723 47.2451C471.77 47.2634 471.813 47.2917 471.849 47.328C471.884 47.3644 471.911 47.4079 471.928 47.4557C471.946 47.5035 471.952 47.5544 471.948 47.605C471.951 47.6582 471.942 47.7114 471.923 47.7611C471.904 47.8108 471.874 47.8559 471.837 47.8936C471.799 47.9312 471.754 47.9606 471.704 47.9798C471.654 47.999 471.601 48.0076 471.548 48.005H470.872V47.221L470.874 47.222ZM376.319 50.644C381.608 50.644 382.27 56.091 382.27 56.091L388.57 54.613C388.532 54.456 387.441 45.038 376.32 45.038C369.437 45.038 363.02 49.238 363.02 59.983C363.02 70.645 369.785 74.732 376.787 74.732C380.025 74.7721 383.221 73.9963 386.08 72.476C387.597 71.581 388.452 70.726 388.452 68.897V62.323C388.47 61.9354 388.403 61.5486 388.256 61.1896C388.108 60.8307 387.884 60.5083 387.599 60.245C387.314 59.9818 386.975 59.7841 386.605 59.6657C386.236 59.5474 385.845 59.5113 385.46 59.56H376.819V64.427H382.219V68.2C380.621 69.1043 378.805 69.5497 376.97 69.487C373.432 69.487 369.737 67.345 369.737 59.987C369.737 52.787 372.965 50.649 376.31 50.649M404.31 45.004C401.664 45.004 400.07 46.134 399.293 48.467L390.742 74.344H397.505C398.017 74.3056 398.499 74.0878 398.866 73.729L407.006 65.68C407.175 65.511 407.129 65.431 406.935 65.431H405.835C405.384 65.4271 404.94 65.5453 404.551 65.773L399.073 68.923L404.273 51.339C404.273 51.339 410.454 72.627 410.959 74.339H417.921L409.482 48.42C408.782 46.243 406.996 44.995 404.312 44.995M432.272 50.561C437.56 50.561 438.262 56.399 438.262 56.399L444.562 55.075C444.562 55.075 443.63 45.044 432.275 45.044C425.392 45.044 418.975 49.133 418.975 59.875C418.975 70.535 425.352 74.775 432.236 74.775C443.357 74.775 444.564 64.968 444.564 64.968L438.264 63.605C438.264 63.605 437.755 69.247 432.352 69.247C429.009 69.247 425.741 67.106 425.741 59.87C425.741 52.67 428.929 50.57 432.274 50.57M459.732 45.004C457.086 45.004 455.49 46.134 454.713 48.467L446.159 74.344H452.922C453.434 74.3058 453.916 74.088 454.283 73.729L462.425 65.68C462.593 65.511 462.546 65.431 462.352 65.431H461.252C460.801 65.4271 460.357 65.5453 459.968 65.773L454.49 68.923L459.69 51.339C459.69 51.339 465.874 72.627 466.379 74.339H473.341L464.902 48.42C464.202 46.243 462.413 44.995 459.731 44.995" fill="#274479"/>
<path fill-rule="evenodd" clip-rule="evenodd" d="M360.893 74.424C360.943 74.4192 360.99 74.3949 361.022 74.3565C361.055 74.318 361.071 74.2684 361.068 74.218C361.071 74.1787 361.063 74.1393 361.046 74.1041C361.028 74.0688 361.001 74.039 360.968 74.018C359.178 73.4277 357.598 72.3324 356.417 70.8641C355.236 69.3959 354.504 67.6174 354.311 65.743L352.711 54.343C351.967 49.048 348.068 45.437 343.522 45.351H320.17C320.148 45.3502 320.125 45.3539 320.104 45.3619C320.084 45.3698 320.064 45.3819 320.048 45.3974C320.032 45.4129 320.019 45.4314 320.011 45.452C320.002 45.4725 319.997 45.4946 319.997 45.517C319.99 45.5566 319.996 45.5973 320.014 45.6333C320.032 45.6692 320.061 45.6985 320.097 45.717C321.888 46.3147 323.469 47.4164 324.65 48.8899C325.832 50.3635 326.563 52.1464 326.756 54.025L328.356 65.425C329.1 70.7 332.996 74.331 337.542 74.436L360.893 74.424ZM350.933 69.55H346.771C346.309 69.5925 345.844 69.5012 345.432 69.287L342.59 67.775L344.232 66.905L350.954 69.467C351.053 69.511 351.053 69.55 350.933 69.55ZM347.633 57.533C347.623 57.5457 347.608 57.554 347.592 57.5565C347.576 57.5589 347.559 57.5551 347.546 57.546C346.232 56.7966 344.845 56.1831 343.407 55.715C343.229 55.657 342.976 55.571 342.742 55.515C342.642 60.221 342.199 63.879 341.742 63.884C341.285 63.889 340.842 60.221 340.742 55.515C340.507 55.57 340.255 55.657 340.077 55.715C338.638 56.1831 337.251 56.7966 335.937 57.546C335.924 57.5553 335.907 57.5591 335.891 57.5567C335.875 57.5543 335.861 57.5458 335.851 57.533C335.844 57.5233 335.84 57.5119 335.839 57.5C335.791 57.2579 335.802 57.0076 335.871 56.7707C335.941 56.5338 336.067 56.3174 336.239 56.14C336.653 55.7607 337.103 55.4218 337.582 55.128C338.159 54.7482 338.766 54.4138 339.395 54.128C339.561 54.05 339.77 53.955 339.934 53.886C338.889 53.3049 337.791 52.8257 336.655 52.455C336.648 52.4534 336.642 52.4505 336.637 52.4465C336.632 52.4425 336.627 52.4374 336.624 52.4317C336.62 52.4259 336.618 52.4195 336.617 52.4129C336.616 52.4063 336.616 52.3995 336.618 52.393C336.621 52.3835 336.626 52.3751 336.634 52.369C336.765 52.2192 336.929 52.1016 337.113 52.0251C337.296 51.9487 337.495 51.9154 337.694 51.928C338.065 51.9765 338.433 52.0504 338.794 52.149C339.194 52.249 339.594 52.359 339.982 52.487C340.207 52.561 340.429 52.64 340.65 52.727L340.76 52.769C340.896 51.498 341.286 50.569 341.744 50.569C342.202 50.569 342.592 51.493 342.728 52.769L342.838 52.727C343.058 52.64 343.281 52.561 343.505 52.487C343.897 52.359 344.293 52.2463 344.694 52.149C345.055 52.0504 345.423 51.9765 345.794 51.928C345.993 51.9154 346.191 51.9487 346.375 52.0251C346.559 52.1016 346.723 52.2192 346.854 52.369C346.862 52.3751 346.867 52.3835 346.87 52.393C346.872 52.3995 346.872 52.4063 346.871 52.4129C346.87 52.4195 346.868 52.4259 346.864 52.4317C346.861 52.4374 346.856 52.4425 346.851 52.4465C346.846 52.4505 346.839 52.4534 346.833 52.455C345.697 52.8257 344.599 53.3049 343.554 53.886C343.717 53.954 343.926 54.049 344.093 54.128C344.722 54.4138 345.328 54.7482 345.906 55.128C346.385 55.4218 346.835 55.7607 347.249 56.14C347.421 56.3175 347.547 56.534 347.616 56.7708C347.686 57.0077 347.697 57.2579 347.649 57.5C347.648 57.5118 347.644 57.5232 347.638 57.533H347.633ZM336.579 64.472L337.645 64.466C337.795 64.4629 337.944 64.4866 338.085 64.536L340.631 65.536L339.309 66.036L336.56 64.571C336.466 64.513 336.466 64.475 336.584 64.472H336.579ZM345.714 64.537L346.777 64.545C346.897 64.545 346.897 64.587 346.798 64.645L338.055 69.29C337.642 69.5031 337.176 69.5943 336.713 69.553H332.553C332.434 69.553 332.434 69.514 332.533 69.473L345.274 64.614C345.416 64.56 345.567 64.5339 345.719 64.537H345.714Z" fill="#0075C9"/>
</g>
<line x1="500.5" y1="40" x2="500.5" y2="102" stroke="#0175CA"/>
<g clip-path="url(#clip1_9_27)">
<path fill-rule="evenodd" clip-rule="evenodd" d="M566.5 98.957L560.282 98.963C559.591 99.0253 558.896 98.8863 558.282 98.563L554.036 96.289L556.49 94.98L566.533 98.834C566.685 98.9 566.685 98.957 566.5 98.957ZM561.577 80.876C561.561 80.8941 561.54 80.9059 561.516 80.9094C561.492 80.9129 561.468 80.9078 561.448 80.895C559.486 79.7677 557.413 78.8445 555.263 78.14C554.997 78.053 554.619 77.923 554.269 77.84C554.118 84.921 553.459 90.424 552.776 90.432C552.093 90.424 551.434 84.92 551.282 77.84C550.931 77.923 550.554 78.053 550.282 78.14C548.132 78.8447 546.06 79.7679 544.098 80.895C544.078 80.9091 544.054 80.915 544.03 80.9115C544.006 80.908 543.984 80.8952 543.969 80.876C543.958 80.8619 543.951 80.8448 543.95 80.827C543.877 80.4629 543.894 80.0866 543.999 79.7303C544.103 79.374 544.292 79.0483 544.55 78.781C545.169 78.2105 545.84 77.7005 546.556 77.258C547.419 76.6852 548.325 76.1806 549.266 75.749C549.514 75.631 549.827 75.488 550.066 75.386C548.506 74.5113 546.865 73.7899 545.166 73.232C545.156 73.2295 545.147 73.2252 545.139 73.2191C545.13 73.213 545.124 73.2054 545.118 73.1967C545.113 73.1879 545.11 73.1782 545.108 73.1682C545.107 73.1581 545.107 73.1478 545.11 73.138C545.115 73.124 545.123 73.1116 545.134 73.102C545.329 72.8773 545.574 72.7007 545.849 72.5857C546.123 72.4707 546.421 72.4205 546.718 72.439C547.273 72.5121 547.823 72.6234 548.363 72.772C548.963 72.9187 549.555 73.0883 550.139 73.281C550.474 73.392 550.807 73.511 551.139 73.642L551.304 73.706C551.504 71.793 552.09 70.394 552.774 70.406C553.458 70.398 554.041 71.796 554.244 73.706L554.409 73.642C554.738 73.511 555.07 73.392 555.409 73.281C555.994 73.0877 556.586 72.918 557.185 72.772C557.725 72.6234 558.275 72.5121 558.83 72.439C559.127 72.4205 559.425 72.4707 559.699 72.5857C559.974 72.7007 560.219 72.8773 560.414 73.102C560.425 73.1116 560.433 73.124 560.438 73.138C560.443 73.158 560.44 73.1791 560.429 73.1967C560.418 73.2143 560.401 73.227 560.381 73.232C558.682 73.7901 557.041 74.5115 555.481 75.386C555.725 75.486 556.037 75.631 556.281 75.749C557.225 76.18 558.135 76.6845 559 77.258C559.714 77.7006 560.384 78.2106 561 78.781C561.257 79.0486 561.446 79.3743 561.551 79.7305C561.655 80.0867 561.672 80.4628 561.6 80.827C561.598 80.8451 561.592 80.8624 561.581 80.877L561.577 80.876ZM545.065 91.318L546.658 91.309C546.882 91.3045 547.104 91.3404 547.315 91.415L551.115 92.915L549.139 93.672L545.032 91.472C544.889 91.379 544.889 91.321 545.065 91.318ZM558.714 91.418L560.303 91.43C560.482 91.43 560.482 91.493 560.334 91.58L547.27 98.569C546.655 98.8901 545.961 99.0289 545.27 98.969L539.055 98.963C538.877 98.963 538.877 98.905 539.025 98.843L558.062 91.532C558.27 91.452 558.491 91.4123 558.714 91.415V91.418ZM575.382 81.218C574.911 81.277 574.435 81.1481 574.058 80.8592C573.68 80.5703 573.432 80.1445 573.366 79.674C573.343 79.4411 573.366 79.2058 573.434 78.9819C573.502 78.7579 573.614 78.5498 573.764 78.3696C573.913 78.1894 574.097 78.0407 574.304 77.9321C574.512 77.8235 574.739 77.7572 574.972 77.737C575.443 77.6775 575.919 77.806 576.297 78.0948C576.674 78.3836 576.922 78.8094 576.988 79.28C577.011 79.5128 576.987 79.7478 576.918 79.9715C576.85 80.1951 576.738 80.403 576.588 80.583C576.439 80.7631 576.256 80.9118 576.049 81.0206C575.842 81.1295 575.615 81.1972 575.382 81.218ZM574.441 75.686C573.995 75.8583 573.501 75.8515 573.06 75.6669C572.62 75.4824 572.268 75.1344 572.078 74.696C571.992 74.4797 571.951 74.2484 571.956 74.0157C571.962 73.7831 572.014 73.554 572.111 73.3421C572.207 73.1302 572.345 72.9398 572.516 72.7824C572.687 72.625 572.889 72.5038 573.108 72.426C573.553 72.2532 574.048 72.2596 574.489 72.4438C574.93 72.628 575.282 72.9757 575.472 73.414C575.558 73.6304 575.599 73.8619 575.593 74.0945C575.587 74.3272 575.535 74.5563 575.438 74.7682C575.342 74.9802 575.204 75.1705 575.033 75.328C574.862 75.4855 574.66 75.6079 574.441 75.686ZM569.5 70.208C569.358 70.0244 569.255 69.8137 569.197 69.5889C569.139 69.3641 569.128 69.1298 569.164 68.9005C569.2 68.6711 569.282 68.4515 569.405 68.2551C569.529 68.0586 569.692 67.8895 569.883 67.758C570.274 67.4811 570.757 67.3648 571.231 67.4331C571.706 67.5014 572.136 67.749 572.433 68.125C572.574 68.309 572.677 68.5198 572.734 68.7447C572.791 68.9695 572.803 69.2036 572.767 69.4328C572.731 69.6621 572.649 69.8816 572.525 70.0781C572.402 70.2746 572.24 70.444 572.049 70.576C571.658 70.8527 571.175 70.9688 570.701 70.9004C570.227 70.8319 569.797 70.5841 569.5 70.208ZM571.369 94.135C571.515 94.2448 571.637 94.3831 571.729 94.5416C571.82 94.7 571.878 94.8753 571.899 95.0568C571.921 95.2383 571.905 95.4223 571.854 95.5977C571.802 95.773 571.715 95.9361 571.599 96.077C571.353 96.3638 571.007 96.5462 570.632 96.5869C570.256 96.6276 569.879 96.5235 569.578 96.296C569.432 96.186 569.31 96.0477 569.219 95.8892C569.128 95.7308 569.07 95.5556 569.049 95.3742C569.028 95.1928 569.044 95.009 569.095 94.8338C569.147 94.6586 569.234 94.4958 569.35 94.355C569.595 94.069 569.94 93.8871 570.314 93.8463C570.688 93.8054 571.064 93.9086 571.365 94.135H571.369ZM565.797 66.516C565.61 66.3778 565.454 66.2029 565.338 66.0021C565.221 65.8012 565.147 65.5786 565.12 65.348C565.093 65.1174 565.114 64.8837 565.18 64.6614C565.247 64.439 565.358 64.2326 565.508 64.055C565.818 63.6896 566.256 63.4569 566.732 63.4049C567.208 63.3528 567.686 63.4852 568.068 63.775C568.254 63.914 568.409 64.0893 568.525 64.2903C568.641 64.4913 568.715 64.7138 568.742 64.9442C568.769 65.1746 568.749 65.4082 568.683 65.6306C568.617 65.853 568.506 66.0597 568.358 66.238C568.048 66.6043 567.608 66.8373 567.131 66.8891C566.654 66.9408 566.175 66.8072 565.793 66.516H565.797ZM561.227 63.872C561.011 63.7863 560.814 63.6579 560.648 63.4943C560.483 63.3306 560.352 63.1353 560.264 62.9199C560.176 62.7045 560.132 62.4736 560.136 62.2409C560.139 62.0083 560.19 61.7787 560.284 61.566C560.489 61.134 560.854 60.7984 561.301 60.6295C561.749 60.4605 562.244 60.4715 562.684 60.66C562.9 60.7454 563.096 60.8734 563.261 61.0365C563.427 61.1996 563.557 61.3944 563.645 61.6092C563.733 61.824 563.777 62.0543 563.774 62.2865C563.771 62.5186 563.721 62.7477 563.627 62.96C563.422 63.3935 563.057 63.7305 562.609 63.9001C562.16 64.0697 561.663 64.0585 561.223 63.869L561.227 63.872ZM556.1 62.454C555.868 62.4256 555.644 62.3512 555.441 62.2353C555.237 62.1194 555.059 61.9642 554.917 61.7789C554.774 61.5935 554.67 61.3816 554.61 61.1555C554.55 60.9294 554.536 60.6937 554.568 60.462C554.651 59.9938 554.915 59.5771 555.303 59.3017C555.691 59.0264 556.171 58.9144 556.641 58.99C556.873 59.0184 557.097 59.0927 557.3 59.2086C557.503 59.3244 557.681 59.4795 557.824 59.6648C557.966 59.8501 558.071 60.0618 558.131 60.2878C558.191 60.5138 558.205 60.7494 558.173 60.981C558.09 61.4495 557.826 61.8666 557.438 62.1422C557.05 62.4178 556.57 62.5298 556.1 62.454ZM550.908 62.454C550.438 62.5298 549.958 62.418 549.57 62.1426C549.182 61.8672 548.918 61.4503 548.835 60.982C548.803 60.7504 548.817 60.5147 548.877 60.2887C548.937 60.0627 549.041 59.8508 549.184 59.6655C549.326 59.4802 549.504 59.3251 549.708 59.2093C549.911 59.0935 550.135 59.0193 550.367 58.991C550.836 58.9152 551.317 59.027 551.705 59.3025C552.092 59.5779 552.356 59.9947 552.439 60.463C552.471 60.6951 552.456 60.9313 552.396 61.1578C552.336 61.3842 552.231 61.5963 552.088 61.7817C551.944 61.9671 551.765 62.1221 551.562 62.2375C551.358 62.3529 551.133 62.4265 550.9 62.454H550.908ZM545.777 63.869C545.337 64.0571 544.842 64.0676 544.394 63.8984C543.947 63.7291 543.582 63.3931 543.377 62.961C543.283 62.7486 543.234 62.5195 543.231 62.2874C543.228 62.0553 543.272 61.825 543.36 61.6103C543.448 61.3956 543.579 61.2008 543.744 61.0377C543.909 60.8746 544.105 60.7465 544.321 60.661C544.761 60.4725 545.256 60.4615 545.704 60.6305C546.151 60.7994 546.516 61.135 546.721 61.567C546.815 61.7796 546.864 62.0088 546.867 62.241C546.87 62.4733 546.826 62.7037 546.738 62.9186C546.65 63.1335 546.519 63.3284 546.354 63.4917C546.189 63.655 545.993 63.7833 545.777 63.869ZM538.646 66.234C538.497 66.0557 538.387 65.8491 538.321 65.6266C538.255 65.4042 538.235 65.1706 538.262 64.9402C538.289 64.7097 538.363 64.4872 538.478 64.2862C538.594 64.0852 538.75 63.9099 538.936 63.771C539.318 63.4815 539.796 63.3492 540.272 63.4012C540.748 63.4533 541.186 63.6858 541.496 64.051C541.645 64.2286 541.757 64.435 541.824 64.6574C541.89 64.8797 541.911 65.1134 541.884 65.344C541.857 65.5746 541.783 65.7972 541.666 65.9981C541.55 66.1989 541.394 66.3738 541.207 66.512C540.826 66.8024 540.348 66.9357 539.872 66.8846C539.395 66.8334 538.957 66.6017 538.646 66.237V66.234ZM535.4 96.077C535.284 95.936 535.197 95.7728 535.146 95.5975C535.094 95.4221 535.079 95.2381 535.101 95.0566C535.122 94.8751 535.18 94.6999 535.271 94.5415C535.363 94.3831 535.485 94.2448 535.631 94.135C535.932 93.9075 536.309 93.8036 536.684 93.8445C537.059 93.8854 537.404 94.068 537.649 94.355C537.766 94.4956 537.852 94.6585 537.904 94.8336C537.956 95.0088 537.972 95.1926 537.951 95.3741C537.929 95.5555 537.872 95.7307 537.781 95.8892C537.69 96.0477 537.568 96.1861 537.422 96.296C537.12 96.5234 536.743 96.6273 536.368 96.5866C535.992 96.5459 535.646 96.3637 535.4 96.077ZM534.951 70.577C534.76 70.445 534.598 70.2756 534.475 70.0791C534.351 69.8826 534.269 69.6631 534.233 69.4339C534.197 69.2046 534.208 68.9705 534.266 68.7457C534.323 68.5208 534.426 68.31 534.567 68.126C534.864 67.7498 535.294 67.502 535.769 67.4337C536.243 67.3654 536.726 67.4818 537.117 67.759C537.308 67.8906 537.471 68.0598 537.594 68.2562C537.718 68.4527 537.8 68.6722 537.836 68.9016C537.872 69.1309 537.86 69.3651 537.803 69.5899C537.745 69.8147 537.642 70.0253 537.5 70.209C537.203 70.5838 536.774 70.8307 536.301 70.8989C535.827 70.9672 535.346 70.8516 534.955 70.576L534.951 70.577ZM534.917 74.696C534.727 75.1344 534.375 75.4824 533.935 75.6669C533.494 75.8515 532.999 75.8583 532.554 75.686C532.335 75.6078 532.133 75.4863 531.962 75.3287C531.791 75.1711 531.653 74.9806 531.557 74.7686C531.461 74.5566 531.408 74.3274 531.403 74.0946C531.397 73.8619 531.438 73.6304 531.524 73.414C531.714 72.9758 532.066 72.6281 532.506 72.4439C532.947 72.2597 533.442 72.2533 533.887 72.426C534.107 72.5032 534.309 72.624 534.48 72.7811C534.652 72.9382 534.791 73.1284 534.887 73.3403C534.984 73.5522 535.037 73.7814 535.042 74.0142C535.048 74.247 535.007 74.4785 534.921 74.695L534.917 74.696ZM532.024 77.736C532.257 77.7563 532.484 77.8227 532.691 77.9313C532.899 78.04 533.082 78.1887 533.232 78.3689C533.381 78.5491 533.493 78.7571 533.562 78.981C533.63 79.2049 533.653 79.4401 533.63 79.673C533.564 80.1435 533.316 80.5693 532.938 80.8582C532.561 81.1471 532.085 81.276 531.614 81.217C531.381 81.1962 531.154 81.1294 530.947 81.0205C530.739 80.9116 530.556 80.7627 530.406 80.5824C530.257 80.4021 530.145 80.194 530.076 79.9701C530.008 79.7463 529.984 79.511 530.007 79.278C530.073 78.8065 530.322 78.3801 530.7 78.0912C531.079 77.8023 531.556 77.6743 532.028 77.735L532.024 77.736ZM531.654 83.329C532.123 83.2534 532.604 83.3654 532.991 83.6408C533.379 83.9162 533.643 84.3329 533.726 84.801C533.758 85.0326 533.744 85.2683 533.684 85.4944C533.625 85.7205 533.52 85.9324 533.378 86.1178C533.235 86.3032 533.057 86.4584 532.854 86.5743C532.651 86.6902 532.427 86.7646 532.195 86.793C531.725 86.8683 531.245 86.7563 530.857 86.481C530.469 86.2057 530.205 85.7892 530.121 85.321C530.089 85.0889 530.104 84.8528 530.164 84.6264C530.224 84.4 530.329 84.1879 530.472 84.0024C530.615 83.8169 530.793 83.6617 530.997 83.5459C531.201 83.4302 531.425 83.3561 531.658 83.328L531.654 83.329ZM532.802 88.829C533.241 88.6404 533.737 88.6293 534.184 88.798C534.632 88.9668 534.996 89.3022 535.202 89.734C535.296 89.9468 535.347 90.1764 535.35 90.4091C535.353 90.6419 535.31 90.8729 535.222 91.0884C535.134 91.3039 535.003 91.4994 534.838 91.6632C534.673 91.8271 534.476 91.9559 534.26 92.042C533.82 92.2292 533.325 92.2393 532.878 92.0703C532.431 91.9013 532.066 91.5663 531.86 91.135C531.765 90.9218 531.714 90.6916 531.71 90.4583C531.707 90.2249 531.75 89.9932 531.839 89.7773C531.927 89.5613 532.059 89.3654 532.225 89.2016C532.391 89.0378 532.589 88.9093 532.806 88.824L532.802 88.829ZM571.791 89.734C571.997 89.3022 572.361 88.9668 572.809 88.798C573.256 88.6293 573.752 88.6404 574.191 88.829C574.407 88.9144 574.605 89.0428 574.77 89.2063C574.936 89.3698 575.067 89.5652 575.155 89.7806C575.243 89.996 575.287 90.227 575.284 90.4597C575.281 90.6925 575.23 90.9222 575.136 91.135C574.93 91.5663 574.565 91.9013 574.118 92.0703C573.671 92.2393 573.176 92.2292 572.736 92.042C572.519 91.9559 572.322 91.8268 572.156 91.6625C571.991 91.4983 571.86 91.3022 571.772 91.0862C571.684 90.8701 571.641 90.6385 571.645 90.4053C571.649 90.172 571.7 89.942 571.795 89.729L571.791 89.734ZM574.791 86.798C574.559 86.7694 574.335 86.695 574.132 86.5791C573.929 86.4631 573.751 86.3079 573.608 86.1225C573.466 85.9372 573.362 85.7253 573.302 85.4993C573.242 85.2732 573.228 85.0376 573.26 84.806C573.343 84.3378 573.607 83.9211 573.995 83.6457C574.383 83.3704 574.863 83.2584 575.333 83.334C575.565 83.3627 575.789 83.4372 575.992 83.5532C576.195 83.6692 576.373 83.8243 576.515 84.0097C576.658 84.195 576.762 84.4068 576.822 84.6328C576.882 84.8587 576.897 85.0944 576.865 85.326C576.78 85.7914 576.516 86.2053 576.131 86.4793C575.745 86.7533 575.267 86.8659 574.8 86.793L574.791 86.798ZM571.2 79.669C570.816 79.7595 570.411 79.6948 570.074 79.4889C569.737 79.2829 569.495 78.9524 569.4 78.569C569.357 78.3799 569.353 78.1841 569.386 77.9932C569.42 77.8022 569.491 77.6199 569.596 77.4568C569.701 77.2938 569.838 77.1532 569.997 77.0434C570.157 76.9335 570.337 76.8566 570.527 76.817C570.911 76.7281 571.315 76.7935 571.652 76.9992C571.988 77.2049 572.231 77.5344 572.327 77.917C572.369 78.1061 572.373 78.3017 572.339 78.4924C572.305 78.6832 572.234 78.8653 572.129 79.0282C572.024 79.1912 571.888 79.3317 571.729 79.4417C571.569 79.5517 571.39 79.6289 571.2 79.669ZM569.9 75.169C569.549 75.3515 569.141 75.3903 568.762 75.2772C568.383 75.1641 568.063 74.908 567.869 74.563C567.777 74.3931 567.72 74.2063 567.701 74.0139C567.683 73.8214 567.703 73.6273 567.761 73.4429C567.82 73.2585 567.914 73.0877 568.04 72.9407C568.165 72.7936 568.319 72.6734 568.492 72.587C568.842 72.4042 569.25 72.3646 569.629 72.4766C570.008 72.5885 570.328 72.8432 570.523 73.187C570.616 73.3573 570.673 73.5445 570.692 73.7375C570.71 73.9304 570.69 74.1252 570.632 74.3101C570.574 74.495 570.479 74.6664 570.353 74.8139C570.227 74.9615 570.073 75.0822 569.9 75.169ZM565.319 71.078C565.185 70.9392 565.08 70.7748 565.011 70.5946C564.942 70.4143 564.91 70.222 564.917 70.029C564.924 69.8361 564.97 69.6466 565.052 69.4718C565.134 69.2971 565.25 69.1407 565.394 69.012C565.689 68.7473 566.074 68.6071 566.47 68.6209C566.866 68.6347 567.241 68.8014 567.517 69.086C567.651 69.2247 567.756 69.3891 567.825 69.5693C567.894 69.7494 567.926 69.9416 567.919 70.1344C567.912 70.3272 567.866 70.5167 567.784 70.6913C567.702 70.866 567.586 71.0223 567.442 71.151C567.147 71.4168 566.761 71.5577 566.364 71.5439C565.967 71.5301 565.592 71.3627 565.316 71.077L565.319 71.078ZM561.928 68.353C561.762 68.2544 561.617 68.1234 561.503 67.9678C561.389 67.8122 561.307 67.6351 561.262 67.4472C561.218 67.2593 561.211 67.0643 561.244 66.8739C561.276 66.6835 561.347 66.5016 561.451 66.339C561.669 66.0085 562.006 65.7754 562.392 65.689C562.779 65.6027 563.183 65.6697 563.521 65.876C563.687 65.9743 563.831 66.105 563.946 66.2603C564.06 66.4156 564.142 66.5923 564.187 66.7799C564.231 66.9676 564.238 67.1623 564.206 67.3525C564.174 67.5426 564.104 67.7244 564 67.887C563.782 68.219 563.444 68.4532 563.057 68.5399C562.669 68.6265 562.263 68.5587 561.925 68.351L561.928 68.353ZM557.928 66.575C557.741 66.5228 557.567 66.4338 557.415 66.3132C557.263 66.1926 557.137 66.043 557.044 65.8729C556.951 65.7029 556.893 65.516 556.873 65.3232C556.853 65.1303 556.871 64.9355 556.928 64.75C557.052 64.3753 557.317 64.0641 557.668 63.8831C558.018 63.7021 558.426 63.6658 558.803 63.782C558.99 63.8341 559.164 63.923 559.316 64.0436C559.468 64.1641 559.594 64.3138 559.687 64.4838C559.781 64.6539 559.839 64.8409 559.859 65.0337C559.879 65.2266 559.86 65.4215 559.803 65.607C559.677 65.9806 559.411 66.2903 559.06 66.47C558.71 66.6498 558.303 66.6853 557.926 66.569L557.928 66.575ZM553.41 65.869C553.122 65.8716 552.841 65.7893 552.6 65.6325C552.359 65.4757 552.169 65.2513 552.055 64.9873C551.941 64.7234 551.907 64.4317 551.958 64.1487C552.009 63.8657 552.142 63.6039 552.341 63.3962C552.539 63.1885 552.795 63.044 553.076 62.9808C553.356 62.9176 553.649 62.9385 553.918 63.041C554.186 63.1434 554.419 63.3228 554.586 63.5567C554.753 63.7906 554.848 64.0686 554.858 64.356C554.865 64.7483 554.717 65.1277 554.446 65.4112C554.175 65.6947 553.802 65.8593 553.41 65.869ZM549.074 66.578C548.697 66.6939 548.289 66.6574 547.938 66.4763C547.588 66.2951 547.322 65.9838 547.198 65.609C547.141 65.4235 547.122 65.2286 547.142 65.0357C547.162 64.8429 547.22 64.6559 547.314 64.4858C547.407 64.3158 547.533 64.1661 547.685 64.0456C547.837 63.925 548.011 63.8361 548.198 63.784C548.575 63.6678 548.983 63.704 549.334 63.885C549.684 64.066 549.95 64.3772 550.074 64.752C550.129 64.9369 550.147 65.131 550.127 65.323C550.106 65.5149 550.048 65.7008 549.955 65.8699C549.861 66.039 549.736 66.1879 549.585 66.308C549.433 66.428 549.26 66.5167 549.074 66.569V66.578ZM545.074 68.356C544.735 68.563 544.329 68.6298 543.942 68.5422C543.555 68.4546 543.217 68.2196 543 67.887C542.896 67.7245 542.825 67.5426 542.793 67.3523C542.761 67.162 542.767 66.9671 542.811 66.7793C542.856 66.5914 542.938 66.4144 543.052 66.2589C543.166 66.1034 543.311 65.9725 543.477 65.874C543.815 65.6674 544.219 65.6003 544.606 65.6867C544.992 65.7731 545.329 66.0063 545.547 66.337C545.652 66.4992 545.722 66.6809 545.755 66.8711C545.788 67.0613 545.782 67.2562 545.738 67.4442C545.694 67.6321 545.613 67.8092 545.499 67.965C545.385 68.1208 545.241 68.2521 545.075 68.351L545.074 68.356ZM539.56 71.156C539.416 71.0273 539.3 70.871 539.218 70.6963C539.136 70.5217 539.09 70.3323 539.083 70.1395C539.076 69.9466 539.108 69.7544 539.177 69.5743C539.246 69.3941 539.351 69.2297 539.485 69.091C539.761 68.8064 540.136 68.6397 540.532 68.6259C540.927 68.6121 541.313 68.7523 541.608 69.017C541.752 69.1458 541.868 69.3023 541.95 69.477C542.032 69.6518 542.077 69.8412 542.084 70.0341C542.091 70.2269 542.059 70.4192 541.99 70.5994C541.921 70.7796 541.817 70.9441 541.683 71.083C541.407 71.3664 541.031 71.5316 540.635 71.5439C540.24 71.5562 539.854 71.4147 539.561 71.149L539.56 71.156ZM539.133 74.568C538.939 74.9128 538.619 75.1688 538.24 75.2819C537.861 75.3949 537.453 75.3563 537.102 75.174C536.929 75.0872 536.776 74.9667 536.65 74.8195C536.525 74.6724 536.431 74.5016 536.372 74.3173C536.314 74.133 536.294 73.9389 536.312 73.7465C536.33 73.554 536.386 73.3672 536.478 73.197C536.673 72.8532 536.994 72.5984 537.373 72.4865C537.752 72.3746 538.16 72.4142 538.51 72.597C538.681 72.6834 538.834 72.8033 538.959 72.9494C539.083 73.0956 539.177 73.2652 539.235 73.4482C539.293 73.6313 539.314 73.8241 539.297 74.0153C539.28 74.2066 539.224 74.3925 539.134 74.562L539.133 74.568ZM537.6 78.569C537.505 78.9524 537.263 79.2829 536.926 79.4889C536.589 79.6948 536.184 79.7595 535.8 79.669C535.61 79.6292 535.43 79.5521 535.271 79.4422C535.111 79.3323 534.975 79.1917 534.87 79.0287C534.765 78.8658 534.693 78.6836 534.659 78.4927C534.625 78.3019 534.63 78.1062 534.672 77.917C534.767 77.5336 535.009 77.2031 535.346 76.9971C535.683 76.7912 536.088 76.7265 536.472 76.817C536.662 76.8564 536.842 76.9333 537.002 77.0431C537.162 77.1529 537.298 77.2935 537.403 77.4566C537.508 77.6196 537.58 77.802 537.613 77.993C537.647 78.184 537.643 78.3798 537.6 78.569ZM535.627 81.422C535.915 81.4196 536.196 81.5021 536.437 81.659C536.678 81.816 536.867 82.0405 536.981 82.3045C537.095 82.5685 537.129 82.8603 537.078 83.1433C537.027 83.4262 536.894 83.6879 536.695 83.8955C536.496 84.1031 536.24 84.2474 535.959 84.3104C535.679 84.3734 535.386 84.3523 535.117 84.2497C534.849 84.147 534.616 83.9675 534.449 83.7335C534.282 83.4995 534.188 83.2214 534.178 82.934C534.171 82.5424 534.319 82.164 534.59 81.8811C534.861 81.5983 535.233 81.434 535.624 81.424L535.627 81.422ZM536.034 86.081C536.411 85.9648 536.819 86.0012 537.17 86.1824C537.521 86.3636 537.786 86.6751 537.91 87.05C537.966 87.2355 537.985 87.4305 537.965 87.6234C537.946 87.8163 537.887 88.0033 537.794 88.1734C537.701 88.3435 537.575 88.4932 537.423 88.6139C537.271 88.7346 537.097 88.8237 536.91 88.876C536.533 88.9914 536.125 88.9547 535.774 88.7736C535.423 88.5926 535.157 88.2815 535.033 87.907C534.977 87.7217 534.958 87.5271 534.978 87.3345C534.998 87.1419 535.056 86.9553 535.149 86.7854C535.242 86.6156 535.368 86.466 535.519 86.3454C535.671 86.2248 535.845 86.1356 536.031 86.083L536.034 86.081ZM537.813 90.256C538.109 90.1116 538.45 90.0883 538.763 90.191C539.076 90.2937 539.337 90.5143 539.49 90.806C539.563 90.9498 539.607 91.1068 539.618 91.2677C539.629 91.4286 539.607 91.5901 539.555 91.7426C539.502 91.895 539.419 92.0352 539.311 92.1549C539.202 92.2746 539.071 92.3712 538.925 92.439C538.628 92.5829 538.288 92.6061 537.974 92.5034C537.661 92.4008 537.4 92.1805 537.246 91.889C537.174 91.7453 537.131 91.5885 537.121 91.428C537.11 91.2676 537.132 91.1066 537.184 90.9546C537.237 90.8026 537.319 90.6626 537.427 90.543C537.534 90.4234 537.664 90.3265 537.81 90.258L537.813 90.256ZM539.966 93.878C540.173 93.7773 540.41 93.7611 540.629 93.8328C540.847 93.9045 541.029 94.0584 541.136 94.262C541.187 94.3624 541.217 94.472 541.224 94.5842C541.232 94.6964 541.217 94.8091 541.18 94.9154C541.144 95.0217 541.086 95.1196 541.01 95.2032C540.935 95.2868 540.844 95.3544 540.742 95.402C540.535 95.5025 540.297 95.5186 540.079 95.4469C539.86 95.3753 539.678 95.2215 539.571 95.018C539.52 94.9178 539.491 94.8085 539.483 94.6966C539.475 94.5847 539.49 94.4724 539.527 94.3663C539.563 94.2602 539.621 94.1625 539.696 94.079C539.771 93.9955 539.862 93.9278 539.963 93.88L539.966 93.878ZM565.979 93.878C566.186 93.7773 566.423 93.7611 566.642 93.8328C566.86 93.9045 567.042 94.0584 567.149 94.262C567.2 94.3625 567.229 94.4721 567.237 94.5843C567.244 94.6966 567.229 94.8092 567.192 94.9155C567.156 95.0218 567.098 95.1196 567.023 95.2032C566.947 95.2867 566.856 95.3543 566.754 95.402C566.547 95.5022 566.309 95.5182 566.091 95.4466C565.872 95.3749 565.69 95.2213 565.583 95.018C565.533 94.9177 565.503 94.8084 565.495 94.6965C565.488 94.5845 565.503 94.4722 565.54 94.3662C565.576 94.2601 565.634 94.1625 565.709 94.079C565.784 93.9955 565.875 93.9278 565.976 93.88L565.979 93.878ZM569.192 90.256C569.339 90.3236 569.47 90.4201 569.578 90.5397C569.687 90.6593 569.77 90.7995 569.823 90.9519C569.876 91.1044 569.897 91.2659 569.886 91.427C569.875 91.588 569.832 91.7451 569.759 91.889C569.605 92.1804 569.344 92.4007 569.031 92.5033C568.718 92.606 568.377 92.5829 568.081 92.439C567.935 92.3712 567.803 92.2746 567.695 92.1549C567.587 92.0352 567.504 91.895 567.451 91.7426C567.399 91.5901 567.377 91.4286 567.388 91.2677C567.399 91.1068 567.443 90.9498 567.516 90.806C567.669 90.5154 567.929 90.2959 568.242 90.1936C568.554 90.0913 568.894 90.1144 569.189 90.258L569.192 90.256ZM569.092 87.05C569.216 86.6752 569.482 86.3639 569.832 86.1827C570.183 86.0016 570.591 85.9651 570.968 86.081C571.155 86.1334 571.329 86.2226 571.481 86.3433C571.632 86.464 571.759 86.6138 571.852 86.7838C571.945 86.9539 572.003 87.1408 572.023 87.3337C572.043 87.5266 572.024 87.7215 571.968 87.907C571.844 88.2815 571.577 88.5926 571.227 88.7736C570.876 88.9547 570.468 88.9914 570.091 88.876C569.905 88.8235 569.73 88.7344 569.579 88.6139C569.427 88.4933 569.301 88.3437 569.208 88.1738C569.115 88.004 569.057 87.8173 569.037 87.6246C569.017 87.432 569.036 87.2373 569.092 87.052V87.05ZM569.821 82.83C569.824 82.5317 569.915 82.241 570.084 81.995C570.253 81.749 570.491 81.559 570.769 81.4492C571.046 81.3394 571.35 81.3148 571.642 81.3786C571.933 81.4423 572.199 81.5916 572.405 81.8072C572.611 82.0228 572.748 82.295 572.799 82.589C572.85 82.883 572.812 83.1854 572.69 83.4576C572.568 83.7298 572.367 83.9595 572.114 84.1172C571.861 84.2749 571.566 84.3535 571.268 84.343C570.876 84.3333 570.504 84.1688 570.233 83.8855C569.961 83.6022 569.813 83.2221 569.821 82.83Z" fill="#0075C9"/>
</g>
<defs>
<clipPath id="clip0_9_27">
<rect width="153.875" height="53.563" fill="white" transform="translate(320 45)"/>
</clipPath>
<clipPath id="clip1_9_27">
<rect width="47" height="39.969" fill="white" transform="translate(530 59)"/>
</clipPath>
</defs>
</svg>
