<svg width="154" height="54" viewBox="0 0 154 54" fill="none" xmlns="http://www.w3.org/2000/svg">
<g clip-path="url(#clip0_9_29)">
<path fill-rule="evenodd" clip-rule="evenodd" d="M101.506 37.109C101.601 37.109 101.694 37.0808 101.773 37.0281C101.852 36.9753 101.913 36.9004 101.949 36.8127C101.986 36.725 101.995 36.6284 101.977 36.5353C101.958 36.4422 101.913 36.3567 101.845 36.2896C101.778 36.2224 101.693 36.1767 101.6 36.1582C101.507 36.1397 101.41 36.1492 101.322 36.1855C101.235 36.2219 101.16 36.2834 101.107 36.3623C101.054 36.4412 101.026 36.5341 101.026 36.629C101.026 36.6921 101.038 36.7545 101.062 36.8128C101.086 36.8711 101.122 36.9241 101.166 36.9687C101.211 37.0133 101.264 37.0486 101.322 37.0727C101.38 37.0968 101.443 37.1091 101.506 37.109ZM103.051 37.109C103.146 37.109 103.239 37.0808 103.318 37.0281C103.397 36.9753 103.458 36.9004 103.494 36.8127C103.531 36.725 103.54 36.6284 103.522 36.5353C103.503 36.4422 103.458 36.3567 103.39 36.2896C103.323 36.2224 103.238 36.1767 103.145 36.1582C103.052 36.1397 102.955 36.1492 102.867 36.1855C102.78 36.2219 102.705 36.2834 102.652 36.3623C102.599 36.4412 102.571 36.5341 102.571 36.629C102.571 36.7563 102.622 36.8784 102.712 36.9684C102.802 37.0584 102.924 37.109 103.051 37.109ZM129.077 37.109C129.172 37.1092 129.265 37.0812 129.344 37.0286C129.423 36.976 129.485 36.9011 129.521 36.8134C129.558 36.7257 129.567 36.6291 129.549 36.536C129.531 36.4428 129.485 36.3572 129.418 36.2899C129.351 36.2227 129.265 36.1769 129.172 36.1583C129.079 36.1397 128.982 36.1491 128.895 36.1854C128.807 36.2217 128.732 36.2832 128.679 36.3622C128.626 36.4412 128.598 36.534 128.598 36.629C128.598 36.7561 128.648 36.8781 128.738 36.968C128.828 37.058 128.95 37.1087 129.077 37.109ZM130.622 37.109C130.717 37.109 130.81 37.0808 130.889 37.0281C130.968 36.9753 131.029 36.9004 131.065 36.8127C131.102 36.725 131.111 36.6284 131.093 36.5353C131.074 36.4422 131.029 36.3567 130.961 36.2896C130.894 36.2224 130.809 36.1767 130.716 36.1582C130.623 36.1397 130.526 36.1492 130.438 36.1855C130.351 36.2219 130.276 36.2834 130.223 36.3623C130.17 36.4412 130.142 36.5341 130.142 36.629C130.142 36.7558 130.192 36.8774 130.282 36.9673C130.371 37.0573 130.492 37.1082 130.619 37.109H130.622ZM140.092 38.255L140.009 37.644C139.671 37.702 138.894 37.937 138.82 37.405C138.802 37.2715 138.835 37.136 138.913 37.0263C138.992 36.9166 139.109 36.841 139.241 36.815C139.461 36.7905 139.683 36.8286 139.882 36.925L140.082 36.337C139.87 36.2495 139.641 36.2121 139.413 36.2277C139.185 36.2433 138.963 36.3115 138.765 36.427C138.557 36.575 138.41 36.7946 138.353 37.0438C138.297 37.2931 138.334 37.5545 138.458 37.778L137.77 37.8V38.264C138.224 38.2827 138.678 38.296 139.133 38.304C139.207 38.303 139.773 38.287 140.092 38.255ZM82.271 43.244C82.1761 43.244 82.0833 43.2721 82.0044 43.3249C81.9254 43.3776 81.8639 43.4526 81.8276 43.5403C81.7912 43.628 81.7817 43.7245 81.8003 43.8176C81.8188 43.9107 81.8645 43.9963 81.9316 44.0634C81.9987 44.1305 82.0843 44.1762 82.1774 44.1948C82.2705 44.2133 82.367 44.2038 82.4547 44.1674C82.5424 44.1311 82.6174 44.0696 82.6701 43.9907C82.7229 43.9117 82.751 43.8189 82.751 43.724C82.751 43.6609 82.7386 43.5985 82.7145 43.5403C82.6904 43.4821 82.655 43.4291 82.6104 43.3846C82.5659 43.34 82.5129 43.3046 82.4547 43.2805C82.3965 43.2564 82.3341 43.244 82.271 43.244ZM83.816 43.244C83.7211 43.244 83.6283 43.2721 83.5493 43.3249C83.4704 43.3776 83.4089 43.4526 83.3726 43.5403C83.3362 43.628 83.3267 43.7245 83.3452 43.8176C83.3638 43.9107 83.4095 43.9963 83.4766 44.0634C83.5438 44.1305 83.6293 44.1762 83.7224 44.1948C83.8155 44.2133 83.912 44.2038 83.9997 44.1674C84.0874 44.1311 84.1624 44.0696 84.2151 43.9907C84.2679 43.9117 84.296 43.8189 84.296 43.724C84.296 43.5972 84.2459 43.4756 84.1565 43.3856C84.0671 43.2957 83.9458 43.2448 83.819 43.244H83.816ZM140.896 43.244C140.801 43.244 140.708 43.2721 140.629 43.3249C140.55 43.3776 140.489 43.4526 140.453 43.5403C140.416 43.628 140.407 43.7245 140.425 43.8176C140.444 43.9107 140.489 43.9963 140.557 44.0634C140.624 44.1305 140.709 44.1762 140.802 44.1948C140.895 44.2133 140.992 44.2038 141.08 44.1674C141.167 44.1311 141.242 44.0696 141.295 43.9907C141.348 43.9117 141.376 43.8189 141.376 43.724C141.376 43.6609 141.364 43.5985 141.339 43.5403C141.315 43.4821 141.28 43.4291 141.235 43.3846C141.191 43.34 141.138 43.3046 141.08 43.2805C141.021 43.2564 140.959 43.244 140.896 43.244ZM142.441 43.244C142.346 43.2438 142.253 43.2718 142.174 43.3244C142.095 43.377 142.033 43.4519 141.997 43.5396C141.96 43.6273 141.951 43.7238 141.969 43.817C141.988 43.9102 142.033 43.9958 142.1 44.063C142.167 44.1303 142.253 44.1761 142.346 44.1947C142.439 44.2133 142.536 44.2038 142.623 44.1675C142.711 44.1312 142.786 44.0697 142.839 43.9908C142.892 43.9118 142.92 43.819 142.92 43.724C142.92 43.5969 142.87 43.4749 142.78 43.3849C142.69 43.2949 142.568 43.2443 142.441 43.244ZM45.972 44.389C45.8771 44.389 45.7843 44.4171 45.7054 44.4699C45.6264 44.5226 45.5649 44.5976 45.5286 44.6853C45.4922 44.773 45.4827 44.8695 45.5013 44.9626C45.5198 45.0557 45.5655 45.1413 45.6326 45.2084C45.6997 45.2755 45.7853 45.3212 45.8784 45.3398C45.9715 45.3583 46.068 45.3488 46.1557 45.3124C46.2434 45.2761 46.3184 45.2146 46.3711 45.1357C46.4239 45.0567 46.452 44.9639 46.452 44.869C46.4522 44.8059 46.4398 44.7433 46.4158 44.685C46.3917 44.6266 46.3564 44.5736 46.3118 44.5289C46.2672 44.4843 46.2142 44.4488 46.1559 44.4246C46.0976 44.4004 46.0351 44.389 45.972 44.389ZM47.517 44.389C47.4221 44.3888 47.3292 44.4168 47.2501 44.4694C47.171 44.522 47.1093 44.5969 47.0728 44.6846C47.0364 44.7723 47.0267 44.8688 47.0451 44.962C47.0635 45.0552 47.1092 45.1408 47.1763 45.208C47.2434 45.2753 47.3289 45.3211 47.422 45.3397C47.5152 45.3583 47.6117 45.3488 47.6995 45.3125C47.7873 45.2762 47.8623 45.2147 47.9151 45.1358C47.9679 45.0568 47.996 44.964 47.996 44.869C47.9963 44.742 47.9462 44.6201 47.8568 44.53C47.7674 44.4398 47.646 44.3888 47.519 44.388L47.517 44.389ZM73.098 39.002C73.193 39.002 73.2857 38.9738 73.3647 38.9211C73.4436 38.8683 73.5051 38.7934 73.5415 38.7057C73.5778 38.618 73.5873 38.5215 73.5688 38.4283C73.5503 38.3352 73.5046 38.2497 73.4374 38.1826C73.3703 38.1154 73.2848 38.0697 73.1917 38.0512C73.0986 38.0327 73.002 38.0422 72.9143 38.0785C72.8266 38.1149 72.7517 38.1764 72.6989 38.2553C72.6462 38.3342 72.618 38.4271 72.618 38.522C72.6183 38.6491 72.669 38.7709 72.759 38.8607C72.849 38.9505 72.9709 39.002 73.098 39.002ZM51.21 38.07C51.305 38.07 51.3977 38.0418 51.4767 37.9891C51.5556 37.9363 51.6171 37.8614 51.6535 37.7737C51.6898 37.686 51.6993 37.5895 51.6808 37.4963C51.6623 37.4032 51.6166 37.3177 51.5494 37.2506C51.4823 37.1834 51.3968 37.1377 51.3037 37.1192C51.2106 37.1007 51.114 37.1102 51.0263 37.1465C50.9386 37.1829 50.8637 37.2444 50.8109 37.3233C50.7582 37.4022 50.73 37.4951 50.73 37.59C50.73 37.653 50.7424 37.7153 50.7666 37.7735C50.7907 37.8317 50.8261 37.8846 50.8707 37.929C50.9153 37.9735 50.9682 38.0088 51.0264 38.0328C51.0846 38.0568 51.147 38.0701 51.21 38.07ZM152.073 36.358V42.252H152.9V36.357L152.073 36.358ZM124.166 42.252H124.993V36.357H124.166V42.252ZM76.587 42.252H77.419V36.357H76.591V42.251L76.587 42.252ZM149.902 41.044C149.902 41.1935 149.842 41.3368 149.737 41.4425C149.631 41.5482 149.488 41.6077 149.338 41.608H147.032C147.047 41.591 147.062 41.575 147.075 41.557C147.206 41.3801 147.292 41.174 147.326 40.9564C147.36 40.7388 147.34 40.5163 147.269 40.308C147.169 39.938 146.849 38.808 146.038 38.793H146.019C145.069 38.793 144.486 40.383 144.378 40.704C144.28 40.9979 144.203 41.2988 144.149 41.604C143.792 41.613 142.102 41.604 142.102 41.604C142.18 41.4276 142.22 41.2368 142.219 41.044V39.024H141.391V41.044C141.391 41.1936 141.332 41.337 141.226 41.4428C141.12 41.5486 140.977 41.608 140.827 41.608H140.327C140.178 41.6077 140.034 41.5482 139.928 41.4425C139.823 41.3368 139.763 41.1935 139.763 41.044V39.024H138.936V41.044C138.936 41.1935 138.876 41.3368 138.771 41.4425C138.665 41.5482 138.522 41.6077 138.372 41.608H131.319C131.17 41.6077 131.026 41.5482 130.921 41.4425C130.815 41.3368 130.755 41.1935 130.755 41.044V37.986H129.929V38.386C129.544 38.5009 129.167 38.6422 128.801 38.809C128.423 38.9262 128.078 39.1292 127.792 39.4021C127.505 39.675 127.286 40.0103 127.151 40.382C127.118 40.5228 127.121 40.6695 127.159 40.8091C127.196 40.9487 127.268 41.0768 127.367 41.182C127.61 41.3728 127.888 41.5135 128.185 41.5957C128.483 41.6779 128.794 41.7001 129.1 41.661C129.414 41.6587 129.728 41.637 130.04 41.596C130.147 41.8467 130.326 42.0606 130.553 42.2109C130.781 42.3613 131.047 42.4416 131.32 42.442H138.368C138.628 42.1839 138.979 42.039 139.346 42.039C139.712 42.039 140.063 42.1839 140.323 42.442H140.823C141.179 42.4418 141.52 42.305 141.778 42.06V42.434C141.778 42.434 143.76 42.443 144.072 42.434C144.039 42.8296 144.131 43.2255 144.334 43.5663C144.538 43.9071 144.843 44.1755 145.207 44.334C145.442 44.4285 145.692 44.4764 145.945 44.475C146.253 44.4909 146.559 44.4231 146.831 44.2787C147.102 44.1342 147.33 43.9187 147.489 43.655C147.583 43.4557 147.616 43.2333 147.585 43.0153C147.554 42.7972 147.46 42.593 147.314 42.428H149.333C149.702 42.4277 150.056 42.281 150.317 42.02C150.578 41.759 150.725 41.4051 150.725 41.036V36.357H149.897V41.044H149.902ZM127.969 40.607C127.959 40.597 127.953 40.591 127.962 40.544C128.062 40.044 129.07 39.531 129.929 39.244V40.764C129.274 40.899 128.594 40.8452 127.969 40.607ZM145.161 40.968C145.275 40.4313 145.578 39.9533 146.014 39.621C146.28 39.8535 146.443 40.181 146.47 40.533C146.506 40.6171 146.52 40.709 146.511 40.8C146.501 40.891 146.469 40.9781 146.416 41.053C146.014 41.3806 145.51 41.5575 144.991 41.553C145.038 41.3546 145.094 41.1587 145.161 40.966V40.968ZM146.749 43.302C146.601 43.4717 146.402 43.5899 146.182 43.6393C145.962 43.6887 145.732 43.6669 145.525 43.577C145.31 43.4711 145.134 43.301 145.02 43.0903C144.906 42.8796 144.861 42.6387 144.89 42.401C145.329 42.3706 145.763 42.286 146.181 42.149L146.019 42.435C146.216 42.485 146.392 42.5953 146.523 42.7504C146.654 42.9055 146.733 43.0977 146.749 43.3V43.302ZM66.819 42.251H67.647V36.357H66.819V42.251ZM64.645 41.044C64.645 41.1934 64.5857 41.3367 64.4802 41.4424C64.3746 41.5482 64.2314 41.6077 64.082 41.608H62.451C62.465 41.579 62.479 41.55 62.491 41.519C62.6937 40.9108 62.6499 40.2473 62.369 39.671C62.2592 39.3945 62.0728 39.155 61.8318 38.9805C61.5908 38.8061 61.305 38.7039 61.008 38.686H61C60.6974 38.7039 60.4061 38.8073 60.16 38.9844C59.9139 39.1614 59.7232 39.4047 59.61 39.686C59.4784 39.964 59.3658 40.2507 59.273 40.544C59.017 41.298 58.912 41.611 58.084 41.611H57.284C57.1891 40.9747 56.9475 40.3692 56.5783 39.8423C56.2092 39.3154 55.7226 38.8815 55.157 38.575L54.776 39.31C55.2056 39.5486 55.5781 39.8779 55.8673 40.2751C56.1566 40.6724 56.3558 41.1279 56.451 41.61H53.863V42.438H58.083C58.5406 42.4669 58.9933 42.3298 59.358 42.052C59.833 42.3212 60.3723 42.4557 60.918 42.441C61.1804 42.4482 61.4419 42.4096 61.691 42.327C61.7374 42.3091 61.7828 42.2887 61.827 42.266V42.441H64.081C64.45 42.4405 64.8036 42.2936 65.0644 42.0326C65.3252 41.7717 65.4718 41.4179 65.472 41.049V36.357H64.644V41.044H64.645ZM61.722 41.215C61.6949 41.2913 61.6515 41.3608 61.5949 41.4186C61.5383 41.4765 61.4697 41.5213 61.394 41.55C60.8713 41.6595 60.3272 41.5982 59.842 41.375C59.9232 41.1884 59.995 40.9978 60.057 40.804C60.1384 40.5457 60.2369 40.2931 60.352 40.048C60.4011 39.9084 60.4874 39.7848 60.6017 39.6907C60.7159 39.5966 60.8536 39.5355 61 39.514C61.1411 39.5334 61.274 39.5919 61.3836 39.6829C61.4931 39.774 61.5751 39.8938 61.62 40.029C61.8008 40.3971 61.8362 40.8199 61.719 41.213L61.722 41.215ZM110.247 38.689H110.24C109.937 38.7069 109.646 38.8103 109.4 38.9874C109.154 39.1644 108.963 39.4077 108.85 39.689C108.718 39.9667 108.605 40.253 108.512 40.546C108.257 41.3 108.151 41.612 107.324 41.612H103.95C103.801 41.6117 103.657 41.5522 103.552 41.4465C103.446 41.3408 103.386 41.1975 103.386 41.048V37.986H102.558V38.386C102.173 38.5011 101.797 38.6424 101.431 38.809C101.053 38.9262 100.708 39.1292 100.422 39.4021C100.135 39.675 99.9162 40.0103 99.781 40.382C99.748 40.5228 99.7505 40.6696 99.7882 40.8092C99.8259 40.9488 99.8977 41.0769 99.997 41.182C100.239 41.3728 100.517 41.5134 100.815 41.5957C101.112 41.6779 101.423 41.7001 101.729 41.661C102.044 41.6587 102.358 41.637 102.67 41.596C102.777 41.8467 102.956 42.0606 103.183 42.2109C103.411 42.3613 103.677 42.4416 103.95 42.442H107.319C107.777 42.4714 108.23 42.3339 108.595 42.055C109.31 42.4394 110.144 42.5381 110.928 42.331C111.11 42.2617 111.276 42.1546 111.414 42.0167C111.552 41.8788 111.659 41.7133 111.728 41.531C111.931 40.9229 111.888 40.2594 111.607 39.683C111.499 39.4046 111.313 39.1629 111.072 38.9864C110.832 38.8099 110.545 38.706 110.247 38.687V38.689ZM100.598 40.608C100.589 40.598 100.582 40.592 100.592 40.545C100.692 40.045 101.699 39.532 102.558 39.245V40.765C101.903 40.8996 101.223 40.8444 100.598 40.606V40.608ZM110.961 41.217C110.934 41.2935 110.891 41.3633 110.834 41.4213C110.778 41.4794 110.709 41.5243 110.633 41.553C110.11 41.6627 109.566 41.6017 109.081 41.379C109.162 41.1924 109.234 41.0018 109.296 40.808C109.379 40.5492 109.479 40.2963 109.596 40.051C109.645 39.9113 109.731 39.7877 109.846 39.6936C109.96 39.5995 110.098 39.5384 110.244 39.517C110.385 39.5364 110.518 39.5949 110.628 39.6859C110.737 39.777 110.819 39.8968 110.864 40.032C111.044 40.4001 111.079 40.8225 110.961 41.215V41.217ZM96.483 41.044C96.4828 41.1935 96.4232 41.3368 96.3175 41.4425C96.2118 41.5482 96.0685 41.6077 95.919 41.608H95.413C95.2635 41.6077 95.1202 41.5482 95.0145 41.4425C94.9088 41.3368 94.8493 41.1935 94.849 41.044V36.357H94.019V41.044C94.0187 41.1935 93.9593 41.3368 93.8535 41.4425C93.7478 41.5482 93.6045 41.6077 93.455 41.608H92.269C92.3033 41.1668 92.245 40.7234 92.0977 40.3061C91.9505 39.8888 91.7176 39.5069 91.414 39.185C90.623 38.532 89.554 38.944 88.791 39.416C88.3463 39.6985 87.9332 40.0281 87.559 40.399V36.359H86.731V41.608H83.331C83.4102 41.4305 83.4511 41.2383 83.451 41.044V39.024H82.624V41.044C82.6238 41.1935 82.5642 41.3368 82.4585 41.4425C82.3528 41.5482 82.2095 41.6077 82.06 41.608H80.319C80.1695 41.6077 80.0262 41.5482 79.9205 41.4425C79.8148 41.3368 79.7553 41.1935 79.755 41.044V39.024H78.927V42.244C78.927 42.5491 78.8059 42.8417 78.5903 43.0575C78.3746 43.2733 78.0821 43.3947 77.777 43.395V44.224C78.2892 44.2233 78.7811 44.0243 79.1497 43.6688C79.5183 43.3132 79.7349 42.8288 79.754 42.317C79.9318 42.3962 80.1244 42.4371 80.319 42.437H82.066C82.3353 42.4372 82.5988 42.3587 82.824 42.211V42.437H93.458C93.7179 42.1789 94.0693 42.034 94.4355 42.034C94.8018 42.034 95.1532 42.1789 95.413 42.437H95.919C96.288 42.4365 96.6416 42.2896 96.9024 42.0286C97.1632 41.7677 97.3098 41.4139 97.31 41.045V36.357H96.483V41.044ZM87.562 41.306C87.9067 40.9719 88.2798 40.6684 88.677 40.399C89.116 40.0605 89.6234 39.8216 90.164 39.699C90.3902 39.6468 90.6278 39.6852 90.826 39.806C90.9869 39.9334 91.1091 40.1031 91.179 40.296C91.3365 40.7166 91.421 41.161 91.429 41.61H87.562V41.31V41.306ZM52.052 41.044C52.0518 41.1935 51.9922 41.3368 51.8865 41.4425C51.7808 41.5482 51.6375 41.6077 51.488 41.608H51.119C50.966 41.6099 50.8183 41.5521 50.7074 41.4467C50.5964 41.3414 50.531 41.1969 50.525 41.044V39.944C50.5296 39.7856 50.4978 39.6282 50.4321 39.484C50.3664 39.3398 50.2685 39.2125 50.146 39.112C49.9893 38.9985 49.8091 38.9217 49.6187 38.8871C49.4284 38.8524 49.2327 38.861 49.046 38.912C48.6856 38.9827 48.3592 39.1719 48.1188 39.4495C47.8783 39.7271 47.7376 40.0772 47.719 40.444V42.344C47.7057 42.4459 47.6626 42.5415 47.5952 42.6191C47.5278 42.6966 47.439 42.7526 47.34 42.78C46.9937 42.9032 46.6206 42.9311 46.2598 42.8608C45.8989 42.7904 45.5637 42.6244 45.289 42.38C45.0147 42.0485 44.8477 41.6414 44.8102 41.2127C44.7727 40.784 44.8664 40.3541 45.079 39.98L44.307 39.68C43.602 41.521 44.26 42.533 44.714 42.972C45.2445 43.4629 45.9433 43.7311 46.666 43.721C47.0085 43.7252 47.3484 43.6613 47.666 43.533C47.9183 43.4474 48.1381 43.2864 48.2959 43.0718C48.4536 42.8572 48.5417 42.5993 48.548 42.333V40.444C48.5649 40.2631 48.6414 40.093 48.7656 39.9605C48.8898 39.8279 49.0547 39.7405 49.234 39.712C49.2999 39.6903 49.3695 39.6828 49.4384 39.6898C49.5073 39.6969 49.574 39.7184 49.634 39.753C49.6595 39.7757 49.679 39.8045 49.6906 39.8366C49.7023 39.8687 49.7059 39.9032 49.701 39.937V41.037C49.7099 41.4086 49.8635 41.762 50.1291 42.022C50.3947 42.282 50.7513 42.428 51.123 42.429H51.491C51.8601 42.4287 52.214 42.282 52.475 42.021C52.736 41.76 52.8828 41.4061 52.883 41.037V39.017H52.055V41.044H52.052ZM74.509 42.344C74.4959 42.4458 74.453 42.5414 74.3857 42.619C74.3185 42.6965 74.2299 42.7525 74.131 42.78C73.7845 42.9033 73.4113 42.9313 73.0503 42.8609C72.6893 42.7905 72.3538 42.6244 72.079 42.38C71.805 42.0483 71.6382 41.6411 71.6009 41.2125C71.5636 40.7839 71.6574 40.3541 71.87 39.98L71.097 39.68C70.397 41.521 71.05 42.533 71.505 42.972C72.0351 43.4628 72.7337 43.731 73.456 43.721C73.7985 43.7252 74.1384 43.6613 74.456 43.533C74.7085 43.4476 74.9285 43.2867 75.0865 43.072C75.2444 42.8574 75.3326 42.5994 75.339 42.333V39.013H74.509V42.344ZM121.995 41.044C121.995 41.193 121.936 41.336 121.831 41.4417C121.726 41.5474 121.583 41.6072 121.434 41.608H121.134C120.442 41.631 119.749 41.5685 119.072 41.422L119.134 41.37C119.408 41.1665 119.633 40.9037 119.792 40.6012C119.95 40.2987 120.039 39.9643 120.05 39.623C120.009 39.4259 119.913 39.2443 119.774 39.0984C119.635 38.9525 119.459 38.8482 119.264 38.797L119.219 38.779L119.173 38.773C118.431 38.6786 117.68 38.6716 116.936 38.752H116.888L116.843 38.768C116.678 38.8122 116.528 38.9 116.409 39.0221C116.29 39.1442 116.206 39.2962 116.166 39.462C116.175 39.8173 116.261 40.1664 116.419 40.4851C116.576 40.8037 116.801 41.0842 117.078 41.307C117.128 41.356 117.178 41.407 117.236 41.45C116.729 41.5645 116.21 41.6152 115.691 41.601H114.477C114.328 41.6007 114.184 41.5412 114.079 41.4354C113.973 41.3297 113.914 41.1864 113.914 41.037V36.357H113.086V41.044C113.087 41.4128 113.233 41.7664 113.494 42.0273C113.755 42.2883 114.108 42.4352 114.477 42.436H115.692C116.54 42.4808 117.388 42.3321 118.17 42.001C119.121 42.3368 120.129 42.4842 121.137 42.435H121.437C121.804 42.4321 122.155 42.2843 122.414 42.0238C122.673 41.7633 122.819 41.4112 122.819 41.044V36.357H121.991V41.044H121.995ZM118.595 40.737C118.45 40.8605 118.296 40.9732 118.135 41.074C117.959 40.9782 117.797 40.8594 117.653 40.721C117.31 40.4516 117.069 40.073 116.971 39.648C116.994 39.6111 117.029 39.5837 117.071 39.571C117.717 39.5052 118.369 39.5116 119.014 39.59C119.061 39.6018 119.104 39.624 119.141 39.6548C119.178 39.6856 119.208 39.7242 119.228 39.768C119.151 40.1598 118.925 40.5065 118.597 40.735L118.595 40.737Z" fill="#58595B"/>
<path fill-rule="evenodd" clip-rule="evenodd" d="M43.9321 49.31C43.9321 47.647 44.8081 46.54 46.1321 46.54C46.4995 46.5375 46.8594 46.6446 47.1656 46.8477C47.4718 47.0508 47.7105 47.3406 47.8511 47.68L47.1221 48.016C47.042 47.8174 46.9056 47.6465 46.7298 47.5243C46.5539 47.4021 46.3462 47.3339 46.1321 47.328C45.3621 47.328 44.8441 48.091 44.8441 49.31C44.8441 50.529 45.3621 51.296 46.1321 51.296C46.3006 51.2975 46.4676 51.2641 46.6225 51.1978C46.7774 51.1315 46.9168 51.0339 47.0321 50.911V49.911H45.8971V49.135H47.8841V51.262C47.6737 51.5236 47.4067 51.734 47.1033 51.8776C46.7998 52.0212 46.4678 52.0942 46.1321 52.091C44.8031 52.091 43.9321 50.964 43.9321 49.31ZM48.7321 50.043C48.6995 49.7976 48.7179 49.5482 48.786 49.3102C48.8542 49.0723 48.9707 48.8509 49.1283 48.66C49.2859 48.4692 49.4811 48.3128 49.7018 48.2008C49.9226 48.0888 50.164 48.0235 50.4111 48.009C51.4731 48.009 52.0411 48.9 52.0411 50.076V50.309H49.5521C49.5415 50.4504 49.5599 50.5925 49.6062 50.7265C49.6526 50.8605 49.7259 50.9836 49.8217 51.0881C49.9174 51.1927 50.0336 51.2765 50.163 51.3345C50.2924 51.3924 50.4323 51.4232 50.5741 51.425C50.7419 51.4204 50.9069 51.3811 51.0587 51.3095C51.2105 51.2379 51.3458 51.1356 51.4561 51.009L51.8481 51.488C51.5902 51.7713 51.2487 51.9649 50.8732 52.0407C50.4977 52.1165 50.1078 52.0705 49.7603 51.9094C49.4127 51.7484 49.1256 51.4806 48.9406 51.1451C48.7557 50.8096 48.6827 50.4229 48.7321 50.043ZM50.4041 48.66C50.1488 48.6924 49.9162 48.823 49.7556 49.024C49.595 49.2251 49.5192 49.4809 49.5441 49.737H51.2541C51.2718 49.6101 51.2637 49.4808 51.2302 49.3571C51.1966 49.2334 51.1384 49.1177 51.059 49.0171C50.9795 48.9165 50.8806 48.833 50.7681 48.7716C50.6555 48.7102 50.5317 48.6723 50.4041 48.66ZM55.0991 51.988V49.344C55.1162 49.264 55.1142 49.181 55.0931 49.1019C55.0721 49.0228 55.0327 48.9498 54.9781 48.8888C54.9235 48.8278 54.8553 48.7805 54.7791 48.7508C54.7028 48.7212 54.6206 48.7099 54.5391 48.718C54.3703 48.7302 54.2076 48.7863 54.0673 48.8809C53.9269 48.9755 53.8138 49.1051 53.7391 49.257V51.989H52.9291V48.109H53.7391V48.628C53.8678 48.444 54.0375 48.2925 54.2348 48.1854C54.4322 48.0783 54.6517 48.0186 54.8761 48.011C55.0174 47.9938 55.1608 48.0095 55.2951 48.0567C55.4294 48.1039 55.551 48.1815 55.6504 48.2834C55.7499 48.3852 55.8245 48.5087 55.8685 48.6441C55.9125 48.7794 55.9247 48.9231 55.9041 49.064V51.99H55.0941L55.0991 51.988ZM56.8351 50.044C56.8025 49.7988 56.8208 49.5495 56.8889 49.3117C56.9569 49.0739 57.0732 48.8526 57.2306 48.6617C57.388 48.4709 57.583 48.3145 57.8035 48.2024C58.024 48.0902 58.2652 48.0248 58.5121 48.01C59.5751 48.01 60.1441 48.901 60.1441 50.077V50.31H57.6531C57.6427 50.4513 57.6614 50.5933 57.7078 50.7272C57.7543 50.861 57.8276 50.984 57.9233 51.0885C58.019 51.193 58.1351 51.2769 58.2644 51.3349C58.3937 51.3929 58.5334 51.4239 58.6751 51.426C58.8431 51.4216 59.0083 51.3824 59.1603 51.3107C59.3123 51.2391 59.4478 51.1367 59.5581 51.01L59.9481 51.489C59.6913 51.7745 59.3498 51.9701 58.9736 52.0472C58.5975 52.1242 58.2065 52.0786 57.8582 51.917C57.5099 51.7554 57.2225 51.4864 57.0384 51.1495C56.8543 50.8125 56.783 50.4244 56.8351 50.044ZM58.5051 48.661C58.2498 48.6931 58.0171 48.8237 57.8566 49.0249C57.6962 49.226 57.6206 49.4819 57.6461 49.738H59.3571C59.3748 49.6109 59.3666 49.4815 59.3329 49.3577C59.2993 49.2338 59.2409 49.1181 59.1613 49.0174C59.0816 48.9168 58.9825 48.8333 58.8697 48.7721C58.7569 48.7108 58.6329 48.673 58.5051 48.661ZM61.0361 51.989V48.109H61.8461V48.677C61.9567 48.4858 62.1133 48.3254 62.3018 48.2103C62.4903 48.0952 62.7045 48.0291 62.9251 48.018V48.818C62.8558 48.8028 62.7851 48.7951 62.7141 48.795C62.5369 48.8076 62.3654 48.863 62.2142 48.9563C62.0631 49.0496 61.9368 49.1782 61.8461 49.331V51.992H61.0361V51.989ZM65.7241 51.989V51.593C65.6019 51.7487 65.4451 51.8738 65.2661 51.9585C65.0872 52.0432 64.891 52.0851 64.6931 52.081C64.5274 52.0815 64.3634 52.0477 64.2114 51.9816C64.0594 51.9156 63.9227 51.8188 63.8099 51.6973C63.6972 51.5758 63.6108 51.4323 63.5563 51.2758C63.5018 51.1193 63.4803 50.9532 63.4931 50.788C63.4796 50.6242 63.5009 50.4595 63.5556 50.3045C63.6103 50.1495 63.6972 50.0079 63.8106 49.8889C63.9239 49.7699 64.0611 49.6762 64.2132 49.614C64.3653 49.5518 64.5289 49.5225 64.6931 49.528C64.8891 49.5206 65.0841 49.5587 65.263 49.6392C65.4419 49.7197 65.5997 49.8404 65.7241 49.992V49.43C65.7328 49.3287 65.7189 49.2267 65.6833 49.1314C65.6476 49.0361 65.5913 48.95 65.5182 48.8792C65.4452 48.8084 65.3573 48.7549 65.2609 48.7223C65.1645 48.6897 65.0621 48.6791 64.9611 48.691C64.7772 48.6932 64.5958 48.7338 64.4284 48.8101C64.261 48.8863 64.1114 48.9967 63.9891 49.134L63.6721 48.57C64.0572 48.2007 64.5726 47.9983 65.1061 48.007C65.2909 47.9791 65.4796 47.9933 65.6581 48.0487C65.8366 48.104 66.0003 48.199 66.1368 48.3265C66.2734 48.4541 66.3794 48.6109 66.4468 48.7852C66.5142 48.9595 66.5413 49.1468 66.5261 49.333V51.986H65.7261L65.7241 51.989ZM65.7241 51.103V50.515C65.6496 50.3846 65.5423 50.2759 65.4129 50.1998C65.2834 50.1236 65.1363 50.0827 64.9861 50.081C64.8023 50.0929 64.6298 50.1742 64.5038 50.3086C64.3778 50.443 64.3077 50.6203 64.3077 50.8045C64.3077 50.9887 64.3778 51.166 64.5038 51.3004C64.6298 51.4348 64.8023 51.5162 64.9861 51.528C65.1354 51.526 65.2816 51.4856 65.4109 51.4109C65.5401 51.3361 65.6479 51.2294 65.7241 51.101M67.6451 46.627H68.4561V51.987H67.6451V46.627ZM74.3291 51.987L74.0371 50.926H72.2601L71.9681 51.987H70.9951L72.6081 46.627H73.6861L75.3001 51.987H74.3291ZM73.1511 47.577L72.4511 50.139H73.8631L73.1511 47.577ZM78.0761 51.987V51.473C77.9471 51.6579 77.776 51.8095 77.577 51.9154C77.3779 52.0213 77.1566 52.0784 76.9311 52.082C76.7907 52.1002 76.6479 52.0855 76.5141 52.0391C76.3803 51.9927 76.2591 51.9158 76.16 51.8146C76.0609 51.7134 75.9867 51.5906 75.9432 51.4558C75.8996 51.3211 75.888 51.178 75.9091 51.038V48.106H76.7191V50.758C76.7029 50.8375 76.7057 50.9196 76.7273 50.9978C76.7488 51.076 76.7884 51.148 76.843 51.208C76.8975 51.268 76.9654 51.3143 77.0412 51.3431C77.117 51.372 77.1985 51.3826 77.2791 51.374C77.4463 51.3609 77.6074 51.3056 77.7473 51.2133C77.8872 51.1209 78.0014 50.9946 78.0791 50.846V48.106H78.8901V51.986H78.0791L78.0761 51.987ZM80.1511 51.118V48.803H79.6401V48.103H80.1511V47.044H80.9621V48.105H81.6121V48.805H80.9621V50.951C80.9621 51.217 81.0511 51.376 81.2621 51.376C81.3197 51.378 81.377 51.3674 81.4302 51.3452C81.4834 51.3229 81.5311 51.2894 81.5701 51.247L81.7641 51.847C81.5703 52.0131 81.3188 52.0961 81.0641 52.078C80.9364 52.0925 80.807 52.077 80.6863 52.0328C80.5656 51.9886 80.4569 51.9169 80.3688 51.8233C80.2806 51.7298 80.2155 51.6169 80.1786 51.4938C80.1417 51.3707 80.134 51.2406 80.1561 51.114M84.6411 51.983V49.326C84.6563 49.2462 84.6525 49.1639 84.6299 49.0859C84.6074 49.0078 84.5667 48.9362 84.5113 48.8767C84.4559 48.8173 84.3872 48.7718 84.3109 48.7439C84.2346 48.716 84.1528 48.7064 84.0721 48.716C83.9051 48.7313 83.7447 48.7888 83.606 48.8831C83.4673 48.9774 83.3548 49.1054 83.2791 49.255V51.987H82.4671V46.627H83.2791V48.627C83.4089 48.4428 83.5797 48.2912 83.778 48.1841C83.9764 48.077 84.1969 48.0174 84.4221 48.01C84.5627 47.9913 84.7058 48.0055 84.8399 48.0517C84.974 48.0979 85.0956 48.1747 85.1949 48.276C85.2942 48.3773 85.3685 48.5004 85.4119 48.6354C85.4553 48.7705 85.4667 48.9138 85.4451 49.054V51.989H84.6451L84.6411 51.983ZM86.3701 50.039C86.4301 49.7173 86.5806 49.4193 86.8038 49.1799C87.027 48.9406 87.3138 48.7697 87.6305 48.6874C87.9473 48.6051 88.281 48.6147 88.5925 48.7151C88.904 48.8155 89.1804 49.0025 89.3895 49.2543C89.5986 49.5061 89.7316 49.8123 89.773 50.1369C89.8145 50.4616 89.7626 50.7913 89.6234 51.0876C89.4843 51.3838 89.2636 51.6343 88.9873 51.8097C88.711 51.9851 88.3904 52.0782 88.0631 52.078C87.8139 52.0665 87.5699 52.0031 87.3466 51.8919C87.1234 51.7808 86.9258 51.6242 86.7664 51.4323C86.6071 51.2404 86.4895 51.0174 86.4213 50.7775C86.3531 50.5376 86.3356 50.286 86.3701 50.039ZM88.9231 50.039C88.8532 49.8847 88.743 49.752 88.6042 49.655C88.4653 49.558 88.3028 49.5001 88.1339 49.4876C87.9649 49.4751 87.7957 49.5083 87.644 49.5838C87.4923 49.6592 87.3638 49.7742 87.2719 49.9165C87.18 50.0588 87.1281 50.2233 87.1218 50.3926C87.1154 50.5619 87.1548 50.7298 87.2357 50.8786C87.3167 51.0275 87.4363 51.1517 87.5818 51.2384C87.7274 51.325 87.8937 51.3708 88.0631 51.371C88.2084 51.3427 88.3465 51.2853 88.4691 51.2023C88.5917 51.1193 88.6963 51.0124 88.7766 50.888C88.8569 50.7636 88.9113 50.6243 88.9364 50.4785C88.9616 50.3326 88.9571 50.1831 88.9231 50.039ZM90.6831 51.983V48.103H91.4941V48.671C91.6045 48.4797 91.7611 48.3191 91.9496 48.2039C92.1381 48.0888 92.3525 48.0228 92.5731 48.012V48.812C92.5035 48.7967 92.4324 48.7889 92.3611 48.789C92.1841 48.8018 92.0128 48.8572 91.8618 48.9505C91.7108 49.0439 91.5847 49.1723 91.4941 49.325V51.986H90.6791L90.6831 51.983ZM93.2381 47.113C93.2394 46.9783 93.2938 46.8495 93.3895 46.7545C93.4851 46.6596 93.6144 46.6063 93.7491 46.606C93.8472 46.6082 93.9425 46.6392 94.0231 46.6951C94.1037 46.751 94.1661 46.8294 94.2025 46.9206C94.2388 47.0117 94.2476 47.1115 94.2276 47.2076C94.2076 47.3036 94.1599 47.3917 94.0902 47.4608C94.0206 47.5299 93.9321 47.577 93.8359 47.5962C93.7397 47.6154 93.6399 47.6059 93.5491 47.5688C93.4583 47.5317 93.3803 47.4687 93.325 47.3877C93.2697 47.3066 93.2395 47.2111 93.2381 47.113ZM93.3381 48.102H94.1491V51.982H93.3381V48.102ZM95.4151 51.113V48.803H94.9041V48.103H95.4191V47.044H96.2301V48.105H96.8791V48.805H96.2301V50.951C96.2301 51.217 96.3211 51.376 96.5301 51.376C96.5878 51.3777 96.6452 51.367 96.6985 51.3448C96.7518 51.3225 96.7997 51.2892 96.8391 51.247L97.0331 51.847C96.8391 52.0128 96.5877 52.0958 96.3331 52.078C96.2053 52.0929 96.0757 52.0776 95.9547 52.0336C95.8338 51.9895 95.7247 51.9178 95.6364 51.8242C95.548 51.7306 95.4827 51.6177 95.4457 51.4944C95.4087 51.3711 95.4009 51.2408 95.4231 51.114M97.7181 52.793C97.799 52.8316 97.8875 52.8515 97.9771 52.851C98.0778 52.8603 98.1785 52.8327 98.2604 52.7732C98.3423 52.7138 98.3997 52.6267 98.4221 52.528L98.5861 52.064L97.2721 48.104H98.1331L99.0001 51.019L99.8761 48.104H100.735L99.1871 52.714C99.1313 52.971 98.9833 53.1987 98.771 53.354C98.5588 53.5094 98.297 53.5816 98.0351 53.557C97.8878 53.5559 97.7411 53.5374 97.5981 53.502L97.7181 52.793ZM103.071 50.039C103.131 49.7173 103.282 49.4194 103.505 49.18C103.728 48.9407 104.015 48.7698 104.331 48.6875C104.648 48.6051 104.982 48.6147 105.293 48.715C105.605 48.8153 105.881 49.0022 106.09 49.254C106.299 49.5057 106.432 49.8117 106.474 50.1363C106.516 50.4609 106.464 50.7906 106.325 51.0869C106.186 51.3832 105.965 51.6337 105.689 51.8092C105.413 51.9847 105.092 52.078 104.765 52.078C104.516 52.0663 104.272 52.0029 104.049 51.8916C103.826 51.7804 103.628 51.6239 103.469 51.432C103.309 51.2402 103.191 51.0172 103.123 50.7774C103.055 50.5375 103.037 50.2861 103.071 50.039ZM105.625 50.039C105.555 49.8847 105.445 49.752 105.306 49.655C105.167 49.558 105.005 49.5001 104.836 49.4876C104.667 49.4751 104.498 49.5083 104.346 49.5838C104.194 49.6592 104.066 49.7742 103.974 49.9165C103.882 50.0588 103.83 50.2233 103.824 50.3926C103.817 50.5619 103.857 50.7298 103.938 50.8786C104.019 51.0275 104.138 51.1517 104.284 51.2384C104.429 51.325 104.596 51.3708 104.765 51.371C104.91 51.3427 105.049 51.2853 105.171 51.2023C105.294 51.1193 105.398 51.0124 105.479 50.888C105.559 50.7636 105.613 50.6243 105.638 50.4785C105.664 50.3326 105.659 50.1831 105.625 50.039ZM107.547 51.983V48.803H107.037V48.103H107.547V47.744C107.527 47.5903 107.541 47.434 107.588 47.2863C107.635 47.1385 107.714 47.0027 107.818 46.8885C107.923 46.7742 108.052 46.6842 108.195 46.6247C108.338 46.5652 108.492 46.5376 108.647 46.544C108.935 46.5324 109.217 46.6315 109.434 46.821L109.158 47.381C109.112 47.33 109.056 47.2893 108.993 47.2616C108.93 47.2339 108.862 47.2197 108.793 47.22C108.728 47.2187 108.663 47.2322 108.603 47.2593C108.543 47.2865 108.491 47.3267 108.449 47.377C108.406 47.4273 108.376 47.4864 108.36 47.5499C108.344 47.6134 108.342 47.6797 108.355 47.744V48.105H109.003V48.805H108.355V51.988H107.539L107.547 51.983ZM111.49 49.306C111.49 47.693 112.34 46.536 113.696 46.536C114.067 46.5359 114.43 46.6489 114.735 46.8599C115.041 47.0708 115.275 47.3698 115.406 47.717L114.66 48.045C114.59 47.8419 114.461 47.6645 114.289 47.5359C114.117 47.4073 113.911 47.3335 113.696 47.324C112.896 47.324 112.406 48.158 112.406 49.306C112.406 50.454 112.9 51.284 113.696 51.284C113.92 51.2714 114.135 51.1885 114.309 51.0471C114.484 50.9056 114.609 50.7128 114.668 50.496L115.414 50.827C115.294 51.1887 115.064 51.5039 114.756 51.7282C114.448 51.9525 114.077 52.0749 113.696 52.078C112.34 52.078 111.49 50.914 111.49 49.306ZM116.143 47.113C116.145 46.9782 116.2 46.8496 116.295 46.7548C116.391 46.6599 116.52 46.6065 116.655 46.606C116.789 46.606 116.917 46.6591 117.011 46.7535C117.106 46.8479 117.159 46.976 117.159 47.1095C117.159 47.243 117.106 47.3711 117.011 47.4655C116.917 47.56 116.789 47.613 116.655 47.613C116.521 47.613 116.393 47.5608 116.297 47.4673C116.202 47.3739 116.146 47.2467 116.143 47.113ZM116.25 48.102H117.061V51.982H116.25V48.102ZM119.007 51.982L117.717 48.102H118.578L119.445 51.026L120.32 48.102H121.18L119.88 51.982H118.999H119.007ZM121.724 47.112C121.725 46.9773 121.78 46.8485 121.875 46.7535C121.971 46.6586 122.1 46.6053 122.235 46.605C122.333 46.6072 122.428 46.6382 122.509 46.6941C122.59 46.75 122.652 46.8284 122.688 46.9196C122.725 47.0107 122.734 47.1105 122.714 47.2066C122.694 47.3026 122.646 47.3907 122.576 47.4598C122.507 47.5289 122.418 47.576 122.322 47.5952C122.226 47.6144 122.126 47.6049 122.035 47.5678C121.944 47.5307 121.866 47.4677 121.811 47.3867C121.756 47.3056 121.726 47.2101 121.724 47.112ZM121.831 48.101H122.64V51.981H121.819V48.101H121.831ZM123.76 46.621H124.571V51.981H123.76V46.621ZM130.442 51.981L130.15 50.92H128.373L128.082 51.981H127.11L128.723 46.621H129.801L131.415 51.981H130.442ZM129.265 47.571L128.565 50.133H129.976L129.265 47.571ZM132.785 51.981L131.497 48.101H132.356L133.219 51.03L134.093 48.106H134.955L133.655 51.986H132.778L132.785 51.981ZM135.503 47.111C135.505 46.9762 135.56 46.8476 135.655 46.7528C135.751 46.6579 135.88 46.6045 136.015 46.604C136.113 46.6064 136.208 46.6375 136.289 46.6936C136.369 46.7496 136.432 46.8281 136.468 46.9192C136.504 47.0104 136.513 47.1102 136.492 47.2062C136.472 47.3022 136.425 47.3901 136.355 47.4591C136.285 47.5282 136.197 47.5751 136.101 47.5943C136.004 47.6134 135.905 47.6038 135.814 47.5667C135.723 47.5296 135.645 47.4666 135.59 47.3856C135.535 47.3046 135.505 47.2091 135.503 47.111ZM135.603 48.1H136.415V51.98H135.603V48.1ZM139.56 51.98V51.593C139.438 51.7487 139.281 51.8738 139.103 51.9585C138.924 52.0432 138.728 52.0851 138.53 52.081C138.364 52.0815 138.2 52.0477 138.048 51.9816C137.896 51.9156 137.76 51.8188 137.647 51.6973C137.534 51.5758 137.448 51.4323 137.393 51.2758C137.339 51.1193 137.317 50.9532 137.33 50.788C137.317 50.6243 137.338 50.4596 137.393 50.3047C137.448 50.1498 137.535 50.0082 137.648 49.8893C137.761 49.7703 137.898 49.6766 138.05 49.6144C138.202 49.5521 138.366 49.5227 138.53 49.528C138.726 49.5207 138.921 49.5588 139.099 49.6393C139.278 49.7198 139.436 49.8405 139.56 49.992V49.43C139.569 49.3287 139.555 49.2267 139.52 49.1315C139.484 49.0362 139.428 48.95 139.355 48.8792C139.282 48.8084 139.194 48.7548 139.098 48.7223C139.001 48.6897 138.899 48.679 138.798 48.691C138.614 48.6934 138.433 48.734 138.265 48.8103C138.098 48.8865 137.948 48.9968 137.825 49.134L137.509 48.57C137.895 48.2011 138.411 47.9989 138.945 48.007C139.13 47.979 139.318 47.9932 139.497 48.0485C139.675 48.1039 139.839 48.1989 139.975 48.3265C140.111 48.4542 140.217 48.611 140.284 48.7853C140.351 48.9597 140.378 49.1469 140.362 49.333V51.986H139.562L139.56 51.98ZM139.56 51.094V50.515C139.486 50.3844 139.38 50.2755 139.25 50.1993C139.121 50.1232 138.974 50.0823 138.824 50.081C138.64 50.0929 138.468 50.1742 138.342 50.3086C138.216 50.443 138.146 50.6203 138.146 50.8045C138.146 50.9887 138.216 51.166 138.342 51.3004C138.468 51.4348 138.64 51.5162 138.824 51.528C138.973 51.5263 139.119 51.4861 139.248 51.4113C139.377 51.3364 139.485 51.2296 139.56 51.101M141.628 51.118V48.803H141.119V48.103H141.628V47.044H142.44V48.105H143.09V48.805H142.44V50.951C142.44 51.217 142.53 51.376 142.74 51.376C142.798 51.378 142.855 51.3674 142.908 51.3452C142.961 51.3229 143.009 51.2894 143.048 51.247L143.243 51.847C143.049 52.0124 142.798 52.0953 142.543 52.078C142.415 52.093 142.285 52.0779 142.164 52.034C142.043 51.99 141.934 51.9183 141.846 51.8247C141.757 51.731 141.692 51.618 141.655 51.4946C141.618 51.3713 141.61 51.2409 141.632 51.114M143.839 47.114C143.841 46.9795 143.895 46.851 143.99 46.7562C144.086 46.6614 144.215 46.6078 144.349 46.607C144.447 46.609 144.543 46.6398 144.623 46.6956C144.704 46.7514 144.767 46.8298 144.803 46.9209C144.84 47.012 144.849 47.1119 144.829 47.208C144.809 47.3041 144.761 47.3923 144.692 47.4615C144.622 47.5307 144.534 47.5779 144.437 47.5972C144.341 47.6164 144.241 47.607 144.15 47.5699C144.059 47.5329 143.981 47.4699 143.926 47.3888C143.871 47.3077 143.841 47.2122 143.839 47.114ZM143.944 48.103H144.756V51.983H143.944V48.103ZM145.68 50.039C145.74 49.7172 145.89 49.4191 146.113 49.1795C146.336 48.94 146.623 48.7688 146.939 48.686C147.256 48.6033 147.59 48.6124 147.901 48.7122C148.213 48.8121 148.49 48.9986 148.699 49.25C148.909 49.5014 149.043 49.8072 149.085 50.1318C149.127 50.4563 149.076 50.7862 148.937 51.0828C148.799 51.3794 148.579 51.6305 148.303 51.8067C148.028 51.983 147.707 52.0771 147.38 52.078C147.13 52.0673 146.886 52.0045 146.662 51.8937C146.438 51.7829 146.239 51.6265 146.079 51.4345C145.919 51.2425 145.801 51.0192 145.732 50.7789C145.663 50.5386 145.646 50.2866 145.68 50.039ZM148.234 50.039C148.164 49.8846 148.054 49.7519 147.915 49.6548C147.776 49.5578 147.613 49.5 147.444 49.4876C147.275 49.4751 147.106 49.5085 146.954 49.5841C146.803 49.6597 146.674 49.7748 146.582 49.9174C146.491 50.0599 146.439 50.2245 146.433 50.3939C146.427 50.5633 146.466 50.7312 146.547 50.88C146.629 51.0287 146.749 51.1529 146.894 51.2393C147.04 51.3257 147.207 51.3712 147.376 51.371C147.521 51.3424 147.659 51.2849 147.781 51.2018C147.904 51.1187 148.008 51.0118 148.088 50.8874C148.168 50.7631 148.223 50.6238 148.248 50.4781C148.273 50.3323 148.268 50.183 148.234 50.039ZM152.161 51.983V49.344C152.178 49.264 152.176 49.181 152.155 49.1019C152.134 49.0228 152.095 48.9498 152.04 48.8888C151.986 48.8278 151.917 48.7805 151.841 48.7508C151.765 48.7212 151.683 48.7099 151.601 48.718C151.432 48.7297 151.269 48.7856 151.129 48.8802C150.988 48.9749 150.875 49.1048 150.801 49.257V51.989H149.989V48.109H150.801V48.628C150.929 48.4441 151.098 48.2925 151.295 48.1854C151.492 48.0783 151.711 48.0186 151.935 48.011C152.077 47.9937 152.22 48.0093 152.355 48.0565C152.489 48.1036 152.611 48.1811 152.711 48.2829C152.81 48.3848 152.885 48.5082 152.93 48.6437C152.974 48.7791 152.986 48.9229 152.966 49.064V51.99H152.156L152.161 51.983Z" fill="#58595B"/>
<path fill-rule="evenodd" clip-rule="evenodd" d="M151.357 5.69699C152.027 5.69567 152.669 5.42853 153.143 4.95421C153.616 4.47988 153.882 3.83713 153.882 3.167C153.869 2.50537 153.597 1.87528 153.124 1.41202C152.652 0.948759 152.016 0.68927 151.355 0.68927C150.693 0.68927 150.057 0.948759 149.585 1.41202C149.112 1.87528 148.84 2.50537 148.827 3.167C148.827 3.49935 148.892 3.82852 149.019 4.13565C149.146 4.44278 149.332 4.72185 149.567 4.95686C149.802 5.19187 150.081 5.37821 150.388 5.50521C150.695 5.63222 151.025 5.69739 151.357 5.69699ZM151.357 1.13599C151.623 1.13377 151.887 1.18505 152.132 1.28679C152.378 1.38852 152.601 1.53864 152.788 1.7282C152.974 1.91777 153.121 2.14292 153.219 2.39026C153.316 2.6376 153.363 2.90209 153.357 3.168C153.352 3.56471 153.231 3.95119 153.007 4.27872C152.783 4.60625 152.467 4.86015 152.099 5.00842C151.731 5.15668 151.327 5.19267 150.939 5.11184C150.55 5.03101 150.195 4.83699 149.916 4.55423C149.638 4.27148 149.45 3.91265 149.375 3.523C149.3 3.13335 149.343 2.73031 149.497 2.36472C149.651 1.99912 149.91 1.68733 150.241 1.46867C150.572 1.25 150.96 1.13424 151.357 1.13599ZM150.866 4.48399V3.43699H151.492L152.019 4.48399H152.561L151.97 3.34399C152.138 3.26478 152.273 3.13066 152.354 2.96386C152.436 2.79705 152.457 2.60755 152.416 2.42673C152.375 2.24591 152.273 2.08462 152.127 1.96955C151.982 1.85449 151.801 1.79255 151.616 1.79399H150.783C150.731 1.78612 150.677 1.79008 150.626 1.8056C150.576 1.82112 150.529 1.84779 150.49 1.88366C150.451 1.91953 150.421 1.96369 150.401 2.01289C150.381 2.06209 150.373 2.11509 150.376 2.168V4.48299H150.861L150.866 4.48399ZM150.874 2.22199H151.574C151.625 2.21895 151.675 2.22684 151.723 2.24514C151.77 2.26343 151.813 2.2917 151.849 2.32803C151.884 2.36436 151.911 2.4079 151.928 2.45568C151.946 2.50347 151.952 2.5544 151.948 2.605C151.951 2.65821 151.942 2.71136 151.923 2.76106C151.904 2.81075 151.874 2.85589 151.837 2.89355C151.799 2.93122 151.754 2.9606 151.704 2.97979C151.654 2.99898 151.601 3.00757 151.548 3.00499H150.872V2.22099L150.874 2.22199ZM56.319 5.64399C61.608 5.64399 62.27 11.091 62.27 11.091L68.57 9.613C68.532 9.456 67.441 0.0379944 56.32 0.0379944C49.437 0.0379944 43.02 4.23799 43.02 14.983C43.02 25.645 49.785 29.732 56.787 29.732C60.025 29.7721 63.2209 28.9963 66.08 27.476C67.597 26.581 68.452 25.726 68.452 23.897V17.323C68.47 16.9354 68.4029 16.5486 68.2556 16.1896C68.1083 15.8307 67.8842 15.5083 67.5992 15.245C67.3141 14.9818 66.975 14.7841 66.6054 14.6657C66.2359 14.5474 65.845 14.5113 65.46 14.56H56.819V19.427H62.219V23.2C60.6213 24.1043 58.8048 24.5497 56.97 24.487C53.432 24.487 49.737 22.345 49.737 14.987C49.737 7.787 52.965 5.64899 56.31 5.64899M84.31 0.00399399C81.664 0.00399399 80.07 1.134 79.293 3.467L70.742 29.344H77.505C78.0169 29.3056 78.4989 29.0878 78.866 28.729L87.006 20.68C87.175 20.511 87.129 20.431 86.935 20.431H85.835C85.384 20.4271 84.9403 20.5453 84.551 20.773L79.073 23.923L84.273 6.33899C84.273 6.33899 90.454 27.627 90.959 29.339H97.921L89.482 3.41999C88.782 1.24299 86.996 -0.00500488 84.312 -0.00500488M112.272 5.56099C117.56 5.56099 118.262 11.399 118.262 11.399L124.562 10.075C124.562 10.075 123.63 0.0439949 112.275 0.0439949C105.392 0.0439949 98.975 4.13299 98.975 14.875C98.975 25.535 105.352 29.775 112.236 29.775C123.357 29.775 124.564 19.968 124.564 19.968L118.264 18.605C118.264 18.605 117.755 24.247 112.352 24.247C109.009 24.247 105.741 22.106 105.741 14.87C105.741 7.67 108.929 5.57 112.274 5.57M139.732 0.00399399C137.086 0.00399399 135.49 1.134 134.713 3.467L126.159 29.344H132.922C133.434 29.3058 133.916 29.088 134.283 28.729L142.425 20.68C142.593 20.511 142.546 20.431 142.352 20.431H141.252C140.801 20.4271 140.357 20.5453 139.968 20.773L134.49 23.923L139.69 6.33899C139.69 6.33899 145.874 27.627 146.379 29.339H153.341L144.902 3.41999C144.202 1.24299 142.413 -0.00500488 139.731 -0.00500488" fill="#274479"/>
<path fill-rule="evenodd" clip-rule="evenodd" d="M40.893 29.424C40.9432 29.4192 40.9896 29.3949 41.0223 29.3565C41.0549 29.318 41.0713 29.2684 41.068 29.218C41.0711 29.1787 41.0635 29.1393 41.0459 29.1041C41.0282 29.0688 41.0013 29.039 40.968 29.018C39.1785 28.4277 37.5979 27.3324 36.4168 25.8641C35.2356 24.3959 34.5043 22.6174 34.311 20.743L32.711 9.343C31.967 4.048 28.068 0.436999 23.522 0.350999H0.169955C0.147609 0.350195 0.125327 0.353886 0.104434 0.361856C0.0835414 0.369825 0.0644774 0.381912 0.0483428 0.397393C0.0322082 0.412875 0.0193564 0.43144 0.0105315 0.451986C0.00170663 0.472531 -0.00289886 0.494639 -0.00301831 0.516999C-0.00963639 0.556627 -0.00352975 0.597333 0.0144377 0.633268C0.0324052 0.669203 0.0612843 0.698518 0.0969573 0.717C1.88836 1.31471 3.46937 2.41638 4.65045 3.88994C5.83154 5.36351 6.56259 7.14644 6.75595 9.025L8.35596 20.425C9.09996 25.7 12.996 29.331 17.542 29.436L40.893 29.424ZM30.933 24.55H26.771C26.3087 24.5925 25.8439 24.5012 25.432 24.287L22.59 22.775L24.232 21.905L30.954 24.467C31.053 24.511 31.053 24.55 30.933 24.55ZM27.633 12.533C27.6227 12.5457 27.6081 12.554 27.592 12.5565C27.5759 12.5589 27.5595 12.5551 27.546 12.546C26.2321 11.7966 24.8453 11.1831 23.407 10.715C23.229 10.657 22.976 10.571 22.742 10.515C22.642 15.221 22.199 18.879 21.742 18.884C21.285 18.889 20.842 15.221 20.742 10.515C20.507 10.57 20.255 10.657 20.077 10.715C18.6383 11.1831 17.2512 11.7966 15.937 12.546C15.9237 12.5553 15.9074 12.5591 15.8914 12.5567C15.8753 12.5543 15.8609 12.5458 15.851 12.533C15.8441 12.5233 15.84 12.5119 15.839 12.5C15.7905 12.2579 15.8017 12.0076 15.8713 11.7707C15.941 11.5338 16.0672 11.3174 16.239 11.14C16.6534 10.7607 17.1031 10.4218 17.582 10.128C18.1595 9.74819 18.7656 9.41385 19.395 9.128C19.561 9.05 19.77 8.955 19.934 8.886C18.8894 8.30488 17.7914 7.82567 16.655 7.455C16.6485 7.45336 16.6423 7.45046 16.637 7.44646C16.6316 7.44246 16.627 7.43743 16.6236 7.43167C16.6202 7.42591 16.6179 7.41953 16.6169 7.4129C16.616 7.40626 16.6163 7.3995 16.618 7.393C16.6206 7.38349 16.6262 7.37508 16.634 7.369C16.7651 7.21925 16.9289 7.1016 17.1126 7.02514C17.2964 6.94868 17.4953 6.91545 17.694 6.928C18.0652 6.97654 18.4328 7.05037 18.794 7.149C19.194 7.249 19.594 7.359 19.982 7.487C20.207 7.561 20.429 7.64 20.65 7.727L20.76 7.769C20.896 6.498 21.286 5.569 21.744 5.569C22.202 5.569 22.592 6.493 22.728 7.769L22.838 7.727C23.058 7.64 23.281 7.561 23.505 7.487C23.897 7.359 24.2933 7.24633 24.694 7.149C25.0552 7.05037 25.4227 6.97654 25.794 6.928C25.9926 6.91545 26.1915 6.94868 26.3753 7.02514C26.5591 7.1016 26.7228 7.21925 26.854 7.369C26.8617 7.37508 26.8673 7.38349 26.87 7.393C26.8716 7.3995 26.872 7.40626 26.871 7.4129C26.87 7.41953 26.8678 7.42591 26.8643 7.43167C26.8609 7.43743 26.8563 7.44246 26.851 7.44646C26.8456 7.45046 26.8395 7.45336 26.833 7.455C25.6966 7.82567 24.5985 8.30488 23.554 8.886C23.717 8.954 23.926 9.049 24.093 9.128C24.7223 9.41385 25.3285 9.74819 25.906 10.128C26.3848 10.4218 26.8345 10.7607 27.249 11.14C27.4205 11.3175 27.5466 11.534 27.6162 11.7708C27.6859 12.0077 27.6971 12.2579 27.649 12.5C27.6483 12.5118 27.6445 12.5232 27.638 12.533H27.633ZM16.579 19.472L17.645 19.466C17.7946 19.4629 17.9437 19.4866 18.085 19.536L20.631 20.536L19.309 21.036L16.56 19.571C16.466 19.513 16.466 19.475 16.584 19.472H16.579ZM25.714 19.537L26.777 19.545C26.897 19.545 26.897 19.587 26.798 19.645L18.055 24.29C17.6416 24.5031 17.1762 24.5943 16.713 24.553H12.553C12.434 24.553 12.434 24.514 12.533 24.473L25.274 19.614C25.416 19.56 25.5671 19.5339 25.719 19.537H25.714Z" fill="#0075C9"/>
</g>
<defs>
<clipPath id="clip0_9_29">
<rect width="153.875" height="53.563" fill="white"/>
</clipPath>
</defs>
</svg>
