<svg width="97" height="35" viewBox="0 0 97 35" fill="none" xmlns="http://www.w3.org/2000/svg">
<g clip-path="url(#clip0_7_267)">
<path fill-rule="evenodd" clip-rule="evenodd" d="M63.9875 24.2484C64.0474 24.2484 64.1059 24.23 64.1557 24.1955C64.2054 24.1611 64.2442 24.1121 64.2671 24.0548C64.29 23.9975 64.296 23.9344 64.2843 23.8736C64.2726 23.8127 64.2438 23.7568 64.2015 23.713C64.1592 23.6691 64.1053 23.6392 64.0466 23.6271C63.9879 23.615 63.927 23.6212 63.8717 23.645C63.8165 23.6687 63.7692 23.7089 63.736 23.7605C63.7027 23.8121 63.685 23.8727 63.685 23.9347C63.6849 23.976 63.6926 24.0168 63.7078 24.0549C63.723 24.093 63.7453 24.1276 63.7734 24.1567C63.8015 24.1859 63.8349 24.209 63.8717 24.2247C63.9084 24.2404 63.9478 24.2485 63.9875 24.2484ZM64.9615 24.2484C65.0213 24.2484 65.0798 24.23 65.1296 24.1955C65.1793 24.1611 65.2181 24.1121 65.241 24.0548C65.2639 23.9975 65.2699 23.9344 65.2582 23.8736C65.2466 23.8127 65.2178 23.7568 65.1755 23.713C65.1331 23.6691 65.0792 23.6392 65.0205 23.6271C64.9618 23.615 64.901 23.6212 64.8457 23.645C64.7904 23.6687 64.7431 23.7089 64.7099 23.7605C64.6766 23.8121 64.6589 23.8727 64.6589 23.9347C64.6589 24.0179 64.6908 24.0977 64.7475 24.1565C64.8043 24.2153 64.8812 24.2484 64.9615 24.2484ZM81.3678 24.2484C81.4277 24.2485 81.4862 24.2302 81.5361 24.1959C81.5859 24.1615 81.6248 24.1125 81.6478 24.0552C81.6708 23.9979 81.6769 23.9348 81.6653 23.874C81.6537 23.8131 81.6249 23.7571 81.5826 23.7132C81.5403 23.6693 81.4864 23.6393 81.4277 23.6272C81.369 23.615 81.3081 23.6212 81.2528 23.6449C81.1975 23.6686 81.1502 23.7088 81.1169 23.7604C81.0836 23.812 81.0658 23.8727 81.0658 23.9347C81.0658 24.0178 81.0976 24.0975 81.1542 24.1563C81.2109 24.2151 81.2877 24.2482 81.3678 24.2484ZM82.3418 24.2484C82.4016 24.2484 82.4601 24.23 82.5099 24.1955C82.5596 24.1611 82.5984 24.1121 82.6213 24.0548C82.6442 23.9975 82.6502 23.9344 82.6385 23.8736C82.6268 23.8127 82.598 23.7568 82.5557 23.713C82.5134 23.6691 82.4595 23.6392 82.4008 23.6271C82.3421 23.615 82.2812 23.6212 82.2259 23.645C82.1707 23.6687 82.1234 23.7089 82.0902 23.7605C82.0569 23.8121 82.0392 23.8727 82.0392 23.9347C82.0392 24.0176 82.0708 24.0971 82.1271 24.1558C82.1835 24.2146 82.2599 24.2479 82.3398 24.2484H82.3418ZM88.3115 24.9972L88.2591 24.598C88.0461 24.6359 87.5563 24.7894 87.5096 24.4418C87.498 24.3546 87.5191 24.2661 87.5684 24.1944C87.6178 24.1227 87.6917 24.0733 87.775 24.0563C87.9135 24.0403 88.0536 24.0652 88.1791 24.1282L88.3052 23.7439C88.1718 23.6868 88.0274 23.6623 87.8834 23.6725C87.7394 23.6827 87.5996 23.7273 87.4749 23.8027C87.3436 23.8995 87.2512 24.043 87.2155 24.2058C87.1798 24.3687 87.2033 24.5395 87.2814 24.6855L86.8477 24.6999V25.0031C87.1339 25.0153 87.4203 25.024 87.7069 25.0292C87.7536 25.0286 88.1104 25.0181 88.3115 24.9972ZM51.8622 28.2572C51.8023 28.2572 51.7438 28.2756 51.6941 28.3101C51.6443 28.3445 51.6055 28.3935 51.5826 28.4508C51.5597 28.5082 51.5537 28.5712 51.5654 28.6321C51.5771 28.6929 51.6059 28.7488 51.6482 28.7927C51.6905 28.8365 51.7444 28.8664 51.8031 28.8785C51.8618 28.8906 51.9227 28.8844 51.9779 28.8606C52.0332 28.8369 52.0805 28.7967 52.1137 28.7451C52.147 28.6935 52.1647 28.6329 52.1647 28.5709C52.1647 28.5297 52.1569 28.4889 52.1417 28.4508C52.1265 28.4128 52.1042 28.3782 52.0761 28.3491C52.048 28.32 52.0147 28.2969 51.9779 28.2811C51.9412 28.2653 51.9019 28.2572 51.8622 28.2572ZM52.8361 28.2572C52.7762 28.2572 52.7177 28.2756 52.668 28.3101C52.6182 28.3445 52.5794 28.3935 52.5565 28.4508C52.5336 28.5082 52.5276 28.5712 52.5393 28.6321C52.551 28.6929 52.5798 28.7488 52.6221 28.7927C52.6645 28.8365 52.7184 28.8664 52.7771 28.8785C52.8358 28.8906 52.8966 28.8844 52.9519 28.8606C53.0072 28.8369 53.0544 28.7967 53.0877 28.7451C53.1209 28.6935 53.1387 28.6329 53.1387 28.5709C53.1387 28.488 53.1071 28.4085 53.0507 28.3498C52.9944 28.291 52.9179 28.2577 52.838 28.2572H52.8361ZM88.8183 28.2572C88.7584 28.2572 88.6999 28.2756 88.6502 28.3101C88.6004 28.3445 88.5616 28.3935 88.5387 28.4508C88.5158 28.5082 88.5099 28.5712 88.5215 28.6321C88.5332 28.6929 88.562 28.7488 88.6043 28.7927C88.6466 28.8365 88.7006 28.8664 88.7592 28.8785C88.8179 28.8906 88.8788 28.8844 88.9341 28.8606C88.9894 28.8369 89.0366 28.7967 89.0699 28.7451C89.1031 28.6935 89.1209 28.6329 89.1209 28.5709C89.1209 28.5297 89.113 28.4889 89.0978 28.4508C89.0826 28.4128 89.0603 28.3782 89.0322 28.3491C89.0042 28.32 88.9708 28.2969 88.9341 28.2811C88.8974 28.2653 88.858 28.2572 88.8183 28.2572ZM89.7922 28.2572C89.7323 28.2571 89.6738 28.2754 89.6239 28.3098C89.5741 28.3441 89.5352 28.3931 89.5122 28.4504C89.4892 28.5077 89.4831 28.5708 89.4947 28.6317C89.5063 28.6925 89.5351 28.7485 89.5774 28.7924C89.6197 28.8364 89.6736 28.8663 89.7323 28.8784C89.791 28.8906 89.8519 28.8844 89.9072 28.8607C89.9626 28.837 90.0099 28.7968 90.0431 28.7452C90.0764 28.6936 90.0942 28.6329 90.0942 28.5709C90.0942 28.4878 90.0624 28.4081 90.0058 28.3493C89.9492 28.2905 89.8724 28.2574 89.7922 28.2572ZM28.9799 29.0054C28.9201 29.0054 28.8616 29.0238 28.8118 29.0583C28.7621 29.0927 28.7233 29.1417 28.7004 29.199C28.6775 29.2563 28.6715 29.3194 28.6832 29.3802C28.6948 29.4411 28.7236 29.497 28.766 29.5408C28.8083 29.5847 28.8622 29.6146 28.9209 29.6267C28.9796 29.6388 29.0404 29.6326 29.0957 29.6088C29.151 29.5851 29.1983 29.5449 29.2315 29.4933C29.2648 29.4417 29.2825 29.3811 29.2825 29.3191C29.2826 29.2778 29.2748 29.237 29.2597 29.1988C29.2445 29.1607 29.2222 29.126 29.1941 29.0969C29.166 29.0677 29.1326 29.0445 29.0959 29.0287C29.0591 29.0129 29.0197 29.0054 28.9799 29.0054ZM29.9539 29.0054C29.894 29.0053 29.8354 29.0236 29.7856 29.0579C29.7358 29.0923 29.6969 29.1413 29.6739 29.1986C29.6509 29.2559 29.6448 29.319 29.6564 29.3798C29.668 29.4407 29.6968 29.4967 29.7391 29.5406C29.7814 29.5845 29.8353 29.6145 29.894 29.6266C29.9527 29.6388 30.0136 29.6326 30.0689 29.6089C30.1242 29.5852 30.1715 29.545 30.2048 29.4934C30.2381 29.4418 30.2558 29.3811 30.2558 29.3191C30.256 29.2361 30.2244 29.1564 30.1681 29.0975C30.1117 29.0386 30.0352 29.0053 29.9551 29.0048L29.9539 29.0054ZM46.0797 25.4853C46.1395 25.4853 46.198 25.4669 46.2478 25.4325C46.2975 25.398 46.3363 25.349 46.3592 25.2917C46.3821 25.2344 46.3881 25.1714 46.3764 25.1105C46.3647 25.0497 46.3359 24.9938 46.2936 24.9499C46.2513 24.9061 46.1974 24.8762 46.1387 24.8641C46.08 24.852 46.0192 24.8582 45.9639 24.8819C45.9086 24.9057 45.8613 24.9459 45.8281 24.9974C45.7948 25.049 45.7771 25.1097 45.7771 25.1717C45.7772 25.2548 45.8092 25.3344 45.8659 25.3931C45.9227 25.4517 45.9995 25.4853 46.0797 25.4853ZM32.2819 24.8763C32.3417 24.8763 32.4002 24.8579 32.45 24.8235C32.4997 24.789 32.5385 24.74 32.5614 24.6827C32.5843 24.6254 32.5903 24.5623 32.5786 24.5015C32.567 24.4407 32.5381 24.3848 32.4958 24.3409C32.4535 24.297 32.3996 24.2672 32.3409 24.2551C32.2822 24.243 32.2214 24.2492 32.1661 24.2729C32.1108 24.2967 32.0635 24.3369 32.0303 24.3884C31.997 24.44 31.9793 24.5007 31.9793 24.5627C31.9793 24.6039 31.9871 24.6446 32.0023 24.6826C32.0175 24.7206 32.0398 24.7552 32.0679 24.7842C32.096 24.8133 32.1294 24.8364 32.1661 24.8521C32.2028 24.8677 32.2422 24.8764 32.2819 24.8763ZM95.8641 23.7577V27.609H96.3854V23.757L95.8641 23.7577ZM78.272 27.609H78.7933V23.757H78.272V27.609ZM48.2791 27.609H48.8036V23.757H48.2816V27.6084L48.2791 27.609ZM94.4955 26.8197C94.4953 26.9174 94.4578 27.011 94.3912 27.0801C94.3245 27.1491 94.2342 27.188 94.14 27.1882H92.6863C92.6958 27.1771 92.7052 27.1666 92.7134 27.1549C92.7961 27.0393 92.8504 26.9046 92.8718 26.7625C92.8931 26.6203 92.8807 26.4749 92.8357 26.3387C92.7727 26.097 92.5709 25.3586 92.0597 25.3488H92.0477C91.4489 25.3488 91.0814 26.3877 91.0133 26.5975C90.9512 26.7896 90.903 26.9861 90.8689 27.1856C90.6439 27.1915 89.5785 27.1856 89.5785 27.1856C89.6275 27.0703 89.6526 26.9456 89.6523 26.8197V25.4997H89.1303V26.8197C89.1303 26.9174 89.0929 27.0111 89.0262 27.0803C88.9595 27.1494 88.8691 27.1882 88.7748 27.1882H88.4596C88.3654 27.188 88.275 27.1491 88.2084 27.0801C88.1417 27.011 88.1042 26.9174 88.1041 26.8197V25.4997H87.5827V26.8197C87.5826 26.9174 87.5451 27.011 87.4784 27.0801C87.4118 27.1491 87.3215 27.188 87.2272 27.1882H82.7811C82.6869 27.188 82.5965 27.1491 82.5299 27.0801C82.4633 27.011 82.4258 26.9174 82.4256 26.8197V24.8215H81.9049V25.0828C81.662 25.1579 81.4244 25.2503 81.1938 25.3592C80.9557 25.4359 80.738 25.5685 80.5576 25.7468C80.3771 25.9251 80.2389 26.1442 80.1537 26.3871C80.1331 26.4791 80.1347 26.575 80.1584 26.6662C80.1822 26.7574 80.2274 26.8411 80.2899 26.9098C80.4428 27.0345 80.6182 27.1264 80.8057 27.1802C80.9933 27.2339 81.1893 27.2484 81.3823 27.2228C81.5805 27.2213 81.7784 27.2071 81.9749 27.1804C82.0425 27.3442 82.1549 27.4839 82.2983 27.5822C82.4418 27.6804 82.6098 27.7329 82.7818 27.7332H87.2247C87.3885 27.5645 87.61 27.4698 87.8409 27.4698C88.0718 27.4698 88.2933 27.5645 88.4571 27.7332H88.7723C88.9964 27.733 89.2119 27.6437 89.3743 27.4836V27.7279C89.3743 27.7279 90.6237 27.7338 90.8204 27.7279C90.7996 27.9864 90.8574 28.2452 90.9857 28.4678C91.114 28.6905 91.3064 28.8659 91.5359 28.9695C91.6837 29.0312 91.8417 29.0625 92.0011 29.0616C92.1949 29.072 92.3879 29.0277 92.5593 28.9333C92.7307 28.839 92.8742 28.6981 92.9744 28.5258C93.0336 28.3956 93.0547 28.2503 93.0351 28.1078C93.0155 27.9653 92.956 27.8319 92.8641 27.724H94.1368C94.3695 27.7238 94.5926 27.628 94.7571 27.4574C94.9216 27.2869 95.0141 27.0556 95.0143 26.8144V23.757H94.4924V26.8197H94.4955ZM80.6693 26.5341C80.663 26.5276 80.6593 26.5237 80.6649 26.4929C80.728 26.1662 81.3634 25.831 81.9049 25.6435V26.6367C81.492 26.7249 81.0633 26.6897 80.6693 26.5341ZM91.5069 26.77C91.5786 26.4193 91.7694 26.107 92.0446 25.8898C92.212 26.0417 92.3153 26.2557 92.332 26.4858C92.3548 26.5407 92.3636 26.6008 92.3576 26.6602C92.3516 26.7197 92.3311 26.7766 92.298 26.8255C92.0444 27.0396 91.7267 27.1552 91.3997 27.1523C91.4291 27.0226 91.4649 26.8946 91.5069 26.7687V26.77ZM92.5079 28.2951C92.4143 28.406 92.2891 28.4832 92.1504 28.5155C92.0117 28.5478 91.8667 28.5336 91.7363 28.4748C91.6009 28.4056 91.4897 28.2945 91.4179 28.1568C91.3462 28.0191 91.3176 27.8617 91.336 27.7064C91.6128 27.6865 91.8862 27.6312 92.1499 27.5417L92.0477 27.7286C92.1717 27.7613 92.2827 27.8334 92.3653 27.9347C92.4478 28.0361 92.4977 28.1616 92.5079 28.2938V28.2951ZM42.1215 27.6084H42.6435V23.757H42.1215V27.6084ZM40.751 26.8197C40.751 26.9173 40.7137 27.0109 40.6471 27.08C40.5806 27.1491 40.4903 27.188 40.3961 27.1882H39.368C39.3768 27.1693 39.3856 27.1503 39.3932 27.13C39.521 26.7326 39.4934 26.2991 39.3163 25.9225C39.247 25.7418 39.1296 25.5853 38.9776 25.4713C38.8257 25.3573 38.6456 25.2906 38.4583 25.2789H38.4533C38.2625 25.2905 38.0789 25.3582 37.9238 25.4738C37.7686 25.5895 37.6484 25.7485 37.5771 25.9323C37.4941 26.114 37.4231 26.3013 37.3646 26.4929C37.2032 26.9856 37.1371 27.1902 36.6151 27.1902H36.1108C36.0509 26.7744 35.8987 26.3787 35.666 26.0344C35.4333 25.6901 35.1265 25.4066 34.77 25.2063L34.5298 25.6866C34.8006 25.8425 35.0354 26.0577 35.2178 26.3173C35.4001 26.5768 35.5257 26.8745 35.5857 27.1895H33.9543V27.7306H36.6145C36.9029 27.7494 37.1883 27.6599 37.4182 27.4783C37.7176 27.6542 38.0576 27.7421 38.4016 27.7325C38.567 27.7372 38.7319 27.712 38.8889 27.658C38.9181 27.6463 38.9468 27.633 38.9746 27.6182V27.7325H40.3955C40.6281 27.7322 40.851 27.6362 41.0154 27.4657C41.1798 27.2952 41.2722 27.064 41.2724 26.8229V23.757H40.7504V26.8197H40.751ZM38.9084 26.9314C38.8914 26.9813 38.864 27.0267 38.8283 27.0645C38.7926 27.1023 38.7494 27.1315 38.7017 27.1503C38.3722 27.2219 38.0292 27.1818 37.7233 27.0359C37.7745 26.914 37.8198 26.7895 37.8589 26.6628C37.9101 26.494 37.9722 26.329 38.0448 26.1688C38.0758 26.0776 38.1302 25.9969 38.2022 25.9354C38.2742 25.8739 38.361 25.834 38.4533 25.8199C38.5423 25.8326 38.626 25.8708 38.6951 25.9303C38.7642 25.9898 38.8158 26.0681 38.8441 26.1564C38.9581 26.397 38.9804 26.6733 38.9065 26.9301L38.9084 26.9314ZM69.4977 25.2808H69.4933C69.3025 25.2925 69.1189 25.3601 68.9638 25.4758C68.8086 25.5915 68.6884 25.7505 68.6171 25.9343C68.5339 26.1157 68.4627 26.3028 68.404 26.4943C68.2433 26.9869 68.1764 27.1908 67.6551 27.1908H65.5282C65.434 27.1906 65.3436 27.1518 65.277 27.0827C65.2103 27.0136 65.1728 26.92 65.1727 26.8223V24.8215H64.6507V25.0828C64.4081 25.158 64.1707 25.2504 63.9403 25.3592C63.7022 25.4359 63.4844 25.5685 63.304 25.7468C63.1236 25.9251 62.9853 26.1442 62.9001 26.3871C62.8793 26.4791 62.8809 26.575 62.9046 26.6663C62.9284 26.7575 62.9737 26.8412 63.0363 26.9098C63.1891 27.0345 63.3644 27.1264 63.5518 27.1801C63.7393 27.2339 63.9352 27.2484 64.1281 27.2228C64.3265 27.2214 64.5246 27.2072 64.7213 27.1804C64.7889 27.3442 64.9014 27.4839 65.0448 27.5822C65.1882 27.6804 65.3563 27.7329 65.5282 27.7332H67.652C67.9408 27.7524 68.2265 27.6625 68.4563 27.4803C68.9068 27.7315 69.4325 27.796 69.927 27.6606C70.0419 27.6154 70.1463 27.5454 70.2332 27.4553C70.3201 27.3652 70.3877 27.257 70.4313 27.1379C70.5593 26.7405 70.5319 26.307 70.355 25.9303C70.2869 25.7484 70.17 25.5905 70.0181 25.4751C69.8662 25.3598 69.6856 25.292 69.4977 25.2795V25.2808ZM63.4152 26.5348C63.4095 26.5282 63.4051 26.5243 63.4114 26.4936C63.4744 26.1669 64.1092 25.8317 64.6507 25.6441V26.6374C64.2377 26.7253 63.8091 26.6893 63.4152 26.5335V26.5348ZM69.9478 26.9327C69.9309 26.9827 69.9036 27.0283 69.8679 27.0662C69.8322 27.1041 69.7889 27.1335 69.741 27.1523C69.4116 27.224 69.0686 27.1841 68.7627 27.0386C68.8139 26.9166 68.8591 26.7921 68.8982 26.6655C68.9505 26.4964 69.0137 26.3311 69.0873 26.1708C69.1182 26.0795 69.1726 25.9988 69.2446 25.9373C69.3166 25.8758 69.4035 25.8358 69.4958 25.8219C69.5848 25.8345 69.6685 25.8728 69.7376 25.9323C69.8067 25.9917 69.8583 26.0701 69.8867 26.1584C70.0001 26.3989 70.0219 26.6749 69.9478 26.9314V26.9327ZM60.8211 26.8197C60.821 26.9174 60.7835 27.011 60.7168 27.0801C60.6502 27.1491 60.5599 27.188 60.4656 27.1882H60.1466C60.0524 27.188 59.962 27.1491 59.8954 27.0801C59.8288 27.011 59.7913 26.9174 59.7911 26.8197V23.757H59.2679V26.8197C59.2677 26.9174 59.2302 27.011 59.1636 27.0801C59.0969 27.1491 59.0066 27.188 58.9123 27.1882H58.1647C58.1863 26.8999 58.1496 26.6101 58.0567 26.3375C57.9639 26.0648 57.8171 25.8153 57.6257 25.6049C57.1271 25.1782 56.4532 25.4474 55.9722 25.7559C55.6919 25.9405 55.4315 26.1558 55.1956 26.3982V23.7583H54.6737V27.1882H52.5304C52.5803 27.0722 52.6061 26.9467 52.606 26.8197V25.4997H52.0847V26.8197C52.0845 26.9174 52.047 27.011 51.9804 27.0801C51.9137 27.1491 51.8234 27.188 51.7291 27.1882H50.6317C50.5374 27.188 50.4471 27.1491 50.3804 27.0801C50.3138 27.011 50.2763 26.9174 50.2761 26.8197V25.4997H49.7542V27.6038C49.7542 27.8031 49.6778 27.9943 49.5419 28.1354C49.4059 28.2764 49.2216 28.3557 49.0292 28.3559V28.8976C49.3521 28.8971 49.6622 28.7671 49.8945 28.5348C50.1269 28.3025 50.2634 27.9859 50.2755 27.6515C50.3876 27.7033 50.5089 27.73 50.6317 27.7299H51.7329C51.9027 27.7301 52.0688 27.6787 52.2108 27.5822V27.7299H58.9142C59.078 27.5612 59.2995 27.4666 59.5304 27.4666C59.7613 27.4666 59.9828 27.5612 60.1466 27.7299H60.4656C60.6982 27.7296 60.9211 27.6336 61.0855 27.4631C61.2499 27.2925 61.3423 27.0614 61.3425 26.8203V23.757H60.8211V26.8197ZM55.1975 26.9909C55.4148 26.7726 55.65 26.5743 55.9004 26.3982C56.1771 26.177 56.497 26.0209 56.8378 25.9408C56.9803 25.9067 57.1301 25.9318 57.2551 26.0107C57.3565 26.094 57.4335 26.2048 57.4776 26.3309C57.5769 26.6057 57.6301 26.8961 57.6352 27.1895H55.1975V26.9935V26.9909ZM32.8127 26.8197C32.8125 26.9174 32.775 27.011 32.7083 27.0801C32.6417 27.1491 32.5514 27.188 32.4571 27.1882H32.2245C32.1281 27.1895 32.035 27.1517 31.965 27.0828C31.8951 27.014 31.8538 26.9196 31.8501 26.8197V26.1009C31.8529 25.9974 31.8329 25.8946 31.7915 25.8003C31.75 25.7061 31.6884 25.6229 31.6111 25.5572C31.5123 25.4831 31.3988 25.4329 31.2788 25.4102C31.1587 25.3876 31.0354 25.3932 30.9177 25.4265C30.6905 25.4727 30.4848 25.5964 30.3332 25.7778C30.1816 25.9592 30.0929 26.1879 30.0812 26.4276V27.6691C30.0728 27.7357 30.0456 27.7982 30.0031 27.8489C29.9606 27.8995 29.9047 27.9361 29.8423 27.954C29.624 28.0346 29.3888 28.0528 29.1613 28.0068C28.9339 27.9608 28.7225 27.8523 28.5494 27.6927C28.3765 27.476 28.2712 27.21 28.2475 26.9299C28.2239 26.6498 28.283 26.3689 28.417 26.1244L27.9303 25.9284C27.4859 27.1314 27.9007 27.7926 28.1869 28.0795C28.5213 28.4003 28.9618 28.5755 29.4174 28.5689C29.6333 28.5717 29.8476 28.5299 30.0478 28.4461C30.2068 28.3902 30.3454 28.285 30.4449 28.1447C30.5443 28.0045 30.5998 27.8359 30.6038 27.6619V26.4276C30.6144 26.3094 30.6627 26.1983 30.741 26.1117C30.8193 26.0251 30.9232 25.9679 31.0362 25.9493C31.0777 25.9351 31.1216 25.9302 31.1651 25.9348C31.2085 25.9394 31.2505 25.9535 31.2884 25.9761C31.3045 25.9909 31.3167 26.0097 31.3241 26.0307C31.3314 26.0517 31.3337 26.0742 31.3306 26.0963V26.8151C31.3362 27.0579 31.433 27.2888 31.6005 27.4587C31.7679 27.6286 31.9927 27.7241 32.227 27.7247H32.459C32.6917 27.7245 32.9148 27.6286 33.0793 27.4581C33.2438 27.2875 33.3363 27.0563 33.3365 26.8151V25.4951H32.8145V26.8197H32.8127ZM46.9691 27.6691C46.9608 27.7356 46.9338 27.7981 46.8914 27.8488C46.849 27.8995 46.7932 27.9361 46.7308 27.954C46.5124 28.0346 46.2771 28.0529 46.0496 28.0069C45.822 27.9609 45.6105 27.8524 45.4373 27.6927C45.2645 27.4759 45.1594 27.2099 45.1359 26.9298C45.1124 26.6497 45.1716 26.3688 45.3056 26.1244L44.8183 25.9284C44.377 27.1314 44.7886 27.7926 45.0755 28.0795C45.4096 28.4002 45.85 28.5755 46.3053 28.5689C46.5212 28.5717 46.7355 28.5299 46.9357 28.4461C47.0948 28.3903 47.2336 28.2851 47.3332 28.1449C47.4327 28.0046 47.4883 27.836 47.4923 27.6619V25.4925H46.9691V27.6691ZM76.9034 26.8197C76.9034 26.9171 76.8662 27.0105 76.8 27.0796C76.7337 27.1486 76.6438 27.1877 76.5498 27.1882H76.3607C75.9242 27.2032 75.4876 27.1624 75.0608 27.0667L75.0999 27.0327C75.2729 26.8997 75.4146 26.728 75.5146 26.5304C75.6146 26.3327 75.6702 26.1142 75.6773 25.8911C75.6512 25.7624 75.591 25.6437 75.5035 25.5484C75.416 25.453 75.3046 25.3848 75.1819 25.3514L75.1535 25.3396L75.1245 25.3357C74.6566 25.274 74.1833 25.2694 73.7143 25.322H73.6841L73.6557 25.3324C73.5518 25.3613 73.4574 25.4187 73.3823 25.4985C73.3072 25.5783 73.2542 25.6776 73.2289 25.7859C73.2345 26.0181 73.2888 26.2462 73.3881 26.4545C73.4874 26.6627 73.6293 26.8459 73.8039 26.9915C73.8354 27.0235 73.8669 27.0569 73.9035 27.085C73.584 27.1598 73.2568 27.1929 72.9295 27.1836H72.1642C72.07 27.1835 71.9798 27.1445 71.9132 27.0755C71.8467 27.0064 71.8093 26.9127 71.8093 26.8151V23.757H71.2874V26.8197C71.2877 27.0607 71.3802 27.2917 71.5445 27.4622C71.7089 27.6327 71.9317 27.7287 72.1642 27.7292H72.9301C73.4649 27.7585 73.9991 27.6613 74.4922 27.445C75.092 27.6644 75.7273 27.7607 76.3626 27.7286H76.5517C76.7831 27.7267 77.0045 27.6301 77.1677 27.4599C77.3308 27.2897 77.4226 27.0596 77.4229 26.8197V23.757H76.9009V26.8197H76.9034ZM74.7601 26.6191C74.6689 26.6998 74.5719 26.7734 74.4702 26.8393C74.3595 26.7766 74.2573 26.6991 74.1663 26.6086C73.95 26.4326 73.7983 26.1852 73.7364 25.9075C73.7509 25.8834 73.7733 25.8655 73.7994 25.8572C74.2069 25.8142 74.6177 25.8184 75.0243 25.8696C75.0537 25.8773 75.0811 25.8918 75.1044 25.9119C75.1278 25.932 75.1465 25.9573 75.1592 25.9859C75.1105 26.2419 74.9679 26.4684 74.7614 26.6178L74.7601 26.6191Z" fill="#0175CA"/>
<path fill-rule="evenodd" clip-rule="evenodd" d="M27.6939 32.221C27.6939 31.1343 28.2461 30.4109 29.0808 30.4109C29.3124 30.4093 29.5392 30.4793 29.7323 30.612C29.9253 30.7447 30.0757 30.934 30.1644 31.1559L29.7049 31.3754C29.6543 31.2456 29.5684 31.134 29.4575 31.0541C29.3467 30.9743 29.2157 30.9297 29.0808 30.9258C28.5954 30.9258 28.2688 31.4244 28.2688 32.221C28.2688 33.0175 28.5954 33.5187 29.0808 33.5187C29.187 33.5197 29.2922 33.4978 29.3899 33.4545C29.4875 33.4112 29.5754 33.3474 29.6481 33.2671V32.6137H28.9326V32.1066H30.1852V33.4965C30.0525 33.6674 29.8843 33.8049 29.693 33.8987C29.5017 33.9925 29.2924 34.0402 29.0808 34.0382C28.243 34.0382 27.6939 33.3017 27.6939 32.221ZM30.7198 32.6999C30.6992 32.5396 30.7108 32.3766 30.7538 32.2211C30.7967 32.0656 30.8702 31.921 30.9695 31.7962C31.0688 31.6715 31.1919 31.5694 31.3311 31.4962C31.4702 31.423 31.6224 31.3803 31.7782 31.3708C32.4476 31.3708 32.8057 31.953 32.8057 32.7215V32.8737H31.2367C31.23 32.9661 31.2416 33.059 31.2708 33.1465C31.3 33.2341 31.3462 33.3145 31.4066 33.3828C31.467 33.4512 31.5402 33.506 31.6218 33.5438C31.7034 33.5817 31.7916 33.6018 31.8809 33.603C31.9867 33.6 32.0907 33.5743 32.1864 33.5275C32.2821 33.4807 32.3674 33.4138 32.4369 33.3311L32.684 33.6441C32.5215 33.8292 32.3062 33.9558 32.0695 34.0053C31.8328 34.0548 31.587 34.0248 31.3679 33.9195C31.1488 33.8143 30.9678 33.6393 30.8512 33.4201C30.7347 33.2009 30.6886 32.9481 30.7198 32.6999ZM31.7738 31.7962C31.6128 31.8174 31.4662 31.9027 31.365 32.0341C31.2637 32.1655 31.2159 32.3326 31.2316 32.5H32.3096C32.3208 32.417 32.3156 32.3326 32.2945 32.2517C32.2733 32.1709 32.2366 32.0953 32.1866 32.0296C32.1365 31.9638 32.0741 31.9092 32.0032 31.8691C31.9322 31.829 31.8542 31.8042 31.7738 31.7962ZM34.7334 33.9709V32.2432C34.7442 32.1909 34.7429 32.1367 34.7296 32.085C34.7164 32.0333 34.6915 31.9856 34.6571 31.9457C34.6227 31.9058 34.5797 31.875 34.5316 31.8556C34.4836 31.8362 34.4317 31.8288 34.3804 31.8341C34.274 31.8421 34.1714 31.8788 34.083 31.9406C33.9945 32.0023 33.9231 32.0871 33.8761 32.1863V33.9715H33.3655V31.4362H33.8761V31.7753C33.9572 31.6551 34.0642 31.5561 34.1886 31.4861C34.313 31.4161 34.4514 31.3771 34.5928 31.3721C34.6819 31.3609 34.7723 31.3711 34.857 31.402C34.9416 31.4329 35.0182 31.4836 35.0809 31.5501C35.1436 31.6167 35.1907 31.6973 35.2184 31.7858C35.2461 31.8743 35.2538 31.9682 35.2409 32.0602V33.9722H34.7303L34.7334 33.9709ZM35.8277 32.7006C35.8072 32.5403 35.8187 32.3774 35.8616 32.222C35.9045 32.0666 35.9779 31.9221 36.077 31.7974C36.1762 31.6726 36.2992 31.5705 36.4382 31.4972C36.5772 31.4239 36.7292 31.3811 36.8849 31.3715C37.555 31.3715 37.9137 31.9537 37.9137 32.7221V32.8744H36.3434C36.3369 32.9667 36.3486 33.0595 36.3779 33.147C36.4072 33.2345 36.4534 33.3148 36.5137 33.3831C36.5741 33.4514 36.6472 33.5062 36.7287 33.5441C36.8102 33.582 36.8983 33.6023 36.9876 33.6036C37.0935 33.6008 37.1977 33.5751 37.2935 33.5283C37.3893 33.4815 37.4747 33.4146 37.5443 33.3318L37.7901 33.6448C37.6283 33.8313 37.413 33.9592 37.1758 34.0095C36.9387 34.0599 36.6923 34.03 36.4727 33.9245C36.2531 33.8189 36.072 33.6431 35.9559 33.4229C35.8398 33.2028 35.7949 32.9492 35.8277 32.7006ZM36.8805 31.7969C36.7195 31.8179 36.5728 31.9032 36.4717 32.0346C36.3705 32.1661 36.3229 32.3333 36.339 32.5006H37.4176C37.4287 32.4176 37.4236 32.333 37.4023 32.2521C37.3811 32.1712 37.3443 32.0956 37.2941 32.0298C37.2439 31.964 37.1814 31.9095 37.1103 31.8694C37.0392 31.8294 36.961 31.8047 36.8805 31.7969ZM38.476 33.9715V31.4362H38.9866V31.8073C39.0563 31.6824 39.155 31.5776 39.2738 31.5023C39.3926 31.4271 39.5277 31.3839 39.6668 31.3767V31.8995C39.6231 31.8895 39.5785 31.8845 39.5338 31.8844C39.422 31.8927 39.3139 31.9288 39.2186 31.9898C39.1234 32.0508 39.0437 32.1348 38.9866 32.2347V33.9735H38.476V33.9715ZM41.4312 33.9715V33.7128C41.3541 33.8145 41.2553 33.8962 41.1425 33.9516C41.0297 34.0069 40.9061 34.0343 40.7813 34.0316C40.6768 34.032 40.5734 34.0098 40.4776 33.9667C40.3818 33.9235 40.2956 33.8603 40.2245 33.7809C40.1535 33.7015 40.099 33.6078 40.0647 33.5055C40.0303 33.4032 40.0167 33.2947 40.0248 33.1867C40.0163 33.0797 40.0298 32.972 40.0642 32.8708C40.0987 32.7695 40.1535 32.677 40.225 32.5992C40.2964 32.5215 40.3829 32.4603 40.4788 32.4196C40.5747 32.379 40.6778 32.3598 40.7813 32.3634C40.9048 32.3586 41.0278 32.3834 41.1405 32.436C41.2533 32.4886 41.3528 32.5675 41.4312 32.6666V32.2994C41.4367 32.2332 41.4279 32.1665 41.4055 32.1042C41.383 32.042 41.3475 31.9857 41.3014 31.9395C41.2554 31.8932 41.2 31.8582 41.1392 31.8369C41.0785 31.8157 41.0139 31.8087 40.9502 31.8165C40.8343 31.8179 40.7199 31.8444 40.6144 31.8943C40.5089 31.9441 40.4146 32.0162 40.3375 32.106L40.1377 31.7374C40.3804 31.4961 40.7053 31.3638 41.0416 31.3695C41.1581 31.3513 41.2771 31.3606 41.3896 31.3967C41.5021 31.4329 41.6053 31.495 41.6914 31.5783C41.7775 31.6617 41.8443 31.7641 41.8868 31.878C41.9293 31.9919 41.9464 32.1143 41.9368 32.236V33.9696H41.4325L41.4312 33.9715ZM41.4312 33.3926V33.0083C41.3843 32.9231 41.3166 32.8521 41.235 32.8024C41.1534 32.7526 41.0607 32.7259 40.966 32.7248C40.8501 32.7325 40.7414 32.7857 40.662 32.8735C40.5825 32.9613 40.5384 33.0771 40.5384 33.1975C40.5384 33.3179 40.5825 33.4337 40.662 33.5216C40.7414 33.6094 40.8501 33.6625 40.966 33.6703C41.0601 33.6689 41.1523 33.6426 41.2337 33.5937C41.3152 33.5449 41.3832 33.4752 41.4312 33.3913M42.6422 30.4678H43.1534V33.9702H42.6422V30.4678ZM46.8556 33.9702L46.6716 33.2769H45.5514L45.3673 33.9702H44.754L45.7708 30.4678H46.4503L47.4677 33.9702H46.8556ZM46.1131 31.0886L45.6718 32.7627H46.5619L46.1131 31.0886ZM49.2177 33.9702V33.6343C49.1364 33.7552 49.0285 33.8542 48.903 33.9234C48.7776 33.9926 48.638 34.0299 48.4959 34.0323C48.4074 34.0441 48.3174 34.0345 48.233 34.0042C48.1487 33.9739 48.0723 33.9237 48.0098 33.8576C47.9474 33.7914 47.9006 33.7112 47.8731 33.6231C47.8457 33.5351 47.8383 33.4416 47.8517 33.3501V31.4342H48.3623V33.1671C48.3521 33.2191 48.3538 33.2727 48.3674 33.3238C48.381 33.3749 48.4059 33.422 48.4403 33.4612C48.4747 33.5004 48.5175 33.5306 48.5653 33.5495C48.6131 33.5683 48.6644 33.5752 48.7153 33.5696C48.8206 33.5611 48.9222 33.525 49.0104 33.4646C49.0986 33.4043 49.1706 33.3217 49.2196 33.2246V31.4342H49.7308V33.9696H49.2196L49.2177 33.9702ZM50.5257 33.4024V31.8897H50.2036V31.4323H50.5257V30.7403H51.037V31.4336H51.4467V31.891H51.037V33.2932C51.037 33.4671 51.0931 33.571 51.2261 33.571C51.2624 33.5722 51.2985 33.5654 51.332 33.5508C51.3656 33.5363 51.3957 33.5144 51.4203 33.4867L51.5425 33.8787C51.4204 33.9873 51.2618 34.0415 51.1013 34.0297C51.0208 34.0391 50.9392 34.029 50.8631 34.0001C50.787 33.9713 50.7185 33.9244 50.6629 33.8632C50.6074 33.8021 50.5663 33.7284 50.5431 33.6479C50.5198 33.5675 50.515 33.4825 50.5289 33.3998M53.3561 33.9676V32.2314C53.3657 32.1793 53.3633 32.1255 53.3491 32.0745C53.3349 32.0235 53.3092 31.9767 53.2743 31.9378C53.2394 31.899 53.1961 31.8693 53.148 31.851C53.0999 31.8328 53.0483 31.8265 52.9975 31.8328C52.8922 31.8428 52.7911 31.8804 52.7036 31.942C52.6162 32.0036 52.5453 32.0872 52.4976 32.185V33.9702H51.9857V30.4678H52.4976V31.7747C52.5794 31.6543 52.6871 31.5552 52.8121 31.4852C52.9371 31.4153 53.0761 31.3763 53.2181 31.3715C53.3067 31.3592 53.3969 31.3686 53.4815 31.3987C53.566 31.4289 53.6426 31.4791 53.7052 31.5453C53.7678 31.6115 53.8147 31.6919 53.842 31.7802C53.8694 31.8684 53.8766 31.9621 53.863 32.0537V33.9715H53.3587L53.3561 33.9676ZM54.4461 32.6973C54.4839 32.4871 54.5787 32.2924 54.7194 32.136C54.8602 31.9795 55.0409 31.8679 55.2406 31.8141C55.4403 31.7603 55.6506 31.7666 55.847 31.8322C56.0434 31.8978 56.2176 32.02 56.3494 32.1846C56.4812 32.3491 56.5651 32.5492 56.5912 32.7613C56.6173 32.9734 56.5846 33.1889 56.4969 33.3825C56.4092 33.5761 56.2701 33.7397 56.0959 33.8543C55.9217 33.9689 55.7196 34.0298 55.5133 34.0297C55.3562 34.0221 55.2024 33.9807 55.0617 33.9081C54.9209 33.8354 54.7963 33.7331 54.6959 33.6077C54.5955 33.4823 54.5214 33.3366 54.4783 33.1798C54.4353 33.0231 54.4243 32.8587 54.4461 32.6973ZM56.0554 32.6973C56.0114 32.5965 55.9419 32.5098 55.8544 32.4464C55.7668 32.383 55.6644 32.3452 55.5579 32.337C55.4514 32.3288 55.3447 32.3505 55.2491 32.3998C55.1535 32.4492 55.0724 32.5243 55.0145 32.6173C54.9566 32.7103 54.9239 32.8177 54.9199 32.9284C54.9159 33.039 54.9407 33.1487 54.9917 33.246C55.0428 33.3432 55.1182 33.4244 55.2099 33.481C55.3017 33.5376 55.4065 33.5676 55.5133 33.5677C55.6049 33.5492 55.6919 33.5117 55.7692 33.4574C55.8465 33.4032 55.9124 33.3334 55.9631 33.2521C56.0137 33.1708 56.048 33.0798 56.0638 32.9845C56.0797 32.8891 56.0769 32.7915 56.0554 32.6973ZM57.1649 33.9676V31.4323H57.6762V31.8034C57.7457 31.6784 57.8444 31.5734 57.9633 31.4982C58.0821 31.423 58.2173 31.3798 58.3563 31.3728V31.8955C58.3125 31.8855 58.2676 31.8805 58.2227 31.8805C58.1111 31.8889 58.0031 31.9251 57.9079 31.9861C57.8128 32.047 57.7332 32.131 57.6762 32.2308V33.9696H57.1624L57.1649 33.9676ZM58.7755 30.7854C58.7764 30.6973 58.8106 30.6131 58.8709 30.5511C58.9313 30.4891 59.0127 30.4542 59.0977 30.4541C59.1595 30.4555 59.2196 30.4757 59.2704 30.5123C59.3212 30.5488 59.3605 30.6001 59.3834 30.6596C59.4064 30.7192 59.4119 30.7844 59.3993 30.8472C59.3867 30.9099 59.3566 30.9675 59.3127 31.0126C59.2688 31.0578 59.213 31.0886 59.1524 31.1011C59.0917 31.1137 59.0288 31.1074 58.9716 31.0832C58.9143 31.059 58.8652 31.0178 58.8303 30.9648C58.7955 30.9119 58.7764 30.8495 58.7755 30.7854ZM58.8386 31.4316H59.3498V33.9669H58.8386V31.4316ZM60.1479 33.3991V31.8897H59.8258V31.4323H60.1504V30.7403H60.6616V31.4336H61.0708V31.891H60.6616V33.2932C60.6616 33.4671 60.719 33.571 60.8508 33.571C60.8871 33.572 60.9233 33.5651 60.9569 33.5505C60.9905 33.536 61.0207 33.5142 61.0455 33.4867L61.1678 33.8787C61.0455 33.9871 60.8871 34.0413 60.7266 34.0297C60.646 34.0394 60.5643 34.0294 60.488 34.0006C60.4118 33.9718 60.3431 33.925 60.2873 33.8638C60.2316 33.8027 60.1905 33.7289 60.1671 33.6483C60.1438 33.5677 60.1389 33.4826 60.1529 33.3998M61.5996 34.4969C61.6506 34.5221 61.7064 34.5351 61.7629 34.5348C61.8264 34.5409 61.8899 34.5228 61.9415 34.484C61.9931 34.4451 62.0293 34.3882 62.0434 34.3237L62.1468 34.0205L61.3185 31.4329H61.8613L62.4078 33.3377L62.96 31.4329H63.5015L62.5257 34.4453C62.4905 34.6132 62.3972 34.762 62.2634 34.8635C62.1296 34.965 61.9646 35.0121 61.7995 34.9961C61.7066 34.9954 61.6142 34.9833 61.524 34.9602L61.5996 34.4969ZM64.9741 32.6973C65.0119 32.4871 65.1067 32.2924 65.2474 32.136C65.3881 31.9796 65.5688 31.868 65.7685 31.8142C65.9681 31.7603 66.1784 31.7666 66.3748 31.8321C66.5711 31.8977 66.7454 32.0198 66.8772 32.1843C67.0091 32.3488 67.093 32.5488 67.1192 32.7609C67.1454 32.973 67.1127 33.1885 67.0251 33.382C66.9375 33.5756 66.7985 33.7393 66.6244 33.854C66.4503 33.9687 66.2482 34.0296 66.0419 34.0297C65.8849 34.022 65.7311 33.9806 65.5904 33.9079C65.4496 33.8352 65.3251 33.7329 65.2246 33.6076C65.1241 33.4822 65.05 33.3365 65.0068 33.1798C64.9637 33.0231 64.9525 32.8588 64.9741 32.6973ZM66.5841 32.6973C66.54 32.5965 66.4706 32.5098 66.383 32.4464C66.2955 32.383 66.193 32.3452 66.0865 32.337C65.98 32.3288 65.8734 32.3505 65.7778 32.3998C65.6821 32.4492 65.6011 32.5243 65.5432 32.6173C65.4852 32.7103 65.4525 32.8177 65.4485 32.9284C65.4445 33.039 65.4694 33.1487 65.5204 33.246C65.5714 33.3432 65.6468 33.4244 65.7386 33.481C65.8303 33.5376 65.9351 33.5676 66.0419 33.5677C66.1335 33.5492 66.2206 33.5117 66.2979 33.4574C66.3752 33.4032 66.4411 33.3334 66.4917 33.2521C66.5423 33.1708 66.5766 33.0798 66.5925 32.9845C66.6083 32.8891 66.6055 32.7915 66.5841 32.6973ZM67.7957 33.9676V31.8897H67.4742V31.4323H67.7957V31.1977C67.7832 31.0972 67.792 30.9951 67.8216 30.8986C67.8511 30.802 67.9006 30.7133 67.9666 30.6386C68.0327 30.564 68.1136 30.5051 68.2039 30.4663C68.2941 30.4274 68.3915 30.4094 68.4891 30.4135C68.6707 30.4059 68.8482 30.4707 68.9852 30.5946L68.8112 30.9605C68.7822 30.9272 68.7466 30.9006 68.707 30.8824C68.6673 30.8643 68.6245 30.8551 68.5811 30.8553C68.5398 30.8544 68.4989 30.8632 68.4613 30.881C68.4237 30.8987 68.3904 30.925 68.3639 30.9579C68.3374 30.9907 68.3184 31.0293 68.3082 31.0708C68.298 31.1123 68.2969 31.1557 68.305 31.1977V31.4336H68.7135V31.891H68.305V33.9709H67.7906L67.7957 33.9676ZM70.2813 32.2183C70.2813 31.1643 70.8171 30.4083 71.6719 30.4083C71.9059 30.4083 72.1344 30.4821 72.327 30.6199C72.5195 30.7578 72.667 30.9532 72.7499 31.18L72.2796 31.3944C72.2357 31.2616 72.1542 31.1457 72.0458 31.0617C71.9374 30.9777 71.8071 30.9294 71.6719 30.9232C71.1676 30.9232 70.8587 31.4682 70.8587 32.2183C70.8587 32.9685 71.1701 33.5108 71.6719 33.5108C71.8133 33.5026 71.9485 33.4484 72.0585 33.356C72.1685 33.2636 72.2476 33.1376 72.2846 32.9959L72.7549 33.2122C72.6792 33.4486 72.5341 33.6545 72.3399 33.8011C72.1457 33.9477 71.9121 34.0276 71.6719 34.0297C70.8171 34.0297 70.2813 33.2691 70.2813 32.2183ZM73.2144 30.7854C73.2156 30.6973 73.2501 30.6132 73.3104 30.5513C73.3708 30.4893 73.4522 30.4544 73.5372 30.4541C73.6214 30.4541 73.7021 30.4887 73.7616 30.5504C73.8211 30.6121 73.8546 30.6958 73.8546 30.7831C73.8546 30.8703 73.8211 30.954 73.7616 31.0157C73.7021 31.0774 73.6214 31.1121 73.5372 31.1121C73.4529 31.1121 73.3719 31.0779 73.3116 31.0169C73.2513 30.9558 73.2164 30.8727 73.2144 30.7854ZM73.2819 31.4316H73.7931V33.9669H73.2819V31.4316ZM75.0198 33.9669L74.2066 31.4316H74.7494L75.296 33.3423L75.8476 31.4316H76.3897L75.5702 33.9669H75.0148H75.0198ZM76.7326 30.7847C76.7334 30.6967 76.7677 30.6125 76.828 30.5505C76.8883 30.4885 76.9698 30.4536 77.0547 30.4534C77.1166 30.4548 77.1766 30.4751 77.2274 30.5116C77.2783 30.5482 77.3176 30.5994 77.3405 30.659C77.3634 30.7185 77.3689 30.7837 77.3564 30.8465C77.3438 30.9093 77.3137 30.9668 77.2698 31.012C77.2259 31.0571 77.1701 31.0879 77.1094 31.1005C77.0488 31.113 76.9859 31.1068 76.9286 31.0825C76.8714 31.0583 76.8223 31.0172 76.7874 30.9642C76.7525 30.9112 76.7335 30.8488 76.7326 30.7847ZM76.8 31.431H77.31V33.9663H76.7925V31.431H76.8ZM78.016 30.4639H78.5273V33.9663H78.016V30.4639ZM82.2283 33.9663L82.0442 33.273H80.924L80.7406 33.9663H80.1278L81.1446 30.4639H81.8242L82.8416 33.9663H82.2283ZM81.4863 31.0846L81.045 32.7587H81.9345L81.4863 31.0846ZM83.7053 33.9663L82.8933 31.431H83.4348L83.9788 33.3449L84.5298 31.4342H85.0732L84.2537 33.9696H83.7008L83.7053 33.9663ZM85.4186 30.784C85.4198 30.696 85.4543 30.6119 85.5146 30.55C85.575 30.488 85.6564 30.4531 85.7414 30.4528C85.8032 30.4543 85.8632 30.4747 85.9139 30.5113C85.9647 30.5479 86.0039 30.5992 86.0267 30.6587C86.0495 30.7183 86.055 30.7835 86.0423 30.8462C86.0297 30.909 85.9995 30.9664 85.9556 31.0115C85.9116 31.0566 85.8559 31.0873 85.7952 31.0998C85.7346 31.1123 85.6718 31.1061 85.6145 31.0818C85.5573 31.0576 85.5082 31.0164 85.4734 30.9635C85.4386 30.9105 85.4195 30.8481 85.4186 30.784ZM85.4817 31.4303H85.9935V33.9656H85.4817V31.4303ZM87.9761 33.9656V33.7128C87.8991 33.8145 87.8004 33.8962 87.6877 33.9516C87.575 34.0069 87.4515 34.0343 87.3268 34.0316C87.2223 34.032 87.1189 34.0098 87.0231 33.9667C86.9273 33.9235 86.8411 33.8603 86.7701 33.7809C86.699 33.7015 86.6445 33.6078 86.6102 33.5055C86.5758 33.4032 86.5622 33.2947 86.5703 33.1867C86.5619 33.0797 86.5754 32.9721 86.61 32.8709C86.6445 32.7697 86.6993 32.6772 86.7707 32.5995C86.8421 32.5217 86.9286 32.4605 87.0244 32.4198C87.1202 32.3791 87.2233 32.3599 87.3268 32.3634C87.4503 32.3586 87.5731 32.3835 87.6857 32.4361C87.7984 32.4887 87.8977 32.5676 87.9761 32.6666V32.2994C87.9817 32.2332 87.973 32.1665 87.9506 32.1043C87.9282 32.042 87.8927 31.9857 87.8467 31.9395C87.8007 31.8932 87.7454 31.8582 87.6846 31.8369C87.6239 31.8156 87.5594 31.8086 87.4957 31.8165C87.3797 31.818 87.2653 31.8446 87.1597 31.8944C87.0541 31.9442 86.9597 32.0163 86.8824 32.106L86.6832 31.7374C86.9266 31.4963 87.2518 31.3642 87.5884 31.3695C87.7048 31.3512 87.8237 31.3605 87.9362 31.3967C88.0486 31.4328 88.1517 31.4949 88.2376 31.5783C88.3236 31.6617 88.3902 31.7642 88.4325 31.8781C88.4748 31.992 88.4916 32.1144 88.4817 32.236V33.9696H87.9773L87.9761 33.9656ZM87.9761 33.3867V33.0083C87.9296 32.923 87.8622 32.8519 87.7808 32.8021C87.6993 32.7523 87.6067 32.7256 87.5121 32.7248C87.3963 32.7325 87.2876 32.7857 87.2081 32.8735C87.1287 32.9613 87.0845 33.0771 87.0845 33.1975C87.0845 33.3179 87.1287 33.4337 87.2081 33.5216C87.2876 33.6094 87.3963 33.6625 87.5121 33.6703C87.6061 33.6692 87.6982 33.6429 87.7795 33.594C87.8608 33.5451 87.9285 33.4753 87.9761 33.3913M89.2797 33.4024V31.8897H88.9589V31.4323H89.2797V30.7403H89.7916V31.4336H90.2013V31.891H89.7916V33.2932C89.7916 33.4671 89.8483 33.571 89.9807 33.571C90.017 33.5722 90.0532 33.5654 90.0867 33.5508C90.1202 33.5363 90.1503 33.5144 90.1749 33.4867L90.2978 33.8787C90.1753 33.9868 90.017 34.0409 89.8565 34.0297C89.7759 34.0395 89.6941 34.0296 89.6178 34.0009C89.5414 33.9721 89.4726 33.9253 89.4168 33.8641C89.3611 33.8029 89.3198 33.7291 89.2965 33.6485C89.2731 33.5678 89.2682 33.4827 89.2822 33.3998M90.6735 30.786C90.6745 30.6981 90.7087 30.6142 90.7689 30.5522C90.829 30.4902 90.9102 30.4552 90.995 30.4547C91.0569 30.456 91.117 30.4761 91.1679 30.5126C91.2188 30.5491 91.2582 30.6003 91.2812 30.6598C91.3042 30.7194 91.3098 30.7846 91.2973 30.8474C91.2848 30.9102 91.2548 30.9679 91.2109 31.0131C91.167 31.0583 91.1112 31.0891 91.0506 31.1017C90.9899 31.1143 90.927 31.1081 90.8697 31.0839C90.8124 31.0597 90.7632 31.0185 90.7283 30.9656C90.6935 30.9126 90.6744 30.8501 90.6735 30.786ZM90.7397 31.4323H91.2515V33.9676H90.7397V31.4323ZM91.834 32.6973C91.8717 32.4871 91.9664 32.2923 92.1069 32.1357C92.2475 31.9791 92.4281 31.8673 92.6277 31.8132C92.8273 31.7592 93.0377 31.7651 93.2341 31.8304C93.4306 31.8956 93.6051 32.0175 93.7372 32.1818C93.8694 32.346 93.9536 32.5459 93.9802 32.7579C94.0068 32.97 93.9746 33.1855 93.8874 33.3794C93.8002 33.5732 93.6616 33.7372 93.4877 33.8524C93.3139 33.9676 93.112 34.029 92.9057 34.0297C92.7483 34.0227 92.594 33.9816 92.4528 33.9092C92.3115 33.8368 92.1865 33.7346 92.0856 33.6092C91.9847 33.4837 91.9102 33.3378 91.8669 33.1808C91.8235 33.0238 91.8124 32.8591 91.834 32.6973ZM93.444 32.6973C93.4 32.5964 93.3304 32.5097 93.2428 32.4463C93.1552 32.3829 93.0527 32.3451 92.9462 32.337C92.8396 32.3288 92.7329 32.3506 92.6373 32.4001C92.5416 32.4495 92.4606 32.5247 92.4028 32.6178C92.3449 32.7109 92.3123 32.8185 92.3084 32.9292C92.3046 33.0399 92.3296 33.1496 92.3808 33.2468C92.432 33.344 92.5075 33.4251 92.5995 33.4816C92.6914 33.5381 92.7963 33.5678 92.9032 33.5677C92.9946 33.549 93.0815 33.5114 93.1587 33.4571C93.2358 33.4028 93.3016 33.3329 93.3521 33.2517C93.4026 33.1704 93.4368 33.0795 93.4526 32.9842C93.4683 32.889 93.4655 32.7914 93.444 32.6973ZM95.9195 33.9676V32.2432C95.9303 32.1909 95.929 32.1367 95.9158 32.085C95.9025 32.0333 95.8777 31.9856 95.8433 31.9457C95.8089 31.9058 95.7659 31.875 95.7178 31.8556C95.6697 31.8362 95.6179 31.8288 95.5665 31.8341C95.46 31.8417 95.3573 31.8783 95.2688 31.9401C95.1803 32.002 95.109 32.0869 95.0622 32.1863V33.9715H94.5503V31.4362H95.0622V31.7753C95.1429 31.6551 95.2496 31.5561 95.3737 31.4861C95.4977 31.4161 95.6359 31.3771 95.7771 31.3721C95.8662 31.3609 95.9567 31.371 96.0415 31.4018C96.1263 31.4327 96.2031 31.4833 96.2659 31.5498C96.3288 31.6164 96.376 31.697 96.4039 31.7855C96.4319 31.874 96.4398 31.968 96.427 32.0602V33.9722H95.9164L95.9195 33.9676Z" fill="#0175CA"/>
<path fill-rule="evenodd" clip-rule="evenodd" d="M95.4127 3.7226C95.8351 3.72173 96.24 3.54717 96.5384 3.23723C96.8368 2.92729 97.0044 2.50729 97.0044 2.0694C96.9961 1.63707 96.8246 1.22535 96.5267 0.922638C96.2288 0.619928 95.8283 0.450368 95.4111 0.450368C94.994 0.450368 94.5934 0.619928 94.2955 0.922638C93.9976 1.22535 93.8261 1.63707 93.8178 2.0694C93.8176 2.28658 93.8587 2.50167 93.9387 2.70236C94.0188 2.90305 94.1363 3.0854 94.2844 3.23896C94.4326 3.39253 94.6085 3.51429 94.8021 3.59728C94.9957 3.68027 95.2032 3.72285 95.4127 3.7226ZM95.4127 0.742274C95.5804 0.740821 95.7466 0.774331 95.9015 0.840809C96.0565 0.907287 96.1969 1.00538 96.3145 1.12924C96.4321 1.25311 96.5245 1.40023 96.5862 1.56186C96.6479 1.72348 96.6775 1.8963 96.6735 2.07006C96.6706 2.32928 96.5938 2.58183 96.4526 2.79585C96.3115 3.00986 96.1124 3.17577 95.8804 3.27265C95.6484 3.36954 95.394 3.39305 95.1491 3.34024C94.9043 3.28742 94.68 3.16064 94.5045 2.97588C94.3291 2.79111 94.2104 2.55664 94.1633 2.30203C94.1162 2.04742 94.143 1.78406 94.2401 1.54517C94.3372 1.30627 94.5004 1.10254 94.7091 0.959654C94.9178 0.816769 95.1626 0.74113 95.4127 0.742274ZM95.1032 2.92998V2.24583H95.4978L95.83 2.92998H96.1717L95.7991 2.18506C95.9049 2.1333 95.9904 2.04566 96.0415 1.93667C96.0926 1.82767 96.1062 1.70384 96.0802 1.58569C96.0542 1.46753 95.99 1.36214 95.8983 1.28695C95.8066 1.21176 95.6929 1.17129 95.576 1.17224H95.0509C95.0178 1.16709 94.9841 1.16968 94.9521 1.17982C94.9202 1.18996 94.8908 1.20739 94.8662 1.23083C94.8416 1.25426 94.8224 1.28312 94.8099 1.31527C94.7975 1.34742 94.7921 1.38205 94.7943 1.41662V2.92933H95.1L95.1032 2.92998ZM95.1082 1.4519H95.5495C95.5815 1.44991 95.6134 1.45507 95.6433 1.46703C95.6732 1.47898 95.7002 1.49746 95.7225 1.5212C95.7449 1.54493 95.7621 1.57338 95.7729 1.60461C95.7837 1.63583 95.7879 1.66911 95.7853 1.70217C95.7869 1.73694 95.7815 1.77168 95.7694 1.80415C95.7573 1.83662 95.7388 1.86611 95.715 1.89073C95.6913 1.91534 95.6628 1.93454 95.6315 1.94708C95.6002 1.95962 95.5667 1.96523 95.5331 1.96355H95.107V1.45125L95.1082 1.4519ZM35.5025 3.68796C38.8366 3.68796 39.2539 7.24723 39.2539 7.24723L43.2253 6.28145C43.2013 6.17886 42.5136 0.0248014 35.5031 0.0248014C31.1642 0.0248014 27.119 2.76923 27.119 9.7904C27.119 16.7573 31.3836 19.4279 35.7975 19.4279C37.8386 19.4542 39.8533 18.9472 41.6556 17.9538C42.6119 17.369 43.1509 16.8103 43.1509 15.6151V11.3194C43.1622 11.0662 43.1199 10.8134 43.0271 10.5789C42.9342 10.3443 42.793 10.1336 42.6133 9.96163C42.4336 9.78962 42.2198 9.66043 41.9868 9.5831C41.7539 9.50578 41.5075 9.48219 41.2648 9.514H35.8177V12.6943H39.2217V15.1597C38.2146 15.7506 37.0695 16.0416 35.9129 16.0007C33.6826 16.0007 31.3533 14.601 31.3533 9.79302C31.3533 5.08828 33.3882 3.69123 35.4968 3.69123M53.1475 0.00258429C51.4795 0.00258429 50.4747 0.740968 49.9849 2.26543L44.5945 19.1744H48.8577C49.1804 19.1493 49.4842 19.007 49.7157 18.7725L54.847 13.513C54.9535 13.4026 54.9245 13.3503 54.8022 13.3503H54.1088C53.8245 13.3478 53.5448 13.425 53.2994 13.5738L49.8462 15.6321L53.1242 4.1421C53.1242 4.1421 57.0205 18.0525 57.3389 19.1711H61.7276L56.4078 2.23472C55.9666 0.812192 54.8407 -0.0032959 53.1487 -0.0032959M70.7742 3.63373C74.1077 3.63373 74.5502 7.44849 74.5502 7.44849L78.5216 6.58334C78.5216 6.58334 77.9341 0.0287223 70.7761 0.0287223C66.4372 0.0287223 62.392 2.70062 62.392 9.71983C62.392 16.6855 66.412 19.456 70.7515 19.456C77.762 19.456 78.5229 13.0478 78.5229 13.0478L74.5515 12.1572C74.5515 12.1572 74.2306 15.8438 70.8247 15.8438C68.7173 15.8438 66.6572 14.4448 66.6572 9.71657C66.6572 5.01183 68.6669 3.63961 70.7755 3.63961M88.0845 0.00258429C86.4165 0.00258429 85.4104 0.740968 84.9206 2.26543L79.5283 19.1744H83.7916C84.1144 19.1494 84.4182 19.0071 84.6496 18.7725L89.7821 13.513C89.888 13.4026 89.8584 13.3503 89.7361 13.3503H89.0427C88.7584 13.3478 88.4787 13.425 88.2333 13.5738L84.7801 15.6321L88.058 4.1421C88.058 4.1421 91.9563 18.0525 92.2747 19.1711H96.6634L91.3436 2.23472C90.9023 0.812192 89.7746 -0.0032959 88.0839 -0.0032959" fill="#0175CA"/>
<path fill-rule="evenodd" clip-rule="evenodd" d="M25.7782 19.2267C25.8099 19.2235 25.8391 19.2077 25.8597 19.1826C25.8803 19.1574 25.8906 19.125 25.8885 19.0921C25.8905 19.0664 25.8857 19.0406 25.8746 19.0176C25.8635 18.9946 25.8465 18.9751 25.8255 18.9614C24.6974 18.5756 23.7011 17.8599 22.9565 16.9005C22.2119 15.9411 21.7509 14.779 21.629 13.5542L20.6204 6.10502C20.1514 2.64507 17.6936 0.285514 14.8279 0.229319H0.107167C0.0930801 0.228793 0.0790339 0.231205 0.0658636 0.236413C0.0526932 0.24162 0.0406756 0.249518 0.0305046 0.259634C0.0203337 0.269751 0.0122321 0.281881 0.00666908 0.295307C0.00110605 0.308732 -0.00179717 0.323178 -0.00187247 0.337789C-0.00604438 0.363683 -0.00219487 0.390282 0.00913151 0.413763C0.0204579 0.437244 0.0386627 0.4564 0.0611503 0.468477C1.19042 0.859039 2.18706 1.57891 2.93159 2.54179C3.67613 3.50467 4.13697 4.66971 4.25886 5.89722L5.26747 13.3464C5.73648 16.7933 8.19245 19.1659 11.0582 19.2345L25.7782 19.2267ZM19.4996 16.0418H16.876C16.5845 16.0696 16.2915 16.0099 16.0319 15.87L14.2403 14.882L15.2754 14.3135L19.5128 15.9876C19.5752 16.0163 19.5752 16.0418 19.4996 16.0418ZM17.4193 8.18948C17.4129 8.19776 17.4037 8.20323 17.3935 8.2048C17.3834 8.20637 17.373 8.20394 17.3645 8.19797C16.5363 7.70828 15.662 7.30739 14.7553 7.00153C14.6431 6.96363 14.4837 6.90744 14.3362 6.87084C14.2731 9.94591 13.9939 12.3362 13.7058 12.3395C13.4177 12.3427 13.1384 9.94591 13.0754 6.87084C12.9273 6.90678 12.7684 6.96363 12.6562 7.00153C11.7493 7.3074 10.8748 7.70828 10.0464 8.19797C10.038 8.20405 10.0277 8.20656 10.0177 8.20498C10.0076 8.2034 9.99843 8.19784 9.99218 8.18948C9.98786 8.18311 9.98525 8.17567 9.98462 8.16791C9.9541 8.00969 9.96111 7.84616 10.005 7.69136C10.049 7.53656 10.1285 7.39514 10.2368 7.27924C10.498 7.0314 10.7815 6.80997 11.0834 6.61796C11.4474 6.36978 11.8295 6.15131 12.2263 5.96453C12.3309 5.91356 12.4627 5.85148 12.566 5.8064C11.9076 5.42667 11.2154 5.11354 10.499 4.87133C10.4949 4.87026 10.4911 4.86836 10.4877 4.86575C10.4843 4.86313 10.4814 4.85985 10.4792 4.85609C10.4771 4.85232 10.4757 4.84815 10.4751 4.84382C10.4744 4.83948 10.4746 4.83506 10.4757 4.83082C10.4773 4.8246 10.4809 4.81911 10.4858 4.81513C10.5684 4.71728 10.6717 4.64041 10.7875 4.59045C10.9034 4.54048 11.0288 4.51877 11.154 4.52697C11.388 4.55868 11.6197 4.60693 11.8474 4.67138C12.0996 4.73672 12.3517 4.8086 12.5963 4.89224C12.7381 4.94059 12.8781 4.99221 13.0174 5.04906L13.0867 5.07651C13.1725 4.24599 13.4183 3.63895 13.707 3.63895C13.9957 3.63895 14.2416 4.24272 14.3273 5.07651L14.3967 5.04906C14.5353 4.99221 14.6759 4.94059 14.8171 4.89224C15.0642 4.8086 15.3141 4.73498 15.5667 4.67138C15.7944 4.60693 16.026 4.55868 16.2601 4.52697C16.3853 4.51877 16.5107 4.54048 16.6265 4.59045C16.7424 4.64041 16.8456 4.71728 16.9283 4.81513C16.9332 4.81911 16.9367 4.8246 16.9384 4.83082C16.9394 4.83506 16.9396 4.83948 16.939 4.84382C16.9384 4.84815 16.937 4.85232 16.9348 4.85609C16.9326 4.85985 16.9298 4.86313 16.9264 4.86575C16.923 4.86836 16.9192 4.87026 16.9151 4.87133C16.1987 5.11354 15.5065 5.42667 14.848 5.8064C14.9508 5.85083 15.0825 5.91291 15.1878 5.96453C15.5845 6.15131 15.9666 6.36978 16.3307 6.61796C16.6325 6.80997 16.916 7.0314 17.1773 7.27924C17.2854 7.39523 17.3649 7.53667 17.4088 7.69143C17.4527 7.8462 17.4598 8.00969 17.4294 8.16791C17.429 8.17561 17.4266 8.18305 17.4225 8.18948H17.4193ZM10.4511 12.7237L11.1231 12.7198C11.2174 12.7177 11.3114 12.7332 11.4005 12.7655L13.0054 13.4189L12.172 13.7456L10.4391 12.7884C10.3799 12.7505 10.3799 12.7256 10.4543 12.7237H10.4511ZM16.2096 12.7661L16.8798 12.7714C16.9554 12.7714 16.9554 12.7988 16.893 12.8367L11.3816 15.8719C11.121 16.0111 10.8276 16.0707 10.5356 16.0438H7.9132C7.83819 16.0438 7.83817 16.0183 7.90058 15.9915L15.9323 12.8165C16.0218 12.7812 16.117 12.7641 16.2128 12.7661H16.2096Z" fill="#264478"/>
</g>
<defs>
<clipPath id="clip0_7_267">
<rect width="97" height="35" fill="white"/>
</clipPath>
</defs>
</svg>
