<svg width="216" height="165" viewBox="0 0 216 165" fill="none" xmlns="http://www.w3.org/2000/svg">
<g clip-path="url(#clip0_44_226)">
<path fill-rule="evenodd" clip-rule="evenodd" d="M131.242 69.98L120.128 69.99C118.894 70.1013 117.654 69.8604 116.553 69.2958L108.964 65.3167L113.349 63.0258L131.297 69.77C131.565 69.8792 131.565 69.98 131.242 69.98ZM122.443 38.3392C122.416 38.3733 122.377 38.3959 122.334 38.4021C122.291 38.4083 122.247 38.3977 122.212 38.3725C118.702 36.3981 114.998 34.7829 111.158 33.5517C110.682 33.4 110.008 33.1717 109.382 33.0267V33.0325C109.111 45.4233 107.934 55.0542 106.712 55.0692C105.493 55.0542 104.314 45.4233 104.044 33.0325V33.0267C103.417 33.1717 102.743 33.4 102.267 33.5517C98.4275 34.7832 94.7239 36.3985 91.2134 38.3725C91.1781 38.3977 91.1343 38.4083 91.0912 38.4021C91.0481 38.3959 91.0091 38.3733 90.9825 38.3392C90.9644 38.3146 90.9528 38.286 90.9488 38.2558C90.819 37.6177 90.8482 36.9577 91.0338 36.3332C91.2195 35.7088 91.5559 35.1387 92.014 34.6725C93.1207 33.6724 94.3212 32.7795 95.5991 32.0058C97.1418 31.0026 98.7606 30.1194 100.441 29.3642C100.884 29.1575 101.444 28.9075 101.881 28.7292C99.0902 27.1977 96.158 25.9355 93.1245 24.96C93.1067 24.9558 93.09 24.9482 93.0753 24.9375C93.0606 24.9268 93.0482 24.9132 93.0389 24.8977C93.0296 24.8821 93.0235 24.8649 93.021 24.8469C93.0185 24.829 93.0197 24.8108 93.0245 24.7933C93.0323 24.7688 93.0468 24.7468 93.0665 24.73C93.4183 24.3357 93.8561 24.0262 94.3467 23.825C94.8372 23.6239 95.3675 23.5364 95.8973 23.5692C96.8894 23.6978 97.8716 23.8927 98.8373 24.1525C99.9057 24.4092 100.964 24.7061 102.011 25.0433C102.609 25.2367 103.203 25.4469 103.792 25.6742C103.887 25.7092 103.988 25.7483 104.086 25.7867C104.449 22.4383 105.493 19.9908 106.714 20.005C107.937 19.9908 108.982 22.4383 109.341 25.7867C109.441 25.7483 109.542 25.7092 109.637 25.6742C110.225 25.4458 110.818 25.2356 111.418 25.0433C112.463 24.705 113.522 24.4081 114.592 24.1525C115.558 23.8926 116.54 23.6977 117.532 23.5692C118.062 23.5364 118.592 23.6239 119.083 23.825C119.573 24.0262 120.011 24.3357 120.363 24.73C120.383 24.7468 120.397 24.7688 120.405 24.7933C120.41 24.8108 120.411 24.829 120.409 24.8469C120.406 24.8649 120.4 24.8821 120.391 24.8977C120.381 24.9132 120.369 24.9268 120.354 24.9375C120.34 24.9482 120.323 24.9558 120.305 24.96C117.272 25.9355 114.34 27.1977 111.55 28.7292C111.986 28.9075 112.544 29.1575 112.989 29.3642C114.669 30.1192 116.288 31.0024 117.831 32.0058C119.109 32.7795 120.31 33.6724 121.416 34.6725C121.874 35.139 122.21 35.7091 122.396 36.3335C122.581 36.9579 122.61 37.6177 122.481 38.2558C122.476 38.2864 122.463 38.3151 122.443 38.3392ZM92.9254 56.6108L95.7721 56.595C96.1721 56.5871 96.5704 56.65 96.9481 56.7808L103.752 59.41L100.224 60.735L92.8834 56.8767C92.6104 56.7175 92.6104 56.6167 92.9254 56.6108ZM117.319 56.7775L120.159 56.7992C120.478 56.7992 120.478 56.91 120.214 57.0608L96.8625 69.2925C95.7575 69.8544 94.515 70.095 93.2782 69.9867L82.17 69.9766C81.8525 69.9766 81.8525 69.8758 82.1171 69.7667L116.137 56.9733C116.515 56.8351 116.916 56.7697 117.319 56.7808V56.7775Z" fill="#0075C9"/>
<path fill-rule="evenodd" clip-rule="evenodd" d="M147.11 38.9333C146.273 39.0413 145.426 38.8187 144.752 38.3135C144.078 37.8082 143.631 37.0606 143.507 36.2316C143.467 35.8218 143.509 35.4081 143.632 35.0147C143.755 34.6213 143.955 34.2562 144.222 33.9406C144.489 33.625 144.816 33.3653 145.185 33.1766C145.554 32.9879 145.957 32.874 146.371 32.8416C147.209 32.7337 148.057 32.9557 148.732 33.4603C149.407 33.9648 149.856 34.7117 149.983 35.5408C150.02 35.9509 149.976 36.3644 149.851 36.7573C149.727 37.1502 149.525 37.5148 149.258 37.8301C148.991 38.1454 148.664 38.4053 148.295 38.5946C147.927 38.7839 147.524 38.899 147.11 38.9333ZM145.43 29.2533C144.636 29.5573 143.755 29.547 142.968 29.2246C142.182 28.9021 141.55 28.2922 141.204 27.5208C141.051 27.141 140.978 26.7343 140.988 26.3253C140.998 25.9164 141.093 25.5139 141.265 25.1422C141.437 24.7706 141.684 24.4375 141.99 24.1634C142.296 23.8892 142.654 23.6796 143.045 23.5475C143.838 23.2443 144.719 23.2547 145.505 23.5764C146.291 23.8981 146.923 24.5066 147.27 25.2766C147.422 25.6565 147.495 26.063 147.484 26.4715C147.473 26.8801 147.379 27.2822 147.207 27.6536C147.035 28.025 146.789 28.3579 146.483 28.6323C146.178 28.9067 145.82 29.1168 145.43 29.25V29.2533ZM136.588 19.67C136.334 19.3494 136.151 18.9805 136.048 18.5862C135.945 18.192 135.924 17.7809 135.989 17.3787C136.053 16.9764 136.2 16.5917 136.421 16.2483C136.642 15.905 136.932 15.6105 137.272 15.3833C137.972 14.8982 138.832 14.6948 139.677 14.814C140.522 14.9333 141.291 15.3663 141.827 16.0258C142.08 16.3466 142.264 16.7156 142.367 17.11C142.47 17.5043 142.49 17.9154 142.426 18.3178C142.362 18.7201 142.215 19.1051 141.994 19.4487C141.774 19.7923 141.484 20.0872 141.144 20.315C140.443 20.7991 139.583 21.0014 138.737 20.8811C137.891 20.7608 137.123 20.3268 136.588 19.6666V19.67ZM139.928 61.5425C140.189 61.7325 140.407 61.9734 140.57 62.2505C140.734 62.5276 140.838 62.8349 140.876 63.1535C140.915 63.472 140.887 63.795 140.795 64.1026C140.703 64.4101 140.548 64.6957 140.341 64.9416C139.897 65.444 139.279 65.7624 138.61 65.8335C137.941 65.9045 137.269 65.723 136.729 65.325C136.468 65.1349 136.25 64.8938 136.087 64.6167C135.925 64.3395 135.821 64.0322 135.783 63.7137C135.745 63.3952 135.773 63.0723 135.866 62.7651C135.959 62.4578 136.114 62.1727 136.322 61.9275C136.764 61.4245 137.38 61.1052 138.049 61.0334C138.717 60.9616 139.388 61.1425 139.928 61.54V61.5425ZM129.97 13.2091C129.638 12.9695 129.36 12.6645 129.152 12.3131C128.945 11.9617 128.812 11.5717 128.764 11.1673C128.715 10.7629 128.752 10.3529 128.87 9.96304C128.989 9.57318 129.187 9.21184 129.453 8.90164C130.012 8.26136 130.795 7.85486 131.644 7.76395C132.493 7.67303 133.345 7.90445 134.029 8.41163C134.36 8.65199 134.638 8.9575 134.846 9.30908C135.053 9.66066 135.185 10.0508 135.233 10.4552C135.282 10.8596 135.246 11.2696 135.128 11.6597C135.01 12.0497 134.812 12.4115 134.547 12.7225C133.987 13.3621 133.204 13.7677 132.355 13.8575C131.505 13.9474 130.653 13.7148 129.97 13.2066V13.2091ZM121.803 8.58248C121.418 8.43643 121.067 8.21409 120.772 7.92905C120.477 7.644 120.243 7.30223 120.085 6.92461C119.928 6.54699 119.849 6.14143 119.855 5.73272C119.86 5.32401 119.95 4.92071 120.118 4.54747C120.492 3.78998 121.145 3.20366 121.942 2.90913C122.739 2.61461 123.619 2.6343 124.402 2.96414C124.786 3.10984 125.137 3.33184 125.432 3.61656C125.728 3.90127 125.961 4.24271 126.119 4.62005C126.277 4.99739 126.356 5.40267 126.35 5.81115C126.345 6.21963 126.255 6.62272 126.088 6.99579C125.714 7.75394 125.061 8.34107 124.264 8.63637C123.467 8.93166 122.586 8.91185 121.803 8.58248ZM112.639 6.10081C112.227 6.05438 111.829 5.9268 111.467 5.72557C111.105 5.52435 110.787 5.25351 110.533 4.92894C110.278 4.60437 110.091 4.23256 109.982 3.83537C109.874 3.43817 109.847 3.02356 109.902 2.61581C110.058 1.79125 110.533 1.05988 111.225 0.578403C111.918 0.0969316 112.773 -0.0963433 113.607 0.0399717C114.019 0.0864155 114.417 0.213959 114.779 0.415134C115.141 0.616309 115.458 0.88706 115.713 1.21154C115.968 1.53602 116.155 1.90771 116.263 2.30481C116.372 2.70191 116.399 3.11645 116.344 3.52414C116.188 4.34839 115.713 5.07934 115.02 5.56047C114.328 6.0416 113.473 6.23465 112.639 6.0983V6.10081ZM103.36 6.10081C102.525 6.23711 101.67 6.04369 100.978 5.56205C100.285 5.08041 99.8106 4.34885 99.6553 3.52414C99.6 3.11639 99.6273 2.70178 99.7356 2.30463C99.8439 1.90748 100.031 1.53578 100.286 1.21129C100.541 0.886795 100.859 0.616036 101.22 0.414906C101.582 0.213775 101.981 0.0863132 102.393 0.0399717C103.227 -0.0963433 104.082 0.0969316 104.775 0.578403C105.467 1.05988 105.942 1.79125 106.097 2.61581C106.152 3.02343 106.125 3.43785 106.016 3.83481C105.908 4.23176 105.721 4.60328 105.466 4.92759C105.211 5.2519 104.893 5.52249 104.532 5.72351C104.17 5.92454 103.772 6.05194 103.36 6.0983V6.10081ZM94.197 8.58329C93.4136 8.91236 92.533 8.9311 91.7361 8.63565C90.9393 8.34021 90.2868 7.75307 89.913 6.99498C89.7451 6.62192 89.6557 6.2188 89.6502 5.81029C89.6447 5.40177 89.7232 4.99645 89.881 4.61908C90.0388 4.24171 90.2726 3.90023 90.5679 3.61554C90.8633 3.33084 91.2141 3.10891 91.5989 2.9633C92.3816 2.63346 93.2619 2.61377 94.0588 2.90829C94.8557 3.20282 95.5085 3.78914 95.8829 4.54663C96.0511 4.92001 96.1408 5.3235 96.1465 5.73244C96.1521 6.14138 96.0737 6.54719 95.9159 6.92502C95.7581 7.30285 95.5242 7.64476 95.2287 7.92988C94.9331 8.21501 94.5821 8.43735 94.197 8.58329ZM81.4559 12.72C81.1908 12.409 80.9931 12.0473 80.8751 11.6573C80.757 11.2672 80.7211 10.8573 80.7697 10.4529C80.8182 10.0486 80.9501 9.65842 81.1572 9.30681C81.3643 8.9552 81.6421 8.64964 81.9733 8.40914C82.6573 7.90191 83.5096 7.67047 84.3586 7.76138C85.2077 7.85229 85.9905 8.25878 86.5496 8.89912C86.8156 9.20932 87.0141 9.57069 87.1328 9.96055C87.2514 10.3504 87.2877 10.7604 87.2392 11.1647C87.1907 11.5691 87.0585 11.9592 86.8509 12.3106C86.6434 12.662 86.365 12.967 86.033 13.2066C85.3494 13.7145 84.4972 13.9466 83.648 13.8563C82.7988 13.7661 82.0155 13.36 81.4559 12.72ZM75.6599 64.9391C75.4521 64.6933 75.2973 64.4077 75.2051 64.1001C75.1129 63.7926 75.0853 63.4695 75.124 63.1509C75.1626 62.8324 75.2667 62.525 75.4298 62.2479C75.5929 61.9709 75.8116 61.7299 76.0723 61.54C76.612 61.1419 77.2832 60.9605 77.9518 61.0318C78.6204 61.1032 79.2373 61.4221 79.6793 61.925C79.8875 62.1703 80.0429 62.4554 80.1356 62.7627C80.2283 63.07 80.2563 63.3929 80.2182 63.7114C80.18 64.0299 80.0763 64.3372 79.9135 64.6143C79.7507 64.8914 79.5323 65.1325 79.2719 65.3225C78.7314 65.7206 78.0597 65.9023 77.3903 65.8313C76.721 65.7602 76.1032 65.4417 75.6599 64.9391ZM74.8568 20.3125C74.5167 20.0845 74.2274 19.7897 74.0068 19.4462C73.7863 19.1028 73.6393 18.718 73.5749 18.3158C73.5105 17.9137 73.53 17.5027 73.6323 17.1083C73.7346 16.7139 73.9176 16.3446 74.1697 16.0233C74.7067 15.3639 75.4756 14.931 76.3216 14.8117C77.1675 14.6925 78.0276 14.8958 78.7284 15.3808C79.069 15.6081 79.3587 15.9027 79.5794 16.246C79.8002 16.5893 79.9473 16.9741 80.0115 17.3763C80.0758 17.7785 80.0558 18.1895 79.9528 18.5837C79.8498 18.9779 79.6661 19.3468 79.413 19.6675C78.8768 20.3273 78.1083 20.7608 77.2626 20.8805C76.4168 21.0002 75.5576 20.7972 74.8568 20.3125ZM74.7963 27.5208C74.4503 28.2914 73.8193 28.9007 73.0335 29.2231C72.2478 29.5455 71.3673 29.5563 70.5737 29.2533C70.1837 29.1203 69.8249 28.9102 69.5191 28.6357C69.2133 28.3612 68.9667 28.028 68.7944 27.6562C68.6221 27.2845 68.5277 26.8819 68.5167 26.4729C68.5058 26.0639 68.5786 25.6569 68.7307 25.2766C69.0777 24.5064 69.7094 23.8976 70.4956 23.5758C71.2818 23.2541 72.1624 23.2439 72.9559 23.5475C73.346 23.6797 73.705 23.8893 74.0108 24.1635C74.3167 24.4377 74.5632 24.7708 74.7353 25.1425C74.9074 25.5141 75.0014 25.9166 75.0118 26.3255C75.0221 26.7344 74.9494 27.141 74.7963 27.5208ZM69.6253 32.8416C70.0394 32.8738 70.4429 32.9875 70.8122 33.1761C71.1816 33.3646 71.5094 33.6242 71.7765 33.9398C72.0436 34.2554 72.2446 34.6206 72.368 35.0141C72.4913 35.4075 72.5344 35.8214 72.4948 36.2316C72.3706 37.0602 71.9237 37.8074 71.2502 38.3125C70.5767 38.8177 69.7302 39.0406 68.8928 38.9333C68.4788 38.9001 68.0755 38.7857 67.7063 38.5967C67.3372 38.4077 67.0096 38.1479 66.7424 37.8323C66.4753 37.5168 66.2739 37.1517 66.15 36.7583C66.0262 36.365 65.9823 35.9511 66.0209 35.5408C66.1454 34.7123 66.5927 33.9653 67.2666 33.4606C67.9405 32.9558 68.788 32.7336 69.6253 32.8416ZM68.9634 42.6291C69.7979 42.4928 70.6529 42.6862 71.3453 43.1679C72.0378 43.6495 72.5125 44.3811 72.6678 45.2058C72.7233 45.6136 72.6963 46.0282 72.5882 46.4254C72.4801 46.8227 72.2932 47.1945 72.0384 47.5192C71.7836 47.8438 71.466 48.1148 71.1043 48.3161C70.7426 48.5174 70.344 48.6451 69.9319 48.6916C69.0973 48.8271 68.2424 48.6336 67.5496 48.1523C66.8569 47.6711 66.3812 46.9402 66.2242 46.1158C66.1692 45.7079 66.1968 45.2932 66.3052 44.896C66.4137 44.4988 66.6009 44.127 66.8558 43.8024C67.1108 43.4778 67.4284 43.2068 67.7902 43.0054C68.1519 42.8039 68.5504 42.676 68.9625 42.6291H68.9634ZM71.0163 52.2458C71.7991 51.9162 72.6794 51.8966 73.4762 52.1911C74.273 52.4856 74.9258 53.0718 75.3004 53.8291C75.4681 54.2024 75.5576 54.6055 75.5634 55.0141C75.5692 55.4227 75.4911 55.8283 75.334 56.206C75.1768 56.5837 74.9439 56.9258 74.6493 57.2114C74.3547 57.4971 74.0046 57.7203 73.6204 57.8675C72.8363 58.196 71.9553 58.2146 71.1578 57.9194C70.3604 57.6243 69.7069 57.0377 69.3313 56.28C69.1643 55.907 69.0755 55.5042 69.0703 55.0962C69.0651 54.6881 69.1437 54.2832 69.3013 53.9062C69.4588 53.5292 69.692 53.188 69.9868 52.9033C70.2815 52.6185 70.6315 52.3963 71.0155 52.25L71.0163 52.2458ZM140.699 53.8291C141.074 53.0722 141.726 52.4864 142.523 52.192C143.32 51.8975 144.2 51.9168 144.983 52.2458C145.367 52.3923 145.718 52.6149 146.013 52.8999C146.308 53.1849 146.541 53.5266 146.699 53.9039C146.857 54.2814 146.936 54.6867 146.931 55.0953C146.926 55.5039 146.838 55.9072 146.671 56.2808C146.294 57.0382 145.64 57.6243 144.842 57.9194C144.044 58.2144 143.163 58.1962 142.379 57.8683C141.995 57.721 141.645 57.498 141.351 57.2126C141.056 56.9272 140.824 56.5855 140.666 56.2082C140.509 55.8309 140.431 55.4258 140.436 55.0176C140.442 54.6093 140.531 54.2064 140.698 53.8333L140.699 53.8291ZM146.07 48.6908C145.657 48.6447 145.258 48.5173 144.896 48.3161C144.534 48.115 144.216 47.8441 143.961 47.5194C143.706 47.1947 143.519 46.8227 143.411 46.4252C143.303 46.0278 143.275 45.6129 143.331 45.205C143.487 44.3804 143.961 43.6489 144.654 43.1673C145.346 42.6857 146.201 42.4922 147.036 42.6283C147.448 42.6744 147.847 42.8018 148.209 43.003C148.571 43.2042 148.889 43.4752 149.144 43.8C149.399 44.1248 149.586 44.4969 149.695 44.8945C149.803 45.292 149.83 45.707 149.774 46.115C149.618 46.9397 149.143 47.6711 148.451 48.1527C147.758 48.6343 146.903 48.8277 146.069 48.6916L146.07 48.6908ZM139.641 36.2233C138.959 36.3834 138.24 36.2725 137.639 35.9145C137.038 35.5564 136.601 34.9794 136.423 34.3066C136.348 33.9737 136.341 33.6293 136.402 33.2936C136.463 32.9578 136.591 32.6377 136.779 32.352C136.967 32.0663 137.211 31.8207 137.496 31.6299C137.781 31.439 138.102 31.3068 138.439 31.2408C139.122 31.0813 139.841 31.1923 140.442 31.5502C141.044 31.9081 141.481 32.4847 141.661 33.1575C141.735 33.4907 141.741 33.8352 141.679 34.1708C141.617 34.5064 141.488 34.8264 141.3 35.112C141.112 35.3976 140.868 35.643 140.583 35.834C140.298 36.025 139.977 36.1576 139.64 36.2241L139.641 36.2233ZM137.307 28.3475C136.68 28.6674 135.953 28.7357 135.277 28.5382C134.601 28.3406 134.028 27.8924 133.676 27.2866C133.512 26.9888 133.41 26.661 133.378 26.3231C133.345 25.9852 133.382 25.6442 133.486 25.3209C133.59 24.9975 133.759 24.6984 133.983 24.4419C134.207 24.1853 134.481 23.9766 134.789 23.8283C135.416 23.5083 136.142 23.4397 136.818 23.6368C137.494 23.8338 138.068 24.2814 138.421 24.8866C138.584 25.1849 138.685 25.513 138.718 25.8511C138.75 26.1892 138.713 26.5303 138.609 26.8538C138.505 27.1773 138.335 27.4765 138.111 27.7333C137.888 27.9902 137.613 28.1994 137.306 28.3483L137.307 28.3475ZM129.118 21.1875C128.879 20.946 128.692 20.6585 128.568 20.3427C128.445 20.0269 128.387 19.6893 128.4 19.3508C128.413 19.0123 128.495 18.6799 128.641 18.3739C128.788 18.068 128.996 17.795 129.253 17.5716C129.782 17.1083 130.47 16.8635 131.176 16.8876C131.881 16.9116 132.551 17.2026 133.047 17.7008C133.286 17.9422 133.473 18.2296 133.597 18.5452C133.72 18.8609 133.777 19.1982 133.765 19.5366C133.752 19.875 133.67 20.2072 133.524 20.513C133.377 20.8188 133.169 21.0917 132.913 21.315C132.384 21.7794 131.696 22.0252 130.99 22.0016C130.284 21.9781 129.614 21.687 129.117 21.1883L129.118 21.1875ZM123.059 16.4183C122.763 16.2485 122.505 16.0208 122.301 15.749C122.096 15.4773 121.95 15.1672 121.87 14.8375C121.791 14.5079 121.779 14.1656 121.837 13.8316C121.895 13.4975 122.021 13.1785 122.207 12.8941C122.601 12.3147 123.204 11.9075 123.892 11.7566C124.579 11.6057 125.299 11.7227 125.903 12.0833C126.198 12.253 126.456 12.4807 126.661 12.7523C126.865 13.024 127.011 13.334 127.091 13.6635C127.171 13.9931 127.182 14.3352 127.124 14.6693C127.067 15.0033 126.941 15.3222 126.755 15.6066C126.361 16.1864 125.758 16.5937 125.07 16.7445C124.381 16.8952 123.661 16.7779 123.058 16.4166L123.059 16.4183ZM115.911 13.3075C115.58 13.2185 115.27 13.0645 115 12.8544C114.73 12.6443 114.505 12.3825 114.339 12.0846C114.173 11.7866 114.068 11.4586 114.033 11.1199C113.997 10.7813 114.03 10.439 114.13 10.1133C114.357 9.45396 114.834 8.90833 115.46 8.59206C116.086 8.2758 116.811 8.21377 117.483 8.41913C117.814 8.50786 118.124 8.66179 118.394 8.87176C118.664 9.08173 118.889 9.34347 119.055 9.64139C119.221 9.93931 119.325 10.2673 119.361 10.6059C119.397 10.9446 119.364 11.2869 119.263 11.6125C119.036 12.2719 118.559 12.8177 117.933 13.1342C117.307 13.4507 116.582 13.5132 115.91 13.3083L115.911 13.3075ZM107.84 12.0666C107.334 12.0649 106.84 11.9155 106.419 11.6371C105.998 11.3587 105.668 10.9636 105.472 10.501C105.276 10.0383 105.221 9.52859 105.314 9.03521C105.407 8.54182 105.645 8.08659 105.997 7.72615C106.349 7.36572 106.801 7.11602 107.295 7.00813C107.789 6.90024 108.304 6.93891 108.777 7.11936C109.249 7.29981 109.657 7.61405 109.951 8.02296C110.244 8.43188 110.41 8.91743 110.427 9.41914C110.435 10.1098 110.167 10.7755 109.683 11.2714C109.198 11.7674 108.536 12.0534 107.839 12.0675L107.84 12.0666ZM100.09 13.3075C99.4192 13.5121 98.694 13.4497 98.0683 13.1333C97.4426 12.817 96.9655 12.2716 96.738 11.6125C96.6377 11.2869 96.6045 10.9446 96.6402 10.6059C96.676 10.2673 96.7801 9.93931 96.9462 9.64139C97.1124 9.34347 97.3372 9.08173 97.6073 8.87176C97.8775 8.66179 98.1875 8.50786 98.5188 8.41913C99.1898 8.2138 99.9151 8.27586 100.541 8.59214C101.167 8.90842 101.643 9.45402 101.87 10.1133C101.971 10.439 102.004 10.7814 101.968 11.1202C101.933 11.459 101.829 11.7872 101.663 12.0853C101.496 12.3833 101.272 12.6452 101.001 12.8553C100.731 13.0655 100.421 13.2195 100.09 13.3083L100.09 13.3075ZM92.9429 16.4183C92.3394 16.7789 91.6193 16.8957 90.9315 16.7446C90.2437 16.5936 89.6406 16.1862 89.2469 15.6066C89.0611 15.3222 88.9356 15.0033 88.8779 14.6693C88.8202 14.3352 88.8316 13.9931 88.9113 13.6635C88.9911 13.334 89.1375 13.024 89.3418 12.7523C89.546 12.4807 89.8038 12.253 90.0995 12.0833C90.7029 11.7227 91.4229 11.6057 92.1107 11.7566C92.7985 11.9075 93.4017 12.3147 93.7955 12.8941C93.9811 13.1786 94.1065 13.4975 94.164 13.8315C94.2216 14.1654 94.2101 14.5075 94.1303 14.837C94.0505 15.1664 93.9039 15.4763 93.6997 15.7479C93.4954 16.0194 93.2376 16.247 92.942 16.4166L92.9429 16.4183ZM83.088 21.315C82.8315 21.0916 82.6236 20.8187 82.4771 20.5129C82.3307 20.2071 82.2486 19.8748 82.2361 19.5364C82.2236 19.1981 82.2809 18.8608 82.4044 18.5451C82.5279 18.2295 82.7151 17.9422 82.9545 17.7008C83.4505 17.2026 84.1199 16.9117 84.8253 16.8876C85.5307 16.8636 86.2186 17.1084 86.7479 17.5716C87.0048 17.7949 87.213 18.0678 87.3598 18.3737C87.5066 18.6796 87.5888 19.0121 87.6015 19.3506C87.6141 19.6892 87.5569 20.0267 87.4334 20.3426C87.3099 20.6585 87.1227 20.946 86.8831 21.1875C86.3869 21.6862 85.7169 21.9775 85.0109 22.0014C84.3049 22.0253 83.6165 21.7799 83.0871 21.3158L83.088 21.315ZM82.3253 27.2866C81.9734 27.8923 81.4 28.3403 80.724 28.5378C80.0481 28.7354 79.3214 28.6672 78.6948 28.3475C78.3873 28.1985 78.1134 27.9893 77.8896 27.7324C77.6659 27.4756 77.4969 27.1765 77.3928 26.8531C77.2887 26.5297 77.2517 26.1887 77.284 25.8507C77.3164 25.5128 77.4174 25.1848 77.581 24.8866C77.9333 24.2814 78.5068 23.8339 79.1828 23.6369C79.8587 23.4398 80.5851 23.5084 81.2114 23.8283C81.5194 23.9765 81.7937 24.1853 82.0179 24.442C82.242 24.6986 82.4113 24.9977 82.5153 25.3212C82.6194 25.6447 82.6562 25.9858 82.6234 26.3238C82.5905 26.6618 82.4889 26.9896 82.3245 27.2875L82.3253 27.2866ZM79.5785 34.3033C79.4001 34.9761 78.9637 35.553 78.3625 35.9111C77.7613 36.2692 77.0428 36.38 76.3604 36.22C76.0234 36.1533 75.7032 36.0205 75.4186 35.8295C75.134 35.6384 74.8906 35.393 74.7029 35.1074C74.5151 34.8219 74.3867 34.502 74.3252 34.1666C74.2636 33.8312 74.2702 33.487 74.3445 33.1541C74.5229 32.4808 74.9596 31.9034 75.5613 31.5453C76.1631 31.1871 76.8822 31.0767 77.565 31.2375C77.9022 31.3038 78.2226 31.4364 78.5073 31.6275C78.792 31.8185 79.0353 32.0642 79.2229 32.3499C79.4104 32.6357 79.5385 32.9559 79.5994 33.2915C79.6603 33.6271 79.6529 33.9714 79.5776 34.3041L79.5785 34.3033ZM76.0505 39.295C76.5567 39.297 77.0511 39.4468 77.4722 39.7256C77.8933 40.0044 78.2224 40.3998 78.4186 40.8628C78.6148 41.3258 78.6694 41.8358 78.5756 42.3293C78.4818 42.8228 78.2437 43.278 77.8911 43.6383C77.5384 43.9986 77.0868 44.2481 76.5923 44.3556C76.0978 44.4631 75.5823 44.424 75.1101 44.243C74.6378 44.0621 74.2297 43.7473 73.9364 43.338C73.6431 42.9286 73.4778 42.4427 73.4608 41.9408C73.4536 41.2501 73.7218 40.5845 74.207 40.0891C74.6922 39.5936 75.3551 39.3085 76.0513 39.2958L76.0505 39.295ZM76.7787 47.4483C77.4501 47.2435 78.1755 47.3059 78.8013 47.6225C79.427 47.939 79.904 48.4847 80.1312 49.1441C80.2314 49.4698 80.2647 49.8121 80.229 50.1508C80.1933 50.4894 80.0894 50.8175 79.9235 51.1156C79.7575 51.4137 79.5329 51.6757 79.263 51.886C78.9931 52.0963 78.6833 52.2507 78.3521 52.34C77.6804 52.5434 76.9553 52.4803 76.3295 52.164C75.7037 51.8477 75.2261 51.3028 74.9971 50.6441C74.8973 50.3183 74.8645 49.9759 74.9006 49.6372C74.9367 49.2986 75.0409 48.9705 75.2071 48.6726C75.3733 48.3746 75.5982 48.1128 75.8683 47.9026C76.1384 47.6925 76.4483 47.5383 76.7796 47.4491L76.7787 47.4483ZM79.9582 54.755C80.4866 54.502 81.0929 54.461 81.651 54.6405C82.2092 54.8199 82.676 55.206 82.9545 55.7183C83.0838 55.9704 83.1604 56.2459 83.1795 56.5282C83.1986 56.8104 83.1599 57.0936 83.0657 57.3607C82.9715 57.6277 82.8238 57.873 82.6314 58.0818C82.4391 58.2907 82.206 58.4587 81.9464 58.5758C81.4176 58.8284 80.811 58.8693 80.2526 58.6899C79.6942 58.5105 79.2268 58.1247 78.9476 57.6125C78.8186 57.3602 78.7425 57.0845 78.7237 56.8023C78.705 56.52 78.744 56.2368 78.8385 55.9699C78.933 55.703 79.081 55.4578 79.2736 55.2491C79.4661 55.0405 79.6993 54.8727 79.959 54.7558L79.9582 54.755ZM83.8062 61.0933C84.1748 60.9165 84.5979 60.8877 84.9874 61.0128C85.377 61.138 85.7028 61.4074 85.897 61.765C85.9872 61.941 86.0406 62.1334 86.0538 62.3305C86.067 62.5276 86.0398 62.7253 85.9739 62.9117C85.9079 63.0981 85.8046 63.2693 85.6701 63.4149C85.5356 63.5606 85.3727 63.6777 85.1913 63.7591C84.8223 63.9347 84.3993 63.9629 84.0099 63.8379C83.6205 63.7129 83.2944 63.4442 83.0989 63.0875C83.009 62.9112 82.956 62.7187 82.9432 62.5216C82.9303 62.3245 82.9579 62.1268 83.0241 61.9405C83.0904 61.7542 83.194 61.5832 83.3287 61.4377C83.4634 61.2923 83.6264 61.1754 83.8079 61.0941L83.8062 61.0933ZM130.296 61.0933C130.665 60.9165 131.088 60.8877 131.477 61.0128C131.867 61.138 132.193 61.4074 132.387 61.765C132.477 61.941 132.53 62.1333 132.544 62.3304C132.557 62.5274 132.53 62.7251 132.464 62.9115C132.398 63.0979 132.295 63.2691 132.16 63.4148C132.026 63.5604 131.863 63.6776 131.682 63.7591C131.313 63.9347 130.89 63.9629 130.501 63.8379C130.111 63.7129 129.785 63.4442 129.59 63.0875C129.5 62.9113 129.447 62.7189 129.434 62.5219C129.421 62.3248 129.448 62.1272 129.514 61.9409C129.58 61.7547 129.684 61.5836 129.818 61.4381C129.953 61.2925 130.116 61.1755 130.297 61.0941L130.296 61.0933ZM136.04 54.755C136.3 54.8717 136.533 55.0394 136.726 55.2481C136.919 55.4567 137.067 55.702 137.162 55.969C137.257 56.236 137.296 56.5193 137.277 56.8018C137.258 57.0842 137.182 57.36 137.053 57.6125C136.774 58.1247 136.306 58.5106 135.748 58.69C135.189 58.8694 134.582 58.8285 134.053 58.5758C133.794 58.4587 133.561 58.2907 133.368 58.0818C133.176 57.873 133.028 57.6277 132.934 57.3607C132.84 57.0936 132.801 56.8104 132.82 56.5282C132.839 56.2459 132.916 55.9704 133.045 55.7183C133.324 55.2063 133.791 54.8206 134.349 54.6413C134.906 54.4621 135.513 54.5031 136.041 54.7558L136.04 54.755ZM135.866 49.1441C136.093 48.4847 136.571 47.9389 137.196 47.6224C137.822 47.3059 138.548 47.2434 139.219 47.4483C139.551 47.5376 139.86 47.692 140.13 47.9023C140.4 48.1126 140.625 48.3745 140.791 48.6725C140.957 48.9705 141.062 49.2985 141.098 49.6372C141.134 49.9759 141.101 50.3183 141.001 50.6441C140.772 51.3028 140.294 51.8477 139.669 52.164C139.043 52.4803 138.318 52.5434 137.646 52.34C137.315 52.2506 137.005 52.0961 136.736 51.8859C136.466 51.6756 136.241 51.4137 136.075 51.1157C135.909 50.8178 135.805 50.4899 135.77 50.1513C135.734 49.8128 135.767 49.4706 135.867 49.145L135.866 49.1441ZM137.168 41.7583C137.165 41.2259 137.322 40.7048 137.62 40.2619C137.918 39.819 138.342 39.4747 138.839 39.2733C139.336 39.0719 139.882 39.0227 140.407 39.1318C140.932 39.241 141.413 39.5037 141.786 39.886C142.16 40.2683 142.409 40.7527 142.503 41.277C142.596 41.8012 142.53 42.3412 142.311 42.8274C142.093 43.3137 141.733 43.724 141.277 44.0054C140.822 44.2868 140.292 44.4266 139.755 44.4066C139.059 44.3926 138.397 44.1066 137.913 43.6108C137.429 43.115 137.161 42.4495 137.169 41.7591L137.168 41.7583Z" fill="#274479"/>
</g>
<path d="M1.11 100.54C1.11 106.45 4.8 109.33 10.32 109.33C12.63 109.33 14.76 108.73 16.77 107.65V99.82H12.57V105.88C12.03 105.97 11.49 106.03 10.92 106.03C7.41 106.03 5.52 103.84 5.52 100.06C5.52 96.31 8.04 94.48 10.86 94.48C12.69 94.48 14.97 94.87 16.71 95.98V92.26C15.57 91.81 13.44 91.18 10.8 91.18C4.89 91.18 1.11 94.9 1.11 100.54ZM24.9462 91.51L18.0462 109H22.0062L23.4762 104.8H29.4462L30.6462 109H35.1162L29.2362 91.51H24.9462ZM24.6162 101.59L25.1862 100.03L26.7462 95.71H26.8962L28.0962 100.03L28.5462 101.59H24.6162ZM36.7057 100.54C36.7057 106.45 40.3957 109.33 45.9157 109.33C48.2257 109.33 50.4457 108.73 51.4057 108.13V104.68C49.6057 105.73 48.3157 106.03 46.4557 106.03C43.2457 106.03 41.1157 104.11 41.1157 100.06C41.1157 96.31 43.3357 94.48 46.1557 94.48C47.9857 94.48 49.6657 94.78 51.4057 95.89V92.17C50.2657 91.72 48.7357 91.18 46.0957 91.18C40.1857 91.18 36.7057 94.9 36.7057 100.54ZM59.3993 91.51L52.4993 109H56.4593L57.9293 104.8H63.8993L65.0993 109H69.5693L63.6893 91.51H59.3993ZM59.0693 101.59L59.6393 100.03L61.1993 95.71H61.3493L62.5493 100.03L62.9993 101.59H59.0693Z" fill="#264478"/>
<path d="M80.3318 91.51V109H91.0718V106.96H82.7918V101.05H89.4818V99.01H82.7918V93.55H90.8618V91.51H80.3318ZM93.8236 100.69V102.73H100.784V100.69H93.8236ZM103.926 105.7V108.22C105.516 108.88 107.196 109.24 108.906 109.24C112.206 109.24 115.056 107.47 115.056 104.2C115.056 100.81 112.056 99.79 109.506 98.74C107.436 97.9 106.236 97.27 106.236 95.62C106.236 94.18 107.796 93.34 109.416 93.34C111.216 93.34 112.956 93.88 114.396 94.81V92.29C113.226 91.69 111.546 91.24 109.416 91.24C106.386 91.24 103.806 93.1 103.806 96.19C103.806 99.04 106.176 100.21 108.396 101.05C110.646 101.92 112.626 102.52 112.626 104.44C112.626 106.09 111.066 107.08 109.056 107.08C107.226 107.08 105.216 106.45 103.926 105.7ZM118.886 91.51V109H129.626V106.96H121.346V101.05H128.036V99.01H121.346V93.55H129.416V91.51H118.886ZM133.447 91.51V109H135.907V102.4H137.707C138.277 102.4 138.787 102.37 139.297 102.31L143.317 109H146.347L141.637 101.68C143.767 100.75 144.817 98.95 144.817 96.85C144.817 93.16 142.387 91.51 138.877 91.51H133.447ZM135.907 93.55H138.007C140.737 93.58 142.297 94.66 142.297 96.94C142.297 99.76 140.287 100.36 137.557 100.36H135.907V93.55ZM155.695 109L162.925 91.51H160.345L156.475 101.77L154.915 105.88H154.795L153.325 101.65L149.815 91.51H147.175L153.535 109H155.695ZM165.674 91.51V109H168.134V91.51H165.674ZM172.095 100.36C172.095 105.88 175.065 109.24 180.795 109.24C183.165 109.24 185.115 108.64 185.925 108.1V105.94C184.425 106.84 182.985 107.17 181.095 107.17C177.165 107.17 174.705 104.77 174.705 99.91C174.705 95.71 177.075 93.28 180.585 93.28C182.535 93.28 184.095 93.58 185.925 94.66V92.23C184.995 91.87 183.765 91.24 180.735 91.24C175.035 91.24 172.095 95.41 172.095 100.36ZM189.726 91.51V109H200.466V106.96H192.186V101.05H198.876V99.01H192.186V93.55H200.256V91.51H189.726ZM203.477 105.7V108.22C205.067 108.88 206.747 109.24 208.457 109.24C211.757 109.24 214.607 107.47 214.607 104.2C214.607 100.81 211.607 99.79 209.057 98.74C206.987 97.9 205.787 97.27 205.787 95.62C205.787 94.18 207.347 93.34 208.967 93.34C210.767 93.34 212.507 93.88 213.947 94.81V92.29C212.777 91.69 211.097 91.24 208.967 91.24C205.937 91.24 203.357 93.1 203.357 96.19C203.357 99.04 205.727 100.21 207.947 101.05C210.197 101.92 212.177 102.52 212.177 104.44C212.177 106.09 210.617 107.08 208.607 107.08C206.777 107.08 204.767 106.45 203.477 105.7Z" fill="#0175CA"/>
<g clip-path="url(#clip1_44_226)">
<path fill-rule="evenodd" clip-rule="evenodd" d="M62.7089 149C62.2017 147.792 61.3425 146.764 60.2432 146.05C59.1438 145.337 57.8552 144.971 56.5449 145C55.7128 144.927 54.8747 145.028 54.0837 145.296C53.2927 145.565 52.5662 145.995 51.9503 146.559C51.3344 147.123 50.8427 147.81 50.5062 148.574C50.1698 149.339 49.9961 150.165 49.9961 151C49.9961 151.835 50.1698 152.661 50.5062 153.426C50.8427 154.19 51.3344 154.877 51.9503 155.441C52.5662 156.005 53.2927 156.435 54.0837 156.704C54.8747 156.972 55.7128 157.073 56.5449 157C57.8552 157.029 59.1438 156.663 60.2432 155.95C61.3425 155.236 62.2017 154.208 62.7089 153H67.4539V157H71.8179V153H73.9999V149H62.7089ZM56.5449 153C56.1566 152.966 55.7866 152.82 55.4799 152.58C55.1732 152.339 54.9431 152.015 54.8177 151.646C54.6923 151.277 54.677 150.879 54.7737 150.501C54.8704 150.124 55.0748 149.783 55.3621 149.519C55.6494 149.256 56.0072 149.082 56.3917 149.018C56.7763 148.955 57.171 149.005 57.5277 149.162C57.8844 149.319 58.1878 149.576 58.4008 149.902C58.6137 150.229 58.727 150.61 58.7269 151C58.701 151.554 58.457 152.075 58.0482 152.45C57.6394 152.824 57.099 153.022 56.5449 153Z" fill="#0075C9"/>
</g>
<path d="M85.344 155.08V158.3C86.968 158.944 88.648 159.308 90.384 159.308C93.94 159.308 96.936 157.768 96.936 154.212C96.936 150.908 94.136 149.9 91.728 149.144C89.768 148.528 88.844 148.08 88.844 147.016C88.844 145.98 90.188 145.476 91.56 145.476C93.296 145.476 95.256 146.008 96.32 146.68V143.404C95.228 142.844 93.324 142.368 91.196 142.368C87.976 142.368 85.176 144.244 85.176 147.464C85.176 150.348 86.968 151.44 89.208 152.196C91.364 152.952 93.324 153.288 93.324 154.604C93.324 155.668 92.26 156.312 90.748 156.312C88.956 156.312 86.632 155.752 85.344 155.08ZM99.99 141.78C99.99 143.068 100.998 143.712 102.258 143.712C103.518 143.712 104.47 143.096 104.47 141.78C104.47 140.492 103.546 139.848 102.258 139.848C100.998 139.848 99.99 140.464 99.99 141.78ZM98.534 146.288V149.172H100.326V159H103.938V146.288H98.534ZM111.51 154.268C111.874 154.296 112.21 154.296 112.574 154.296C115.43 154.296 118.314 152.644 118.314 150.18C118.314 149.536 118.174 148.948 117.894 148.444H120.106V146.092L116.186 146.792C115.178 146.26 113.862 145.98 112.49 145.98C109.438 145.98 106.722 147.716 106.722 150.292C106.722 152.196 107.926 153.288 109.522 153.848L107.086 156.032V157.908L108.738 158.076C107.338 158.888 106.106 160.008 106.106 161.352C106.106 163.536 108.29 164.992 112.014 164.992C116.242 164.992 119.546 162.612 119.546 159.7C119.546 157.32 117.978 156.088 114.422 155.836L110.474 155.528L111.51 154.268ZM114.59 150.208C114.59 151.356 113.75 152.14 112.546 152.14C111.23 152.14 110.306 151.468 110.306 150.124C110.306 148.92 111.09 148.192 112.378 148.192C113.694 148.192 114.59 148.864 114.59 150.208ZM111.398 158.384L113.162 158.552C115.43 158.832 115.878 159.364 115.878 160.344C115.878 161.436 114.59 162.556 112.63 162.556C110.586 162.556 109.774 161.688 109.774 160.708C109.774 159.896 110.39 159.056 111.398 158.384ZM122.021 149.396V159H125.661V149.9C126.417 149.508 127.312 149.144 128.041 149.144C129.833 149.144 130.337 150.04 130.337 152.196V159H133.977V150.684C133.977 147.324 132.381 146.036 130.029 146.036C128.321 146.036 126.613 146.792 125.353 147.66L125.073 146.288H121.489L122.021 149.396ZM144.12 142.676V159H148.068V142.676H144.12ZM151.716 149.396V159H155.356V149.9C156.112 149.508 157.008 149.144 157.736 149.144C159.528 149.144 160.032 150.04 160.032 152.196V159H163.672V150.684C163.672 147.324 162.076 146.036 159.724 146.036C158.016 146.036 156.308 146.792 155.048 147.66L154.768 146.288H151.184L151.716 149.396Z" fill="#0175CA"/>
<defs>
<clipPath id="clip0_44_226">
<rect width="84" height="70" fill="white" transform="translate(66)"/>
</clipPath>
<clipPath id="clip1_44_226">
<rect width="24" height="12" fill="white" transform="translate(50 145)"/>
</clipPath>
</defs>
</svg>
