<svg width="20" height="14" viewBox="0 0 20 14" fill="none" xmlns="http://www.w3.org/2000/svg">
<path fill-rule="evenodd" clip-rule="evenodd" d="M3.96588 14C1.77559 14 0 12.2905 0 10.1818V3.81818C0 1.70946 1.77559 -1.19209e-07 3.96588 -1.19209e-07H16.0341C18.2244 -1.19209e-07 20 1.70946 20 3.81818V10.1818C20 12.2905 18.2244 14 16.0341 14H3.96588ZM10.5757 4.31085C12.1065 4.31085 13.3475 5.50563 13.3475 6.97947C13.3475 8.45331 12.1065 9.64809 10.5757 9.64809C9.04484 9.64809 7.80384 8.45331 7.80384 6.97947C7.80384 5.50563 9.04484 4.31085 10.5757 4.31085ZM4.73348 5.62463C5.51068 5.62463 6.14073 6.23122 6.14073 6.97947C6.14073 7.72773 5.51068 8.33431 4.73348 8.33431C3.95627 8.33431 3.32623 7.72773 3.32623 6.97947C3.32623 6.23122 3.95627 5.62463 4.73348 5.62463ZM17.8252 6.97947C17.8252 6.23122 17.1951 5.62463 16.4179 5.62463C15.6407 5.62463 15.0107 6.23122 15.0107 6.97947C15.0107 7.72773 15.6407 8.33431 16.4179 8.33431C17.1951 8.33431 17.8252 7.72773 17.8252 6.97947Z" fill="#00A886"/>
</svg>
