<svg width="40" height="40" viewBox="0 0 40 40" fill="none" xmlns="http://www.w3.org/2000/svg">
<path d="M20 0C8.97201 0 0 8.97201 0 20C0 31.028 8.97201 40 20 40C31.028 40 40 31.028 40 20C40 8.97201 31.0281 0 20 0ZM20 37.8378C15.1003 37.8378 10.6562 35.8518 7.42915 32.6431C6.14049 31.3618 5.04655 29.885 4.19479 28.262C2.89761 25.7905 2.16219 22.9796 2.16219 20C2.16219 10.1642 10.1642 2.16219 20 2.16219C24.6653 2.16219 28.9173 3.9633 32.0992 6.90577C33.749 8.4312 35.1113 10.2631 36.0936 12.3107C37.2112 14.6403 37.8378 17.2483 37.8378 20C37.8378 29.8358 29.8358 37.8378 20 37.8378Z" fill="#1CC8A5"/>
<rect x="2" y="2" width="36" height="36" rx="18" fill="#1CC8A5"/>
<path d="M13.9181 17.3244C15.1122 17.3244 16.0802 16.3563 16.0802 15.1622C16.0802 13.968 15.1122 13 13.9181 13C12.7239 13 11.7559 13.968 11.7559 15.1622C11.7559 16.3563 12.7239 17.3244 13.9181 17.3244Z" fill="white"/>
<path d="M27.297 17.3244C28.4911 17.3244 29.4591 16.3563 29.4591 15.1622C29.4591 13.968 28.4911 13 27.297 13C26.1028 13 25.1348 13.968 25.1348 15.1622C25.1348 16.3563 26.1028 17.3244 27.297 17.3244Z" fill="white"/>
<path d="M20.4107 30.7024C24.5937 30.7024 28.6025 28.5632 30.8979 25.0114L29.0817 23.8379C26.974 27.0994 23.1187 28.9196 19.2582 28.4742C16.2498 28.1273 13.4677 26.394 11.816 23.8379L10 25.0114C11.9987 28.1046 15.3671 30.2019 19.0104 30.6222C19.4781 30.6761 19.9451 30.7024 20.4107 30.7024Z" fill="white"/>
</svg>
