<svg width="40" height="40" viewBox="0 0 40 40" fill="none" xmlns="http://www.w3.org/2000/svg">
<path d="M20 0C8.97201 0 0 8.97201 0 20C0 31.028 8.97201 40 20 40C31.028 40 40 31.028 40 20C40 8.97201 31.0281 0 20 0ZM20 37.8378C15.1003 37.8378 10.6562 35.8518 7.42915 32.6431C6.14049 31.3618 5.04655 29.885 4.19479 28.262C2.89761 25.7905 2.16219 22.9796 2.16219 20C2.16219 10.1642 10.1642 2.16219 20 2.16219C24.6653 2.16219 28.9173 3.9633 32.0992 6.90577C33.749 8.4312 35.1113 10.2631 36.0936 12.3107C37.2112 14.6403 37.8378 17.2483 37.8378 20C37.8378 29.8358 29.8358 37.8378 20 37.8378Z" fill="#00A886"/>
<rect x="2" y="2" width="36" height="36" rx="18" fill="#00A886"/>
<path d="M13.2699 15.1622C14.4321 15.1622 15.3777 16.0537 15.3777 17.2699H17.5398C17.5398 14.8375 15.6244 13 13.2699 13C10.9154 13 9 14.8375 9 17.2699H11.1622C11.1622 16.0537 12.1079 15.1622 13.2699 15.1622Z" fill="white"/>
<path d="M26.2699 15.1622C27.4321 15.1622 28.3777 16.0537 28.3777 17.2699H30.5398C30.5398 14.8375 28.6244 13 26.2699 13C23.9154 13 22 14.8375 22 17.2699H24.1622C24.1622 16.0537 25.1077 15.1622 26.2699 15.1622Z" fill="white"/>
<path d="M20.0669 30.7835C24.25 30.7835 28.2588 28.6443 30.5541 25.0925L28.738 23.9189C26.6304 27.1805 22.7739 29.0008 18.9145 28.5552C15.9061 28.2083 13.124 26.4751 11.4722 23.9189L9.65625 25.0925C11.6549 28.1856 15.0233 30.2829 18.6666 30.7031C19.1344 30.7571 19.6014 30.7835 20.0669 30.7835Z" fill="white"/>
</svg>
