<svg width="40" height="40" viewBox="0 0 40 40" fill="none" xmlns="http://www.w3.org/2000/svg">
<g clip-path="url(#clip0_133_1218)">
<path d="M20 0C8.97201 0 0 8.97201 0 20C0 31.028 8.97201 40 20 40C31.028 40 40 31.028 40 20C40 8.97201 31.0281 0 20 0ZM20 37.8378C15.1003 37.8378 10.6562 35.8518 7.42915 32.6431C6.14049 31.3618 5.04655 29.885 4.19479 28.262C2.89761 25.7905 2.16219 22.9796 2.16219 20C2.16219 10.1642 10.1642 2.16219 20 2.16219C24.6653 2.16219 28.9173 3.9633 32.0992 6.90577C33.749 8.4312 35.1113 10.2631 36.0936 12.3107C37.2112 14.6403 37.8378 17.2483 37.8378 20C37.8378 29.8358 29.8358 37.8378 20 37.8378Z" fill="#00A886"/>
<path d="M13.1645 15.4596C14.3266 15.4596 15.2722 16.3511 15.2722 17.5673H17.4344C17.4344 15.1348 15.5189 13.2974 13.1645 13.2974C10.81 13.2974 8.89453 15.1348 8.89453 17.5673H11.0567C11.0567 16.3511 12.0024 15.4596 13.1645 15.4596Z" fill="#00A886"/>
<path d="M26.8363 15.4596C27.9985 15.4596 28.9441 16.3511 28.9441 17.5673H31.1063C31.1063 15.1348 29.1908 13.2974 26.8363 13.2974C24.4818 13.2974 22.5664 15.1348 22.5664 17.5673H24.7286C24.7286 16.3511 25.6742 15.4596 26.8363 15.4596Z" fill="#00A886"/>
<path d="M19.9615 31.0809C24.1445 31.0809 28.1533 28.9416 30.4486 25.3898L28.6325 24.2163C26.5249 27.4778 22.6684 29.2981 18.809 28.8526C15.8006 28.5057 13.0185 26.7724 11.3668 24.2163L9.55078 25.3898C11.5495 28.483 14.9179 30.5803 18.5612 31.0005C19.0289 31.0545 19.4959 31.0809 19.9615 31.0809Z" fill="#00A886"/>
</g>
<defs>
<clipPath id="clip0_133_1218">
<rect width="40" height="40" fill="white"/>
</clipPath>
</defs>
</svg>
