<svg width="22" height="22" viewBox="0 0 22 22" fill="none" xmlns="http://www.w3.org/2000/svg">
<rect width="22" height="22" rx="11" fill="#0175CA"/>
<path d="M10.0897 15V8.45455H11.905V15H10.0897ZM11.0016 7.6108C10.7317 7.6108 10.5002 7.52131 10.307 7.34233C10.1167 7.16051 10.0215 6.94318 10.0215 6.69034C10.0215 6.44034 10.1167 6.22585 10.307 6.04688C10.5002 5.86506 10.7317 5.77415 11.0016 5.77415C11.2715 5.77415 11.5016 5.86506 11.6919 6.04688C11.8851 6.22585 11.9817 6.44034 11.9817 6.69034C11.9817 6.94318 11.8851 7.16051 11.6919 7.34233C11.5016 7.52131 11.2715 7.6108 11.0016 7.6108Z" fill="white"/>
</svg>
