<svg width="47" height="24" viewBox="0 0 47 24" fill="none" xmlns="http://www.w3.org/2000/svg">
<rect width="32.6" height="11.4" transform="translate(7.19995 0.100098)" fill="#274479"/>
<path d="M12.664 3.63605H13.32V8.30005H12.664V3.63605ZM14.5684 5.55605L14.4164 4.70005H15.0244L15.1124 5.14805C15.4404 4.91605 15.9524 4.62805 16.4964 4.62805C17.2164 4.62805 17.5604 4.99605 17.5604 5.92405V8.30005H16.9524V5.98805C16.9524 5.42805 16.8244 5.16405 16.2724 5.16405C15.9364 5.16405 15.5044 5.38005 15.1684 5.58805V8.30005H14.5684V5.55605ZM18.2311 4.70005H18.9351L19.5831 6.74805L19.8551 7.60405H19.9031L20.2071 6.73205L20.9191 4.70005H21.5831L20.1751 8.30005H19.5111L18.2311 4.70005ZM21.9536 6.51605C21.9536 5.51605 22.6496 4.62805 23.6176 4.62805C24.6816 4.62805 25.2256 5.22005 25.2256 6.50005C25.2256 7.48405 24.5776 8.36405 23.5856 8.36405C22.6016 8.36405 21.9536 7.80405 21.9536 6.51605ZM24.5856 6.51605C24.5856 5.83605 24.4576 5.16405 23.5856 5.16405C22.7936 5.16405 22.5936 5.80405 22.5936 6.49205C22.5936 7.25205 22.8176 7.82805 23.6096 7.82805C24.3936 7.82805 24.5856 7.22805 24.5856 6.51605ZM26.1939 3.34005C26.1939 3.09205 26.3859 2.90805 26.6419 2.90805C26.8899 2.90805 27.0899 3.09205 27.0899 3.34005C27.0899 3.58805 26.8899 3.78005 26.6419 3.78005C26.3859 3.78005 26.1939 3.58805 26.1939 3.34005ZM25.7459 4.70005H26.9299V8.30005H26.3299V5.23605H25.7459V4.70005ZM27.86 6.55605C27.86 5.46005 28.484 4.62805 29.604 4.62805C29.948 4.62805 30.308 4.66805 30.58 4.81205V5.45205C30.236 5.22805 29.908 5.16405 29.58 5.16405C29.012 5.16405 28.5 5.44405 28.5 6.50805C28.5 7.41205 28.94 7.82805 29.668 7.82805C29.948 7.82805 30.276 7.75605 30.58 7.60405V8.11605C30.3 8.28405 29.94 8.36405 29.524 8.36405C28.412 8.36405 27.86 7.67605 27.86 6.55605ZM31.2584 6.56405C31.2584 5.46805 31.8584 4.62805 32.8824 4.62805C33.9064 4.62805 34.3784 5.38005 34.3784 6.34805V6.62805H31.8984C31.9384 7.45205 32.3464 7.82805 33.0424 7.82805C33.4504 7.82805 33.9544 7.72405 34.2904 7.55605V8.06805C33.9704 8.26005 33.5384 8.36405 32.9544 8.36405C31.8424 8.36405 31.2584 7.68405 31.2584 6.56405ZM31.9144 6.14805H33.7064C33.6744 5.58805 33.4184 5.16405 32.8584 5.16405C32.4024 5.16405 32.0104 5.38005 31.9144 6.14805Z" fill="white"/>
<rect width="45.6" height="12.4" transform="translate(0.699951 11.5)" fill="#00A886"/>
<path d="M13.69 14.87H16C17.27 14.87 18.14 15.55 18.14 16.81C18.14 17.87 17.31 18.82 15.61 18.82H15.1V20.7H13.69V14.87ZM15.1 15.89V17.79H15.31C16.17 17.78 16.68 17.61 16.68 16.83C16.68 16.2 16.22 15.9 15.37 15.89H15.1ZM20.2314 14.87H21.6614L23.6214 20.7H22.1314L21.7314 19.3H19.7414L19.2514 20.7H17.9314L20.2314 14.87ZM20.1214 18.23H21.4314L21.2814 17.71L20.8814 16.27H20.8314L20.3114 17.71L20.1214 18.23ZM24.4713 14.87H25.8813V20.7H24.4713V14.87ZM27.2642 14.87H29.2842C31.1142 14.88 32.6542 15.49 32.6542 17.66C32.6542 19.65 31.2242 20.67 29.3142 20.7H27.2642V14.87ZM28.6742 15.94V19.63H29.1442C30.4442 19.63 31.1642 18.96 31.1642 17.79C31.1642 16.42 30.4042 15.94 29.0942 15.94H28.6742Z" fill="white"/>
</svg>
