<svg width="60" height="29" viewBox="0 0 60 29" fill="none" xmlns="http://www.w3.org/2000/svg">
<rect width="42.48" height="14.32" transform="translate(8.40002)" fill="#274479"/>
<path d="M15.5032 4.09671H16.356V10.1599H15.5032V4.09671ZM17.9789 6.59271L17.7813 5.47991H18.5717L18.6861 6.06231C19.1125 5.76071 19.7781 5.38631 20.4853 5.38631C21.4213 5.38631 21.8685 5.86471 21.8685 7.07111V10.1599H21.0781V7.15431C21.0781 6.42631 20.9117 6.08311 20.1941 6.08311C19.7573 6.08311 19.1957 6.36391 18.7589 6.63431V10.1599H17.9789V6.59271ZM22.7404 5.47991H23.6556L24.498 8.14231L24.8516 9.25511H24.914L25.3092 8.12151L26.2348 5.47991H27.098L25.2676 10.1599H24.4044L22.7404 5.47991ZM27.5797 7.84071C27.5797 6.54071 28.4845 5.38631 29.7429 5.38631C31.1261 5.38631 31.8333 6.15591 31.8333 7.81991C31.8333 9.09911 30.9909 10.2431 29.7013 10.2431C28.4221 10.2431 27.5797 9.51511 27.5797 7.84071ZM31.0013 7.84071C31.0013 6.95671 30.8349 6.08311 29.7013 6.08311C28.6717 6.08311 28.4117 6.91511 28.4117 7.80951C28.4117 8.79751 28.7029 9.54631 29.7325 9.54631C30.7517 9.54631 31.0013 8.76631 31.0013 7.84071ZM33.0921 3.71191C33.0921 3.38951 33.3417 3.15031 33.6745 3.15031C33.9969 3.15031 34.2569 3.38951 34.2569 3.71191C34.2569 4.03431 33.9969 4.28391 33.6745 4.28391C33.3417 4.28391 33.0921 4.03431 33.0921 3.71191ZM32.5097 5.47991H34.0489V10.1599H33.2689V6.17671H32.5097V5.47991ZM35.258 7.89271C35.258 6.46791 36.0692 5.38631 37.5252 5.38631C37.9724 5.38631 38.4404 5.43831 38.794 5.62551V6.45751C38.3468 6.16631 37.9204 6.08311 37.494 6.08311C36.7556 6.08311 36.09 6.44711 36.09 7.83031C36.09 9.00551 36.662 9.54631 37.6084 9.54631C37.9724 9.54631 38.3988 9.45271 38.794 9.25511V9.92071C38.43 10.1391 37.962 10.2431 37.4212 10.2431C35.9756 10.2431 35.258 9.34871 35.258 7.89271ZM39.676 7.90311C39.676 6.47831 40.456 5.38631 41.7872 5.38631C43.1184 5.38631 43.732 6.36391 43.732 7.62231V7.98631H40.508C40.56 9.05751 41.0904 9.54631 41.9952 9.54631C42.5256 9.54631 43.1808 9.41111 43.6176 9.19271V9.85831C43.2016 10.1079 42.64 10.2431 41.8808 10.2431C40.4352 10.2431 39.676 9.35911 39.676 7.90311ZM40.5288 7.36231H42.8584C42.8168 6.63431 42.484 6.08311 41.756 6.08311C41.1632 6.08311 40.6536 6.36391 40.5288 7.36231Z" fill="white"/>
<rect width="59.28" height="14.32" transform="translate(0 14.3201)" fill="#D2DCE6"/>
<path d="M13.27 22.34V18.65H14.68V22.12C14.68 23.12 15.19 23.51 16 23.51C16.77 23.51 17.17 23.07 17.17 22.04V18.65H18.58V22.1C18.58 23.84 17.3 24.59 15.93 24.59C14.44 24.59 13.27 23.92 13.27 22.34ZM19.8925 18.65H21.0725L23.9225 22.2H23.9525V18.65H25.2225V24.48H24.0225L21.1925 20.85H21.1625V24.48H19.8925V18.65ZM26.6015 18.65H28.9115C30.1815 18.65 31.0515 19.33 31.0515 20.59C31.0515 21.65 30.2215 22.6 28.5215 22.6H28.0115V24.48H26.6015V18.65ZM28.0115 19.67V21.57H28.2215C29.0815 21.56 29.5915 21.39 29.5915 20.61C29.5915 19.98 29.1315 19.68 28.2815 19.67H28.0115ZM33.1429 18.65H34.5729L36.5329 24.48H35.0429L34.6429 23.08H32.6529L32.1629 24.48H30.8429L33.1429 18.65ZM33.0329 22.01H34.3429L34.1929 21.49L33.7929 20.05H33.7429L33.2229 21.49L33.0329 22.01ZM37.3827 18.65H38.7927V24.48H37.3827V18.65ZM40.1757 18.65H42.1957C44.0257 18.66 45.5657 19.27 45.5657 21.44C45.5657 23.43 44.1357 24.45 42.2257 24.48H40.1757V18.65ZM41.5857 19.72V23.41H42.0557C43.3557 23.41 44.0757 22.74 44.0757 21.57C44.0757 20.2 43.3157 19.72 42.0057 19.72H41.5857Z" fill="black"/>
</svg>
