<svg width="60" height="32" viewBox="0 0 60 32" fill="none" xmlns="http://www.w3.org/2000/svg">
<rect width="42.48" height="14.32" transform="translate(8.56006 0.680176)" fill="#274479"/>
<path d="M15.6632 4.77688H16.5161V10.8401H15.6632V4.77688ZM18.1389 7.27288L17.9413 6.16008H18.7317L18.8461 6.74248C19.2725 6.44088 19.9381 6.06648 20.6453 6.06648C21.5813 6.06648 22.0285 6.54488 22.0285 7.75129V10.8401H21.2381V7.83449C21.2381 7.10648 21.0717 6.76328 20.3541 6.76328C19.9173 6.76328 19.3557 7.04408 18.9189 7.31448V10.8401H18.1389V7.27288ZM22.9004 6.16008H23.8156L24.658 8.82249L25.0116 9.93529H25.074L25.4692 8.80169L26.3948 6.16008H27.258L25.4276 10.8401H24.5644L22.9004 6.16008ZM27.7397 8.52089C27.7397 7.22088 28.6445 6.06648 29.9029 6.06648C31.2861 6.06648 31.9933 6.83608 31.9933 8.50009C31.9933 9.77929 31.1509 10.9233 29.8613 10.9233C28.5821 10.9233 27.7397 10.1953 27.7397 8.52089ZM31.1613 8.52089C31.1613 7.63689 30.9949 6.76328 29.8613 6.76328C28.8317 6.76328 28.5717 7.59529 28.5717 8.48969C28.5717 9.47769 28.8629 10.2265 29.8925 10.2265C30.9117 10.2265 31.1613 9.44649 31.1613 8.52089ZM33.2522 4.39208C33.2522 4.06968 33.5018 3.83048 33.8346 3.83048C34.157 3.83048 34.417 4.06968 34.417 4.39208C34.417 4.71448 34.157 4.96408 33.8346 4.96408C33.5018 4.96408 33.2522 4.71448 33.2522 4.39208ZM32.6698 6.16008H34.209V10.8401H33.429V6.85688H32.6698V6.16008ZM35.4181 8.57289C35.4181 7.14808 36.2293 6.06648 37.6853 6.06648C38.1325 6.06648 38.6005 6.11848 38.9541 6.30568V7.13768C38.5069 6.84648 38.0805 6.76328 37.6541 6.76328C36.9157 6.76328 36.2501 7.12728 36.2501 8.51049C36.2501 9.68569 36.8221 10.2265 37.7685 10.2265C38.1325 10.2265 38.5589 10.1329 38.9541 9.93529V10.6009C38.5901 10.8193 38.1221 10.9233 37.5813 10.9233C36.1357 10.9233 35.4181 10.0289 35.4181 8.57289ZM39.836 8.58329C39.836 7.15848 40.616 6.06648 41.9472 6.06648C43.2784 6.06648 43.892 7.04408 43.892 8.30249V8.66649H40.668C40.72 9.73769 41.2504 10.2265 42.1552 10.2265C42.6856 10.2265 43.3408 10.0913 43.7776 9.87289V10.5385C43.3616 10.7881 42.8 10.9233 42.0408 10.9233C40.5952 10.9233 39.836 10.0393 39.836 8.58329ZM40.6888 8.04249H43.0184C42.9768 7.31448 42.644 6.76328 41.916 6.76328C41.3232 6.76328 40.8136 7.04408 40.6888 8.04249Z" fill="white"/>
<rect width="59.28" height="16.32" transform="translate(0.160034 15.0002)" fill="#00A886"/>
<path d="M17.197 19.5812H20.2001C21.8511 19.5812 22.9821 20.4652 22.9821 22.1032C22.9821 23.4812 21.9031 24.7162 19.6931 24.7162H19.0301V27.1602H17.197V19.5812ZM19.0301 20.9072V23.3772H19.3031C20.4211 23.3642 21.0841 23.1432 21.0841 22.1292C21.0841 21.3102 20.4861 20.9202 19.3811 20.9072H19.0301ZM25.7009 19.5812H27.5599L30.1079 27.1602H28.1709L27.6509 25.3402H25.0639L24.4269 27.1602H22.7109L25.7009 19.5812ZM25.5579 23.9492H27.2609L27.0659 23.2732L26.5459 21.4012H26.4809L25.8049 23.2732L25.5579 23.9492ZM31.2127 19.5812H33.0457V27.1602H31.2127V19.5812ZM34.8435 19.5812H37.4696C39.8486 19.5941 41.8506 20.3872 41.8506 23.2082C41.8506 25.7952 39.9916 27.1212 37.5086 27.1602H34.8435V19.5812ZM36.6766 20.9722V25.7692H37.2876C38.9776 25.7692 39.9136 24.8982 39.9136 23.3772C39.9136 21.5962 38.9256 20.9722 37.2226 20.9722H36.6766Z" fill="white"/>
</svg>
