<svg width="46" height="24" viewBox="0 0 46 24" fill="none" xmlns="http://www.w3.org/2000/svg">
<rect width="32.6" height="11.4" transform="translate(6.5 0.100098)" fill="#274479"/>
<path d="M11.9639 3.63605H12.6199V8.30005H11.9639V3.63605ZM13.8683 5.55605L13.7163 4.70005H14.3243L14.4123 5.14805C14.7403 4.91605 15.2523 4.62805 15.7963 4.62805C16.5163 4.62805 16.8603 4.99605 16.8603 5.92405V8.30005H16.2523V5.98805C16.2523 5.42805 16.1243 5.16405 15.5723 5.16405C15.2363 5.16405 14.8043 5.38005 14.4683 5.58805V8.30005H13.8683V5.55605ZM17.531 4.70005H18.235L18.883 6.74805L19.155 7.60405H19.203L19.507 6.73205L20.219 4.70005H20.883L19.475 8.30005H18.811L17.531 4.70005ZM21.2535 6.51605C21.2535 5.51605 21.9495 4.62805 22.9175 4.62805C23.9815 4.62805 24.5255 5.22005 24.5255 6.50005C24.5255 7.48405 23.8775 8.36405 22.8855 8.36405C21.9015 8.36405 21.2535 7.80405 21.2535 6.51605ZM23.8855 6.51605C23.8855 5.83605 23.7575 5.16405 22.8855 5.16405C22.0935 5.16405 21.8935 5.80405 21.8935 6.49205C21.8935 7.25205 22.1175 7.82805 22.9095 7.82805C23.6935 7.82805 23.8855 7.22805 23.8855 6.51605ZM25.4939 3.34005C25.4939 3.09205 25.6859 2.90805 25.9419 2.90805C26.1899 2.90805 26.3899 3.09205 26.3899 3.34005C26.3899 3.58805 26.1899 3.78005 25.9419 3.78005C25.6859 3.78005 25.4939 3.58805 25.4939 3.34005ZM25.0459 4.70005H26.2299V8.30005H25.6299V5.23605H25.0459V4.70005ZM27.1599 6.55605C27.1599 5.46005 27.7839 4.62805 28.9039 4.62805C29.2479 4.62805 29.6079 4.66805 29.8799 4.81205V5.45205C29.5359 5.22805 29.2079 5.16405 28.8799 5.16405C28.3119 5.16405 27.7999 5.44405 27.7999 6.50805C27.7999 7.41205 28.2399 7.82805 28.9679 7.82805C29.2479 7.82805 29.5759 7.75605 29.8799 7.60405V8.11605C29.5999 8.28405 29.2399 8.36405 28.8239 8.36405C27.7119 8.36405 27.1599 7.67605 27.1599 6.55605ZM30.5584 6.56405C30.5584 5.46805 31.1584 4.62805 32.1824 4.62805C33.2064 4.62805 33.6784 5.38005 33.6784 6.34805V6.62805H31.1984C31.2384 7.45205 31.6464 7.82805 32.3424 7.82805C32.7504 7.82805 33.2544 7.72405 33.5904 7.55605V8.06805C33.2704 8.26005 32.8384 8.36405 32.2544 8.36405C31.1424 8.36405 30.5584 7.68405 30.5584 6.56405ZM31.2144 6.14805H33.0064C32.9744 5.58805 32.7184 5.16405 32.1584 5.16405C31.7024 5.16405 31.3104 5.38005 31.2144 6.14805Z" fill="white"/>
<rect width="45.6" height="12.4" transform="translate(0 11.5)" fill="#D2DCE6"/>
<path d="M6.43005 18.56V14.87H7.84005V18.34C7.84005 19.34 8.35005 19.73 9.16005 19.73C9.93005 19.73 10.33 19.29 10.33 18.26V14.87H11.74V18.32C11.74 20.06 10.46 20.81 9.09005 20.81C7.60005 20.81 6.43005 20.14 6.43005 18.56ZM13.0525 14.87H14.2325L17.0825 18.42H17.1125V14.87H18.3825V20.7H17.1825L14.3525 17.07H14.3225V20.7H13.0525V14.87ZM19.7615 14.87H22.0715C23.3415 14.87 24.2115 15.55 24.2115 16.81C24.2115 17.87 23.3815 18.82 21.6815 18.82H21.1715V20.7H19.7615V14.87ZM21.1715 15.89V17.79H21.3815C22.2415 17.78 22.7515 17.61 22.7515 16.83C22.7515 16.2 22.2915 15.9 21.4415 15.89H21.1715ZM26.3029 14.87H27.7329L29.6929 20.7H28.2029L27.8029 19.3H25.8129L25.3229 20.7H24.0029L26.3029 14.87ZM26.1929 18.23H27.5029L27.3529 17.71L26.9529 16.27H26.9029L26.3829 17.71L26.1929 18.23ZM30.5428 14.87H31.9528V20.7H30.5428V14.87ZM33.3358 14.87H35.3558C37.1858 14.88 38.7258 15.49 38.7258 17.66C38.7258 19.65 37.2958 20.67 35.3858 20.7H33.3358V14.87ZM34.7458 15.94V19.63H35.2158C36.5158 19.63 37.2358 18.96 37.2358 17.79C37.2358 16.42 36.4758 15.94 35.1658 15.94H34.7458Z" fill="black"/>
</svg>
