<svg width="40" height="40" viewBox="0 0 40 40" fill="none" xmlns="http://www.w3.org/2000/svg">
<path d="M20 0C8.97201 0 0 8.97201 0 20C0 31.028 8.97201 40 20 40C31.028 40 40 31.028 40 20C40 8.97201 31.0281 0 20 0ZM20 37.8378C15.1003 37.8378 10.6562 35.8518 7.42915 32.6431C6.14049 31.3618 5.04655 29.885 4.19479 28.262C2.89761 25.7905 2.16219 22.9796 2.16219 20C2.16219 10.1642 10.1642 2.16219 20 2.16219C24.6653 2.16219 28.9173 3.9633 32.0992 6.90577C33.749 8.4312 35.1113 10.2631 36.0936 12.3107C37.2112 14.6403 37.8378 17.2483 37.8378 20C37.8378 29.8358 29.8358 37.8378 20 37.8378Z" fill="#0175CA"/>
<rect x="2" y="2" width="36" height="36" rx="18" fill="#0175CA"/>
<path d="M13.1622 18.7028C14.3563 18.7028 15.3244 17.7348 15.3244 16.5406C15.3244 15.3465 14.3563 14.3784 13.1622 14.3784C11.968 14.3784 11 15.3465 11 16.5406C11 17.7348 11.968 18.7028 13.1622 18.7028Z" fill="white"/>
<path d="M26.8556 18.3244C28.0497 18.3244 29.0177 17.3563 29.0177 16.1622C29.0177 14.968 28.0497 14 26.8556 14C25.6614 14 24.6934 14.968 24.6934 16.1622C24.6934 17.3563 25.6614 18.3244 26.8556 18.3244Z" fill="white"/>
<path d="M26.4043 27.8921H12.8906V30.0543H26.4043V27.8921Z" fill="white"/>
</svg>
