<svg width="19" height="19" viewBox="0 0 19 19" fill="none" xmlns="http://www.w3.org/2000/svg">
<path d="M5.76562 1.12891L7.17188 4.50391C7.41797 5.06641 7.27734 5.73438 6.78516 6.12109L5.0625 7.5625C6.22266 10.0234 8.22656 12.0273 10.6875 13.1875L12.1289 11.4648C12.5156 10.9727 13.1836 10.832 13.7461 11.0781L17.1211 12.4844C17.7891 12.7305 18.1055 13.4688 17.9297 14.1367L17.0859 17.2305C16.9102 17.8281 16.3828 18.25 15.75 18.25C7.03125 18.25 0 11.2188 0 2.5C0 1.86719 0.421875 1.33984 1.01953 1.16406L4.11328 0.320312C4.78125 0.144531 5.51953 0.460938 5.76562 1.12891Z" fill="#0175CA"/>
</svg>
