<svg id="Profile" xmlns="http://www.w3.org/2000/svg" width="100" height="100" viewBox="0 0 100 100">
  <defs>
    <style>
      .cls-1 {
        fill: #58595b;
      }

      .cls-1, .cls-2, .cls-3 {
        fill-rule: evenodd;
      }

      .cls-2 {
        fill: #0075c9;
      }

      .cls-3 {
        fill: #274479;
      }
    </style>
  </defs>
  <path id="Shape_45_1" data-name="Shape 45 1" class="cls-1" d="M1742.84,2643.59h-47.75a0.991,0.991,0,1,1,0-1.84h47.75A0.991,0.991,0,1,1,1742.84,2643.59Zm-47.75,2.22h47.75a0.991,0.991,0,1,1,0,1.84h-47.75A0.991,0.991,0,1,1,1695.09,2645.81Zm0,4.1h17.42a0.991,0.991,0,1,1,0,1.84h-17.42A0.991,0.991,0,1,1,1695.09,2649.91Z" transform="translate(-1669 -2570.53)"/>
  <path class="cls-2" d="M1732,2625.52c-0.14.19-.29,0.38-0.44,0.57l0.45-.55Zm-26.07.02h0l0.03,0.03Zm0.56,0.69-0.53-.66a16.131,16.131,0,0,0,12.79,6.57A16.159,16.159,0,0,1,1706.49,2626.23Zm12.46-26.4a16.164,16.164,0,0,0-13.02,25.71l0.03,0.03h0l0.53,0.66a16.159,16.159,0,0,0,12.26,5.91h0.22a16.122,16.122,0,0,0,12.48-5.91,1.344,1.344,0,0,0,.11-0.14c0.15-.19.3-0.38,0.44-0.57A16.159,16.159,0,0,0,1718.95,2599.83Zm11.6,24.02a16.874,16.874,0,0,0-1.32-1.22,16.165,16.165,0,0,0-21.84,1.22A14,14,0,1,1,1730.55,2623.85Zm-15.02,5.71h0.01c-0.03-.01-0.06-0.01-0.09-0.02C1715.48,2629.55,1715.51,2629.55,1715.53,2629.56Zm0.01,0a1.163,1.163,0,0,0,.18.04c-0.05-.01-0.09-0.02-0.13-0.03A0.433,0.433,0,0,1,1715.54,2629.56Zm0.18,0.04a2.681,2.681,0,0,0,.27.07,0.573,0.573,0,0,1-.14-0.04c-0.03,0-.06-0.01-0.08-0.01A0.257,0.257,0,0,1,1715.72,2629.6Zm9.71-19a6.46,6.46,0,1,1-6.46-6.46A6.457,6.457,0,0,1,1725.43,2610.6Z" transform="translate(-1669 -2570.53)"/>
  <path class="cls-3" d="M1749.28,2667.05h-60.06a5.136,5.136,0,0,1-.55-0.06V2667a6.722,6.722,0,0,1-6.67-6.74v-79.51a6.722,6.722,0,0,1,6.67-6.74h59.66a6.474,6.474,0,0,1,2.71.6,6.7,6.7,0,0,1,4.96,6.45v79.27A6.735,6.735,0,0,1,1749.28,2667.05Zm4-75.05h0v-10.94c0-.1-0.02-0.2-0.03-0.31h-0.95a4,4,0,0,0-2.27-3.61,3.744,3.744,0,0,0-.75-0.08v-0.19a3.754,3.754,0,0,0-.95-0.13h-59.66a4,4,0,0,0-3.97,4.01v68.54h0v10.97c0,0.02.01,0.05,0.01,0.07h0.51a4,4,0,0,0,3.17,3.91c0.1,0.01.19,0.03,0.28,0.03v0.01a4.886,4.886,0,0,0,.55.05h60.06a4,4,0,0,0,4-4V2592Zm-27.13-2.33h-15.09a3.4,3.4,0,0,1,0-6.79h15.09A3.4,3.4,0,0,1,1726.15,2589.67Z" transform="translate(-1669 -2570.53)"/>
</svg>
