<svg width="20" height="20" viewBox="0 0 20 20" fill="none" xmlns="http://www.w3.org/2000/svg">
<g clip-path="url(#clip0_48_1059)">
<path fill-rule="evenodd" clip-rule="evenodd" d="M17.5906 17.9055V12.2887C17.5923 12.0121 17.7034 11.7473 17.8996 11.5523C18.0958 11.3573 18.3613 11.2478 18.6379 11.2478C18.9146 11.2478 19.18 11.3573 19.3762 11.5523C19.5724 11.7473 19.6835 12.0121 19.6852 12.2887V18.9528L19.6768 19.0856L19.6521 19.2136L19.5923 19.3827L19.5815 19.4057L19.5583 19.4508C19.5502 19.4657 19.5418 19.4803 19.533 19.4947L19.5196 19.5161C19.5105 19.5303 19.5011 19.5442 19.4913 19.5579L19.4765 19.5783L19.4611 19.5982C19.4455 19.618 19.4292 19.6373 19.4123 19.6559L19.3411 19.7271L19.2835 19.7759L19.2431 19.8061L19.1136 19.885L19.0679 19.9071C19.0051 19.9343 18.9401 19.9564 18.8737 19.973L18.7448 19.9945L18.6379 20.0001H1.36208L1.20313 19.988L1.1263 19.9732C1.05989 19.9565 0.994954 19.9344 0.932119 19.9072L0.756885 19.8063L0.736533 19.7914L0.677705 19.7439L0.523447 19.5784L0.508604 19.558L0.466885 19.4948L0.441572 19.451L0.407588 19.3828C0.346289 19.2478 0.314616 19.1011 0.314697 18.9528V12.2888C0.316387 12.0121 0.42747 11.7474 0.623691 11.5523C0.819912 11.3573 1.08533 11.2478 1.36198 11.2478C1.63864 11.2478 1.90405 11.3573 2.10027 11.5523C2.29649 11.7474 2.40758 12.0121 2.40927 12.2888V17.9055H17.5906Z" fill="#0175CA"/>
<path d="M8.98199 14.6727L4.48652 10.1772C4.38851 10.0806 4.31059 9.96561 4.25724 9.83877C4.20389 9.71193 4.17617 9.57578 4.17567 9.43818C4.17517 9.30058 4.2019 9.16423 4.25433 9.03701C4.30676 8.90978 4.38385 8.79419 4.48115 8.69689C4.57845 8.59959 4.69404 8.52251 4.82127 8.47009C4.94849 8.41766 5.08484 8.39093 5.22244 8.39143C5.36004 8.39193 5.49619 8.41966 5.62303 8.47302C5.74987 8.52637 5.86489 8.6043 5.96148 8.7023L8.95703 11.6979L8.95703 1.04297C8.95703 0.766356 9.06691 0.501073 9.26251 0.305478C9.4581 0.109884 9.72338 0 10 0C10.2766 0 10.5419 0.109884 10.7375 0.305478C10.9331 0.501073 11.043 0.766356 11.043 1.04297L11.043 11.6979L14.0385 8.7023C14.2346 8.50906 14.4991 8.40118 14.7744 8.40218C15.0497 8.40318 15.3134 8.51298 15.5081 8.70764C15.7028 8.9023 15.8126 9.16603 15.8136 9.44133C15.8146 9.71662 15.7067 9.98115 15.5135 10.1772L11.02 14.6707C10.3348 15.3312 9.55328 15.244 8.98199 14.6727Z" fill="#0175CA"/>
</g>
<defs>
<clipPath id="clip0_48_1059">
<rect width="20" height="20" fill="white"/>
</clipPath>
</defs>
</svg>
