<svg width="40" height="40" viewBox="0 0 40 40" fill="none" xmlns="http://www.w3.org/2000/svg">
<path d="M20 0C8.97201 0 0 8.97201 0 20C0 31.028 8.97201 40 20 40C31.028 40 40 31.028 40 20C40 8.97201 31.0281 0 20 0ZM20 37.8378C15.1003 37.8378 10.6562 35.8518 7.42915 32.6431C6.14049 31.3618 5.04655 29.885 4.19479 28.262C2.89761 25.7905 2.16219 22.9796 2.16219 20C2.16219 10.1642 10.1642 2.16219 20 2.16219C24.6653 2.16219 28.9173 3.9633 32.0992 6.90577C33.749 8.4312 35.1113 10.2631 36.0936 12.3107C37.2112 14.6403 37.8378 17.2483 37.8378 20C37.8378 29.8358 29.8358 37.8378 20 37.8378Z" fill="#F36B79"/>
<rect x="2" y="2" width="36" height="36" rx="18" fill="#F36B79"/>
<path d="M21.9342 26.0551C24.3064 26.5512 26.4372 27.8849 27.9343 29.8105L29.6412 28.4834C27.8301 26.1537 25.2501 24.5396 22.3768 23.9386C17.7558 22.9729 12.8975 24.7565 10 28.4834L11.7072 29.8105C14.1013 26.7308 18.1158 25.2565 21.9342 26.0551Z" fill="white"/>
<path d="M12.9825 16.7028C14.1766 16.7028 15.1447 15.7348 15.1447 14.5406C15.1447 13.3465 14.1766 12.3784 12.9825 12.3784C11.7884 12.3784 10.8203 13.3465 10.8203 14.5406C10.8203 15.7348 11.7884 16.7028 12.9825 16.7028Z" fill="white"/>
<path d="M26.8556 16.3244C28.0497 16.3244 29.0177 15.3563 29.0177 14.1622C29.0177 12.968 28.0497 12 26.8556 12C25.6614 12 24.6934 12.968 24.6934 14.1622C24.6934 15.3563 25.6614 16.3244 26.8556 16.3244Z" fill="white"/>
</svg>
