<svg width="30" height="30" viewBox="0 0 30 30" fill="none" xmlns="http://www.w3.org/2000/svg">
<g clip-path="url(#clip0_312_442)">
<path fill-rule="evenodd" clip-rule="evenodd" d="M16.0609 22.569L19.0345 25.3103C19.3175 24.8893 19.3175 24.3276 19.6718 23.906C19.843 23.703 20.0617 23.5455 20.3085 23.4475C20.5553 23.3495 20.8226 23.314 21.0864 23.3443C21.3645 23.4034 21.6086 23.5684 21.767 23.8044C21.9255 24.0403 21.9858 24.3288 21.9352 24.6085C21.7231 25.451 20.803 25.6616 20.025 25.1702C19.8838 25.0998 19.6718 25.5917 19.8125 25.8017C20.1587 26.281 20.6581 26.6277 21.2281 26.7845C21.3326 26.638 21.4706 26.5186 21.6306 26.4362C21.7905 26.3538 21.9679 26.3108 22.1478 26.3108C22.3277 26.3108 22.5051 26.3538 22.665 26.4362C22.825 26.5186 22.963 26.638 23.0675 26.7845C23.1475 26.8967 23.2021 27.0249 23.2277 27.1603C23.2532 27.2957 23.249 27.4351 23.2154 27.5687C23.1817 27.7023 23.1194 27.827 23.0328 27.9342C22.9462 28.0414 22.8373 28.1284 22.7137 28.1893C21.3688 28.751 19.9542 27.8381 18.8933 26.9955C18.2561 27.9783 16.558 29.0319 15.5675 27.7678C15.4913 27.6561 15.4393 27.5296 15.4149 27.3966C15.3905 27.2636 15.3942 27.127 15.4257 26.9955C15.488 26.7177 15.6555 26.4747 15.893 26.3176C16.1305 26.1605 16.4196 26.1015 16.6997 26.1529C16.8419 26.1647 16.9795 26.2088 17.1021 26.2817C17.2247 26.3547 17.3291 26.4546 17.4073 26.574C17.5485 26.7845 17.3364 27.1357 17.6194 27.0659C17.7329 27.0483 17.8393 26.9996 17.9268 26.9252C18.0142 26.8508 18.0794 26.7535 18.1149 26.6443C17.4073 25.3098 16.0625 24.6079 15.0016 23.6247C13.9402 24.6074 12.7376 25.3098 11.8883 26.5729C11.7471 26.7834 12.1712 27.0648 12.3838 27.0648C12.6668 27.0648 12.525 26.4322 12.8788 26.2921C13.2096 26.13 13.5909 26.1047 13.9402 26.2217C14.1561 26.3312 14.3331 26.5045 14.447 26.7181C14.5609 26.9317 14.6063 27.1752 14.5769 27.4155C14.4357 28.1179 13.6573 28.3983 13.0206 28.3285C12.6262 28.2531 12.2522 28.0953 11.923 27.8655C11.5939 27.6356 11.3169 27.3388 11.1104 26.9945C10.1194 27.7667 8.9897 28.5395 7.64487 28.3983C7.49819 28.3731 7.35881 28.316 7.23656 28.2311C7.11431 28.1462 7.01216 28.0355 6.93728 27.9069C6.80007 27.6616 6.76029 27.3737 6.82586 27.1004C6.89142 26.8271 7.05753 26.5886 7.29109 26.4322C7.53819 26.2963 7.82699 26.2569 8.10147 26.3218C8.37595 26.3867 8.61653 26.5512 8.77659 26.7835C9.3466 26.6269 9.84595 26.2801 10.1918 25.8007C10.3335 25.5907 10.1209 25.0988 9.90885 25.1691C9.54542 25.3791 9.1194 25.4537 8.70625 25.3797C8.49035 25.2701 8.31337 25.0968 8.19937 24.8833C8.08536 24.6697 8.03986 24.4262 8.06902 24.1859C8.09741 24.0398 8.15552 23.9011 8.23973 23.7784C8.32394 23.6558 8.43246 23.5517 8.55855 23.4727C8.68465 23.3937 8.82562 23.3414 8.97275 23.3192C9.11988 23.2969 9.27002 23.3051 9.41385 23.3433C9.75788 23.4612 10.0719 23.6529 10.334 23.905C10.6878 24.3266 10.6878 24.8878 10.9707 25.3093C11.9614 24.3969 12.9519 23.4831 13.9423 22.5679C10.2631 19.0574 5.02711 17.7229 0.00366211 17.5828C2.92547 17.0443 5.93371 17.2128 8.77711 18.0741C11.0586 18.8176 13.1906 19.9588 15.0745 21.445C17.1179 19.7306 19.5183 18.4943 22.1006 17.8262C24.6828 17.1582 27.3817 17.0754 30 17.5838C24.9766 17.724 19.7406 19.0585 16.0609 22.569ZM19.4576 5.35363C19.7498 5.72551 19.9527 6.15945 20.0508 6.62207C20.1489 7.08468 20.1396 7.56363 20.0235 8.02207C20.0351 7.78571 20.0112 7.54895 19.9526 7.31966C19.8897 7.5 19.8657 7.69162 19.8823 7.8819C19.8432 7.66188 19.7718 7.44888 19.6702 7.24983C19.6246 7.32218 19.5947 7.40331 19.5824 7.48795C19.5701 7.57259 19.5757 7.65887 19.5988 7.74121C19.6046 7.46867 19.5309 7.20035 19.3868 6.96896C19.3547 7.0694 19.307 7.16417 19.2456 7.24983C19.2738 7.12944 19.2757 7.00438 19.2513 6.88317C19.2268 6.76196 19.1765 6.64745 19.1038 6.54742C19.0654 6.58524 19.0405 6.63469 19.033 6.6881C19.033 6.47707 19.1038 6.19621 18.8918 6.12638C18.75 6.12638 18.8209 6.3369 18.8209 6.40724C18.8146 6.12547 18.7151 5.85374 18.538 5.63449C18.4671 5.56466 18.4671 5.77517 18.4671 5.84552C18.3963 5.63448 18.3963 5.28328 18.1837 5.21345C18.1519 5.25214 18.1291 5.29741 18.1169 5.34598C18.1048 5.39455 18.1035 5.44521 18.1133 5.49431C18.0425 5.28328 17.9013 5.07276 17.8299 4.86224L17.6887 5.00293C17.658 4.90319 17.6032 4.81254 17.5291 4.73902C17.455 4.66549 17.364 4.61135 17.264 4.58138C17.1932 4.58138 17.1931 4.72155 17.1931 4.7919C17.6178 5.35362 18.1837 5.77465 18.538 6.3369C18.7598 6.83881 18.8624 7.38525 18.8378 7.93344C18.8133 8.48163 18.6621 9.01669 18.3963 9.49673C18.4671 9.28621 18.6083 8.935 18.3963 8.86466C18.2545 8.79431 18.3962 9.07569 18.2545 9.14552C18.2774 8.7424 18.2296 8.33838 18.1133 7.95173C18.0701 7.98487 18.0349 8.02733 18.0104 8.07596C17.9858 8.12459 17.9726 8.17813 17.9716 8.23259C17.9716 8.16276 17.9716 8.09242 17.9013 8.09242C17.7595 8.16276 17.8299 8.30294 17.8299 8.44363C17.7362 8.06436 17.7867 7.6638 17.9716 7.31966C17.957 7.17036 17.9085 7.02636 17.8299 6.89863C17.7869 6.932 17.752 6.97452 17.7275 7.02311C17.7031 7.07169 17.6898 7.12512 17.6887 7.17949C17.6762 6.87079 17.6286 6.56451 17.5469 6.26656C17.5046 6.29806 17.4745 6.34324 17.4616 6.39443C17.4488 6.44562 17.4541 6.49968 17.4766 6.54742C17.3349 6.3369 17.5469 6.05604 17.3349 5.91535C17.3029 6.01592 17.255 6.11073 17.1931 6.19621C17.225 6.08756 17.2286 5.9726 17.2038 5.86213C17.1791 5.75166 17.1266 5.6493 17.0514 5.56466C17.0196 5.60335 16.9969 5.64861 16.9847 5.69718C16.9725 5.74575 16.9713 5.79641 16.9811 5.84552C16.9947 5.72449 16.9757 5.60202 16.9259 5.49085C16.8762 5.37969 16.7975 5.28389 16.6981 5.21345C16.666 5.3047 16.6422 5.39872 16.6273 5.49431H16.4856C16.4856 5.42397 16.4856 5.35363 16.4152 5.35363C16.3449 5.35363 16.2735 5.35362 16.2735 5.42396C16.3444 5.63448 16.6273 5.63448 16.6981 5.84552C16.6981 6.05604 16.9107 6.12638 16.9107 6.3369C16.8916 6.29965 16.864 6.26741 16.8301 6.24275C16.7963 6.21808 16.7572 6.20167 16.7158 6.19484C16.6745 6.188 16.6322 6.19093 16.5922 6.20338C16.5522 6.21583 16.5157 6.23747 16.4856 6.26656C16.8394 6.40725 17.1932 6.61776 17.1228 7.03931C17.1092 6.96154 17.0761 6.8885 17.0265 6.82707C16.9769 6.76563 16.9125 6.7178 16.8394 6.6881C16.7685 6.6881 16.6273 6.68811 16.6273 6.75794C16.7863 6.86647 16.9151 7.01355 17.0018 7.18542C17.0884 7.3573 17.1301 7.54834 17.1228 7.74069C17.1239 7.66816 17.1046 7.59677 17.0672 7.53467C17.0297 7.47257 16.9755 7.42226 16.9107 7.38948C16.8569 7.39674 16.8069 7.42145 16.7685 7.45983C17.0357 7.8495 17.1374 8.32922 17.0514 8.79379C17.0514 8.65362 17.1228 8.44311 16.9811 8.51345C16.8393 8.51345 16.9107 8.72397 16.9107 8.86414L16.8394 8.79379C16.6982 9.00483 16.9107 9.14501 16.8394 9.35552C16.768 9.56604 16.7685 9.70673 16.6981 9.91776C16.7095 9.6814 16.6856 9.44468 16.6273 9.21535C16.5062 9.52798 16.4578 9.86402 16.4856 10.1981C16.4856 10.1278 16.4856 10.0574 16.4152 10.0574C16.2735 10.1278 16.4152 10.3383 16.2735 10.4086C16.2616 9.91434 16.2144 9.42154 16.1323 8.93397C16.2026 8.93397 16.2735 8.93397 16.2735 8.86363C16.2735 8.72345 16.3444 8.44259 16.2026 8.44259C16.0609 8.37225 16.2026 8.72345 16.0609 8.79328C16.093 8.67888 16.0899 8.55749 16.0521 8.44486C16.0143 8.33223 15.9435 8.23358 15.8488 8.16172C15.7071 8.09138 15.9202 8.37225 15.7071 8.44259C15.4242 8.51294 15.5659 8.23156 15.4242 8.09139C15.2476 10.456 15.2476 12.8305 15.4242 15.1952C15.5061 15.5407 15.5536 15.8934 15.5659 16.2483C15.5204 16.3208 15.4906 16.402 15.4784 16.4867C15.4662 16.5714 15.4719 16.6578 15.495 16.7402C15.5006 16.9674 15.5745 17.1877 15.7071 17.3722C15.7785 17.6526 15.495 17.934 15.5659 18.2148C15.7685 18.7337 16.0287 19.2282 16.3418 19.689H13.5114C13.7949 19.1278 14.2873 18.6359 14.219 18.0038C14.1607 17.7986 14.137 17.5852 14.1487 17.3722C14.5025 16.81 14.219 16.3186 14.2899 15.6866C14.3684 15.5587 14.4168 15.4148 14.4316 15.2655C14.5728 12.8762 14.5728 10.4807 14.4316 8.09139C14.3891 8.12275 14.3588 8.1679 14.3459 8.21913C14.3329 8.27035 14.3382 8.32447 14.3607 8.37225C14.2899 8.51294 14.0778 8.44259 14.0069 8.3019C14.0778 8.3019 14.0778 8.23155 14.0778 8.16172C13.9361 7.95069 13.9361 8.23156 13.8652 8.23156C13.7685 8.40217 13.7433 8.60409 13.7949 8.79328C13.6532 8.72345 13.7949 8.37225 13.6531 8.44259C13.5114 8.44259 13.5823 8.72345 13.5823 8.86363C13.5823 8.93397 13.6531 8.93397 13.724 8.93397C13.6417 9.42153 13.5944 9.91433 13.5823 10.4086C13.4411 10.3383 13.5823 10.1278 13.4411 10.0574C13.3702 10.0574 13.3702 10.1278 13.3702 10.1981C13.398 9.86402 13.3495 9.52798 13.2285 9.21535C13.1701 9.44466 13.1464 9.68142 13.1581 9.91776C13.0873 9.70673 13.0873 9.56656 13.0164 9.35552C12.9456 9.14449 13.1582 9.00483 13.0164 8.79379L12.9456 8.86414C12.9456 8.72397 13.0164 8.51345 12.8747 8.51345C12.7335 8.44311 12.8044 8.65362 12.8044 8.79379C12.7447 8.57608 12.7392 8.34706 12.7885 8.12677C12.8379 7.90647 12.9404 7.70163 13.0873 7.53018C13.1582 7.45983 13.0873 7.38948 13.0164 7.38948C12.8044 7.38948 12.8044 7.6 12.7335 7.74069C12.7262 7.54839 12.7677 7.35737 12.8543 7.1855C12.9409 7.01363 13.0696 6.86653 13.2285 6.75794C13.2285 6.68811 13.0873 6.6881 13.0164 6.6881C12.9434 6.71787 12.8791 6.76573 12.8296 6.82716C12.7801 6.88859 12.747 6.96159 12.7335 7.03931C12.6626 6.61776 13.0164 6.40725 13.3702 6.26656C13.3401 6.23747 13.3037 6.21583 13.2637 6.20338C13.2238 6.19092 13.1815 6.188 13.1402 6.19484C13.0989 6.20168 13.0598 6.21808 13.026 6.24275C12.9922 6.26742 12.9647 6.29966 12.9456 6.3369C13.0712 6.05832 13.266 5.81652 13.5114 5.63449C13.4776 5.59161 13.4347 5.55679 13.3858 5.53254C13.3368 5.5083 13.2831 5.49524 13.2285 5.49431C13.3702 5.42397 13.2285 5.28328 13.3702 5.21345C13.3702 5.1431 13.2994 5.1431 13.2285 5.1431C13.1181 5.22377 13.0284 5.32952 12.9669 5.45165C12.9054 5.57378 12.8738 5.70878 12.8747 5.84552C12.8845 5.79641 12.8833 5.74575 12.8711 5.69718C12.8589 5.64861 12.8361 5.60335 12.8044 5.56466C12.7292 5.6493 12.6767 5.75166 12.6519 5.86213C12.6272 5.9726 12.6308 6.08756 12.6626 6.19621C12.5209 6.12638 12.6626 5.91535 12.5209 5.91535C12.3088 6.05604 12.5209 6.3369 12.3797 6.54742C12.4022 6.49964 12.4075 6.44552 12.3946 6.3943C12.3816 6.34307 12.3513 6.29792 12.3088 6.26656C12.2271 6.56451 12.1796 6.87079 12.1671 7.17949C12.1662 7.12507 12.153 7.07156 12.1286 7.02293C12.1041 6.97431 12.069 6.93182 12.0259 6.89863C11.964 6.97687 11.9246 7.07058 11.9121 7.1696C11.8996 7.26862 11.9145 7.36917 11.9551 7.46035C12.0561 7.60182 12.1161 7.76839 12.1286 7.94177C12.1411 8.11514 12.1056 8.28861 12.0259 8.44311C12.0259 8.30242 12.0968 8.16224 11.9551 8.0919C11.8842 8.0919 11.8842 8.16224 11.8842 8.23207C11.8833 8.17765 11.8701 8.12414 11.8457 8.07551C11.8212 8.02689 11.7861 7.9844 11.743 7.95121C11.6262 8.33778 11.5783 8.74184 11.6012 9.145C11.4595 9.07517 11.6013 8.79379 11.4595 8.86414C11.2475 8.93448 11.3892 9.28569 11.4595 9.49621C11.2102 9.03597 11.068 8.52539 11.0436 8.00253C11.0191 7.47968 11.113 6.95805 11.3183 6.47655C11.6597 5.89853 12.0894 5.37742 12.5918 4.93207C12.6626 4.86173 12.8044 4.65121 12.5918 4.65121C12.5407 4.6458 12.4891 4.65064 12.4399 4.66545C12.3908 4.68026 12.3451 4.70474 12.3055 4.73746C12.266 4.77018 12.2334 4.81047 12.2096 4.85597C12.1858 4.90147 12.1714 4.95126 12.1671 5.00242L12.0259 4.86173C11.955 5.07225 11.8138 5.28276 11.743 5.4938C11.7528 5.44466 11.7515 5.39394 11.7393 5.34536C11.727 5.29677 11.7041 5.25153 11.6721 5.21294C11.4595 5.28276 11.4595 5.63397 11.3892 5.845C11.3892 5.77466 11.3892 5.56414 11.3183 5.63397C11.1412 5.85322 11.0417 6.12496 11.0354 6.40673C11.0354 6.33638 11.1063 6.12587 10.9645 6.12587C10.7525 6.19569 10.8228 6.47656 10.8228 6.68759C10.8154 6.63425 10.7907 6.58482 10.7525 6.5469C10.6797 6.64688 10.6293 6.7614 10.6049 6.88263C10.5804 7.00386 10.5824 7.12893 10.6107 7.24931C10.549 7.16377 10.5011 7.06897 10.469 6.96845C10.3251 7.19993 10.2514 7.46818 10.2569 7.74069C10.2683 7.57373 10.2442 7.40625 10.1861 7.24931C10.0841 7.44817 10.0126 7.66125 9.97401 7.88138C9.99015 7.69107 9.96601 7.49949 9.90315 7.31914C9.84487 7.54847 9.82099 7.7852 9.83229 8.02155C9.67757 7.41902 9.70219 6.78442 9.90315 6.19569C10.0416 5.90007 10.2073 5.61799 10.3981 5.35311C10.6223 5.08361 10.8835 4.8473 11.174 4.65121C11.5987 4.30001 12.1645 4.22966 12.5188 3.80811C12.3776 3.66793 12.165 3.87845 12.0238 3.73828L11.8821 3.87845C11.8821 3.80811 11.8821 3.73828 11.8118 3.73828C11.7571 3.73917 11.7033 3.7522 11.6543 3.77644C11.6052 3.80069 11.5622 3.83553 11.5283 3.87845C11.5283 3.80811 11.5283 3.73828 11.4575 3.73828C11.3983 3.75191 11.3426 3.77766 11.2939 3.81389C11.2452 3.85013 11.2046 3.89606 11.1745 3.9488C11.1671 3.89546 11.1424 3.84603 11.1042 3.80811C11.0355 3.82415 10.9727 3.85896 10.9226 3.90864C10.8726 3.95832 10.8373 4.02094 10.8207 4.08949L10.6795 3.9488C10.6363 3.98194 10.6011 4.0244 10.5766 4.07303C10.552 4.12166 10.5388 4.1752 10.5378 4.22966C10.5378 4.15931 10.5378 4.08949 10.4669 4.08949C10.4238 4.12268 10.3887 4.16517 10.3643 4.2138C10.3398 4.26242 10.3267 4.31593 10.3257 4.37035L10.2549 4.3C10.1764 4.42781 10.1279 4.57177 10.1132 4.72104C10.1056 4.66788 10.0809 4.61865 10.0428 4.58087C9.96332 4.73359 9.91514 4.90065 9.90108 5.07224C9.7988 4.69897 9.84477 4.30061 10.0294 3.96043C10.214 3.62026 10.5229 3.3646 10.8916 3.2469C11.2762 3.06166 11.6956 2.95965 12.1224 2.94753C12.5491 2.9354 12.9736 3.01344 13.3682 3.17655C13.4066 3.13873 13.4315 3.08928 13.439 3.03587C13.3681 2.82535 13.1561 2.40379 12.8726 2.68517C12.868 2.64694 12.8719 2.60815 12.8842 2.57164C12.8965 2.53513 12.9167 2.50182 12.9435 2.47414C12.8023 2.26363 12.5897 2.54449 12.4485 2.47414L12.5188 2.4038C12.3776 2.19328 12.2359 2.47414 12.0947 2.4038L12.1651 2.33397C12.1651 2.26362 12.0947 2.26362 12.0238 2.26362C11.9055 2.30085 11.8062 2.3824 11.7466 2.49121C11.76 2.40172 11.7844 2.26362 11.6701 2.26362C11.4928 2.3928 11.3475 2.56091 11.2454 2.75501C11.1992 2.62353 11.2024 2.47974 11.2545 2.35048C11.3065 2.22121 11.4039 2.11533 11.5283 2.05259C11.8135 1.85392 12.1413 1.72504 12.4854 1.67634C12.8295 1.62764 13.1803 1.66049 13.5094 1.77224C13.888 1.93688 14.191 2.23755 14.3587 2.61483C14.4948 2.32508 14.59 2.01783 14.6416 1.7019C14.637 1.74005 14.641 1.77874 14.6533 1.81515C14.6655 1.85157 14.6858 1.8848 14.7125 1.91242C14.8542 1.63156 14.7833 1.28034 14.9245 0.999481C15.0663 1.28034 14.9954 1.63156 15.1371 1.91242C15.1637 1.88475 15.1838 1.8515 15.196 1.81509C15.2082 1.77868 15.2121 1.74001 15.2075 1.7019C15.2593 2.01778 15.3545 2.32499 15.4904 2.61483C15.5966 2.38613 15.754 2.18488 15.9503 2.0266C16.1466 1.86832 16.3766 1.75723 16.6226 1.7019C17.3985 1.56121 18.674 1.77225 18.6037 2.75501C18.5017 2.56079 18.3564 2.39265 18.179 2.26362C18.0647 2.26362 18.089 2.40173 18.103 2.49173C18.0435 2.38252 17.9439 2.30072 17.8252 2.26362C17.7549 2.19327 17.684 2.26362 17.684 2.33397C17.684 2.40431 17.7549 2.4038 17.7549 2.47414C17.6131 2.4038 17.4719 2.26363 17.3302 2.4038C17.4011 2.4038 17.4011 2.47414 17.4011 2.54448C17.2718 2.46644 17.1267 2.41837 16.9764 2.4038C16.8347 2.47414 17.0468 2.61483 16.9764 2.68517C16.9445 2.64282 16.8989 2.61274 16.8474 2.59993C16.7959 2.58713 16.7416 2.59238 16.6935 2.61483C16.5298 2.76897 16.408 2.96229 16.3397 3.17655C17.192 2.88232 18.1222 2.90732 18.9575 3.2469C19.2974 3.36744 19.5931 3.5875 19.8062 3.87845C19.9616 4.25598 20.0106 4.66884 19.948 5.07224C19.8063 4.93207 19.948 4.72104 19.8062 4.58087C19.7681 4.61865 19.7434 4.66788 19.7359 4.72104C19.6901 4.47754 19.5658 4.25574 19.3821 4.08949C19.3112 4.08949 19.3112 4.15931 19.3112 4.22966C19.3103 4.1752 19.297 4.12166 19.2725 4.07303C19.248 4.0244 19.2128 3.98194 19.1695 3.9488L19.0283 4.08949C19.0119 4.02098 18.9767 3.95837 18.9267 3.90869C18.8768 3.859 18.814 3.82418 18.7454 3.80811C18.7067 3.84583 18.6816 3.89531 18.674 3.9488C18.605 3.87983 18.5345 3.80966 18.4625 3.73828C18.3207 3.73828 18.2499 3.87845 18.1087 3.73828C18.0378 3.66794 17.9669 3.73828 17.9669 3.87845C17.8966 3.80811 17.8966 3.80811 17.8252 3.73828C17.684 3.87845 17.4719 3.66793 17.3302 3.80811C17.9716 4.37086 18.8918 4.58139 19.4576 5.35363ZM11.7466 2.52638C11.7466 2.53259 11.7466 2.53828 11.7466 2.545C11.7456 2.53931 11.7461 2.53311 11.7466 2.52638ZM11.7513 2.49173C11.7513 2.50466 11.7476 2.51604 11.7466 2.52638C11.7473 2.51473 11.7488 2.50315 11.7513 2.49173ZM18.1133 2.52638C18.1138 2.53258 18.1138 2.5388 18.1133 2.545C18.1133 2.53828 18.1123 2.53259 18.1118 2.52638H18.1133ZM18.1092 2.49224C18.1114 2.50349 18.1128 2.51491 18.1133 2.52638C18.1107 2.51604 18.1092 2.50465 18.1076 2.49224H18.1092Z" fill="#0175CA"/>
</g>
<defs>
<clipPath id="clip0_312_442">
<rect width="30" height="27.4138" fill="white" transform="translate(0 1)"/>
</clipPath>
</defs>
</svg>
