<svg width="20" height="20" viewBox="0 0 20 20" fill="none" xmlns="http://www.w3.org/2000/svg">
<g clip-path="url(#clip0_48_1159)">
<path fill-rule="evenodd" clip-rule="evenodd" d="M17.5906 17.9053V12.2885C17.5923 12.0118 17.7034 11.7471 17.8996 11.552C18.0958 11.357 18.3613 11.2476 18.6379 11.2476C18.9146 11.2476 19.18 11.357 19.3762 11.552C19.5724 11.7471 19.6835 12.0118 19.6852 12.2885V18.9525L19.6768 19.0853L19.6521 19.2134L19.5923 19.3824L19.5815 19.4054L19.5583 19.4506C19.5502 19.4654 19.5418 19.48 19.533 19.4944L19.5196 19.5159C19.5105 19.53 19.5011 19.544 19.4913 19.5576L19.4765 19.578L19.4611 19.598C19.4455 19.6178 19.4292 19.637 19.4123 19.6557L19.3411 19.7268L19.2835 19.7756L19.2431 19.8059L19.1136 19.8847L19.0679 19.9068C19.0051 19.9341 18.9401 19.9561 18.8737 19.9728L18.7448 19.9943L18.6379 19.9999H1.36208L1.20313 19.9878L1.1263 19.9729C1.05989 19.9562 0.994954 19.9342 0.932119 19.907L0.756885 19.806L0.736533 19.7911L0.677705 19.7437L0.523447 19.5782L0.508604 19.5578L0.466885 19.4946L0.441572 19.4507L0.407588 19.3826C0.346289 19.2475 0.314616 19.1009 0.314697 18.9526V12.2885C0.316387 12.0119 0.42747 11.7471 0.623691 11.5521C0.819912 11.3571 1.08533 11.2476 1.36198 11.2476C1.63864 11.2476 1.90405 11.3571 2.10027 11.5521C2.29649 11.7471 2.40758 12.0119 2.40927 12.2885V17.9053H17.5906Z" fill="#00A886"/>
<path d="M11.0073 0.461338L15.5027 4.95681C15.6007 5.0534 15.6787 5.16843 15.732 5.29527C15.7854 5.42211 15.8131 5.55825 15.8136 5.69586C15.8141 5.83346 15.7874 5.9698 15.7349 6.09702C15.6825 6.22425 15.6054 6.33984 15.5081 6.43714C15.4108 6.53444 15.2952 6.61152 15.168 6.66395C15.0408 6.71637 14.9044 6.74311 14.7668 6.7426C14.6292 6.7421 14.4931 6.71437 14.3662 6.66102C14.2394 6.60766 14.1244 6.52974 14.0278 6.43173L11.0322 3.43618L11.0322 14.0911C11.0322 14.3677 10.9223 14.633 10.7268 14.8286C10.5312 15.0241 10.2659 15.134 9.98926 15.134C9.71265 15.134 9.44737 15.0241 9.25177 14.8286C9.05618 14.633 8.94629 14.3677 8.94629 14.0911L8.94629 3.43614L5.95075 6.43173C5.75467 6.62497 5.49015 6.73285 5.21485 6.73186C4.93956 6.73086 4.67583 6.62105 4.48116 6.42639C4.28649 6.23173 4.17668 5.968 4.17568 5.69271C4.17467 5.41741 4.28255 5.15289 4.47579 4.95681L8.9693 0.46329C9.65446 -0.197179 10.436 -0.109991 11.0073 0.461338Z" fill="#00A886"/>
</g>
<defs>
<clipPath id="clip0_48_1159">
<rect width="20" height="20" fill="white" transform="translate(0 -0.000244141)"/>
</clipPath>
</defs>
</svg>
