<svg width="221" height="108" viewBox="0 0 221 108" fill="none" xmlns="http://www.w3.org/2000/svg">
<path d="M1.50543 96.8C2.88543 97.52 5.37543 98.12 7.29543 98.12C8.91543 98.12 10.0554 97.43 10.0554 96.29C10.0554 94.88 7.95543 94.52 5.64543 93.71C3.24543 92.9 1.32543 91.73 1.32543 88.64C1.32543 85.19 4.32543 83.18 7.77543 83.18C10.0554 83.18 12.0954 83.69 13.2654 84.29V87.8C12.1254 87.08 10.0254 86.51 8.16543 86.51C6.69543 86.51 5.25543 87.05 5.25543 88.16C5.25543 89.3 6.24543 89.78 8.34543 90.44C10.9254 91.25 13.9254 92.33 13.9254 95.87C13.9254 99.68 10.7154 101.33 6.90543 101.33C5.04543 101.33 3.24543 100.94 1.50543 100.25V96.8ZM15.9975 94.49C15.9975 89.99 18.5175 87.05 22.4775 87.05C26.7675 87.05 28.8675 89.69 28.8675 93.83V95.12H19.8675C20.1675 97.37 21.6075 98.27 23.8275 98.27C25.2975 98.27 27.0675 98.03 28.4475 97.55V100.28C27.1275 100.97 25.0575 101.24 22.9275 101.24C18.5175 101.24 15.9975 99.05 15.9975 94.49ZM19.8375 93.08H24.8775C24.7875 91.25 24.0675 90.08 22.4775 90.08C21.0975 90.08 20.0775 90.92 19.8375 93.08ZM31.7196 90.71L31.1496 87.38H34.9896L35.2896 88.85C36.6396 87.92 38.4696 87.11 40.2996 87.11C42.8196 87.11 44.5296 88.49 44.5296 92.09V101H40.6296V93.71C40.6296 91.4 40.0896 90.44 38.1696 90.44C37.3896 90.44 36.4296 90.83 35.6196 91.25V101H31.7196V90.71ZM46.6587 87.38H49.0587V83.75H52.9587V87.38H57.4587V90.47H52.9587V95.9C52.9887 97.73 53.9787 98.12 55.4187 98.12C56.1987 98.12 57.0387 97.97 57.7287 97.79V100.67C56.7987 101.06 55.3587 101.24 53.7387 101.24C50.8587 101.24 49.0287 99.41 49.0587 96.53V90.47H46.6587V87.38ZM66.9839 96.8C68.3639 97.52 70.8539 98.12 72.7739 98.12C74.3939 98.12 75.5339 97.43 75.5339 96.29C75.5339 94.88 73.4339 94.52 71.1239 93.71C68.7239 92.9 66.8039 91.73 66.8039 88.64C66.8039 85.19 69.8039 83.18 73.2539 83.18C75.5339 83.18 77.5739 83.69 78.7439 84.29V87.8C77.6039 87.08 75.5039 86.51 73.6439 86.51C72.1739 86.51 70.7339 87.05 70.7339 88.16C70.7339 89.3 71.7239 89.78 73.8239 90.44C76.4039 91.25 79.4039 92.33 79.4039 95.87C79.4039 99.68 76.1939 101.33 72.3839 101.33C70.5239 101.33 68.7239 100.94 66.9839 100.25V96.8ZM94.7661 97.61L95.3361 101H91.4961L91.1661 99.53C89.8461 100.46 88.1961 101.24 86.3361 101.24C83.8161 101.24 82.1061 99.86 82.1061 96.26V87.38H86.0061V95.27C86.0061 97.28 86.5761 98.09 88.2561 98.09C89.0661 98.09 89.9661 97.7 90.8661 97.25V87.38H94.7661V97.61ZM97.6479 94.49C97.6479 90.35 100.138 87.05 104.728 87.05C106.438 87.05 107.668 87.23 108.688 87.65V91.04C107.548 90.5 106.468 90.35 105.418 90.35C103.348 90.35 101.608 91.16 101.608 94.1C101.608 96.83 103.258 98.03 105.688 98.03C106.618 98.03 107.608 97.82 108.628 97.43V100.43C107.698 100.94 106.138 101.24 104.248 101.24C99.8679 101.24 97.6479 98.72 97.6479 94.49ZM110.802 94.49C110.802 90.35 113.292 87.05 117.882 87.05C119.592 87.05 120.822 87.23 121.842 87.65V91.04C120.702 90.5 119.622 90.35 118.572 90.35C116.502 90.35 114.762 91.16 114.762 94.1C114.762 96.83 116.412 98.03 118.842 98.03C119.772 98.03 120.762 97.82 121.782 97.43V100.43C120.852 100.94 119.292 101.24 117.402 101.24C113.022 101.24 110.802 98.72 110.802 94.49ZM123.898 94.49C123.898 89.99 126.418 87.05 130.378 87.05C134.668 87.05 136.768 89.69 136.768 93.83V95.12H127.768C128.068 97.37 129.508 98.27 131.728 98.27C133.198 98.27 134.968 98.03 136.348 97.55V100.28C135.028 100.97 132.958 101.24 130.828 101.24C126.418 101.24 123.898 99.05 123.898 94.49ZM127.738 93.08H132.778C132.688 91.25 131.968 90.08 130.378 90.08C128.998 90.08 127.978 90.92 127.738 93.08ZM139.02 100.46V97.43C141.21 98.18 142.77 98.42 144.15 98.42C145.35 98.42 146.31 97.97 146.31 97.13C146.31 96.2 144.87 95.9 143.25 95.54C141.06 95.03 138.93 94.13 138.93 91.46C138.93 88.7 141.66 87.05 144.75 87.05C146.4 87.05 148.2 87.29 149.52 87.92V90.98C147.6 90.14 146.13 90.02 144.9 90.02C143.7 90.02 142.77 90.44 142.77 91.16C142.77 92.12 144.12 92.42 145.71 92.75C147.75 93.2 150.09 93.95 150.09 96.89C150.09 99.71 147.24 101.24 144.03 101.24C142.2 101.24 140.55 100.94 139.02 100.46ZM152.292 100.46V97.43C154.482 98.18 156.042 98.42 157.422 98.42C158.622 98.42 159.582 97.97 159.582 97.13C159.582 96.2 158.142 95.9 156.522 95.54C154.332 95.03 152.202 94.13 152.202 91.46C152.202 88.7 154.932 87.05 158.022 87.05C159.672 87.05 161.472 87.29 162.792 87.92V90.98C160.872 90.14 159.402 90.02 158.172 90.02C156.972 90.02 156.042 90.44 156.042 91.16C156.042 92.12 157.392 92.42 158.982 92.75C161.022 93.2 163.362 93.95 163.362 96.89C163.362 99.71 160.512 101.24 157.302 101.24C155.472 101.24 153.822 100.94 152.292 100.46ZM164.933 87.38H166.943V86.78C166.943 83.18 168.893 81.17 173.213 81.17C173.963 81.17 174.983 81.26 175.463 81.38V84.47C174.773 84.35 174.143 84.29 173.423 84.29C171.923 84.29 170.843 85.01 170.843 86.99V87.38H174.203V90.47H170.843V101H166.943V90.47H164.933V87.38ZM188.897 97.61L189.467 101H185.627L185.297 99.53C183.977 100.46 182.327 101.24 180.467 101.24C177.947 101.24 176.237 99.86 176.237 96.26V87.38H180.137V95.27C180.137 97.28 180.707 98.09 182.387 98.09C183.197 98.09 184.097 97.7 184.997 97.25V87.38H188.897V97.61ZM192.619 81.41H196.489V101H192.619V81.41ZM200.207 81.41H204.077V101H200.207V81.41ZM209.355 107.21L209.265 107.12L211.935 101H211.095L206.355 87.38H210.645L212.565 94.04L213.405 97.01H213.585L216.705 87.38H220.755L215.835 100.31L213.345 107.21H209.355Z" fill="#00A886"/>
<g clip-path="url(#clip0_7_643)">
<path fill-rule="evenodd" clip-rule="evenodd" d="M125.075 19.9251L101.975 35.9634L77.8131 27.9084C76.1266 27.3451 74.9904 25.7627 75.0001 23.985C75.0099 22.2074 76.1591 20.6347 77.8522 20.091L139.625 0.197807C141.094 -0.274227 142.706 0.113155 143.796 1.20393C144.887 2.2947 145.274 3.90628 144.802 5.37474L124.909 67.1479C124.365 68.841 122.793 69.9902 121.015 70C119.237 70.0097 117.655 68.8735 117.092 67.187L108.998 42.9082L125.075 19.9251Z" fill="#00A886"/>
</g>
<defs>
<clipPath id="clip0_7_643">
<rect width="70" height="70" fill="white" transform="translate(75)"/>
</clipPath>
</defs>
</svg>
