<svg width="16" height="17" viewBox="0 0 16 17" fill="none" xmlns="http://www.w3.org/2000/svg">
<path d="M12.375 7.125C11.4609 7.125 10.6172 6.77344 10.0195 6.21094L6.71484 7.86328C6.71484 7.96875 6.75 8.10938 6.75 8.25C6.75 8.42578 6.71484 8.53125 6.71484 8.67188L10.0195 10.3242C10.6172 9.76172 11.4609 9.375 12.375 9.375C14.2383 9.375 15.75 10.8867 15.75 12.75C15.75 14.6133 14.2383 16.125 12.375 16.125C10.5117 16.125 9 14.6133 9 12.75C9 12.6094 9 12.4688 9 12.3633L5.69531 10.7109C5.09766 11.2734 4.25391 11.625 3.375 11.625C1.51172 11.625 0 10.1133 0 8.25C0 6.38672 1.51172 4.875 3.375 4.875C4.25391 4.875 5.09766 5.26172 5.69531 5.82422L9 4.17188C9 4.03125 9 3.89062 9 3.75C9 1.88672 10.5117 0.375 12.375 0.375C14.2383 0.375 15.75 1.88672 15.75 3.75C15.75 5.61328 14.2383 7.125 12.375 7.125Z" fill="#0175CA"/>
</svg>
