<svg width="24" height="12" viewBox="0 0 24 12" fill="none" xmlns="http://www.w3.org/2000/svg">
<g clip-path="url(#clip0_9_888)">
<path fill-rule="evenodd" clip-rule="evenodd" d="M12.7089 3.99999C12.2017 2.79156 11.3425 1.76376 10.2432 1.05035C9.1438 0.336936 7.85516 -0.0290539 6.54492 -6.24917e-06C5.71283 -0.0729334 4.87466 0.0279799 4.08368 0.29638C3.2927 0.564781 2.56619 0.994817 1.95032 1.55908C1.33444 2.12333 0.842661 2.8095 0.506226 3.57403C0.16979 4.33856 -0.00390625 5.16471 -0.00390625 5.99999C-0.00390625 6.83527 0.16979 7.66143 0.506226 8.42596C0.842661 9.19049 1.33444 9.87665 1.95032 10.4409C2.56619 11.0052 3.2927 11.4352 4.08368 11.7036C4.87466 11.972 5.71283 12.0729 6.54492 12C7.85516 12.029 9.1438 11.6631 10.2432 10.9496C11.3425 10.2362 12.2017 9.20843 12.7089 7.99999H17.4539V12H21.8179V7.99999H23.9999V3.99999H12.7089ZM6.54492 7.99999C6.15664 7.96622 5.78662 7.8202 5.47992 7.57971C5.17322 7.33921 4.94309 7.01465 4.81769 6.64562C4.69229 6.2766 4.67701 5.87903 4.77368 5.50146C4.87036 5.12389 5.07481 4.78263 5.36212 4.51928C5.64944 4.25593 6.00718 4.08187 6.39172 4.01837C6.77626 3.95486 7.17098 4.00463 7.52771 4.16161C7.88444 4.3186 8.18782 4.57603 8.40076 4.90246C8.6137 5.22889 8.72702 5.61025 8.72693 5.99999C8.70097 6.55391 8.457 7.07507 8.04822 7.44976C7.63943 7.82445 7.099 8.02225 6.54492 7.99999Z" fill="#0075C9"/>
</g>
<defs>
<clipPath id="clip0_9_888">
<rect width="24" height="12" fill="white"/>
</clipPath>
</defs>
</svg>
