<svg width="20" height="19" viewBox="0 0 20 19" fill="none" xmlns="http://www.w3.org/2000/svg">
<path d="M19.375 13.8359C19.5312 14.2266 19.4531 14.6953 19.1016 15.0859C18.9453 15.2422 18.75 15.3984 18.5938 15.4766C18.2031 15.7109 17.7734 15.8672 17.3828 15.9453C17.3047 15.9844 17.2266 16.0234 17.1484 16.0625C17.0312 16.1797 17.0312 16.3359 16.875 16.5703C16.7969 16.7266 16.6406 16.8828 16.4844 17C16.0938 17.2734 15.6641 17.2734 15.1953 17.3125C14.7656 17.3125 14.2969 17.3516 13.75 17.5078C13.5156 17.5859 13.2812 17.7422 13.0469 17.8984C12.3828 18.2891 11.4844 18.8359 9.96094 18.8359C8.47656 18.8359 7.57812 18.2891 6.95312 17.8984C6.67969 17.7422 6.44531 17.5859 6.21094 17.5078C5.66406 17.3516 5.19531 17.3125 4.76562 17.3125C4.29688 17.2734 3.86719 17.2734 3.47656 17C3.32031 16.9219 3.20312 16.7656 3.125 16.6484C2.92969 16.375 2.96875 16.1797 2.8125 16.0625C2.73438 16.0234 2.65625 15.9844 2.57812 15.9453C2.14844 15.8672 1.75781 15.6719 1.36719 15.4766C1.21094 15.3984 1.05469 15.2812 0.898438 15.125C0.507812 14.7344 0.429688 14.2656 0.585938 13.8359C0.78125 13.2891 1.25 13.1328 1.71875 12.8984C2.57812 12.4297 3.24219 11.8438 3.71094 11.1406C3.82812 10.9453 3.94531 10.75 4.0625 10.5156C4.10156 10.3984 4.10156 10.3594 4.0625 10.2812C4.02344 10.2422 3.98438 10.1641 3.94531 10.1641C3.78906 10.0469 3.63281 9.96875 3.55469 9.89062C3.35938 9.77344 3.20312 9.65625 3.08594 9.57812C2.73438 9.34375 2.5 9.07031 2.30469 8.75781C2.10938 8.32812 2.07031 7.82031 2.22656 7.39062C2.5 6.76562 3.08594 6.33594 3.82812 6.33594C3.98438 6.33594 4.14062 6.375 4.25781 6.41406C4.29688 6.41406 4.33594 6.41406 4.375 6.41406C4.375 5.98438 4.41406 5.51562 4.45312 5.08594C4.57031 3.48438 5.11719 2.66406 5.70312 2C6.09375 1.57031 6.52344 1.21875 7.03125 0.945312C7.89062 0.4375 8.90625 0.164062 10 0.164062C11.0547 0.164062 12.0703 0.4375 12.9688 0.945312C13.4375 1.21875 13.8672 1.57031 14.2578 2C14.8438 2.66406 15.3906 3.48438 15.5078 5.08594C15.5469 5.51562 15.5859 5.98438 15.5859 6.41406C15.625 6.41406 15.6641 6.41406 15.7031 6.41406C15.8203 6.375 15.9766 6.33594 16.1328 6.33594C16.875 6.33594 17.4609 6.76562 17.7344 7.39062C17.8906 7.82031 17.8516 8.32812 17.6562 8.75781C17.4609 9.07031 17.2266 9.34375 16.875 9.57812C16.7578 9.65625 16.6016 9.77344 16.4062 9.89062C16.3281 9.96875 16.1328 10.0469 16.0156 10.1641C15.9375 10.2031 15.8984 10.2422 15.8984 10.2812C15.8594 10.3203 15.8594 10.3984 15.8984 10.5156C15.9766 10.75 16.0938 10.9453 16.25 11.1406C16.7188 11.8438 17.4219 12.4688 18.3203 12.9375C18.3984 12.9766 18.4766 13.0156 18.5938 13.0547C18.6328 13.0547 18.6719 13.0938 18.7109 13.1328C19.0234 13.2891 19.2578 13.4844 19.375 13.8359ZM18.0469 14.5391C18.5938 14.2656 18.2812 14.1094 18.125 13.9922C15.1953 12.5859 14.7266 10.3984 14.6875 10.2422C14.6484 10.0469 14.6484 9.89062 14.8438 9.65625C15.0781 9.46094 15.9766 8.91406 16.25 8.71875C16.6797 8.40625 16.875 8.13281 16.7188 7.74219C16.6406 7.50781 16.4062 7.42969 16.1328 7.42969C16.0547 7.42969 15.9766 7.42969 15.8984 7.42969C15.4297 7.54688 15 7.78125 14.7266 7.82031C14.6875 7.85938 14.6484 7.85938 14.6094 7.85938C14.4922 7.85938 14.4531 7.78125 14.4531 7.625C14.4922 7.11719 14.5312 6.10156 14.4531 5.16406C14.375 3.875 13.9453 3.25 13.4375 2.70312C13.2031 2.42969 12.1094 1.25781 9.96094 1.25781C7.85156 1.25781 6.75781 2.42969 6.52344 2.70312C6.01562 3.25 5.58594 3.875 5.50781 5.16406C5.39062 6.10156 5.46875 7.11719 5.50781 7.625C5.50781 7.78125 5.46875 7.85938 5.3125 7.85938C5.3125 7.85938 5.27344 7.85938 5.23438 7.85938C4.96094 7.78125 4.53125 7.54688 4.0625 7.42969C3.98438 7.42969 3.90625 7.42969 3.82812 7.42969C3.55469 7.42969 3.32031 7.50781 3.24219 7.78125C3.08594 8.13281 3.28125 8.44531 3.71094 8.71875C3.98438 8.91406 4.88281 9.5 5.11719 9.69531C5.3125 9.89062 5.3125 10.0469 5.27344 10.2422C5.23438 10.3984 4.76562 12.5859 1.83594 13.9922C1.67969 14.1094 1.36719 14.2656 1.91406 14.5391C2.69531 15.0078 3.24219 14.9688 3.67188 15.2031C4.02344 15.4375 3.82812 15.9453 4.0625 16.1406C4.375 16.3359 5.3125 16.1016 6.52344 16.4922C7.53906 16.8438 8.16406 17.7812 10 17.7812C11.7969 17.7812 12.4219 16.8438 13.4375 16.4922C14.6484 16.1016 15.5859 16.3359 15.8984 16.1406C16.1328 15.9453 15.9375 15.4375 16.2891 15.2422C16.7188 14.9688 17.2656 15.0078 18.0469 14.5391Z" fill="white"/>
</svg>
