<svg id="Statistics" xmlns="http://www.w3.org/2000/svg" width="100" height="100" viewBox="0 0 100 100">
  <defs>
    <style>
      .cls-1 {
        fill: #274479;
      }

      .cls-1, .cls-2, .cls-3 {
        fill-rule: evenodd;
      }

      .cls-2 {
        fill: #0075c9;
      }

      .cls-3 {
        fill: #00a886;
      }
    </style>
  </defs>
  <path id="Shape_45_1" data-name="Shape 45 1" class="cls-1" d="M1720,2286.06h-16.78a4.141,4.141,0,0,0-.87.1v12.36a4.68,4.68,0,0,1-4.68,4.68h-12.36a4.116,4.116,0,0,0-.09.86v65.27a4,4,0,0,0,4,4h60.06a4,4,0,0,0,4-4V2315H1756v54.33a6.735,6.735,0,0,1-6.72,6.72h-60.06a6.728,6.728,0,0,1-6.72-6.72v-65.27a6.68,6.68,0,0,1,1.97-4.75l14-14a6.7,6.7,0,0,1,4.75-1.96H1720v2.71Zm-20.36,1.92-12.5,12.51h10.53a1.967,1.967,0,0,0,1.97-1.97v-10.54Z" transform="translate(-1669.25 -2279.545)"/>
  <path class="cls-2" d="M1745.91,2366.87V2330.7a0.973,0.973,0,0,0-.98-0.97h-9.78a0.973,0.973,0,0,0-.98.97v36.17h-1.96v-22.48a0.973,0.973,0,0,0-.97-0.98h-9.78a0.982,0.982,0,0,0-.98.98v22.48h-1.96v-32.26a0.973,0.973,0,0,0-.98-0.97h-9.78a0.965,0.965,0,0,0-.97.97v32.26h-1.96V2348.3a0.982,0.982,0,0,0-.98-0.98h-9.78a0.982,0.982,0,0,0-.98.98v18.57h-2.93v1.96h58.68v-1.96h-2.93Zm-43.04,0h-7.82v-17.59h7.82v17.59Zm13.7,0h-7.83v-31.28h7.83v31.28Zm13.69,0h-7.83v-21.5h7.83v21.5Zm13.69,0h-7.82v-35.19h7.82v35.19Z" transform="translate(-1669.25 -2279.545)"/>
  <path class="cls-3" d="M1751.22,2308.25a1.269,1.269,0,0,1-2.11-1.41,13.633,13.633,0,0,0,2.26-6.32h-13.68a1.272,1.272,0,0,1-1.27-1.27v-13.62a13.683,13.683,0,1,0,8.41,25.33,1.267,1.267,0,1,1,1.31,2.17,16.223,16.223,0,0,1-13.93,1.35l-4.93,6.73a4.584,4.584,0,1,1-8.1.89l-5.44-4.18a4.525,4.525,0,0,1-2.33,1.16,4.251,4.251,0,0,1-.8.07,4.6,4.6,0,0,1-2.52-.76l-6.48,6.48a4.626,4.626,0,0,1,.75,2.53,4.58,4.58,0,1,1-2.05-3.82l6.49-6.49a4.581,4.581,0,1,1,8.01-.66l5.36,4.12a0.209,0.209,0,0,1,.04-0.06,4.586,4.586,0,0,1,5.77-.58l4.47-6.19a16.21,16.21,0,0,1,7.21-30.68h0.09A16.2,16.2,0,0,1,1751.22,2308.25Zm-51.49,17.21a2.74,2.74,0,0,0-3.89,0h-0.01a2.737,2.737,0,0,0,.01,3.88,2.815,2.815,0,0,0,3.89,0A2.746,2.746,0,0,0,1699.73,2325.46Zm12.46-13.14a2.739,2.739,0,0,0-1.57-.5,3.884,3.884,0,0,0-.48.04,2.762,2.762,0,0,0-1.78,1.13h0A2.753,2.753,0,1,0,1712.19,2312.32Zm11.26,8.67a2.745,2.745,0,0,0-1.94,4.69,2.745,2.745,0,0,0,4.69-1.95A2.746,2.746,0,0,0,1723.45,2320.99Z" transform="translate(-1669.25 -2279.545)"/>
</svg>
