<svg id="Surveys" xmlns="http://www.w3.org/2000/svg" width="100" height="100" viewBox="0 0 100 100">
  <defs>
    <style>
      .cls-1 {
        fill: #274479;
      }

      .cls-1, .cls-2, .cls-3 {
        fill-rule: evenodd;
      }

      .cls-2 {
        fill: #0075c9;
      }

      .cls-3 {
        fill: #00a886;
      }
    </style>
  </defs>
  <path id="Shape_45_1" data-name="Shape 45 1" class="cls-1" d="M1732,2427.06h-28.78a4.141,4.141,0,0,0-.87.1v12.36a4.68,4.68,0,0,1-4.68,4.68h-12.36a4.116,4.116,0,0,0-.09.86v65.27a4,4,0,0,0,4,4h60.06a4,4,0,0,0,4-4V2450H1756v60.33a6.735,6.735,0,0,1-6.72,6.72h-60.06a6.728,6.728,0,0,1-6.72-6.72v-65.27a6.68,6.68,0,0,1,1.97-4.75l14-14a6.7,6.7,0,0,1,4.75-1.96H1732v2.71Zm-32.36,1.92-12.5,12.51h10.53a1.967,1.967,0,0,0,1.97-1.97v-10.54Z" transform="translate(-1669.25 -2420.7)"/>
  <path class="cls-2" d="M1735.89,2480.47h-8.72l1.82-6.03a7.215,7.215,0,0,0-4.64-8.97,3.942,3.942,0,0,0-4.98,2.51c-0.03.09-.06,0.19-0.08,0.28l-0.28,1.18a24.038,24.038,0,0,1-6.31,11.17l-1.6,1.57a4.364,4.364,0,0,0-3.38-1.65h-2.04a4.364,4.364,0,0,0-4.36,4.3v18a4.364,4.364,0,0,0,4.36,4.36h2.04a4.341,4.341,0,0,0,3.72-2.13l0.39,0.2a18.346,18.346,0,0,0,8.13,1.93h10.03a10.024,10.024,0,0,0,8.38-4.47,17.625,17.625,0,0,0,2.99-9.87v-6.96a5.418,5.418,0,0,0-5.42-5.42h-0.05Zm-26.72,22.36a1.562,1.562,0,0,1-1.56,1.56h-1.93a1.562,1.562,0,0,1-1.56-1.56v-18a1.562,1.562,0,0,1,1.56-1.56h2.04a1.555,1.555,0,0,1,1.45,1.56v18Zm29.34-9.98a14.959,14.959,0,0,1-2.51,8.38,7.232,7.232,0,0,1-6.01,3.22h-10.03a15.421,15.421,0,0,1-6.87-1.62l-1.12-.56v-17.16l2.57-2.57a26.914,26.914,0,0,0,7.07-12.46l0.28-1.15a1.183,1.183,0,0,1,.56-0.72,1.064,1.064,0,0,1,.89,0,4.41,4.41,0,0,1,2.8,5.58v0.01l-2.35,7.85a1.419,1.419,0,0,0,.22,1.23,1.347,1.347,0,0,0,1.12.56h10.59a2.625,2.625,0,0,1,2.63,2.62h0Z" transform="translate(-1669.25 -2420.7)"/>
  <path class="cls-2" d="M1755.42,2430.93a2.2,2.2,0,0,0-1.81-1.53l-3.38-.48-1.53-3.08a2.321,2.321,0,0,0-3.17-.85,2.387,2.387,0,0,0-.85.85l-1.53,3.08-3.38.48a2.215,2.215,0,0,0-1.24,3.83l2.46,2.41-0.6,3.36a2.244,2.244,0,0,0,3.27,2.36l3.03-1.59,3.03,1.59a2.123,2.123,0,0,0,1.04.27,2.211,2.211,0,0,0,2.25-2.17,2.316,2.316,0,0,0-.04-0.46l-0.6-3.36,2.46-2.41a2.2,2.2,0,0,0,.59-2.3h0Zm-4.97,3.51a1.2,1.2,0,0,0-.33,1l0.64,3.98-3.56-1.86a1.031,1.031,0,0,0-1.02,0l-3.6,1.81,0.8-3.93a1.186,1.186,0,0,0-.45-1l-2.85-2.85,3.98-.57a1.049,1.049,0,0,0,.82-0.6l1.83-3.6,1.79,3.6a1.065,1.065,0,0,0,.82.6l3.98,0.64Z" transform="translate(-1669.25 -2420.7)"/>
  <path class="cls-3" d="M1706.08,2470.16a2.118,2.118,0,0,0,2.09-2.48l-0.57-3.17,2.34-2.27a2.083,2.083,0,0,0-1.17-3.61l-3.19-.46-1.44-2.9a2.191,2.191,0,0,0-2.99-.81,2.246,2.246,0,0,0-.81.81l-1.44,2.9-3.19.46a2.081,2.081,0,0,0-1.16,3.61l2.31,2.27-0.56,3.17a2.11,2.11,0,0,0,3.08,2.23l2.86-1.5,2.86,1.5a2.1,2.1,0,0,0,.98.25h0Z" transform="translate(-1669.25 -2420.7)"/>
  <path class="cls-2" d="M1715.76,2451.54l-0.89,5.17a3.149,3.149,0,0,0,3.04,3.66,3.349,3.349,0,0,0,1.46-.36l4.78-2.46,4.66,2.46a3.075,3.075,0,0,0,3.27-.26,3.024,3.024,0,0,0,1.23-3.01l-0.78-5.2,3.66-3.63a3.1,3.1,0,0,0-1.71-5.31l-5.22-.76-2.32-4.77a3.128,3.128,0,0,0-5.59,0l-2.32,4.72-5.22.75a3.141,3.141,0,0,0-2.52,2.13,3.089,3.089,0,0,0,.81,3.24Zm-1.67-6.23,5.95-.87a1.352,1.352,0,0,0,1.31-.75l2.8-5.4a0.3,0.3,0,0,1,.4-0.15,0.312,0.312,0,0,1,.15.15l2.8,5.4a1.349,1.349,0,0,0,1.06.75l5.95,0.87a0.315,0.315,0,0,1,.25.22,0.289,0.289,0,0,1,0,.31l-4.3,4.19a1.507,1.507,0,0,0-.42,1.26l1.04,5.89a0.27,0.27,0,0,1-.14.31,0.3,0.3,0,0,1-.34,0l-5.31-2.79a1.273,1.273,0,0,0-1.28,0l-5.34,2.79a0.255,0.255,0,0,1-.31,0,0.249,0.249,0,0,1-.14-0.31l1.04-5.89a1.507,1.507,0,0,0-.42-1.26l-4.31-4.19a0.339,0.339,0,0,1,0-.31,0.325,0.325,0,0,1-.33-0.22h-0.11Z" transform="translate(-1669.25 -2420.7)"/>
</svg>
