<svg xmlns="http://www.w3.org/2000/svg" width="100.004" height="30.25" viewBox="0 0 100.004 30.25">
  <defs>
    <style>
      .cls-1 {
        fill: #0075c9;
        fill-rule: evenodd;
      }
    </style>
  </defs>
  <path class="cls-1" d="M953.629,576.006a2.4,2.4,0,0,0,1.182-.31l2.6-1.463v2.927a2.368,2.368,0,0,0,4.735,0v-2.927l2.6,1.463a2.4,2.4,0,0,0,3.234-.845,2.278,2.278,0,0,0-.866-3.153l-2.6-1.464,2.6-1.463a2.279,2.279,0,0,0,.866-3.154,2.4,2.4,0,0,0-3.234-.845l-2.6,1.464v-2.927a2.368,2.368,0,0,0-4.735,0v2.927l-2.6-1.464a2.4,2.4,0,0,0-3.234.845,2.278,2.278,0,0,0,.866,3.154l2.6,1.463-2.6,1.464a2.274,2.274,0,0,0-.866,3.153,2.382,2.382,0,0,0,2.052,1.155h0Zm-35,0a2.4,2.4,0,0,0,1.182-.31l2.6-1.463v2.927a2.368,2.368,0,0,0,4.735,0v-2.927l2.6,1.463a2.4,2.4,0,0,0,3.234-.845,2.277,2.277,0,0,0-.867-3.153l-2.6-1.464,2.6-1.463a2.278,2.278,0,0,0,.867-3.154,2.4,2.4,0,0,0-3.234-.845l-2.6,1.464v-2.927a2.368,2.368,0,0,0-4.735,0v2.927l-2.6-1.464a2.4,2.4,0,0,0-3.234.845,2.278,2.278,0,0,0,.866,3.154l2.6,1.463-2.6,1.464a2.274,2.274,0,0,0-.866,3.153,2.381,2.381,0,0,0,2.052,1.155h0ZM1008.52,587.5H981.292a1.5,1.5,0,0,0,0,2.989h27.228A1.5,1.5,0,0,0,1008.52,587.5Zm-35,0H946.292a1.5,1.5,0,0,0,0,2.989h27.231A1.5,1.5,0,0,0,973.523,587.5Zm-35,0H911.292a1.5,1.5,0,0,0,0,2.989h27.231A1.5,1.5,0,0,0,938.523,587.5Zm46.437-21.331,8.885,8.874L990.884,578,982,569.127Zm17.77-5.915,2.96,2.957L990.884,578l-2.962-2.958Z" transform="translate(-909.906 -560.25)"/>
</svg>
