<svg width="40" height="40" viewBox="0 0 40 40" fill="none" xmlns="http://www.w3.org/2000/svg">
<path d="M20 0C8.97201 0 0 8.97201 0 20C0 31.028 8.97201 40 20 40C31.028 40 40 31.028 40 20C40 8.97201 31.0281 0 20 0ZM20 37.8378C15.1003 37.8378 10.6562 35.8518 7.42915 32.6431C6.14049 31.3618 5.04655 29.885 4.19479 28.262C2.89761 25.7905 2.16219 22.9796 2.16219 20C2.16219 10.1642 10.1642 2.16219 20 2.16219C24.6653 2.16219 28.9173 3.9633 32.0992 6.90577C33.749 8.4312 35.1113 10.2631 36.0936 12.3107C37.2112 14.6403 37.8378 17.2483 37.8378 20C37.8378 29.8358 29.8358 37.8378 20 37.8378Z" fill="#DB4756"/>
<rect x="2" y="2" width="36" height="36" rx="18" fill="#DB4756"/>
<path d="M22.1139 26.0551C24.4861 26.5512 26.6169 27.8849 28.114 29.8105L29.8209 28.4834C28.0098 26.1537 25.4298 24.5396 22.5565 23.9386C17.9355 22.9729 13.0772 24.7565 10.1797 28.4834L11.8869 29.8105C14.281 26.7308 18.2955 25.2565 22.1139 26.0551Z" fill="white"/>
<path d="M13.2699 16.1078C14.4321 16.1078 15.3777 15.2163 15.3777 14.0001H17.5398C17.5398 16.4326 15.6244 18.27 13.2699 18.27C10.9154 18.27 9 16.4326 9 14.0001H11.1622C11.1622 15.2163 12.1079 16.1078 13.2699 16.1078Z" fill="white"/>
<path d="M26.9418 16.1078C28.104 16.1078 29.0495 15.2163 29.0495 14.0001H31.2117C31.2117 16.4326 29.2963 18.27 26.9418 18.27C24.5873 18.27 22.6719 16.4326 22.6719 14.0001H24.8341C24.8341 15.2163 25.7796 16.1078 26.9418 16.1078Z" fill="white"/>
</svg>
