<svg width="40" height="40" viewBox="0 0 40 40" fill="none" xmlns="http://www.w3.org/2000/svg">
<path d="M20 0C8.97201 0 0 8.97201 0 20C0 31.028 8.97201 40 20 40C31.028 40 40 31.028 40 20C40 8.97201 31.028 0 20 0ZM20 37.8378C15.1003 37.8378 10.6562 35.8518 7.42915 32.6431C6.14049 31.3618 5.04655 29.885 4.19479 28.262C2.89761 25.7905 2.16219 22.9796 2.16219 20C2.16219 10.1642 10.1642 2.16219 20 2.16219C24.6653 2.16219 28.9173 3.9633 32.0992 6.90577C33.749 8.4312 35.1113 10.2631 36.0936 12.3107C37.2112 14.6403 37.8378 17.2483 37.8378 20C37.8378 29.8358 29.8358 37.8378 20 37.8378Z" fill="#F36B79"/>
<path d="M22.1139 25.3525C24.4861 25.8486 26.6169 27.1823 28.114 29.1078L29.8209 27.7808C28.0098 25.451 25.4298 23.837 22.5565 23.236C17.9355 22.2703 13.0772 24.0538 10.1797 27.7808L11.8869 29.1078C14.281 26.0282 18.2955 24.5539 22.1139 25.3525Z" fill="#F36B79"/>
<path d="M13.2699 15.4052C14.4321 15.4052 15.3777 14.5137 15.3777 13.2975H17.5398C17.5398 15.7299 15.6244 17.5674 13.2699 17.5674C10.9154 17.5674 9 15.7299 9 13.2975H11.1622C11.1622 14.5137 12.1079 15.4052 13.2699 15.4052Z" fill="#F36B79"/>
<path d="M26.9418 15.4052C28.104 15.4052 29.0495 14.5137 29.0495 13.2975H31.2117C31.2117 15.7299 29.2963 17.5674 26.9418 17.5674C24.5873 17.5674 22.6719 15.7299 22.6719 13.2975H24.8341C24.8341 14.5137 25.7796 15.4052 26.9418 15.4052Z" fill="#F36B79"/>
</svg>
