<svg width="62" height="41" viewBox="0 0 62 41" fill="none" xmlns="http://www.w3.org/2000/svg">
<path d="M58.7905 8.56176C58.9591 8.48511 59.0971 8.36247 59.1967 8.21684C59.2963 8.06354 59.373 7.87958 59.419 7.66496C59.465 7.45034 59.4803 7.20506 59.4803 6.93679V2.12317H58.7905V6.93679C58.7905 7.12841 58.7828 7.29704 58.7598 7.42734C58.7368 7.56531 58.7061 7.67262 58.6602 7.75694C58.6142 7.84125 58.5452 7.90257 58.4609 7.9409C58.3765 7.97922 58.2692 7.99455 58.1389 7.99455C58.0776 7.99455 58.024 7.99455 57.978 7.98689C57.932 7.97922 57.8707 7.96389 57.7863 7.9409L57.6024 8.60009C57.794 8.65374 57.978 8.67674 58.1619 8.67674C58.4149 8.6844 58.6218 8.64608 58.7905 8.56176Z" fill="#0175CA"/>
<path d="M56.422 0.904468H55.4792V0.743504C55.4792 0.659189 55.4945 0.590204 55.5329 0.544214C55.5635 0.505889 55.6402 0.482894 55.7475 0.482894H56.2227V0H55.7321C55.4715 0 55.2646 0.0689847 55.1266 0.206955C54.9886 0.344924 54.912 0.567208 54.912 0.866143V1.42569H56.422V0.904468Z" fill="#0175CA"/>
<path d="M49.7305 9.29773H49.0406V9.98758H49.7305V9.29773Z" fill="#0175CA"/>
<path d="M38.164 0.751099H37.4742V1.44095H38.164V0.751099Z" fill="#0175CA"/>
<path d="M53.3177 6.24694C53.5783 6.4309 53.8849 6.56887 54.2298 6.66085C54.5747 6.75283 54.935 6.79115 55.3259 6.79115H55.5099L55.7398 6.30826V6.99044C55.7398 7.35069 55.6402 7.6113 55.4332 7.7646C55.2262 7.9179 54.935 7.99455 54.5594 7.99455C54.3448 7.99455 54.1532 7.97156 53.9845 7.93323C53.8159 7.89491 53.6243 7.82592 53.402 7.72628L53.1874 8.38547C53.448 8.48511 53.6856 8.5541 53.8925 8.60775C54.0995 8.65374 54.2988 8.6844 54.5057 8.6844C55.1803 8.6844 55.6632 8.52344 55.9698 8.20917C56.2764 7.88725 56.4297 7.46567 56.4297 6.92145V2.12317H55.3259C54.9043 2.12317 54.5134 2.18449 54.1608 2.30713C53.8082 2.42977 53.5093 2.59073 53.264 2.79769C53.0111 3.00464 52.8194 3.25759 52.6815 3.54886C52.5435 3.84013 52.4745 4.15439 52.4745 4.49165C52.4745 4.8979 52.5512 5.24282 52.7045 5.53409C52.8501 5.82536 53.0571 6.06298 53.3177 6.24694ZM53.3177 3.80947C53.425 3.60251 53.5629 3.42622 53.7392 3.28058C53.9155 3.13495 54.1148 3.01997 54.3371 2.94332C54.5517 2.86667 54.7817 2.82835 55.0116 2.82068H56.1231L55.7321 3.01997V6.10897H55.0423C54.7817 6.10897 54.5441 6.07064 54.3141 6.00166C54.0842 5.93267 53.8849 5.82536 53.7162 5.68739C53.5476 5.54942 53.4096 5.38079 53.31 5.1815C53.2104 4.98221 53.1644 4.75226 53.1644 4.49165C53.1644 4.23871 53.218 4.01642 53.3177 3.80947Z" fill="#0175CA"/>
<path d="M36.2784 8.58476H37.7117V8.0712C37.7271 8.0942 37.7424 8.11719 37.7577 8.14019C37.865 8.29349 37.9953 8.40846 38.164 8.48511C38.3326 8.56176 38.5396 8.60775 38.7848 8.60775H51.3478V2.12317H50.6579V7.92557H49.9451H38.8155C38.6852 7.92557 38.5779 7.91024 38.4936 7.87191C38.4092 7.83359 38.3479 7.77227 38.2943 7.68795C38.2483 7.60364 38.21 7.49633 38.1946 7.35836C38.1716 7.22039 38.164 7.05943 38.164 6.8678V2.12317H36.3014C34.4005 2.12317 33.0974 3.63317 33.0974 5.3578V5.37313C33.0974 7.09775 34.3775 8.58476 36.2784 8.58476ZM33.8332 5.3348C33.8332 3.91678 34.8527 2.77469 36.286 2.77469H37.8957L37.4741 2.98165V6.86014C37.4741 7.12841 37.4971 7.37369 37.5354 7.58831C37.5584 7.71095 37.5968 7.82592 37.6428 7.93323H36.3014C34.868 7.93323 33.8332 6.77582 33.8332 5.35013V5.3348Z" fill="#0175CA"/>
<path d="M29.6482 6.8831L29.9472 7.6726L25.5781 2.11548H24.8883V8.57707H25.6011V3.7098L25.1949 2.767L29.7785 8.57707H30.3611V2.11548H29.6482V6.8831Z" fill="#0175CA"/>
<path d="M39.4594 18.8865L43.4299 15.1V12.5016H32.8215V15.4603H38.2637L40.2796 14.1649L35.2437 19.2238L35.7802 21.416H37.2136C39.1452 21.416 40.2872 22.1288 40.2872 23.4089V23.4549C40.2872 24.6199 39.3674 25.3558 38.0644 25.3558C36.4701 25.3558 35.351 24.6813 34.2702 23.4779L31.8941 25.739C33.2431 27.3257 35.19 28.4524 38.0184 28.4524C41.5213 28.4524 43.6752 26.2832 43.6752 23.3246V23.2786C43.6828 20.3659 41.5903 19.2468 39.4594 18.8865Z" fill="#0175CA"/>
<path d="M20.4043 2.0083C18.4344 2.0083 17.093 3.56429 17.093 5.35024V5.36557C17.093 7.14385 18.4114 8.68451 20.3813 8.68451C22.3512 8.68451 23.6925 7.12851 23.6925 5.34257V5.32724C23.7002 3.54897 22.3742 2.0083 20.4043 2.0083ZM22.9414 5.36557C22.9414 6.82958 21.8913 8.00999 20.4119 8.00999C18.9326 8.00999 17.8595 6.81425 17.8595 5.34257V5.32724C17.8595 3.86323 18.9096 2.68282 20.3889 2.68282C21.8683 2.68282 22.9414 3.87856 22.9414 5.35024V5.36557Z" fill="#0175CA"/>
<path d="M52.9421 12.241C48.0978 12.241 44.5719 15.8895 44.5719 20.3505V20.3965C44.5719 24.8499 48.0518 28.4601 52.8961 28.4601C57.7404 28.4601 61.2663 24.8116 61.2663 20.3505V20.3045C61.2663 15.8435 57.7864 12.241 52.9421 12.241ZM57.6561 20.3889C57.6561 23.0793 55.7245 25.2715 52.9421 25.2715C50.1597 25.2715 48.1821 23.0333 48.1821 20.3429V20.2969C48.1821 17.6065 50.1137 15.4143 52.8961 15.4143C55.6785 15.4143 57.6561 17.6525 57.6561 20.3429V20.3889Z" fill="#0175CA"/>
<path d="M15.8359 2.11548H15.1077V8.5694H15.8359V2.11548Z" fill="#0175CA"/>
<path d="M3.38026 26.3906L4.04711 25.877L7.48103 23.2326C10.2634 21.0864 11.6125 19.7833 11.6125 17.1619V17.1236C11.6125 14.1879 9.4586 12.287 6.20097 12.287C3.39559 12.287 1.89325 13.4291 0.34492 15.5369L2.76706 17.4839C3.93214 16.0505 4.76762 15.376 5.97869 15.376C7.21275 15.376 8.08656 16.0888 8.08656 17.4149C8.08656 18.7103 7.32006 19.5611 5.37315 21.1784L0.14563 25.4554V28.1842H11.7658V25.2025H5.7794L3.38026 26.3906Z" fill="#0175CA"/>
<path d="M3.43392 8.62306L6.20864 2.11548H5.42681L3.22696 7.41199L3.29595 8.11717L3.11965 7.68026L1.21107 3.08127L0.812489 2.11548H0L2.78239 8.62306H3.43392Z" fill="#0175CA"/>
<path d="M7.93331 2.11548H7.20514V8.5694H7.93331V2.11548Z" fill="#0175CA"/>
<path d="M11.7965 4.99745C10.3708 4.69085 10.0412 4.35359 10.0412 3.7404V3.72507C10.0412 3.14253 10.5777 2.68263 11.4209 2.68263C12.0877 2.68263 12.6856 2.89725 13.2911 3.38014L13.7127 2.8206C13.0535 2.29171 12.379 2.02344 11.4362 2.02344C10.2098 2.02344 9.31301 2.76694 9.31301 3.78639V3.80172C9.31301 4.85949 9.99519 5.34238 11.4822 5.66431C12.8389 5.94791 13.1608 6.29284 13.1608 6.89071V6.90604C13.1608 7.54223 12.586 8.00213 11.7198 8.00213C10.823 8.00213 10.1792 7.69553 9.50463 7.09L9.0524 7.62655C9.82656 8.3164 10.6697 8.66132 11.6968 8.66132C12.9845 8.66132 13.9043 7.94081 13.9043 6.83705V6.82172C13.9043 5.83294 13.2375 5.31172 11.7965 4.99745Z" fill="#0175CA"/>
<path d="M21.1554 11.2062L21.9525 11.965L21.186 12.7622L20.3965 12.0033L21.1554 11.2062Z" fill="#39457C"/>
<path d="M22.9796 12.0033L23.7767 12.7622L24.5356 11.965L23.7384 11.2062L22.9796 12.0033Z" fill="#0175CA"/>
<path d="M21.8606 12.9999L22.4738 13.5978L23.0717 12.9769L22.4508 12.3867L21.8606 12.9999Z" fill="#0175CA"/>
<path d="M24.1294 13.3372L24.7502 13.9351L25.3404 13.3142L24.7196 12.724L24.1294 13.3372Z" fill="#264478"/>
<path d="M20.8488 13.9425L21.462 14.5404L22.0599 13.9196L21.439 13.3293L20.8488 13.9425Z" fill="#0175CA"/>
<path d="M22.926 14.0193L23.5392 14.6095L24.1371 13.9963L23.5162 13.3984L22.926 14.0193Z" fill="#264478"/>
<path d="M22.1135 14.7321L22.5427 15.146L22.9643 14.7091L22.5274 14.2952L22.1135 14.7321Z" fill="#264478"/>
<path d="M23.7538 15.054L24.1907 15.4756L24.6046 15.0387L24.1754 14.6248L23.7538 15.054Z" fill="#264478"/>
<path d="M28.6907 11.5012L27.3412 11.7484L27.5884 13.0979L28.938 12.8507L28.6907 11.5012Z" fill="#3A89C8"/>
<path d="M26.6627 12.1119L25.5771 12.3107L25.7759 13.3963L26.8615 13.1975L26.6627 12.1119Z" fill="#344773"/>
<path d="M28.7574 13.6235L27.6718 13.8226L27.8709 14.9083L28.9566 14.7092L28.7574 13.6235Z" fill="#264478"/>
<path d="M26.1836 13.9809L26.3369 14.8241L27.1801 14.6708L27.0268 13.8276L26.1836 13.9809Z" fill="#0175CA"/>
<path d="M28.6648 15.428L27.8204 15.5826L27.975 16.427L28.8194 16.2724L28.6648 15.428Z" fill="#0175CA"/>
<path d="M25.7601 14.1706L24.9156 14.3252L25.0703 15.1696L25.9147 15.015L25.7601 14.1706Z" fill="#264478"/>
<path d="M27.293 15.2742L26.4486 15.4288L26.6032 16.2732L27.4476 16.1186L27.293 15.2742Z" fill="#264478"/>
<path d="M25.971 15.4174L25.3754 15.5266L25.4846 16.1222L26.0802 16.013L25.971 15.4174Z" fill="#0175CA"/>
<path d="M27.1069 16.6445L26.5112 16.7534L26.6201 17.3491L27.2158 17.2401L27.1069 16.6445Z" fill="#264478"/>
<path d="M31.3651 16.1654L30.7749 17.4071L32.0166 17.9973L32.6068 16.7556L31.3651 16.1654Z" fill="#39457C"/>
<path d="M29.6022 15.5983L29.127 16.5871L30.1234 17.0623L30.5987 16.0658L29.6022 15.5983Z" fill="#264478"/>
<path d="M30.4147 18.0435L29.9395 19.0399L30.9359 19.5075L31.4111 18.5187L30.4147 18.0435Z" fill="#264478"/>
<path d="M29.1117 17.2999L28.7437 18.0741L29.5179 18.442L29.8858 17.6678L29.1117 17.2999Z" fill="#0175CA"/>
<path d="M29.5025 19.5535L29.1346 20.3276L29.9087 20.6956L30.2767 19.9214L29.5025 19.5535Z" fill="#0175CA"/>
<path d="M27.8853 16.8398L27.5173 17.614L28.2915 17.9819L28.6594 17.2078L27.8853 16.8398Z" fill="#3A89C8"/>
<path d="M28.4831 18.626L28.1152 19.4001L28.8893 19.7681L29.2573 18.9939L28.4831 18.626Z" fill="#0175CA"/>
<path d="M27.5479 18.0817L27.2873 18.6259L27.8315 18.8865L28.0921 18.3423L27.5479 18.0817Z" fill="#264478"/>
<path d="M27.7566 19.7446L27.4963 20.2914L28.043 20.5516L28.3033 20.0049L27.7566 19.7446Z" fill="#264478"/>
<path d="M32.032 22.0981L30.8286 22.7573L31.4878 23.9607L32.6912 23.3015L32.032 22.0981Z" fill="#3A89C8"/>
<path d="M30.9359 20.6035L29.9701 21.1324L30.499 22.0982L31.4648 21.5693L30.9359 20.6035Z" fill="#264478"/>
<path d="M30.1617 23.064L29.1959 23.5929L29.7248 24.5586L30.6906 24.0298L30.1617 23.064Z" fill="#264478"/>
<path d="M29.5409 21.6996L28.7897 22.1135L29.2036 22.8647L29.9548 22.4508L29.5409 21.6996Z" fill="#39457C"/>
<path d="M28.5368 23.7615L27.7856 24.1754L28.1995 24.9266L28.9507 24.5126L28.5368 23.7615Z" fill="#264478"/>
<path d="M28.8204 20.6112L28.0692 21.0251L28.4755 21.7763L29.2343 21.3624L28.8204 20.6112Z" fill="#344773"/>
<path d="M28.2532 22.4124L27.502 22.8263L27.916 23.5698L28.6671 23.1635L28.2532 22.4124Z" fill="#0175CA"/>
<path d="M27.8162 21.4237L27.2873 21.715L27.5786 22.2439L28.1075 21.9526L27.8162 21.4237Z" fill="#0175CA"/>
<path d="M27.0114 22.8876L26.4825 23.1788L26.7738 23.7077L27.3027 23.4165L27.0114 22.8876Z" fill="#264478"/>
<path d="M27.734 27.1301L27.5656 28.4917L28.9273 28.66L29.0956 27.2984L27.734 27.1301Z" fill="#264478"/>
<path d="M27.9944 25.3105L27.8586 26.4059L28.954 26.5416L29.0897 25.4463L27.9944 25.3105Z" fill="#344773"/>
<path d="M25.9213 26.8532L25.7856 27.9486L26.881 28.0844L27.0167 26.989L25.9213 26.8532Z" fill="#264478"/>
<path d="M26.4564 25.4187L26.3511 26.2706L27.203 26.376L27.3084 25.524L26.4564 25.4187Z" fill="#264478"/>
<path d="M24.4375 26.5045L24.3322 27.3564L25.1841 27.4618L25.2895 26.6098L24.4375 26.5045Z" fill="#0175CA"/>
<path d="M26.5128 24.1062L26.4072 24.9581L27.2592 25.0637L27.3648 24.2118L26.5128 24.1062Z" fill="#0175CA"/>
<path d="M24.9964 25.2383L24.8908 26.0902L25.7427 26.1958L25.8483 25.3438L24.9964 25.2383Z" fill="#264478"/>
<path d="M25.4763 24.2202L25.402 24.8212L26.003 24.8955L26.0773 24.2945L25.4763 24.2202Z" fill="#0175CA"/>
<path d="M23.9677 24.932L23.8935 25.533L24.4945 25.6072L24.5687 25.0062L23.9677 24.932Z" fill="#0175CA"/>
<path d="M23.6695 29.8015L22.6578 28.8663L21.7303 29.8781L22.7344 30.8056L23.6695 29.8015Z" fill="#0175CA"/>
<path d="M23.4855 10.593L22.4738 9.65784L21.5386 10.662L22.5504 11.5971L23.4855 10.593Z" fill="#264478"/>
<path d="M24.7425 28.2993L23.9377 27.5481L23.1866 28.3529L23.9914 29.1041L24.7425 28.2993Z" fill="#264478"/>
<path d="M22.1595 28.3374L21.3547 27.5939L20.6035 28.3987L21.4083 29.1422L22.1595 28.3374Z" fill="#264478"/>
<path d="M23.2633 27.318L22.6347 26.7355L22.0522 27.364L22.6807 27.9465L23.2633 27.318Z" fill="#3A89C8"/>
<path d="M20.9867 27.0189L20.3582 26.4364L19.7757 27.0649L20.4042 27.6475L20.9867 27.0189Z" fill="#0175CA"/>
<path d="M24.068 26.2909L23.4395 25.7084L22.857 26.3369L23.4855 26.9194L24.068 26.2909Z" fill="#0175CA"/>
<path d="M22.1824 26.3217L21.5539 25.7391L20.9714 26.3677L21.5999 26.9502L22.1824 26.3217Z" fill="#0175CA"/>
<path d="M22.9797 25.5934L22.5351 25.1871L22.1288 25.6317L22.5734 26.0379L22.9797 25.5934Z" fill="#344773"/>
<path d="M21.3317 25.2945L20.8871 24.8883L20.4809 25.3252L20.9254 25.7391L21.3317 25.2945Z" fill="#0175CA"/>
<path d="M17.529 27.318L16.1837 27.5876L16.4533 28.9329L17.7986 28.6633L17.529 27.318Z" fill="#3A89C8"/>
<path d="M19.333 26.9911L18.2508 27.2079L18.4676 28.2901L19.5498 28.0733L19.333 26.9911Z" fill="#264478"/>
<path d="M17.2199 25.5204L16.1376 25.7375L16.3547 26.8198L17.437 26.6027L17.2199 25.5204Z" fill="#264478"/>
<path d="M18.9248 26.4136L18.7562 25.5704L17.9131 25.7391L18.0817 26.5822L18.9248 26.4136Z" fill="#264478"/>
<path d="M20.012 25.2109L19.1703 25.3795L19.3389 26.2213L20.1806 26.0527L20.012 25.2109Z" fill="#39457C"/>
<path d="M18.4632 24.1296L17.6215 24.2982L17.7901 25.14L18.6318 24.9713L18.4632 24.1296Z" fill="#3A89C8"/>
<path d="M19.5877 24.2574L18.9939 24.3762L19.1128 24.9699L19.7065 24.8511L19.5877 24.2574Z" fill="#264478"/>
<path d="M18.4297 23.054L17.8361 23.1732L17.9552 23.7669L18.5489 23.6477L18.4297 23.054Z" fill="#0175CA"/>
<path d="M13.7051 24.3134L14.2799 23.064L13.0229 22.4968L12.4557 23.7386L13.7051 24.3134Z" fill="#264478"/>
<path d="M15.4756 24.8576L15.9355 23.8535L14.9314 23.3936L14.4715 24.3977L15.4756 24.8576Z" fill="#264478"/>
<path d="M14.6248 22.4202L15.077 21.4161L14.0729 20.9639L13.6207 21.968L14.6248 22.4202Z" fill="#3A89C8"/>
<path d="M15.5133 22.003L15.1572 22.7842L15.9383 23.1404L16.2945 22.3592L15.5133 22.003Z" fill="#264478"/>
<path d="M16.9856 25.0954L17.3382 24.3135L16.5564 23.9609L16.2038 24.7351L16.9856 25.0954Z" fill="#0175CA"/>
<path d="M15.0878 19.7556L14.7314 20.5366L15.5125 20.893L15.8688 20.1119L15.0878 19.7556Z" fill="#39457C"/>
<path d="M16.7515 22.4484L16.3952 23.2295L17.1762 23.5858L17.5326 22.8048L16.7515 22.4484Z" fill="#264478"/>
<path d="M16.1239 20.6721L15.7673 21.453L16.5482 21.8096L16.9048 21.0287L16.1239 20.6721Z" fill="#0175CA"/>
<path d="M17.4915 22.3359L17.7367 21.784L17.1925 21.5387L16.9396 22.0829L17.4915 22.3359Z" fill="#344773"/>
<path d="M17.2538 20.6802L17.5068 20.1283L16.9549 19.8831L16.702 20.4273L17.2538 20.6802Z" fill="#264478"/>
<path d="M12.9385 18.3883L14.1342 17.7138L13.4521 16.5181L12.2563 17.2003L12.9385 18.3883Z" fill="#264478"/>
<path d="M14.0575 19.8677L15.0157 19.3235L14.4715 18.3654L13.5133 18.9096L14.0575 19.8677Z" fill="#264478"/>
<path d="M14.7935 17.3919L15.7516 16.8477L15.1997 15.8895L14.2416 16.4337L14.7935 17.3919Z" fill="#344773"/>
<path d="M15.4374 18.7486L16.1809 18.327L15.7516 17.5835L15.0081 18.0051L15.4374 18.7486Z" fill="#3A89C8"/>
<path d="M16.4031 16.6713L17.1466 16.2497L16.725 15.5062L15.9815 15.9278L16.4031 16.6713Z" fill="#264478"/>
<path d="M16.1732 19.8292L16.9243 19.4L16.4951 18.6565L15.7516 19.0857L16.1732 19.8292Z" fill="#264478"/>
<path d="M16.7097 18.0205L17.4609 17.5913L17.0316 16.8478L16.2881 17.277L16.7097 18.0205Z" fill="#0175CA"/>
<path d="M17.1696 18.9939L17.6908 18.7026L17.3919 18.1737L16.863 18.4726L17.1696 18.9939Z" fill="#0175CA"/>
<path d="M17.9437 17.5145L18.4726 17.2156L18.1737 16.6943L17.6448 16.9933L17.9437 17.5145Z" fill="#264478"/>
<path d="M15.9342 11.7795L15.7883 13.1437L17.1525 13.2895L17.2984 11.9253L15.9342 11.7795Z" fill="#264478"/>
<path d="M15.9447 13.8924L15.8273 14.9899L16.9248 15.1073L17.0422 14.0098L15.9447 13.8924Z" fill="#0175CA"/>
<path d="M17.9871 12.3204L17.8697 13.4178L18.9672 13.5353L19.0846 12.4378L17.9871 12.3204Z" fill="#264478"/>
<path d="M17.6909 14.0356L17.5995 14.8892L18.4531 14.9806L18.5445 14.127L17.6909 14.0356Z" fill="#0175CA"/>
<path d="M19.6942 12.9162L19.603 13.7698L20.4566 13.8609L20.5478 13.0074L19.6942 12.9162Z" fill="#3A89C8"/>
<path d="M17.6661 15.3475L17.5746 16.201L18.4281 16.2926L18.5197 15.439L17.6661 15.3475Z" fill="#264478"/>
<path d="M19.1572 14.1932L19.0657 15.0468L19.9193 15.1383L20.0108 14.2847L19.1572 14.1932Z" fill="#264478"/>
<path d="M18.9265 15.4984L18.8621 16.1005L19.4642 16.1648L19.5285 15.5628L18.9265 15.4984Z" fill="#344773"/>
<path d="M20.421 14.758L20.3568 15.3601L20.959 15.4242L21.0231 14.8221L20.421 14.758Z" fill="#0175CA"/>
<path d="M26.8428 21.0786C26.7432 21.0173 26.5515 20.9253 26.2986 20.841C25.9307 20.7261 25.4095 20.6341 24.7963 20.7337C24.5893 20.7644 24.3747 20.818 24.1447 20.9023C24.1217 20.91 24.0987 20.9177 24.0834 20.9253C23.9684 20.9713 23.8535 21.0173 23.7385 21.0786C23.6388 21.1246 23.5469 21.186 23.4472 21.2396C23.2249 21.3699 23.0103 21.5232 22.7957 21.6842C22.5581 20.2202 22.6731 18.8635 22.7267 18.1966C22.7267 18.1966 22.7344 18.1889 22.7344 18.1966C23.2556 18.5185 23.11 19.4307 22.995 19.6913C22.995 19.6989 23.0027 19.6989 23.0027 19.6989C23.6465 18.9401 23.3322 18.097 23.2019 17.8823C23.2019 17.8747 23.2019 17.8747 23.2096 17.8747C23.3016 17.9513 23.3782 18.028 23.4396 18.1123C23.6388 18.3652 23.7155 18.6412 23.7308 18.8865C23.7385 19.0168 23.7385 19.1317 23.7308 19.239C23.7308 19.2697 23.7232 19.2927 23.7232 19.3157C23.7232 19.3234 23.7232 19.3234 23.7308 19.3234C23.9071 18.9784 23.9914 18.4649 23.7308 17.959C23.6618 17.821 23.5622 17.6907 23.4396 17.5604C23.4012 17.5221 23.3629 17.4838 23.3246 17.4454C23.3169 17.4454 23.3246 17.4378 23.3322 17.4378C23.3706 17.4454 23.4089 17.4608 23.4472 17.4684C23.5545 17.5068 23.6542 17.5604 23.7385 17.6217C23.9378 17.7674 24.0681 17.9667 24.1447 18.1736C24.2137 18.3422 24.2444 18.5185 24.2367 18.6795C24.2367 18.6872 24.2444 18.6872 24.2444 18.6795C24.367 18.2349 24.2904 17.8977 24.1371 17.6524C24.0298 17.4761 23.8765 17.3458 23.7308 17.2615C23.6312 17.2002 23.5239 17.1542 23.4396 17.1312C23.3859 17.1158 23.3399 17.1082 23.3016 17.1005C23.2939 17.1005 23.2939 17.0928 23.3016 17.0928C23.3476 17.0852 23.3936 17.0852 23.4396 17.0852C23.5469 17.0852 23.6465 17.0928 23.7308 17.1082C23.9071 17.1388 24.0374 17.2002 24.1371 17.2691C24.298 17.3764 24.3823 17.5068 24.413 17.5604C24.413 17.5681 24.4207 17.5604 24.4207 17.5604C24.3977 17.3228 24.2904 17.1388 24.1371 17.0085C24.0221 16.9089 23.8765 16.8322 23.7308 16.7939C23.6312 16.7709 23.5315 16.7556 23.4396 16.7556C23.3093 16.7556 23.1789 16.7786 23.0716 16.8246C23.064 16.8246 23.064 16.8246 23.064 16.8169C23.1559 16.6789 23.2939 16.5946 23.4396 16.5563C23.5392 16.5256 23.6388 16.518 23.7308 16.518C23.8228 16.5256 23.9071 16.541 23.9684 16.5716C23.9761 16.5716 23.9761 16.564 23.9761 16.564C23.8995 16.4796 23.8228 16.4107 23.7308 16.3647C23.6388 16.311 23.5392 16.2804 23.4396 16.2727C23.1789 16.242 22.9107 16.357 22.7344 16.6253H22.7267C22.6961 16.564 22.6577 16.495 22.6271 16.426C22.5581 16.265 22.4968 16.0734 22.4661 15.8971C22.4661 15.8894 22.4584 15.8894 22.4584 15.8971C22.4278 16.0811 22.3665 16.265 22.2975 16.4337C22.2668 16.5026 22.2362 16.5716 22.1978 16.6329H22.1902C21.8836 16.1654 21.301 16.173 20.9484 16.5793C20.9484 16.587 20.9484 16.587 20.9561 16.587C21.1937 16.472 21.6383 16.5103 21.8606 16.8246C21.8606 16.8322 21.8606 16.8322 21.8529 16.8322C21.508 16.6866 20.9791 16.7786 20.6955 17.1158C20.5958 17.2385 20.5269 17.3918 20.5039 17.5681C20.5039 17.5757 20.5115 17.5757 20.5115 17.5681C20.5345 17.5297 20.5882 17.4378 20.6878 17.3458C20.8565 17.2002 21.1401 17.0545 21.623 17.0928C21.6306 17.0928 21.6306 17.1005 21.623 17.1005C21.3777 17.1312 20.8718 17.3458 20.6878 17.8517C20.6035 18.074 20.5882 18.3499 20.6802 18.6872C20.6802 18.6948 20.6878 18.6948 20.6878 18.6872C20.6878 18.6795 20.6878 18.6718 20.6878 18.6642C20.6955 18.2119 20.9561 17.5987 21.5923 17.4454C21.6 17.4454 21.6 17.4531 21.6 17.4531C20.8794 18.0893 20.9484 18.8635 21.186 19.3234C21.186 19.331 21.1937 19.3234 21.1937 19.3234C21.1631 18.9784 21.1401 18.3576 21.7149 17.8823C21.7226 17.8823 21.7226 17.8823 21.7226 17.89C21.5923 18.1046 21.278 18.9478 21.9219 19.7066C21.9219 19.7143 21.9372 19.7066 21.9296 19.6989C21.8222 19.4383 21.6766 18.5262 22.1902 18.2043H22.1978C22.2515 18.8711 22.3741 20.2278 22.1288 21.6918C21.7149 21.3699 21.2704 21.094 20.8411 20.9253C20.7875 20.9023 20.7338 20.887 20.6802 20.8717C20.2279 20.7261 19.8217 20.6801 19.4614 20.6954C18.8865 20.7184 18.442 20.8947 18.2044 21.0097C18.1584 21.0327 18.1124 21.0556 18.0817 21.0786C18.0664 21.0863 18.0817 21.1016 18.0894 21.1016C18.1277 21.0863 18.166 21.0786 18.2044 21.071C18.6489 20.9483 19.0628 20.91 19.4614 20.9483C19.8907 20.9867 20.2969 21.1016 20.6802 21.2779C21.209 21.5155 21.6919 21.8605 22.1288 22.2207C21.5156 22.7573 20.9944 23.2785 20.6802 23.4625C20.6648 23.4701 20.6495 23.4778 20.6342 23.4854C20.5575 23.3858 20.4272 23.3245 20.2816 23.3551C20.1589 23.3858 20.0516 23.4854 20.0286 23.6081C20.0056 23.7154 20.0286 23.838 20.0976 23.8994C20.2662 24.068 20.4579 24.0757 20.6802 23.9837C21.1094 23.8074 21.6383 23.2402 22.2821 22.65C22.3358 22.604 22.3894 22.5503 22.4508 22.5043C22.5044 22.5503 22.5581 22.604 22.6117 22.65C22.903 22.9182 23.1789 23.1788 23.4242 23.4088C23.5239 23.5008 23.6235 23.5851 23.7155 23.6617C23.8611 23.7767 23.9991 23.8764 24.1217 23.9453C24.367 24.0757 24.5893 24.091 24.7733 23.93C24.7809 23.9224 24.7963 23.9147 24.8039 23.907C24.8499 23.861 24.8959 23.7231 24.8729 23.6158C24.8576 23.5544 24.8269 23.4931 24.7733 23.4471C24.7273 23.4088 24.6736 23.3781 24.6123 23.3628C24.4667 23.3321 24.3364 23.3935 24.2597 23.4931C24.2137 23.4701 24.1677 23.4395 24.1217 23.4088C24.0068 23.3321 23.8688 23.2172 23.7155 23.0792C23.6235 22.9949 23.5239 22.9106 23.4242 22.8186C23.2249 22.6346 23.0027 22.4353 22.7727 22.2284C22.9797 22.0521 23.2019 21.8911 23.4242 21.7302C23.5162 21.6688 23.6158 21.5999 23.7155 21.5462C23.8458 21.4696 23.9838 21.3929 24.1217 21.3239C24.3287 21.2243 24.5433 21.14 24.7733 21.0786C25.2408 20.9483 25.7391 20.9023 26.2756 20.9867C26.4519 21.0173 26.6282 21.0556 26.8122 21.1093C26.8505 21.1016 26.8581 21.0863 26.8428 21.0786Z" fill="#264478"/>
<path d="M3.6025 36.0179H3.19626V36.4242H3.6025V36.0179Z" fill="#0175CA"/>
<path d="M30.4377 35.5502V32.8828H30.0468V35.1593H28.5598V32.8828H28.1689V35.1593H26.5976V32.8828H25.9767C25.7314 32.8828 25.5091 32.9135 25.3022 32.9825C25.1029 33.0514 24.9343 33.1434 24.7886 33.2661C24.6507 33.3887 24.5357 33.5267 24.459 33.6953C24.3824 33.8563 24.3441 34.0402 24.3441 34.2242C24.3441 34.4541 24.39 34.6534 24.4744 34.8221C24.5663 34.9907 24.6813 35.1287 24.8269 35.236C24.9726 35.3433 25.1489 35.4276 25.3482 35.4736C25.5475 35.5272 25.7544 35.5502 25.969 35.5502H30.4377ZM25.3942 35.0903C25.2639 35.0443 25.1489 34.983 25.0569 34.9064C24.9573 34.8297 24.8806 34.7301 24.8269 34.6074C24.7733 34.4925 24.7426 34.3622 24.7426 34.2089C24.7426 34.0709 24.7733 33.9406 24.8346 33.8256C24.8959 33.7106 24.9726 33.611 25.0799 33.5267C25.1795 33.4424 25.2945 33.381 25.4248 33.335C25.5551 33.2891 25.6854 33.2661 25.8157 33.2661H26.2066V35.1517H25.8157C25.6624 35.1517 25.5245 35.1363 25.3942 35.0903Z" fill="#0175CA"/>
<path d="M22.3971 32.0166H22.0062V35.5502H22.3971V32.0166Z" fill="#0175CA"/>
<path d="M26.5976 32.0166H26.1913V32.4228H26.5976V32.0166Z" fill="#0175CA"/>
<path d="M30.4453 36.0101H30.039V36.4164H30.4453V36.0101Z" fill="#0175CA"/>
<path d="M4.29241 36.0101H3.88617V36.4164H4.29241V36.0101Z" fill="#0175CA"/>
<path d="M20.4655 35.1516H19.8216C19.5917 35.1516 19.4077 35.121 19.2774 35.052C19.1471 34.983 19.0398 34.891 18.9632 34.753C18.9862 34.6534 19.0015 34.5308 19.0015 34.3851V33.1127H18.6106V34.4464C18.6106 34.6764 18.5492 34.8527 18.4266 34.9907C18.304 35.1286 18.12 35.1976 17.8747 35.1976C17.7598 35.1976 17.6524 35.1823 17.5605 35.144C17.4685 35.1056 17.3842 35.0597 17.3152 34.9983C17.2462 34.937 17.1925 34.8604 17.1542 34.776C17.1159 34.6917 17.0929 34.5997 17.0929 34.5078V33.1127H16.702V34.4771C16.702 34.5998 16.6867 34.6994 16.6483 34.7837C16.61 34.868 16.564 34.937 16.5027 34.9907C16.4414 35.0443 16.3724 35.0826 16.2881 35.1056C16.2114 35.1286 16.1271 35.144 16.0351 35.144H15.2686V33.1127H14.8777V35.144H12.8082L13.498 33.496C13.3907 33.404 13.2834 33.3197 13.1608 33.2354C13.0458 33.1587 12.9231 33.0821 12.7928 33.0208C12.6702 32.9594 12.5399 32.9135 12.4096 32.8751C12.2793 32.8445 12.1566 32.8215 12.0263 32.8215C11.896 32.8215 11.7734 32.8368 11.6431 32.8751C11.5128 32.9135 11.3901 32.9594 11.2598 33.0131C11.1372 33.0744 11.0146 33.1434 10.8919 33.2277C10.7769 33.312 10.6696 33.3963 10.5623 33.4883L11.2598 35.1363H9.89547V32.8598H9.26695C9.02167 32.8598 8.79938 32.8905 8.60009 32.9594C8.4008 33.0284 8.22451 33.1204 8.08654 33.243C7.9409 33.3657 7.83359 33.5037 7.75694 33.6723C7.68029 33.8409 7.64197 34.0172 7.64197 34.2088C7.64197 34.4388 7.68796 34.6381 7.77227 34.8067C7.85659 34.9753 7.97923 35.1056 8.12486 35.2129C8.2705 35.3203 8.44679 35.3969 8.64608 35.4506C8.84537 35.5042 9.05233 35.5272 9.27461 35.5272H9.51223V35.6422C9.51223 35.8491 9.45091 35.9948 9.33593 36.0868C9.22096 36.1787 9.05233 36.2171 8.83771 36.2171C8.71507 36.2171 8.60776 36.2094 8.50811 36.1864C8.40847 36.1634 8.30116 36.1251 8.17852 36.0714L8.05588 36.447C8.20918 36.5007 8.33948 36.5467 8.45446 36.5697C8.56943 36.6003 8.69207 36.608 8.80705 36.608C9.1903 36.608 9.4739 36.516 9.64253 36.332C9.81882 36.1481 9.90314 35.9028 9.90314 35.5962V35.5195H16.0275C16.2191 35.5195 16.3877 35.4812 16.541 35.3969C16.6867 35.3126 16.8093 35.2053 16.9013 35.0673C16.9933 35.2283 17.1236 35.3509 17.2922 35.4352C17.4532 35.5272 17.6524 35.5655 17.8824 35.5655C18.12 35.5655 18.3193 35.5272 18.4879 35.4429C18.6566 35.3586 18.7792 35.2359 18.8712 35.0673C18.9018 35.121 18.9478 35.1746 18.9938 35.2359C19.0398 35.2896 19.1011 35.3356 19.1778 35.3816C19.2544 35.4276 19.3464 35.4582 19.4537 35.4812C19.538 35.5042 19.63 35.5119 19.7373 35.5195V35.5272H20.8564V31.9937H20.4655V35.1516ZM9.4969 35.1516H9.09832C8.95268 35.1516 8.81471 35.1286 8.68441 35.0903C8.5541 35.052 8.43913 34.9907 8.33948 34.914C8.23984 34.8374 8.16319 34.7377 8.10953 34.6227C8.05588 34.5078 8.02522 34.3775 8.02522 34.2318C8.02522 34.0939 8.05588 33.9636 8.1172 33.8409C8.17852 33.7259 8.25517 33.6186 8.35481 33.542C8.45446 33.4577 8.56943 33.3963 8.69974 33.3504C8.83004 33.3044 8.96035 33.2814 9.09832 33.2814H9.4969V35.1516ZM11.6738 35.1516L11.0606 33.6416C11.2139 33.5113 11.3672 33.4193 11.5281 33.358C11.6891 33.2967 11.85 33.266 12.0263 33.266C12.2026 33.266 12.3789 33.3044 12.5552 33.3734C12.7315 33.4423 12.8772 33.5343 12.9998 33.634L12.3866 35.144H11.6738V35.1516Z" fill="#0175CA"/>
<path d="M2.24587 32.0166H1.83963V32.4228H2.24587V32.0166Z" fill="#0175CA"/>
<path d="M42.1344 32.0166H41.7281V32.4228H42.1344V32.0166Z" fill="#0175CA"/>
<path d="M38.6239 32.0166H38.233V35.5502H38.6239V32.0166Z" fill="#0175CA"/>
<path d="M25.9076 32.0166H25.5014V32.4228H25.9076V32.0166Z" fill="#0175CA"/>
<path d="M7.00585 33.9943C7.00585 33.841 6.98286 33.6954 6.94453 33.5574C6.90621 33.4194 6.83722 33.3045 6.75291 33.2125C6.6456 33.0975 6.53062 33.0132 6.40032 32.9519C6.27001 32.8982 6.10905 32.8676 5.92509 32.8676H5.63382V33.2585H5.97874C6.07072 33.2585 6.1627 33.2815 6.24702 33.3198C6.33133 33.3581 6.40032 33.4118 6.46164 33.4808C6.51529 33.5497 6.55362 33.6264 6.57661 33.7107C6.59961 33.795 6.60727 33.8947 6.60727 34.0096V35.1517H4.76001V35.5426H7.00585V33.9943Z" fill="#0175CA"/>
<path d="M59.4803 32.0166H59.0894V35.5502H59.4803V32.0166Z" fill="#0175CA"/>
<path d="M42.8243 32.0166H42.4181V32.4228H42.8243V32.0166Z" fill="#0175CA"/>
<path d="M57.9473 32.0168H57.5564V35.1518H56.192C56.2764 34.9678 56.3147 34.7762 56.3147 34.5692C56.3147 34.3623 56.2764 34.1783 56.2074 34.002C56.1307 33.8257 56.0311 33.6724 55.9008 33.5498C55.7705 33.4195 55.6172 33.3198 55.4485 33.2432C55.2722 33.1665 55.0806 33.1359 54.8813 33.1359C54.682 33.1359 54.4981 33.1742 54.3295 33.2509C54.1608 33.3275 54.0075 33.4272 53.8849 33.5575C53.7622 33.6878 53.6626 33.8411 53.5859 34.0097C53.517 34.186 53.4786 34.3699 53.4786 34.5692C53.4786 34.6765 53.4863 34.7762 53.5093 34.8682C53.5323 34.9678 53.5629 35.0598 53.5936 35.1441H52.3749C52.4592 34.9602 52.4975 34.7685 52.4975 34.5616C52.4975 34.3546 52.4592 34.1707 52.3902 33.9944C52.3136 33.8181 52.2139 33.6648 52.0836 33.5421C51.9533 33.4118 51.8 33.3122 51.6314 33.2355C51.4551 33.1589 51.2635 33.1282 51.0642 33.1282C50.8649 33.1282 50.6809 33.1665 50.5123 33.2432C50.3437 33.3198 50.1904 33.4195 50.0677 33.5498C49.9374 33.6801 49.8454 33.8334 49.7688 34.002C49.6998 34.1783 49.6615 34.3623 49.6615 34.5616C49.6615 34.6689 49.6691 34.7685 49.6921 34.8605C49.7151 34.9602 49.7458 35.0521 49.7764 35.1364H48.5271V32.0015H48.1361V35.1364H46.8791V34.5309C46.8791 34.3776 46.8561 34.2396 46.8178 34.1017C46.7794 33.9637 46.7181 33.8487 46.6338 33.7567C46.5342 33.6418 46.4192 33.5575 46.2889 33.5038C46.1586 33.4502 45.9976 33.4195 45.7983 33.4195H44.0507L44.7942 32.0015H44.365L43.6061 33.4118C43.6215 33.4961 43.6368 33.5728 43.6674 33.6341C43.6981 33.6954 43.7364 33.7568 43.7824 33.8104H45.7906C45.9133 33.8104 46.0206 33.8257 46.1126 33.8641C46.2046 33.9024 46.2735 33.956 46.3349 34.0174C46.3885 34.0863 46.4268 34.1553 46.4498 34.2473C46.4728 34.3316 46.4805 34.4313 46.4805 34.5309V35.1364H42.832V32.8599H42.2111C41.9658 32.8599 41.7435 32.8906 41.5442 32.9596C41.345 33.0286 41.1763 33.1206 41.0307 33.2432C40.8927 33.3658 40.7777 33.5038 40.7011 33.6724C40.6244 33.8334 40.5861 34.0174 40.5861 34.2013C40.5861 34.4313 40.6321 34.6306 40.7164 34.7992C40.8084 34.9678 40.9234 35.1058 41.069 35.2131C41.2146 35.3204 41.3909 35.4047 41.5902 35.4507C41.7895 35.5044 41.9965 35.5274 42.2111 35.5274H50.0371C50.1674 35.6653 50.3207 35.7726 50.497 35.857C50.6732 35.9336 50.8649 35.9796 51.0718 35.9796C51.2788 35.9796 51.4781 35.9413 51.662 35.8646C51.846 35.788 51.9993 35.673 52.1296 35.535H53.8619C53.9922 35.673 54.1455 35.7803 54.3218 35.8646C54.4981 35.9413 54.6897 35.9873 54.8967 35.9873C55.1036 35.9873 55.3029 35.9489 55.4869 35.8723C55.6708 35.7956 55.8241 35.6807 55.9544 35.5427H57.9627V32.0168H57.9473ZM42.4257 35.1518H42.0348C41.8892 35.1518 41.7512 35.1288 41.6209 35.0905C41.4906 35.0445 41.3756 34.9831 41.2836 34.9065C41.184 34.8298 41.1073 34.7302 41.0537 34.6076C41 34.4926 40.9694 34.3623 40.9694 34.209C40.9694 34.071 41 33.9407 41.0613 33.8257C41.1227 33.7108 41.1993 33.6111 41.3066 33.5268C41.4063 33.4425 41.5212 33.3812 41.6516 33.3352C41.7819 33.2892 41.9122 33.2662 42.0425 33.2662H42.4334V35.1518H42.4257ZM52.0146 34.9755C51.961 35.0981 51.8843 35.2131 51.7923 35.3051C51.7004 35.3971 51.5854 35.466 51.4627 35.5197C51.3324 35.5734 51.2021 35.5963 51.0488 35.5963C50.9032 35.5963 50.7729 35.5657 50.6503 35.512C50.5276 35.4584 50.4203 35.3817 50.3283 35.2897C50.2363 35.1978 50.1674 35.0905 50.1137 34.9602C50.06 34.8375 50.0371 34.6995 50.0371 34.5616C50.0371 34.4236 50.06 34.2856 50.1137 34.163C50.1674 34.0404 50.2363 33.9254 50.3207 33.8334C50.4126 33.7414 50.5123 33.6648 50.6349 33.6111C50.7576 33.5575 50.8955 33.5268 51.0412 33.5268C51.1945 33.5268 51.3324 33.5498 51.4551 33.6035C51.5854 33.6571 51.6927 33.7261 51.7847 33.8181C51.8767 33.91 51.9533 34.0174 52.007 34.1477C52.0606 34.2703 52.0836 34.4159 52.0836 34.5616C52.0989 34.7149 52.0683 34.8528 52.0146 34.9755ZM55.8395 34.9755C55.7858 35.0981 55.7091 35.2131 55.6172 35.3051C55.5252 35.3971 55.4102 35.466 55.2876 35.5197C55.1649 35.5734 55.027 35.5963 54.8737 35.5963C54.728 35.5963 54.5977 35.5657 54.4751 35.512C54.3524 35.4584 54.2451 35.3817 54.1532 35.2897C54.0612 35.1978 53.9922 35.0905 53.9385 34.9602C53.8849 34.8375 53.8619 34.6995 53.8619 34.5616C53.8619 34.4236 53.8849 34.2856 53.9385 34.163C53.9922 34.0404 54.0612 33.9254 54.1455 33.8334C54.2375 33.7414 54.3371 33.6648 54.4598 33.6111C54.5824 33.5575 54.7204 33.5268 54.866 33.5268C55.0193 33.5268 55.1573 33.5498 55.2799 33.6035C55.4102 33.6571 55.5175 33.7261 55.6095 33.8181C55.7015 33.91 55.7781 34.0174 55.8318 34.1477C55.8854 34.2703 55.9084 34.4159 55.9084 34.5616C55.9238 34.7149 55.8931 34.8528 55.8395 34.9755Z" fill="#0175CA"/>
<path d="M1.00414 35.466C1.20343 35.5197 1.41038 35.5427 1.625 35.5427H4.20811V32.8752H3.81719V35.1517H2.25353V32.8752H1.63267C1.38739 32.8752 1.1651 32.9059 0.965815 32.9749C0.766525 33.0439 0.597895 33.1359 0.45226 33.2585C0.31429 33.3811 0.199315 33.5191 0.122665 33.6877C0.0460154 33.8487 0.00769043 34.0327 0.00769043 34.2166C0.00769043 34.4466 0.0536801 34.6459 0.137995 34.8145C0.229975 34.9831 0.34495 35.1211 0.490585 35.2284C0.63622 35.3357 0.812515 35.42 1.00414 35.466ZM0.398605 34.2166C0.398605 34.0786 0.429265 33.9483 0.490585 33.8334C0.551905 33.7184 0.628555 33.6187 0.7282 33.5344C0.827845 33.4501 0.94282 33.3888 1.07312 33.3428C1.20343 33.2968 1.33373 33.2738 1.46404 33.2738H1.85495V35.1594H1.46404C1.3184 35.1594 1.18043 35.1364 1.05013 35.0981C0.919824 35.0521 0.804849 34.9908 0.71287 34.9141C0.613225 34.8375 0.536575 34.7378 0.48292 34.6152C0.4216 34.4926 0.398605 34.3623 0.398605 34.2166Z" fill="#0175CA"/>
<path d="M29.0043 36.0101H28.5981V36.4164H29.0043V36.0101Z" fill="#0175CA"/>
<path d="M28.3145 36.0101H27.9082V36.4164H28.3145V36.0101Z" fill="#0175CA"/>
<path d="M31.9783 36.0484C32.0013 35.9258 32.0167 35.7878 32.0167 35.6345V35.5502H37.0909V32.0166H36.7V35.1516H35.0213L35.7112 33.5036C35.6039 33.4116 35.4966 33.3273 35.3739 33.243C35.259 33.1664 35.1363 33.0897 35.006 33.0284C34.8834 32.9671 34.7531 32.9211 34.6228 32.8827C34.4925 32.8521 34.3698 32.8291 34.2472 32.8291C34.1169 32.8291 33.9942 32.8444 33.8639 32.8827C33.7336 32.9211 33.611 32.9671 33.4807 33.0207C33.3504 33.082 33.2354 33.151 33.1128 33.2353C32.9978 33.3197 32.8905 33.404 32.7832 33.4959L33.4807 35.1439H32.009V32.8674H31.6181V35.6191C31.6181 35.7341 31.6104 35.8261 31.6028 35.9028C31.5874 35.9794 31.5721 36.0407 31.5414 36.0867C31.5108 36.1327 31.4725 36.171 31.4265 36.1864C31.3805 36.2094 31.3192 36.217 31.2425 36.217C31.2042 36.217 31.1735 36.217 31.1505 36.2094C31.1275 36.2094 31.0892 36.194 31.0432 36.1864L30.9436 36.5619C31.0509 36.5926 31.1582 36.6079 31.2655 36.6079C31.4035 36.6079 31.5261 36.5849 31.6258 36.5389C31.7254 36.493 31.802 36.424 31.8634 36.3397C31.9094 36.2783 31.9477 36.171 31.9783 36.0484ZM33.2814 33.6416C33.4347 33.5113 33.588 33.4193 33.749 33.358C33.9099 33.2967 34.0786 33.266 34.2472 33.266C34.4235 33.266 34.5998 33.3043 34.7761 33.3733C34.9524 33.4423 35.098 33.5343 35.2206 33.6339L34.6074 35.1439H33.9023L33.2814 33.6416Z" fill="#0175CA"/>
<path d="M1.55596 32.0166H1.14972V32.4228H1.55596V32.0166Z" fill="#0175CA"/>
<path d="M2.82846 38.1333H2.22292L0.881551 39.5437V38.1333H0.390991V40.9464H0.881551V40.1262L1.31846 39.6816L2.28424 40.9464H2.88211L1.66338 39.3444L2.82846 38.1333Z" fill="#0175CA"/>
<path d="M3.83248 38.1333H3.33426V40.9464H3.83248V38.1333Z" fill="#0175CA"/>
<path d="M6.56127 40.0802L5.05127 38.1333H4.59137V40.9464H5.08193V38.9458L6.63026 40.9464H7.04417V38.1333H6.56127V40.0802Z" fill="#0175CA"/>
<path d="M9.0983 39.8044H9.81881V40.3332C9.64252 40.4635 9.4049 40.5479 9.13663 40.5479C8.56175 40.5479 8.1785 40.1186 8.1785 39.5438V39.5361C8.1785 38.9995 8.56942 38.5473 9.09064 38.5473C9.45089 38.5473 9.66551 38.6623 9.88013 38.8462L10.1944 38.4707C9.90313 38.2254 9.60419 38.0874 9.11363 38.0874C8.26282 38.0874 7.66495 38.7543 7.66495 39.5438V39.5514C7.66495 40.3716 8.24749 41.0001 9.12896 41.0001C9.62719 41.0001 10.0258 40.8008 10.3017 40.5632V39.3828H9.10597V39.8044H9.0983Z" fill="#0175CA"/>
<path d="M12.0264 38.1333H10.9763V40.9464H12.0264C12.9078 40.9464 13.521 40.3332 13.521 39.5437V39.536C13.521 38.7388 12.9155 38.1333 12.0264 38.1333ZM13.0075 39.5437C13.0075 40.0955 12.6242 40.4941 12.0264 40.4941H11.4745V38.5855H12.0264C12.6166 38.5855 13.0075 38.9918 13.0075 39.5437Z" fill="#0175CA"/>
<path d="M15.468 38.0874C14.6018 38.0874 13.9886 38.7466 13.9886 39.5438V39.5514C13.9886 40.3409 14.5942 41.0001 15.4603 41.0001C16.3264 41.0001 16.9396 40.3409 16.9396 39.5438V39.5361C16.932 38.7389 16.3264 38.0874 15.468 38.0874ZM16.4108 39.5438C16.4108 40.088 16.0198 40.5325 15.4603 40.5325C14.9008 40.5325 14.5022 40.0803 14.5022 39.5361V39.5284C14.5022 38.9842 14.8931 38.5396 15.4526 38.5396C16.0122 38.5396 16.4108 38.9919 16.4108 39.5361V39.5438Z" fill="#0175CA"/>
<path d="M18.9325 39.4593L18.074 38.1333H17.5451V40.9464H18.0357V38.9381L18.9171 40.2565H18.9325L19.8216 38.9305V40.9464H20.3122V38.1333H19.7909L18.9325 39.4593Z" fill="#0175CA"/>
<path d="M23.6005 38.0874C22.7344 38.0874 22.1212 38.7466 22.1212 39.5438V39.5514C22.1212 40.3409 22.7267 41.0001 23.5929 41.0001C24.459 41.0001 25.0722 40.3409 25.0722 39.5438V39.5361C25.0722 38.7389 24.4667 38.0874 23.6005 38.0874ZM24.551 39.5438C24.551 40.088 24.1601 40.5325 23.6005 40.5325C23.041 40.5325 22.6424 40.0803 22.6424 39.5361V39.5284C22.6424 38.9842 23.0333 38.5396 23.5929 38.5396C24.1524 38.5396 24.551 38.9919 24.551 39.5361V39.5438Z" fill="#0175CA"/>
<path d="M25.6855 40.9464H26.176V39.7966H27.6017V39.352H26.176V38.5855H27.778V38.1333H25.6855V40.9464Z" fill="#0175CA"/>
<path d="M30.614 39.3138C30.0775 39.1835 29.9471 39.0915 29.9471 38.8692V38.8616C29.9471 38.6776 30.1158 38.5243 30.407 38.5243C30.6677 38.5243 30.9206 38.624 31.1735 38.8156L31.4418 38.44C31.1582 38.21 30.8286 38.0874 30.4224 38.0874C29.8628 38.0874 29.4566 38.417 29.4566 38.8999V38.9076C29.4566 39.4288 29.7938 39.6051 30.3917 39.743C30.9129 39.8657 31.0279 39.973 31.0279 40.1723V40.1799C31.0279 40.3946 30.8363 40.5325 30.5297 40.5325C30.1771 40.5325 29.9088 40.4022 29.6405 40.1646L29.3416 40.5172C29.6789 40.8161 30.0851 40.9694 30.5144 40.9694C31.1046 40.9694 31.5185 40.6552 31.5185 40.1263V40.1186C31.5261 39.6741 31.2119 39.4594 30.614 39.3138Z" fill="#0175CA"/>
<path d="M33.0361 38.1104L31.7944 40.9387H32.3003L32.5915 40.2565H33.9252L34.2088 40.9387H34.7301L33.4883 38.1104H33.0361ZM32.7755 39.8273L33.2584 38.7006L33.7489 39.8273H32.7755Z" fill="#0175CA"/>
<path d="M36.9452 39.7506C36.9452 40.2718 36.677 40.5324 36.2401 40.5324C35.7955 40.5324 35.5272 40.2488 35.5272 39.7276V38.1256H35.029V39.7429C35.029 40.5554 35.4966 40.977 36.2247 40.977C36.9606 40.977 37.4358 40.5554 37.4358 39.7199V38.1256H36.9376V39.7506H36.9452Z" fill="#0175CA"/>
<path d="M39.2141 38.1333H38.164V40.9464H39.2141C40.0956 40.9464 40.7088 40.3332 40.7088 39.5437V39.536C40.7088 38.7388 40.0956 38.1333 39.2141 38.1333ZM40.1876 39.5437C40.1876 40.0955 39.8043 40.4941 39.2064 40.4941H38.6546V38.5855H39.2064C39.7966 38.5855 40.1876 38.9918 40.1876 39.5437Z" fill="#0175CA"/>
<path d="M41.8356 38.1333H41.3373V40.9464H41.8356V38.1333Z" fill="#0175CA"/>
<path d="M44.7865 38.1104L43.5448 40.9387H44.0507L44.3419 40.2565H45.6756L45.9592 40.9387H46.4805L45.2387 38.1104H44.7865ZM44.5259 39.8273L45.0088 38.7006L45.4993 39.8273H44.5259Z" fill="#0175CA"/>
<path d="M49.2552 39.0301V39.0224C49.2552 38.7772 49.1709 38.5702 49.0253 38.4169C48.8413 38.2406 48.5654 38.1333 48.2128 38.1333H46.9557V40.9464H47.4539V39.9652H48.0671H48.0748L48.7647 40.9464H49.3472L48.5884 39.8809C48.9793 39.7659 49.2552 39.49 49.2552 39.0301ZM47.4463 39.5283V38.5855H48.1668C48.5347 38.5855 48.7493 38.7542 48.7493 39.0531V39.0608C48.7493 39.3444 48.527 39.5283 48.1668 39.5283H47.4463Z" fill="#0175CA"/>
<path d="M50.9492 38.1104L49.7075 40.9387H50.2134L50.5047 40.2565H51.8384L52.122 40.9387H52.6432L51.4015 38.1104H50.9492ZM50.6886 39.8273L51.1715 38.7006L51.6621 39.8273H50.6886Z" fill="#0175CA"/>
<path d="M54.8967 39.4823C55.1036 39.375 55.2953 39.191 55.2953 38.8538V38.8461C55.2953 38.6545 55.234 38.5012 55.1036 38.3786C54.9427 38.2176 54.6897 38.1256 54.3678 38.1256H53.1031V40.9387H54.4061C55.0347 40.9387 55.4486 40.6704 55.4486 40.1645V40.1568C55.4562 39.7812 55.2263 39.5973 54.8967 39.4823ZM53.6013 38.5702H54.3142C54.6284 38.5702 54.8124 38.7081 54.8124 38.9304V38.9381C54.8124 39.1987 54.5978 39.3213 54.2835 39.3213H53.609V38.5702H53.6013ZM54.9657 40.1185C54.9657 40.3715 54.7587 40.5018 54.4215 40.5018H53.6013V39.7353H54.3831C54.7741 39.7353 54.9657 39.8732 54.9657 40.1108V40.1185Z" fill="#0175CA"/>
<path d="M56.5677 38.1333H56.0695V40.9464H56.5677V38.1333Z" fill="#0175CA"/>
<path d="M58.7368 38.1104H58.2769L57.0352 40.9464H57.5411L57.8323 40.2642H59.1661L59.4497 40.9464H59.9709L58.7368 38.1104ZM58.0163 39.8273L58.4992 38.7006L58.9898 39.8273H58.0163Z" fill="#0175CA"/>
</svg>
